<svg xmlns="http://www.w3.org/2000/svg" xmlns:xlink="http://www.w3.org/1999/xlink" width="272" height="81" viewBox="0 0 272 81">
    <defs>
        <path id="a" d="M.12.446h16.24v17.992H.12z"/>
        <path id="c" d="M27.31 12.723c0 7.005-6.046 12.685-13.506 12.685C6.345 25.408.3 19.728.3 12.723.3 5.717 6.345.038 13.804.038"/>
        <linearGradient id="d" x1="42.534%" x2="69.489%" y1="37.92%" y2="81.538%">
            <stop offset="0%" stop-color="#F3F3F3"/>
            <stop offset="100%" stop-color="#676767"/>
        </linearGradient>
        <path id="f" d="M24.962 12.822c0 6.824-5.561 12.356-12.42 12.356C5.68 25.178.118 19.646.118 12.822S5.681.465 12.541.465"/>
        <path id="h" d="M11.45 5.846c0 3.121-2.545 5.652-5.682 5.652-3.138 0-5.682-2.53-5.682-5.652C.086 2.724 2.63.193 5.768.193"/>
        <path id="j" d="M13.499.325L.482 6.001c0 .131.278.225.621.225l16.941.311c.343 0 .62-.095.62-.226L22.797.325c-.227-.018-.278-.018-.62-.018h-8.058c-.164 0-.278-.004-.37-.004-.1 0-.172.005-.25.022"/>
        <path id="l" d="M.438.623v1.55c0 .114.106.206.22.206l17.904.31c.113 0 .102-.109.102-.224L18.85.935a.21.21 0 0 0-.21-.208L.657.417C.544.416.438.51.438.623"/>
        <linearGradient id="m" x1="22.945%" x2="76.752%" y1="53.3%" y2="46.659%">
            <stop offset="0%" stop-color="#4E4E4E"/>
            <stop offset="100%" stop-color="#B4B4B4"/>
        </linearGradient>
        <path id="o" d="M.536 5.58c-.02.033.038.217-.317.28v1.787c0 .107.347.065.368.033L4.732.721l.02-.415L.537 5.58z"/>
        <path id="q" d="M0 .41h41.878v44.23H0z"/>
    </defs>
    <g fill="none" fill-rule="evenodd">
        <path fill="#FEFEFE" d="M71.147 8.332l-9.082 22.125h18.163L71.147 8.332zm18.855 45.781c-.847-2.45-2.155-5.665-3.848-9.646l-4.54-10.718H60.68l-4.386 10.64c-1.924 4.594-3.156 7.733-3.694 9.724h-4.926c1.77-3.292 3.617-7.426 5.387-11.636l17.7-41.8h1.232l17.778 41.8c1.847 4.21 3.848 8.497 5.541 11.636h-5.31zM106.314 54.113h-4.386c.153-2.144.23-7.043.23-11.1V15.146c0-4.594-.077-10.564-.23-14.698h1c1.847 2.526 3.001 3.904 5.618 7.042l30.784 37.972V15.376c0-4.364-.077-10.488-.23-13.704h4.386c-.154 3.369-.23 9.493-.23 13.704v28.861c0 3.216 0 6.354.23 10.794h-1c-1.771-2.45-2.771-3.674-5.234-6.66L106.16 9.94l-.153 33.149c0 3.98.153 8.88.307 11.024M181.81 51.433c5.926 0 10.928-1.301 14.468-4.287v4.9c-4.54 1.684-9.159 2.909-14.699 2.909-15.7 0-28.09-12.172-28.09-27.1 0-14.93 12.39-27.101 28.09-27.101 6.08 0 10.159 1.454 14.16 2.679v4.976c-3.77-2.986-8.542-4.057-13.93-4.057-13.39 0-24.165 10.487-24.165 23.502 0 13.015 10.775 23.58 24.165 23.58M208.744 4.964v19.139h6.772c5.233 0 9.312-.077 11.698-.23v3.828c-2.386-.153-6.465-.23-11.698-.23h-6.772v23.273h7.234c5.31 0 10.62-.076 12.929-.23v3.829c-2.308-.154-7.618-.23-12.929-.23h-11.62c.153-4.21.306-10.259.306-13.704V15.3c0-5.282-.153-11.33-.307-13.627h11.005c5.31 0 10.544-.077 12.93-.23V5.27c-2.386-.23-7.62-.306-12.93-.306h-6.618zM241.913 28.466h5.31c7.08 0 12.39-4.67 12.39-11.865 0-6.125-4.308-11.713-13.313-11.713h-4.387v23.578zm0 12.556c0 5.206 0 10.718.23 13.091h-4.54c.154-2.373.309-7.885.309-13.091V15.375c0-5.205-.155-11.406-.309-13.703h8.85c11.237 0 17.316 6.278 17.316 14.852 0 8.115-5.079 12.478-10.389 14.086 5.464 6.967 12.39 17.914 18.163 23.503h-5.773c-4.694-6.201-10.927-14.622-16.007-22.737-1 .153-1.924.23-2.924.23h-4.926v9.416z"/>
        <path fill="#E5E5E4" d="M8.645 75.15c0 1.735.052 3.777.103 4.568H6.465c.051-.791.102-2.833.102-4.568v-8.346c0-1.735-.05-3.802-.102-4.568h2.283c-.051.766-.103 2.833-.103 4.568v8.346zM34.89 75.634c.205 1.813.359 2.884.615 4.084h-2.437c0-.817-.077-1.76-.23-3.471l-.873-9.34-5.747 13.04h-.513l-5.67-13.015-1.128 9.111c-.18 1.506-.308 2.705-.334 3.675h-2.232c.18-.817.462-2.756.718-4.62l1.848-13.194h.538l6.645 14.573 6.721-14.573h.59l1.489 13.73zM48.664 65.656l-2.643 6.431h5.285l-2.642-6.431zm5.797 14.062c-.256-.74-.666-1.736-1.154-2.883l-1.283-3.038h-6.696l-1.257 2.986c-.564 1.353-.923 2.246-1.128 2.935h-2.36a43.108 43.108 0 0 0 1.846-3.879l6.055-13.934h.59l6.132 13.934c.641 1.43 1.334 2.832 1.924 3.88h-2.669zM74.112 79.157c-1.566.51-2.668.867-4.798.867-5.541 0-9.44-4.058-9.44-9.06 0-4.976 3.847-9.06 9.389-9.06 1.873 0 3.104.332 4.515.843v2.4c-1.257-1.047-2.693-1.405-4.438-1.405-4.285 0-7.337 3.216-7.337 7.223 0 4.032 3.13 7.247 7.311 7.247 1.155 0 2.206-.153 2.797-.51v-2.884c0-1.786-.052-2.45-.103-3.216h2.207c-.052.766-.103 1.48-.103 3.216v4.339zM82.345 75.15c0 1.735.051 3.777.102 4.568h-2.283c.052-.791.103-2.833.103-4.568v-8.346c0-1.735-.051-3.802-.103-4.568h2.283c-.05.766-.102 2.833-.102 4.568v8.346zM93.17 79.718h-2.18c.05-.715.102-2.348.102-3.7v-9.239c0-1.53-.051-3.547-.102-4.925h.487c.77.944 1.231 1.454 2.103 2.425l9.493 11.229v-8.704c0-1.454-.051-3.496-.077-4.568h2.155c-.051 1.124-.077 3.165-.077 4.568v9.52c0 1.072 0 2.22.077 3.7h-.462a52.188 52.188 0 0 0-1.898-2.271L93.12 66.32l-.052 9.723c0 1.327.052 2.96.103 3.675M127.033 79.157c-1.566.51-2.668.867-4.798.867-5.541 0-9.441-4.058-9.441-9.06 0-4.976 3.848-9.06 9.39-9.06 1.873 0 3.104.332 4.514.843v2.4c-1.256-1.047-2.693-1.405-4.437-1.405-4.285 0-7.338 3.216-7.338 7.223 0 4.032 3.13 7.247 7.312 7.247 1.155 0 2.206-.153 2.796-.51v-2.884c0-1.786-.051-2.45-.102-3.216h2.206c-.051.766-.102 1.48-.102 3.216v4.339zM151.196 65.656l-2.642 6.431h5.285l-2.643-6.431zm5.799 14.062c-.257-.74-.668-1.736-1.155-2.883l-1.283-3.038h-6.696l-1.257 2.986c-.564 1.353-.924 2.246-1.129 2.935h-2.36a43.108 43.108 0 0 0 1.847-3.879l6.055-13.934h.59l6.131 13.934c.642 1.43 1.334 2.832 1.924 3.88h-2.667zM167.767 70.939h1.668c2.155 0 3.72-1.43 3.72-3.548 0-1.811-1.308-3.496-3.977-3.496h-1.41v7.044zm0 4.364c0 1.735.026 3.624.103 4.415h-2.283c.077-.791.102-2.68.102-4.415v-8.499c0-1.735-.025-3.802-.102-4.568h3.669c3.899 0 6.028 2.145 6.028 5.105 0 2.73-1.693 4.16-3.463 4.721 1.873 2.297 4.053 5.742 6.08 7.656h-2.847c-1.437-1.837-3.567-4.747-5.054-7.299-.309.05-.565.05-.847.05h-1.386v2.834zM192.266 78.187c1.847 0 3.49-.434 4.644-1.43v2.4c-1.514.459-2.848.842-4.797.842-5.337 0-9.39-4.058-9.39-9.034 0-5.002 4.053-9.06 9.39-9.06 2.077 0 3.283.485 4.617.79v2.45c-1.206-.995-2.745-1.377-4.49-1.377-4.104 0-7.388 3.216-7.388 7.197 0 3.98 3.284 7.222 7.414 7.222M206.195 69.46h9.595v-2.655c0-1.455 0-3.497-.077-4.569h2.257a119.974 119.974 0 0 0-.102 4.569v9.238c0 1.327.05 2.96.102 3.675h-2.257c.05-.715.077-2.348.077-3.7v-4.85h-9.595v4.875c0 1.327.051 2.96.103 3.675h-2.258c.051-.715.077-2.348.077-3.7v-9.213c0-1.812-.026-3.88-.077-4.569h2.258c-.052.69-.103 2.757-.103 4.569v2.654zM228.718 75.15c0 1.735.051 3.777.103 4.568h-2.283c.05-.791.102-2.833.102-4.568v-8.346c0-1.735-.051-3.802-.102-4.568h2.283c-.052.766-.103 2.833-.103 4.568v8.346z"/>
        <g transform="translate(236.934 61.79)">
            <mask id="b" fill="#fff">
                <use xlink:href="#a"/>
            </mask>
            <path fill="#E5E5E4" d="M8.355 14.456l4.516-10.973c.436-1.123.897-2.221 1.154-3.037h2.335c-.564 1.02-1.232 2.5-1.822 3.853l-6.08 14.139h-.384L1.968 4.299C1.352 2.895.736 1.467.12.446h2.514c.231.816.668 1.914 1.13 3.037l4.591 10.973z" mask="url(#b)"/>
        </g>
        <path fill="#E5E5E4" d="M261.989 63.946v5.564h2.026c1.745 0 3.208-.026 4.003-.077v1.889c-.795-.051-2.258-.077-4.003-.077h-2.026v6.737h2.257c1.771 0 3.567-.025 4.336-.076v1.889c-.77-.051-2.565-.077-4.336-.077h-4.438c.052-1.404.103-3.42.103-4.568v-8.37c0-1.762-.051-3.778-.103-4.544h4.233c1.77 0 3.54-.05 4.336-.102v1.915c-.795-.077-2.565-.103-4.336-.103h-2.052z"/>
        <g transform="translate(15.518 15.448)">
            <mask id="e" fill="#fff">
                <use xlink:href="#c"/>
            </mask>
            <path fill="url(#d)" d="M27.31 12.723c0 7.005-6.046 12.685-13.506 12.685C6.345 25.408.3 19.728.3 12.723.3 5.717 6.345.038 13.804.038c7.46 0 13.507 5.68 13.507 12.685" mask="url(#e)"/>
        </g>
        <g transform="translate(15.017 15.448)">
            <mask id="g" fill="#fff">
                <use xlink:href="#f"/>
            </mask>
            <path d="M24.962 12.822c0 6.824-5.561 12.356-12.42 12.356C5.68 25.178.118 19.646.118 12.822S5.681.465 12.541.465s12.421 5.533 12.421 12.357" mask="url(#g)"/>
        </g>
        <path stroke="#F2F2F2" stroke-width="2.614" d="M39.98 28.27c0 6.824-5.562 12.356-12.422 12.356S15.136 35.094 15.136 28.27c0-6.825 5.562-12.357 12.422-12.357s12.421 5.532 12.421 12.357z"/>
        <g transform="translate(23.032 22.424)">
            <mask id="i" fill="#fff">
                <use xlink:href="#h"/>
            </mask>
            <path d="M11.45 5.846c0 3.121-2.545 5.652-5.682 5.652-3.138 0-5.682-2.53-5.682-5.652C.086 2.724 2.63.193 5.768.193c3.137 0 5.682 2.53 5.682 5.653" mask="url(#i)"/>
        </g>
        <path stroke="#000" stroke-width="2.55" d="M34.481 28.27c0 3.121-2.544 5.652-5.681 5.652-3.138 0-5.682-2.53-5.682-5.652 0-3.122 2.544-5.653 5.682-5.653 3.137 0 5.681 2.53 5.681 5.653z"/>
        <path stroke="#000" stroke-width="2.55" d="M34.481 28.27c0 3.121-2.544 5.652-5.681 5.652-3.138 0-5.682-2.53-5.682-5.652 0-3.122 2.544-5.653 5.682-5.653 3.137 0 5.681 2.53 5.681 5.653z"/>
        <path fill="#333" d="M27.002 39.836a.62.62 0 0 1-.636.604l-11.485-.262a.619.619 0 0 1-.606-.631l.028-1.236a.62.62 0 0 1 .635-.603l11.485.26a.619.619 0 0 1 .607.632l-.028 1.236z"/>
        <path fill="#666667" d="M29.83 35.161c0 .341.004.618-.086.618l-3.167 4.53c-.09 0-.31-.277-.31-.617v-1.236c0-.341.242-.618.332-.618l3.061-4.53c.09 0 .17.277.17.618v1.235z"/>
        <g transform="translate(11 31)">
            <mask id="k" fill="#fff">
                <use xlink:href="#j"/>
            </mask>
            <path d="M13.499.325L.482 6.001c0 .131.278.225.621.225l16.941.311c.343 0 .62-.095.62-.226L22.797.325c-.227-.018-.278-.018-.62-.018h-8.058c-.164 0-.278-.004-.37-.004-.1 0-.172.005-.25.022" mask="url(#k)"/>
        </g>
        <g transform="translate(11 36)">
            <mask id="n" fill="#fff">
                <use xlink:href="#l"/>
            </mask>
            <path fill="url(#m)" d="M.438.623v1.55c0 .114.106.206.22.206l17.904.31c.113 0 .102-.109.102-.224L18.85.935a.21.21 0 0 0-.21-.208L.657.417C.544.416.438.51.438.623" mask="url(#n)"/>
        </g>
        <g transform="translate(29 31)">
            <mask id="p" fill="#fff">
                <use xlink:href="#o"/>
            </mask>
            <path d="M.536 5.58c-.02.033.038.217-.317.28v1.787c0 .107.347.065.368.033L4.732.721l.02-.415L.537 5.58z" mask="url(#p)"/>
        </g>
        <g>
            <path fill="#FEFEFE" d="M22.052 5.59a23.622 23.622 0 0 1 5.815-.723c5.313 0 9.794 1.075 13.66 4.07V3.945c-3.866-1.23-7.892-2.689-13.889-2.689-2.703 0-5.265.38-7.722 1.074l2.136 3.259z"/>
            <g transform="translate(0 11)">
                <mask id="r" fill="#fff">
                    <use xlink:href="#q"/>
                </mask>
                <path fill="#FEFEFE" d="M27.776 41.107c-13.208 0-23.751-10.6-23.751-23.658 0-5.023 1.62-9.667 4.306-13.485L6.066.409A26.833 26.833 0 0 0 0 17.45C0 32.428 12.057 44.64 27.543 44.64c5.466 0 10.118-1.23 14.335-2.92v-4.915c-3.163 2.996-8.256 4.301-14.102 4.301" mask="url(#r)"/>
            </g>
            <path fill="#FEFEFE" d="M10.01 7.94c.378-.25.772-.52.935-.643l.264.409c-.177.101-.582.354-.96.604l-.382.253c.126.208.31.49.456.716l1.108 1.715c.243.375.534.814.661.975l-.486.321c-.1-.177-.38-.625-.623-1L9.874 9.576a17.691 17.691 0 0 0-.477-.702l-.377.25c-.37.245-.758.516-.92.64l-.264-.41c.176-.1.573-.355.945-.6l1.23-.815zM12.873 8.279l2.043-1.353-.372-.575c-.203-.315-.489-.757-.655-.978l.48-.319c.146.251.42.7.618 1.005l1.294 2.001c.185.287.425.634.536.781l-.48.319c-.09-.163-.313-.52-.502-.813l-.68-1.05-2.043 1.352.683 1.057c.185.287.425.634.537.78l-.482.319c-.088-.162-.311-.52-.501-.812l-1.29-1.996a23.848 23.848 0 0 0-.657-.979l.481-.318c.085.156.364.611.618 1.004l.372.575zM15.946 4.54l.779 1.204.432-.285c.371-.246.68-.458.84-.58l.265.408c-.176.101-.49.302-.863.548l-.431.286.943 1.46.481-.32c.377-.248.756-.507.913-.627l.264.41c-.17.096-.557.344-.934.594l-.945.626a41.642 41.642 0 0 0-.618-1.005L15.9 5.446c-.246-.382-.54-.81-.658-.97l.901-.596c.377-.25.748-.511.91-.634l.267.415c-.18.096-.56.34-.937.59l-.437.288z"/>
        </g>
    </g>
</svg>
