<svg xmlns="http://www.w3.org/2000/svg" xmlns:xlink="http://www.w3.org/1999/xlink" width="234" height="50" viewBox="0 0 234 50">
    <defs>
        <path id="a" d="M0 .377h233.944v.5H0z"/>
        <path id="c" d="M0 50h233.944V.375H0z"/>
    </defs>
    <g fill="none" fill-rule="evenodd">
        <g transform="translate(0 38)">
            <mask id="b" fill="#fff">
                <use xlink:href="#a"/>
            </mask>
            <path stroke="#FEFEFE" d="M233.944.627H0" mask="url(#b)"/>
        </g>
        <path fill="#FEFEFE" d="M1 1h8v2.017H3.393v4.16h5.271v2.017h-5.27V16H1z"/>
        <g>
            <path fill="#FEFEFE" d="M10.324 4.131h2.22v1.715h.041c.494-1.225 1.316-2 2.57-2 .247 0 .391.04.535.08v2.246a4.203 4.203 0 0 0-.925-.122c-1.008 0-2.22.448-2.22 2.49v6.573h-2.221V4.13zM22.147 8.397v-.592c0-1.388-.452-2.45-1.706-2.45-1.42 0-1.852 1.389-1.852 2.818v.224h3.558zm-3.558 1.51v.633c0 1.47.186 3.348 1.852 3.348 1.583 0 1.768-1.796 1.768-2.45h2.097c0 2.43-1.481 3.96-3.886 3.96-1.81 0-4.051-.53-4.051-5.613 0-2.878.617-5.94 4.092-5.94 3.084 0 3.906 1.837 3.906 4.9v1.162H18.59zM29.837 5.6c-1.274 0-1.727 1.021-1.727 3.981 0 2.49.33 4.063 1.872 4.063 1.52 0 1.87-1.552 1.87-3.9 0-2.633-.308-4.144-2.015-4.144zm2.016 8.165h-.041c-.288.715-.844 1.633-2.427 1.633-2.59 0-3.618-2.143-3.618-5.919 0-4.878 1.727-5.634 3.413-5.634 1.192 0 2.097.592 2.508 1.572h.041V.538h2.22v14.575h-2.096v-1.348zM41.558 8.397v-.592c0-1.388-.452-2.45-1.706-2.45-1.419 0-1.85 1.389-1.85 2.818v.224h3.556zM38 9.907v.633c0 1.47.185 3.348 1.85 3.348 1.584 0 1.769-1.796 1.769-2.45h2.097c0 2.43-1.48 3.96-3.886 3.96-1.809 0-4.05-.53-4.05-5.613 0-2.878.617-5.94 4.092-5.94 3.083 0 3.905 1.837 3.905 4.9v1.162h-5.777zM45.61 4.131h2.22v1.715h.042c.493-1.225 1.315-2 2.57-2 .246 0 .39.04.534.08v2.246a4.199 4.199 0 0 0-.925-.122c-1.008 0-2.22.448-2.22 2.49v6.573H45.61V4.13z"/>
            <mask id="d" fill="#fff">
                <use xlink:href="#c"/>
            </mask>
            <path fill="#FEFEFE" d="M52.19 15.113h2.22V4.13h-2.22v10.982zm0-12.534h2.22V.375h-2.22v2.204zM64.115 11.112c-.144 2.633-1.048 4.286-3.783 4.286-3.207 0-4.112-2.367-4.112-5.776 0-3.41.905-5.777 4.112-5.777 3.31-.041 3.804 2.572 3.804 3.94h-2.22c0-1.02-.289-2.348-1.584-2.307-1.604 0-1.891 1.715-1.891 4.144 0 2.429.287 4.143 1.891 4.143 1.234.021 1.687-1 1.687-2.653h2.096zM65.658.538h2.22v8.186h.042l3.352-4.593 2.57-.02-3.331 4.245 3.763 6.757h-2.426l-2.714-5.001-1.255 1.51v3.49h-2.22zM80.259.538h2.858l4.255 10.86h.042V.538h2.22v14.575h-2.858L82.52 3.967h-.04v11.146h-2.221zM97.079 9.316c-.576.449-1.81.714-2.468 1.02-.638.306-.905.96-.905 1.776 0 .919.453 1.654 1.378 1.654 1.336 0 1.995-1 1.995-2.613V9.316zm2.096 3.51c0 .409.247.776.576.776.144 0 .288-.02.37-.061v1.429c-.267.122-.658.266-1.09.266-.986 0-1.808-.389-1.87-1.45h-.041c-.597 1.082-1.46 1.612-2.755 1.612-1.77 0-2.879-.98-2.879-3.082 0-2.45 1.069-2.96 2.57-3.45l1.727-.469c.802-.224 1.296-.45 1.296-1.408 0-1-.35-1.633-1.522-1.633-1.48 0-1.686 1.04-1.686 2.102h-2.097c0-2.327.966-3.613 3.885-3.613 1.954 0 3.516.755 3.516 2.694v6.288zM100.451 4.131h1.522V1.007h2.22v3.124h1.81v1.633h-1.81v6.552c0 .858.247 1.164 1.008 1.164.328 0 .596-.02.802-.061v1.633c-.474.122-1.09.184-1.79.184-1.5 0-2.24-.409-2.24-2.655V5.764h-1.522V4.13zM107.257 15.113h2.22V4.13h-2.22v10.982zm0-12.534h2.22V.375h-2.22v2.204zM115.4 13.765c1.624 0 1.912-1.347 1.912-4.143 0-2.43-.288-4.144-1.912-4.144-1.604 0-1.891 1.715-1.891 4.144 0 2.796.287 4.143 1.891 4.143m0-9.92c3.228 0 4.133 2.368 4.133 5.777 0 3.41-1.049 5.776-4.133 5.776-3.063 0-4.111-2.367-4.111-5.776 0-3.41.904-5.777 4.111-5.777M121.24 4.131h2.099v1.286h.06c.556-.98 1.604-1.572 2.837-1.572 1.687 0 2.756.756 2.756 2.98v8.288h-2.22V7.58c0-1.428-.432-1.98-1.543-1.98-.905 0-1.768.715-1.768 2.144v7.369h-2.22V4.13zM136.292 9.316c-.576.449-1.81.714-2.467 1.02-.638.306-.905.96-.905 1.776 0 .919.452 1.654 1.377 1.654 1.338 0 1.995-1 1.995-2.613V9.316zm2.097 3.51c0 .409.247.776.576.776.143 0 .287-.02.37-.061v1.429c-.268.122-.658.266-1.09.266-.987 0-1.81-.389-1.87-1.45h-.042c-.596 1.082-1.46 1.612-2.755 1.612-1.769 0-2.878-.98-2.878-3.082 0-2.45 1.068-2.96 2.57-3.45l1.726-.469c.802-.224 1.296-.45 1.296-1.408 0-1-.35-1.633-1.521-1.633-1.481 0-1.687 1.04-1.687 2.102h-2.097c0-2.327.966-3.613 3.886-3.613 1.953 0 3.516.755 3.516 2.694v6.288zM140.755 15.113h2.22V.538h-2.22zM150.029.538h2.343v12.616h5.674v1.959h-8.017zM164.442 9.316c-.576.449-1.81.714-2.467 1.02-.637.306-.905.96-.905 1.776 0 .919.452 1.654 1.378 1.654 1.336 0 1.994-1 1.994-2.613V9.316zm2.097 3.51c0 .409.247.776.575.776a.93.93 0 0 0 .37-.061v1.429c-.267.122-.657.266-1.089.266-.987 0-1.81-.389-1.87-1.45h-.042c-.596 1.082-1.46 1.612-2.755 1.612-1.769 0-2.878-.98-2.878-3.082 0-2.45 1.068-2.96 2.57-3.45l1.726-.469c.802-.224 1.296-.45 1.296-1.408 0-1-.35-1.633-1.521-1.633-1.481 0-1.687 1.04-1.687 2.102h-2.097c0-2.327.966-3.613 3.886-3.613 1.953 0 3.516.755 3.516 2.694v6.288zM172.77 13.644c1.543 0 1.871-1.573 1.871-4.063 0-2.96-.452-3.98-1.727-3.98-1.707 0-2.014 1.51-2.014 4.143 0 2.348.348 3.9 1.87 3.9zM168.802.538h2.22v4.879h.041c.411-.98 1.316-1.572 2.508-1.572 1.687 0 3.414.756 3.414 5.634 0 3.776-1.028 5.92-3.619 5.92-1.583 0-2.138-.92-2.426-1.634h-.04v1.348h-2.098V.538zM182.372 13.765c1.625 0 1.913-1.347 1.913-4.143 0-2.43-.288-4.144-1.913-4.144-1.603 0-1.89 1.715-1.89 4.144 0 2.796.287 4.143 1.89 4.143m0-9.92c3.23 0 4.133 2.368 4.133 5.777 0 3.41-1.049 5.776-4.133 5.776-3.063 0-4.111-2.367-4.111-5.776 0-3.41.904-5.777 4.111-5.777M188.213 4.131h2.22v1.715h.041c.494-1.225 1.316-2 2.571-2 .246 0 .39.04.535.08v2.246a4.219 4.219 0 0 0-.926-.122c-1.007 0-2.22.448-2.22 2.49v6.573h-2.221V4.13zM199.728 9.316c-.576.449-1.81.714-2.467 1.02-.637.306-.905.96-.905 1.776 0 .919.453 1.654 1.378 1.654 1.337 0 1.994-1 1.994-2.613V9.316zm2.097 3.51c0 .409.247.776.576.776a.93.93 0 0 0 .37-.061v1.429c-.268.122-.658.266-1.09.266-.987 0-1.809-.389-1.87-1.45h-.042c-.596 1.082-1.46 1.612-2.755 1.612-1.769 0-2.878-.98-2.878-3.082 0-2.45 1.068-2.96 2.57-3.45l1.726-.469c.803-.224 1.296-.45 1.296-1.408 0-1-.35-1.633-1.521-1.633-1.48 0-1.687 1.04-1.687 2.102h-2.097c0-2.327.966-3.613 3.887-3.613 1.953 0 3.515.755 3.515 2.694v6.288zM203.102 4.131h1.52V1.007h2.221v3.124h1.81v1.633h-1.81v6.552c0 .858.246 1.164 1.007 1.164.329 0 .596-.02.803-.061v1.633c-.474.122-1.09.184-1.79.184-1.5 0-2.24-.409-2.24-2.655V5.764h-1.521V4.13zM213.485 13.765c1.624 0 1.913-1.347 1.913-4.143 0-2.43-.289-4.144-1.913-4.144-1.603 0-1.89 1.715-1.89 4.144 0 2.796.287 4.143 1.89 4.143m0-9.92c3.229 0 4.133 2.368 4.133 5.777 0 3.41-1.05 5.776-4.133 5.776-3.063 0-4.112-2.367-4.112-5.776 0-3.41.905-5.777 4.112-5.777M219.325 4.131h2.22v1.715h.042c.494-1.225 1.316-2 2.57-2 .247 0 .39.04.535.08v2.246a4.209 4.209 0 0 0-.926-.122c-1.007 0-2.22.448-2.22 2.49v6.573h-2.22V4.13zM227.653 4.131l1.913 8.246h.04l1.768-8.246h2.324l-3.042 11.39c-.864 3-1.583 3.389-3.866 3.348-.288 0-.597-.04-.884-.081V17.03c.246.041.472.082.72.082.76 0 1.253-.163 1.5-.857l.288-.898-3.145-11.227h2.384zM106.174 24.157h-1.266v-1.063h1.266v-1.016c0-1.305.568-1.983 1.883-1.983h.99v1.161h-.633c-.584 0-.876.226-.876.822v1.016h1.493v1.063h-1.493v7.575h-1.364v-7.575zM114.307 27.413c0-1.87-.276-3.482-1.737-3.482-1.38 0-1.672 1.612-1.672 3.482s.276 3.481 1.672 3.481c1.444 0 1.737-1.612 1.737-3.48m-1.705-4.546c2.516 0 3.134 2.111 3.134 4.545 0 2.433-.634 4.545-3.134 4.545-2.516 0-3.133-2.112-3.133-4.545 0-2.434.634-4.545 3.133-4.545M117.018 23.094h1.363v1.289h.033c.39-.822.91-1.515 1.883-1.515.276 0 .47.032.6.096v1.322c-.13-.016-.291-.065-.73-.065-.681 0-1.786.613-1.786 2.047v5.464h-1.363v-8.638zM132.7 27.783c-.13 2.177-.991 4.175-3.524 4.175-3.295 0-3.733-3.079-3.733-5.98 0-2.9.535-5.979 3.733-5.979 2.37 0 3.36 1.321 3.426 3.578h-1.493c-.033-1.306-.455-2.418-1.933-2.418-1.98 0-2.24 2.16-2.24 4.82 0 2.659.26 4.819 2.24 4.819 1.738 0 1.981-1.612 2.03-3.015h1.493zM137.895 27.026c-.504.532-1.705.644-2.322 1.016-.439.273-.666.612-.666 1.37 0 .87.309 1.482 1.234 1.482.893 0 1.754-.757 1.754-1.644v-2.224zm-4.205-1.322c0-1.966.844-2.836 2.922-2.836 2.646 0 2.646 1.58 2.646 2.482v4.82c0 .353 0 .692.422.692.179 0 .26-.033.325-.08v.967c-.097.016-.455.08-.796.08-.52 0-1.168 0-1.233-1.112h-.033c-.438.774-1.282 1.241-2.094 1.241-1.624 0-2.37-.967-2.37-2.514 0-1.209.52-2.047 1.64-2.386l1.834-.548c.99-.306.99-.58.99-1.305 0-.806-.486-1.274-1.396-1.274-1.493 0-1.493 1.386-1.493 1.693v.08h-1.364zM141.028 23.094h1.299v1.015h.032c.357-.79 1.266-1.241 2.11-1.241 2.289 0 2.289 1.725 2.289 2.74v6.124h-1.364v-5.963c0-.661-.049-1.74-1.282-1.74-.73 0-1.72.483-1.72 1.74v5.963h-1.364v-8.638zM152.603 25.72c0-.837-.341-1.788-1.38-1.788-.845 0-1.705.419-1.705 3.577 0 1.129.017 3.385 1.656 3.385 1.17 0 1.429-1.225 1.429-2.16h1.363c0 1.37-.682 3.224-2.857 3.224-2.127 0-3.02-1.467-3.02-4.433 0-2.16.423-4.657 3.101-4.657 2.37 0 2.776 1.853 2.776 2.852h-1.363zM159.583 26.51v-.467c0-.967-.308-2.111-1.51-2.111-1.428 0-1.59 1.74-1.59 2.256v.322h3.1zm-3.15 1.064c0 1.322 0 3.32 1.672 3.32 1.3 0 1.478-1.354 1.478-1.998h1.363c0 .918-.551 3.062-2.921 3.062-2.127 0-3.02-1.467-3.02-4.432 0-2.16.423-4.658 3.1-4.658 2.663 0 2.906 2.305 2.906 4.158v.548h-4.577zM162.424 23.094h1.363v1.289h.033c.39-.822.91-1.515 1.883-1.515.276 0 .471.032.6.096v1.322c-.129-.016-.292-.065-.73-.065-.681 0-1.786.613-1.786 2.047v5.464h-1.363v-8.638zM172.44 25.446h1.413c.844 0 2.386 0 2.386-2.224 0-1.128-.763-1.837-2.094-1.837h-1.704v4.061zm-1.428-5.222h3.75c1.817 0 2.97 1.064 2.97 2.885 0 1.257-.438 2.58-1.786 2.902v.032c1.007.113 1.575.934 1.64 1.918l.098 1.966c.064 1.274.276 1.595.617 1.805h-1.722c-.243-.241-.356-1.096-.388-1.66l-.098-1.789c-.114-1.58-.99-1.676-1.72-1.676h-1.932v5.125h-1.43V20.224zM183.593 26.51v-.467c0-.967-.308-2.111-1.51-2.111-1.428 0-1.59 1.74-1.59 2.256v.322h3.1zm-3.15 1.064c0 1.322 0 3.32 1.672 3.32 1.3 0 1.478-1.354 1.478-1.998h1.363c0 .918-.551 3.062-2.921 3.062-2.127 0-3.02-1.467-3.02-4.432 0-2.16.423-4.658 3.1-4.658 2.663 0 2.907 2.305 2.907 4.158v.548h-4.578zM190.167 25.624c0-1.096-.291-1.693-1.282-1.693-.438 0-1.412.113-1.412 1.322 0 1.015 1.07 1.209 2.143 1.563 1.054.355 2.126.726 2.126 2.435 0 1.82-1.185 2.707-2.808 2.707-2.955 0-2.987-2.176-2.987-3.062h1.363c0 1.047.292 1.998 1.624 1.998.438 0 1.445-.21 1.445-1.434 0-1.16-1.072-1.403-2.127-1.757-1.055-.355-2.144-.66-2.144-2.45 0-1.612 1.267-2.385 2.777-2.385 2.532 0 2.63 1.74 2.645 2.756h-1.363zM197.245 26.51v-.467c0-.967-.308-2.111-1.509-2.111-1.429 0-1.591 1.74-1.591 2.256v.322h3.1zm-3.149 1.064c0 1.322 0 3.32 1.672 3.32 1.299 0 1.477-1.354 1.477-1.998h1.364c0 .918-.552 3.062-2.922 3.062-2.127 0-3.02-1.467-3.02-4.432 0-2.16.423-4.658 3.101-4.658 2.663 0 2.906 2.305 2.906 4.158v.548h-4.578zM204.08 27.026c-.504.532-1.704.644-2.321 1.016-.44.273-.667.612-.667 1.37 0 .87.309 1.482 1.234 1.482.894 0 1.754-.757 1.754-1.644v-2.224zm-4.205-1.322c0-1.966.844-2.836 2.922-2.836 2.647 0 2.647 1.58 2.647 2.482v4.82c0 .353 0 .692.422.692.178 0 .26-.033.324-.08v.967c-.097.016-.454.08-.795.08-.52 0-1.169 0-1.234-1.112h-.032c-.439.774-1.283 1.241-2.095 1.241-1.623 0-2.37-.967-2.37-2.514 0-1.209.52-2.047 1.64-2.386l1.834-.548c.99-.306.99-.58.99-1.305 0-.806-.486-1.274-1.396-1.274-1.493 0-1.493 1.386-1.493 1.693v.08h-1.364zM207.213 23.094h1.363v1.289h.034c.388-.822.908-1.515 1.882-1.515.276 0 .471.032.601.096v1.322c-.13-.016-.293-.065-.731-.065-.681 0-1.786.613-1.786 2.047v5.464h-1.363v-8.638zM216.077 25.72c0-.837-.341-1.788-1.38-1.788-.844 0-1.705.419-1.705 3.577 0 1.129.016 3.385 1.656 3.385 1.17 0 1.429-1.225 1.429-2.16h1.363c0 1.37-.682 3.224-2.857 3.224-2.126 0-3.02-1.467-3.02-4.433 0-2.16.423-4.657 3.101-4.657 2.37 0 2.776 1.853 2.776 2.852h-1.363zM218.772 20.224h1.363v3.853h.033c.357-.71 1.314-1.21 2.094-1.21 2.24 0 2.24 1.725 2.24 2.74v6.125h-1.364V25.77c0-.661-.05-1.741-1.282-1.741-.73 0-1.721.483-1.721 1.74v5.964h-1.363V20.224zM81.909 45.367c.032-.476-.39-.718-.87-.718-.421 0-.892.113-.892.532 0 .387.552.54 1.104.765.552.227 1.112.516 1.112 1.17 0 .926-.9 1.288-1.712 1.288-.958 0-1.705-.346-1.696-1.41h.689c-.032.62.495.806 1.071.806.447 0 .958-.161.958-.636 0-.403-.552-.565-1.103-.79-.56-.218-1.112-.5-1.112-1.129 0-.773.779-1.2 1.557-1.2.78 0 1.583.346 1.583 1.322h-.69zM85.545 44.649c-1.047 0-1.64 1.2-1.64 2.071 0 .62.374 1.08 1.056 1.08 1.095 0 1.663-1.128 1.663-2.047 0-.677-.324-1.104-1.079-1.104zm-1.786-.508h.65l-.146.597h.016c.413-.54.828-.693 1.388-.693 1.071 0 1.648.693 1.648 1.708 0 1.265-.86 2.651-2.33 2.651-.511 0-1.145-.177-1.307-.733h-.016l-.447 2.232h-.681l1.225-5.762zM89.725 47.8c1.007 0 1.558-1.152 1.558-1.974 0-.653-.348-1.177-1.103-1.177-1.056 0-1.608 1.144-1.608 2.007 0 .685.398 1.144 1.153 1.144m.504-3.756c1.12 0 1.744.613 1.744 1.725 0 1.362-.852 2.635-2.321 2.635-1.104 0-1.77-.733-1.77-1.74 0-1.362.878-2.62 2.347-2.62M93.248 44.141h.666l-.13.629h.016c.35-.467.917-.725 1.494-.725.787 0 1.168.338 1.168 1.072 0 .176-.048.49-.12.813l-.513 2.378h-.69l.536-2.434c.033-.153.097-.5.097-.645 0-.395-.324-.58-.73-.58-.382 0-.779.21-1.04.484-.243.209-.372.54-.462.87l-.487 2.305h-.69l.885-4.167zM99.798 45.367c.032-.476-.39-.718-.868-.718-.422 0-.893.113-.893.532 0 .387.552.54 1.104.765.552.227 1.112.516 1.112 1.17 0 .926-.9 1.288-1.713 1.288-.957 0-1.704-.346-1.696-1.41h.69c-.033.62.495.806 1.072.806.446 0 .957-.161.957-.636 0-.403-.552-.565-1.103-.79-.56-.218-1.113-.5-1.113-1.129 0-.773.78-1.2 1.56-1.2.778 0 1.581.346 1.581 1.322h-.69zM102.802 47.8c1.006 0 1.558-1.152 1.558-1.974 0-.653-.35-1.177-1.104-1.177-1.055 0-1.607 1.144-1.607 2.007 0 .685.398 1.144 1.153 1.144m.503-3.756c1.12 0 1.745.613 1.745 1.725 0 1.362-.852 2.635-2.321 2.635-1.104 0-1.77-.733-1.77-1.74 0-1.362.877-2.62 2.346-2.62M106.317 44.141h.65l-.204.895h.016c.325-.572.82-.991 1.526-.991.081 0 .163-.017.244 0l-.163.733c-.065-.008-.138-.008-.203-.008-.17 0-.25 0-.414.04-.382.097-.673.347-.892.677-.187.266-.285.661-.35.975l-.397 1.846h-.69l.877-4.167zM111.56 45.826c.048-.589-.22-1.177-.982-1.177-.812 0-1.25.532-1.453 1.177h2.435zm-2.533.604a2.722 2.722 0 0 0-.024.363c0 .644.528 1.007 1.088 1.007.6 0 1.014-.282 1.21-.798h.689c-.22.919-.982 1.402-1.9 1.402-1.387 0-1.777-.95-1.777-1.676 0-1.595 1.007-2.683 2.16-2.683 1.234 0 1.777.669 1.777 1.845 0 .218-.04.427-.065.54h-3.158zM114.499 47.8c1.047 0 1.64-1.201 1.64-2.071 0-.62-.374-1.08-1.056-1.08-1.096 0-1.664 1.128-1.664 2.047 0 .677.325 1.104 1.08 1.104zm1.785.508h-.65l.147-.597h-.016c-.414.54-.828.693-1.388.693-1.072 0-1.648-.693-1.648-1.708 0-1.265.86-2.652 2.33-2.652.51 0 1.144.178 1.306.734h.016l.447-2.224h.682l-1.226 5.754zM122.388 44.649c-1.21 0-1.713 1.225-1.713 2.112 0 .652.463 1.039 1.145 1.039.998 0 1.526-1.144 1.526-1.959 0-.66-.317-1.192-.958-1.192zm-1.542-2.095h.69l-.446 2.103.015.016a1.616 1.616 0 0 1 1.283-.628c1.12 0 1.648.733 1.648 1.796 0 1.298-.796 2.563-2.216 2.563-.771 0-1.323-.46-1.413-.87h-.015l-.155.774h-.617l1.226-5.754zM125.797 49.017c-.34.54-.649.983-1.356.983-.161 0-.348-.04-.478-.105l.122-.555a.873.873 0 0 0 .398.112c.308 0 .486-.185.649-.451l.422-.693-.739-4.166h.739l.487 3.311h.016l1.762-3.311h.754l-2.776 4.875zM132.429 44.141h.836l-.13.604h-.836l-.52 2.451c-.008.096-.024.177-.024.274 0 .217.203.282.414.282.138 0 .268-.032.398-.073l-.122.629a2.483 2.483 0 0 1-.487.048c-.511 0-.941-.145-.941-.677 0-.12.015-.217.04-.347l.552-2.587h-.706l.13-.604h.706l.26-1.232h.69l-.26 1.232zM134.377 42.554h.69l-.495 2.2.016.016c.35-.467.917-.725 1.494-.725.787 0 1.168.338 1.168 1.071 0 .178-.049.492-.121.815l-.512 2.377h-.69l.536-2.434c.032-.153.097-.5.097-.645 0-.394-.324-.58-.73-.58-.382 0-.78.21-1.039.484-.244.21-.374.54-.463.87l-.487 2.305h-.69l1.226-5.754zM141.033 45.826c.049-.589-.22-1.177-.982-1.177-.812 0-1.25.532-1.453 1.177h2.435zm-2.533.604a2.81 2.81 0 0 0-.024.363c0 .644.528 1.007 1.088 1.007.6 0 1.014-.282 1.21-.798h.69c-.22.919-.983 1.402-1.9 1.402-1.388 0-1.778-.95-1.778-1.676 0-1.595 1.006-2.683 2.159-2.683 1.234 0 1.778.669 1.778 1.845 0 .218-.04.427-.065.54H138.5zM145.603 42.554h.828l2.07 4.763h.016l.965-4.763h.747l-1.225 5.754h-.828l-2.054-4.731h-.016l-.982 4.73h-.747zM151.545 47.8c.535 0 .933-.178 1.176-.548.228-.314.268-.685.366-1.072h-.017c-.3.178-.844.218-1.347.282-.495.073-.934.226-.934.758 0 .386.366.58.756.58zm-.934-2.401c.138-.927.925-1.355 1.818-1.355.812 0 1.535.218 1.535 1.065 0 .233-.082.531-.13.757l-.268 1.136c-.033.17-.114.403-.114.597 0 .192.09.257.203.257a.73.73 0 0 0 .22-.056l-.106.508c-.106.056-.3.096-.422.096-.382 0-.584-.225-.545-.588l-.016-.016c-.292.387-.697.604-1.404.604-.697 0-1.282-.322-1.282-1.176 0-1.209 1.192-1.29 2.118-1.37.73-.065 1.055-.105 1.055-.66 0-.452-.478-.549-.844-.549-.528 0-1.047.21-1.128.75h-.69zM156.187 44.141h.836l-.13.604h-.836l-.519 2.451c-.008.096-.024.177-.024.274 0 .217.203.282.414.282.138 0 .268-.032.397-.073l-.122.629a2.483 2.483 0 0 1-.486.048c-.512 0-.942-.145-.942-.677 0-.12.016-.217.04-.347l.553-2.587h-.706l.129-.604h.707l.26-1.232h.69l-.26 1.232zM158.639 43.392h-.698l.178-.838h.698l-.178.838zm-.853.75h.69l-.876 4.165h-.69l.876-4.166zM160.733 47.8c1.006 0 1.558-1.152 1.558-1.974 0-.653-.349-1.177-1.103-1.177-1.056 0-1.608 1.144-1.608 2.007 0 .685.398 1.144 1.153 1.144m.503-3.756c1.12 0 1.745.613 1.745 1.725 0 1.362-.852 2.635-2.322 2.635-1.103 0-1.769-.733-1.769-1.74 0-1.362.877-2.62 2.346-2.62M164.256 44.141h.665l-.13.629h.016c.35-.467.918-.725 1.494-.725.787 0 1.169.338 1.169 1.072 0 .176-.049.49-.121.813l-.512 2.378h-.69l.536-2.434c.032-.153.096-.5.096-.645 0-.395-.324-.58-.73-.58-.381 0-.778.21-1.039.484-.244.209-.373.54-.462.87l-.487 2.305h-.69l.885-4.167zM169.288 47.8c.535 0 .933-.178 1.177-.548.227-.314.268-.685.365-1.072h-.016c-.3.178-.844.218-1.347.282-.495.073-.934.226-.934.758 0 .386.365.58.755.58zm-.933-2.401c.138-.927.925-1.355 1.818-1.355.811 0 1.534.218 1.534 1.065 0 .233-.081.531-.13.757l-.268 1.136c-.032.17-.114.403-.114.597 0 .192.09.257.203.257a.727.727 0 0 0 .22-.056l-.106.508c-.106.056-.3.096-.422.096-.381 0-.584-.225-.544-.588l-.016-.016c-.292.387-.698.604-1.405.604-.697 0-1.281-.322-1.281-1.176 0-1.209 1.192-1.29 2.117-1.37.731-.065 1.056-.105 1.056-.66 0-.452-.479-.549-.844-.549-.528 0-1.048.21-1.128.75h-.69zM173.314 42.554h.69l-1.217 5.754h-.69zM181.553 46.366c-.292 1.29-1.136 2.079-2.565 2.079-1.583 0-2.484-.935-2.484-2.523 0-1.861 1.202-3.505 3.182-3.505 1.25 0 2.207.66 2.207 1.99h-.77c0-.902-.593-1.346-1.437-1.346-1.615 0-2.41 1.476-2.41 2.861 0 1.112.55 1.878 1.712 1.878.95 0 1.542-.54 1.793-1.434h.772zM183.42 47.8c.536 0 .933-.178 1.176-.548.228-.314.268-.685.366-1.072h-.016c-.3.178-.845.218-1.348.282-.495.073-.933.226-.933.758 0 .386.365.58.755.58zm-.933-2.401c.138-.927.925-1.355 1.817-1.355.812 0 1.535.218 1.535 1.065 0 .233-.081.531-.13.757l-.268 1.136c-.033.17-.114.403-.114.597 0 .192.09.257.203.257a.735.735 0 0 0 .22-.056l-.106.508c-.106.056-.3.096-.422.096-.382 0-.584-.225-.544-.588l-.017-.016c-.292.387-.697.604-1.404.604-.697 0-1.282-.322-1.282-1.176 0-1.209 1.193-1.29 2.119-1.37.73-.065 1.055-.105 1.055-.66 0-.452-.48-.549-.845-.549-.527 0-1.047.21-1.128.75h-.69zM187.113 44.141h.666l-.13.629h.016c.35-.467.917-.725 1.494-.725.787 0 1.168.338 1.168 1.072 0 .176-.048.49-.121.813l-.512 2.378h-.69l.536-2.434c.033-.153.097-.5.097-.645 0-.395-.324-.58-.73-.58-.382 0-.779.21-1.04.484-.243.209-.372.54-.462.87l-.487 2.305h-.69l.885-4.167zM194.159 45.463c0-.508-.35-.814-.885-.814-1.064 0-1.631 1.048-1.631 1.958 0 .645.268 1.193 1.038 1.193.593 0 1.031-.347 1.226-.854h.69c-.243.926-.95 1.458-1.916 1.458-1.144 0-1.729-.677-1.729-1.797 0-1.322.82-2.562 2.322-2.562.95 0 1.542.451 1.574 1.418h-.69zM198.469 45.826c.049-.589-.22-1.177-.982-1.177-.812 0-1.25.532-1.453 1.177h2.435zm-2.533.604a2.722 2.722 0 0 0-.024.363c0 .644.528 1.007 1.088 1.007.6 0 1.014-.282 1.21-.798h.69c-.22.919-.983 1.402-1.9 1.402-1.388 0-1.778-.95-1.778-1.676 0-1.595 1.006-2.683 2.16-2.683 1.233 0 1.777.669 1.777 1.845 0 .218-.04.427-.065.54h-3.158zM200.336 44.141h.65l-.204.895h.016c.325-.572.82-.991 1.526-.991.081 0 .163-.017.244 0l-.163.733c-.064-.008-.138-.008-.203-.008-.17 0-.251 0-.414.04-.381.097-.673.347-.892.677-.187.266-.284.661-.349.975l-.398 1.846h-.69l.877-4.167zM205.734 42.554h.77l-1.217 5.754h-.771zM207.405 44.141h.666l-.13.629h.017c.348-.467.917-.725 1.493-.725.787 0 1.168.338 1.168 1.072 0 .176-.048.49-.12.813l-.512 2.378h-.69l.535-2.434c.033-.153.098-.5.098-.645 0-.395-.325-.58-.73-.58-.382 0-.78.21-1.04.484-.243.209-.373.54-.462.87l-.487 2.305h-.69l.884-4.167zM213.956 45.367c.032-.476-.39-.718-.869-.718-.422 0-.892.113-.892.532 0 .387.552.54 1.103.765.552.227 1.112.516 1.112 1.17 0 .926-.9 1.288-1.712 1.288-.958 0-1.705-.346-1.696-1.41h.69c-.033.62.494.806 1.071.806.446 0 .958-.161.958-.636 0-.403-.552-.565-1.104-.79-.56-.218-1.112-.5-1.112-1.129 0-.773.779-1.2 1.558-1.2.78 0 1.583.346 1.583 1.322h-.69zM216.772 44.141h.837l-.13.604h-.836l-.52 2.451c-.008.096-.024.177-.024.274 0 .217.203.282.414.282.138 0 .268-.032.397-.073l-.121.629a2.483 2.483 0 0 1-.487.048c-.511 0-.941-.145-.941-.677 0-.12.015-.217.04-.347l.552-2.587h-.706l.129-.604h.707l.26-1.232h.69l-.26 1.232zM219.224 43.392h-.698l.178-.838h.698l-.178.838zm-.853.75h.69l-.876 4.165h-.69l.876-4.166zM221.131 44.141h.836l-.13.604h-.836l-.52 2.451c-.007.096-.024.177-.024.274 0 .217.203.282.415.282.138 0 .268-.032.397-.073l-.121.629a2.488 2.488 0 0 1-.488.048c-.51 0-.94-.145-.94-.677 0-.12.015-.217.04-.347l.552-2.587h-.707l.13-.604h.706l.26-1.232h.69l-.26 1.232zM225.23 48.308h-.665l.13-.629h-.017c-.349.468-.917.725-1.494.725-.787 0-1.168-.338-1.168-1.072 0-.176.048-.491.122-.813l.51-2.378h.691l-.536 2.434c-.032.153-.097.5-.097.645 0 .395.324.58.73.58.763 0 1.356-.66 1.502-1.354l.487-2.305h.69l-.885 4.167zM228.201 44.141h.837l-.13.604h-.836l-.52 2.451c-.008.096-.024.177-.024.274 0 .217.203.282.413.282.138 0 .268-.032.398-.073l-.122.629a2.481 2.481 0 0 1-.486.048c-.512 0-.942-.145-.942-.677 0-.12.016-.217.04-.347l.552-2.587h-.706l.13-.604h.707l.26-1.232h.689l-.26 1.232zM232.292 45.826c.05-.589-.219-1.177-.982-1.177-.812 0-1.25.532-1.453 1.177h2.435zm-2.533.604a2.81 2.81 0 0 0-.024.363c0 .644.528 1.007 1.088 1.007.6 0 1.014-.282 1.21-.798h.69c-.22.919-.983 1.402-1.9 1.402-1.388 0-1.778-.95-1.778-1.676 0-1.595 1.006-2.683 2.16-2.683 1.233 0 1.777.669 1.777 1.845 0 .218-.04.427-.065.54h-3.158z" mask="url(#d)"/>
        </g>
    </g>
</svg>
