<svg xmlns="http://www.w3.org/2000/svg" xmlns:xlink="http://www.w3.org/1999/xlink" width="196" height="47" viewBox="0 0 196 47">
    <defs>
        <path id="a" d="M0 47h195.83V.426H0z"/>
    </defs>
    <g fill="none" fill-rule="evenodd">
        <path fill="#FEFEFE" d="M69 25h2V4h-2z"/>
        <g>
            <path fill="#FEFEFE" d="M99.43 25.294h-2.463V11.013c0-1.124.06-2.492.21-4.133h-.06c-.24.972-.45 1.641-.63 2.067l-7.182 16.347h-1.201L80.923 9.068c-.21-.486-.421-1.216-.631-2.188h-.06c.09.851.12 2.249.12 4.163v14.251h-2.374V4.024h3.245l6.46 14.828c.51 1.154.811 2.006.961 2.553h.09c.421-1.155.752-2.037 1.022-2.614l6.58-14.767h3.095v21.27zM116.53 17.09l-3.304-9.055c-.12-.304-.211-.79-.331-1.428h-.06a8.426 8.426 0 0 1-.33 1.428l-3.276 9.055h7.301zm5.77 8.204h-2.735l-2.223-5.956h-8.924l-2.103 5.956h-2.734l8.052-21.27h2.554l8.112 21.27zM141.578 23.836c-2.104 1.215-4.447 1.822-7.031 1.822-3.005 0-5.439-1.002-7.301-2.947-1.833-1.945-2.764-4.558-2.764-7.779 0-3.282 1.021-5.986 3.094-8.112 2.044-2.097 4.657-3.16 7.813-3.16 2.283 0 4.205.364 5.768 1.124v2.765c-1.713-1.094-3.726-1.641-6.04-1.641-2.373 0-4.296.82-5.798 2.462-1.502 1.64-2.253 3.767-2.253 6.38 0 2.704.69 4.801 2.103 6.35 1.382 1.55 3.275 2.31 5.679 2.31 1.652 0 3.064-.334 4.266-1.003v-5.955h-4.597v-2.248h7.06v9.632z"/>
            <mask id="b" fill="#fff">
                <use xlink:href="#a"/>
            </mask>
            <path fill="#FEFEFE" d="M147.531 25.294h2.464V4.024h-2.464zM173.53 25.294h-3.004L159.68 8.339a7.933 7.933 0 0 1-.66-1.337h-.09c.09.456.12 1.428.12 2.917v15.375h-2.464V4.024h3.185l10.546 16.682c.42.699.72 1.185.841 1.428h.06c-.09-.608-.15-1.671-.15-3.13V4.024h2.463v21.27zM195.83 23.836c-2.103 1.215-4.447 1.822-7.031 1.822-3.004 0-5.438-1.002-7.301-2.947-1.833-1.945-2.764-4.558-2.764-7.779 0-3.282 1.022-5.986 3.094-8.112 2.044-2.097 4.658-3.16 7.812-3.16 2.284 0 4.206.364 5.77 1.124v2.765c-1.714-1.094-3.727-1.641-6.04-1.641-2.374 0-4.297.82-5.799 2.462-1.502 1.64-2.254 3.767-2.254 6.38 0 2.704.692 4.801 2.104 6.35 1.382 1.55 3.275 2.31 5.678 2.31 1.653 0 3.065-.334 4.267-1.003v-5.955h-4.597v-2.248h7.06v9.632zM70.365 34.167v7.88h1.438c1.268 0 2.242-.36 2.953-1.064.695-.688 1.051-1.688 1.051-2.97 0-2.564-1.314-3.846-3.942-3.846h-1.5zm-1.793 9.412V32.635h3.138c3.989 0 5.983 1.782 5.983 5.331 0 1.689-.556 3.049-1.67 4.08-1.097 1.017-2.581 1.533-4.452 1.533h-2.999zM85.435 39.31l-1.5-4.361a4.657 4.657 0 0 1-.14-.689h-.03a4.235 4.235 0 0 1-.155.689l-1.484 4.361h3.309zm3.431 4.268h-1.979l-.974-2.782h-4.25l-.944 2.782h-1.963l4.066-10.943h2.01l4.034 10.943zM96.747 34.167h-3.123v9.412H91.83v-9.412h-3.093v-1.532h8.009zM103.212 39.31l-1.5-4.361a4.643 4.643 0 0 1-.139-.689h-.03a4.235 4.235 0 0 1-.155.689l-1.484 4.361h3.308zm3.432 4.268h-1.979l-.974-2.782h-4.25l-.944 2.782h-1.964l4.066-10.943h2.01l4.035 10.943zM120.471 43.126c-.82.421-1.84.64-3.045.64-1.577 0-2.83-.5-3.772-1.5-.943-1.017-1.423-2.33-1.423-3.956 0-1.751.526-3.158 1.592-4.237 1.067-1.079 2.413-1.626 4.036-1.626 1.05 0 1.917.156 2.612.453v1.798a4.638 4.638 0 0 0-2.427-.656c-1.16 0-2.118.375-2.845 1.141-.726.75-1.082 1.767-1.082 3.033 0 1.204.34 2.173 1.005 2.893.68.703 1.577 1.063 2.69 1.063 1.02 0 1.902-.235 2.66-.735v1.689zM127.406 34.042c-.99 0-1.794.375-2.412 1.126-.619.75-.928 1.735-.928 2.954 0 1.22.294 2.189.897 2.94.603.735 1.391 1.11 2.365 1.11 1.051 0 1.855-.344 2.458-1.064.603-.703.897-1.688.897-2.97 0-1.297-.294-2.314-.866-3.033-.587-.704-1.391-1.063-2.411-1.063m-.078 9.724c-1.561 0-2.813-.516-3.741-1.532-.943-1.032-1.407-2.36-1.407-4.002 0-1.752.464-3.158 1.422-4.206.959-1.048 2.257-1.579 3.896-1.579 1.53 0 2.752.516 3.68 1.532.927 1.016 1.39 2.346 1.39 3.987 0 1.783-.479 3.205-1.421 4.237-.96 1.047-2.227 1.563-3.819 1.563M146.715 43.579h-1.778v-7.083c0-.578.031-1.297.109-2.126h-.031c-.108.47-.201.813-.294 1.032l-3.231 8.177h-1.237l-3.246-8.13a8.507 8.507 0 0 1-.279-1.079h-.03c.046.438.062 1.141.062 2.142v7.067h-1.67V32.635h2.535l2.845 7.285c.216.563.355.986.417 1.25h.047c.185-.578.34-1 .448-1.281l2.906-7.254h2.427v10.944zM161.548 43.579h-1.779v-7.083c0-.578.032-1.297.11-2.126h-.032c-.108.47-.2.813-.293 1.032l-3.232 8.177h-1.236l-3.247-8.13a8.507 8.507 0 0 1-.278-1.079h-.031c.046.438.062 1.141.062 2.142v7.067h-1.67V32.635h2.536l2.844 7.285c.216.563.356.986.418 1.25h.046c.185-.578.34-1 .448-1.281l2.906-7.254h2.428v10.944zM169.3 34.042c-.99 0-1.794.375-2.412 1.126-.618.75-.927 1.735-.927 2.954 0 1.22.293 2.189.896 2.94.603.735 1.392 1.11 2.366 1.11 1.051 0 1.855-.344 2.458-1.064.602-.703.896-1.688.896-2.97 0-1.297-.294-2.314-.866-3.033-.587-.704-1.39-1.063-2.41-1.063m-.078 9.724c-1.562 0-2.814-.516-3.742-1.532-.943-1.032-1.407-2.36-1.407-4.002 0-1.752.464-3.158 1.423-4.206.958-1.048 2.257-1.579 3.896-1.579 1.53 0 2.752.516 3.679 1.532.928 1.016 1.391 2.346 1.391 3.987 0 1.783-.48 3.205-1.422 4.237-.959 1.047-2.226 1.563-3.818 1.563M186.167 43.579h-1.964l-5.163-8.052a2.659 2.659 0 0 1-.325-.625h-.046c.031.234.062.735.062 1.5v7.177h-1.747V32.635h2.102l4.994 7.848c.216.329.34.547.402.672h.031c-.046-.281-.078-.781-.078-1.47v-7.05h1.732v10.944zM188.891 43.141v-1.86c.17.14.37.28.603.406.216.125.463.219.727.313.247.078.51.14.757.187.263.047.494.078.711.078.758 0 1.33-.14 1.685-.39.371-.25.557-.626.557-1.11 0-.25-.062-.485-.186-.673a2.013 2.013 0 0 0-.51-.516 4.626 4.626 0 0 0-.788-.453c-.294-.156-.619-.297-.958-.454a14.785 14.785 0 0 1-1.021-.61 4.06 4.06 0 0 1-.835-.671 2.724 2.724 0 0 1-.541-.845c-.14-.312-.2-.672-.2-1.094 0-.5.107-.954.339-1.329.232-.375.526-.688.912-.938.371-.25.789-.438 1.268-.547.48-.126.974-.188 1.469-.188 1.128 0 1.963.126 2.473.39v1.799c-.618-.454-1.407-.672-2.365-.672-.263 0-.541.015-.804.077a2.145 2.145 0 0 0-.712.251c-.2.11-.37.265-.51.453-.123.172-.185.391-.185.657 0 .25.046.453.155.641.093.172.247.328.432.485.201.14.434.28.712.422.278.14.603.297.973.453.372.203.727.422 1.067.641.325.219.634.454.881.72.248.265.449.562.604.875.154.328.216.688.216 1.11 0 .547-.108 1.016-.325 1.407a2.676 2.676 0 0 1-.896.923 3.45 3.45 0 0 1-1.299.516c-.48.109-1.005.171-1.546.171-.17 0-.402-.016-.665-.047-.263-.03-.541-.062-.804-.124a5.95 5.95 0 0 1-.788-.188 2.804 2.804 0 0 1-.603-.266M4.188 3.347C1.875 3.347 0 5.243 0 7.582c0 2.34 1.875 4.236 4.188 4.236 2.313 0 4.189-1.897 4.189-4.236 0-2.34-1.876-4.235-4.189-4.235M50.33 29.635l3.426 2.156c1.092.756 1.06 2.438 0 3.17l-18.72 11.777a1.944 1.944 0 0 1-1.95 0L14.367 34.96c-1.067-.739-1.07-2.428 0-3.17l3.426-2.156 3.496 2.199-2.45 1.541 15.223 9.576 15.223-9.576-2.45-1.541 3.496-2.199z" mask="url(#b)"/>
            <path fill="#FEFEFE" d="M17.74 19.989l3.496 2.198-2.397 1.506 15.223 9.579 15.223-9.575-2.398-1.51 3.497-2.198 3.372 2.119c1.068.739 1.07 2.432 0 3.174l-18.72 11.773a1.943 1.943 0 0 1-1.95 0L14.367 25.282c-1.092-.757-1.06-2.439 0-3.174l3.372-2.12z" mask="url(#b)"/>
            <path fill="#FEFEFE" d="M33.911.444c-.567.08-.423.058-.803.274l-10.83 6.811c-1.203.838-.98 2.97.474 3.385.48.136.81.166 1.478-.213l9.852-6.198 15.224 9.578-15.224 9.575-20.539-12.921s-.902-.446-1.64-.158c-1.154.45-1.517 2.258-.583 3.122.112.103.146.122.271.208L33.108 27.44c.512.29 1.116.362 1.644.155.143-.056.173-.08.305-.155L53.78 15.667c1.064-.74 1.086-2.418 0-3.172L35.057.718c-.63-.356-.68-.296-1.146-.274" mask="url(#b)"/>
        </g>
    </g>
</svg>
