<svg xmlns="http://www.w3.org/2000/svg" xmlns:xlink="http://www.w3.org/1999/xlink" width="55" height="97" viewBox="0 0 55 97">
    <defs>
        <path id="a" d="M0 .265h27.163v35.243H0z"/>
    </defs>
    <g fill="none" fill-rule="evenodd">
        <path fill="#FEFEFE" d="M54.678 62.742v6.302c-3.04-2.573-6.184-3.858-9.433-3.859-3.58 0-6.597 1.302-9.05 3.904-2.467 2.588-3.7 5.753-3.7 9.497 0 3.698 1.233 6.819 3.7 9.36 2.468 2.542 5.492 3.812 9.073 3.812 1.85 0 3.422-.304 4.716-.913a13.087 13.087 0 0 0 2.234-1.233 25.632 25.632 0 0 0 2.46-1.871v6.415c-3.01 1.72-6.169 2.578-9.478 2.579-4.98 0-9.23-1.758-12.75-5.274-3.506-3.545-5.258-7.822-5.258-12.83 0-4.489 1.466-8.491 4.4-12.008 3.61-4.306 8.282-6.46 14.014-6.46 3.13 0 6.153.86 9.072 2.58"/>
        <g transform="translate(0 .227)">
            <mask id="b" fill="#fff">
                <use xlink:href="#a"/>
            </mask>
            <path fill="#FEFEFE" d="M0 33.608V.265l22.506 23.819V2.388h4.657v33.12L4.657 11.75v21.858z" mask="url(#b)"/>
        </g>
        <path fill="#FEFEFE" d="M32.578 55.519H19.366L15.928 63.1h-5.017l15.271-33.18 14.73 33.18h-5.096l-3.238-7.582zM30.68 51.09l-4.577-10.616-4.797 10.616h9.374z"/>
    </g>
</svg>
