<svg xmlns="http://www.w3.org/2000/svg" width="227" height="41" viewBox="0 0 227 41">
    <g fill="none" fill-rule="evenodd">
        <path fill="#FEFEFE" d="M52.185 10.984c.952.976 2.063 1.465 3.334 1.465 1.27 0 2.378-.489 3.324-1.465.947-.977 1.42-2.318 1.42-4.023 0-1.704-.483-3.038-1.447-4.002-.966-.964-2.064-1.446-3.297-1.446s-2.335.482-3.306 1.446c-.972.964-1.457 2.298-1.457 4.002 0 1.705.476 3.046 1.429 4.023M62 6.924c0 2.1-.613 3.805-1.84 5.113C58.934 13.346 57.39 14 55.53 14c-1.862 0-3.416-.66-4.661-1.982C49.623 10.696 49 8.992 49 6.904s.641-3.76 1.924-5.018C52.206.63 53.738 0 55.519 0c1.78 0 3.306.629 4.576 1.886C61.365 3.144 62 4.824 62 6.923M65.742 8.578c0 1.042.283 1.844.85 2.407.565.562 1.249.843 2.052.843.802 0 1.473-.302 2.014-.907.541-.603.812-1.4.812-2.387 0-.988-.27-1.78-.812-2.379a2.615 2.615 0 0 0-2.024-.898c-.809 0-1.492.293-2.052.88-.56.586-.84 1.4-.84 2.441M66.992 17h-3.75c-.16 0-.242-.072-.242-.216v-.772c0-.143.081-.215.243-.215h1.044V5.329H63.28c-.162 0-.242-.072-.242-.215V4.34c0-.143.08-.215.242-.215h2.182c.163 0 .243.072.243.215l-.018 1.419h.018c.236-.491.619-.907 1.148-1.248C67.38 4.172 68.03 4 68.802 4c1.256 0 2.27.41 3.041 1.23C72.615 6.05 73 7.14 73 8.498c0 1.358-.38 2.462-1.138 3.313-.759.85-1.772 1.275-3.042 1.275-.77 0-1.415-.171-1.93-.513-.517-.34-.887-.756-1.11-1.247h-.056c.037.383.056.658.056.826v3.645h1.212c.162 0 .243.072.243.215v.772c0 .144-.081.216-.243.216M80.58 5.832c-.47-.438-1.094-.658-1.875-.658-.78 0-1.451.202-2.01.605-.56.403-.892 1.008-.996 1.814h5.642c-.04-.736-.293-1.322-.762-1.76m2.108 2.845H75.66c.053.984.394 1.742 1.025 2.276.632.534 1.344.8 2.138.8.794 0 1.474-.153 2.04-.462.567-.308.947-.61 1.142-.907.104-.118.222-.136.352-.053l.527.48c.078.071.117.133.117.187 0 .053-.03.122-.088.205-.058.083-.18.213-.361.39-.182.179-.44.38-.771.605-.332.226-.761.416-1.289.57a5.973 5.973 0 0 1-1.688.231c-1.367 0-2.51-.41-3.427-1.227C74.46 10.954 74 9.855 74 8.473c0-1.38.455-2.472 1.367-3.272C76.277 4.4 77.394 4 78.715 4c1.32 0 2.358.389 3.113 1.165.755.777 1.133 1.824 1.133 3.14v.142c0 .154-.091.231-.274.231M94.762 13h-1.744c-.525 0-.789-.252-.789-.757V7.499c0-.697-.171-1.238-.514-1.623-.342-.385-.843-.577-1.504-.577-.941 0-1.676.378-2.202 1.136-.061.072-.14.205-.238.397v4.96h.972c.16 0 .24.071.24.216v.776c0 .144-.08.216-.24.216h-3.504c-.16 0-.239-.072-.239-.216v-.776c0-.145.08-.217.239-.217h1.009V5.335h-1.01c-.158 0-.238-.072-.238-.216v-.776c0-.145.08-.216.239-.216h2.146c.16 0 .239.071.239.216l-.037 1.226h.056C88.278 4.523 89.263 4 90.596 4c.979 0 1.744.283 2.294.848s.832 1.328.844 2.29v4.653h1.028c.159 0 .238.072.238.217v.776c0 .144-.08.216-.238.216M115.768 13h-4.66c-.155 0-.232-.072-.232-.217v-.924c0-.145.077-.217.232-.217h1.489V7.206h-7.194v4.436h1.489c.168 0 .251.072.251.217v.924c0 .145-.083.217-.251.217h-4.641c-.167 0-.251-.072-.251-.217v-.924c0-.145.084-.217.25-.217h1.47V1.358h-1.47c-.166 0-.25-.072-.25-.217V.217c0-.145.084-.217.25-.217h4.642c.168 0 .251.072.251.217v.924c0 .145-.083.217-.251.217h-1.49v4.526h7.195V1.358h-1.49c-.154 0-.231-.072-.231-.217V.217c0-.145.077-.217.232-.217h4.66c.155 0 .232.072.232.217v.924c0 .145-.077.217-.232.217h-1.489v10.284h1.489c.155 0 .232.072.232.217v.924c0 .145-.077.217-.232.217M123.58 5.832c-.47-.438-1.094-.658-1.875-.658-.781 0-1.452.202-2.01.605-.56.403-.893 1.008-.996 1.814h5.642c-.04-.736-.293-1.322-.762-1.76m2.108 2.845h-7.028c.053.984.394 1.742 1.025 2.276.632.534 1.344.8 2.138.8.794 0 1.474-.153 2.04-.462.566-.308.947-.61 1.142-.907.104-.118.222-.136.352-.053l.527.48c.078.071.117.133.117.187 0 .053-.03.122-.088.205-.058.083-.18.213-.361.39-.182.179-.44.38-.771.605-.332.226-.762.416-1.289.57a5.973 5.973 0 0 1-1.688.231c-1.367 0-2.51-.41-3.427-1.227-.917-.819-1.376-1.918-1.376-3.3 0-1.38.455-2.472 1.367-3.272.91-.8 2.027-1.201 3.348-1.201 1.32 0 2.358.389 3.113 1.165.755.777 1.133 1.824 1.133 3.14v.142c0 .154-.091.231-.274.231M133.299 8.775h-1.414c-.692 0-1.265.036-1.718.107-.454.07-.838.225-1.154.461-.316.237-.474.563-.474.977 0 .414.17.754.51 1.02.34.267.784.4 1.333.4 1.157 0 2.129-.509 2.917-1.527V8.775zm2.486 4.083h-1.556c-.513 0-.77-.248-.77-.745v-.906h-.035c-.872 1.196-2.034 1.793-3.49 1.793-.858 0-1.562-.222-2.11-.665-.55-.445-.824-1.045-.824-1.802 0-.971.426-1.684 1.28-2.14.852-.455 2.024-.682 3.515-.682h1.504v-.214c0-1.479-.776-2.22-2.327-2.22-.727 0-1.252.07-1.574.205a6.029 6.029 0 0 0-.69.328c-.137.083-.24.15-.312.196-.18.142-.31.154-.394.036l-.5-.622c-.085-.094-.073-.189.035-.284.203-.26.62-.515 1.252-.763.632-.249 1.378-.373 2.237-.373 2.505 0 3.758 1.183 3.758 3.55v4.118h1.001c.144 0 .215.072.215.214v.763c0 .143-.071.213-.215.213zM141.76 13h-3.52c-.16 0-.24-.072-.24-.217v-.779c0-.145.08-.217.24-.217h1.014V1.213h-1.014c-.16 0-.24-.072-.24-.217V.217c0-.145.08-.217.24-.217h2.046c.331 0 .498.151.498.452v11.335h.976c.16 0 .24.072.24.217v.779c0 .145-.08.217-.24.217M148.93 11.96c.047.05.07.1.07.153 0 .054-.035.117-.106.188-.521.466-1.175.699-1.961.699-.788 0-1.433-.26-1.936-.78-.503-.519-.754-1.274-.754-2.266V5.26h-.994c-.166 0-.249-.077-.249-.232v-.735c0-.155.083-.233.249-.233h.994V2.251c0-.167.082-.251.249-.251h.993c.154 0 .231.084.231.251v1.81h2.255c.165 0 .248.077.248.232v.735c0 .155-.083.232-.248.232h-2.255v4.659c0 .597.134 1.048.4 1.352.266.304.62.457 1.065.457.443 0 .777-.114 1.003-.34.118-.108.225-.102.32.018l.425.555zM159.762 13h-1.744c-.525 0-.789-.253-.789-.76V7.478c0-.7-.17-1.243-.513-1.63-.343-.386-.844-.58-1.504-.58-.503 0-.884.076-1.147.227-.264.15-.462.284-.597.399a2.378 2.378 0 0 0-.33.334 3.437 3.437 0 0 0-.367.598v4.96h.972c.16 0 .239.073.239.218v.779c0 .145-.08.217-.24.217h-3.504c-.159 0-.238-.072-.238-.217v-.779c0-.145.08-.217.238-.217h1.01V1.213h-1.01c-.159 0-.238-.072-.238-.217V.217c0-.145.08-.217.238-.217h2.312c.147 0 .221.072.221.217v4.038c0 .398-.025.767-.074 1.104h.037c.6-.93 1.554-1.394 2.863-1.394.978 0 1.743.284 2.293.851.55.568.832 1.334.844 2.3v4.67h1.028c.159 0 .238.073.238.218v.779c0 .145-.08.217-.238.217M53.756 36h-4.512c-.163 0-.244-.072-.244-.217v-.924c0-.145.081-.217.244-.217h1.43V24.358h-1.43c-.163 0-.244-.072-.244-.217v-.924c0-.145.081-.217.244-.217h4.512c.163 0 .244.072.244.217v.924c0 .145-.081.217-.244.217h-1.448v10.284h1.448c.163 0 .244.072.244.217v.924c0 .145-.081.217-.244.217M70.756 36H68.98c-.287 0-.496-.057-.627-.171-.13-.114-.197-.31-.197-.586v-4.744c0-.698-.171-1.238-.514-1.623-.344-.385-.851-.577-1.525-.577-.986 0-1.76.415-2.32 1.244.074.217.111.457.111.721v4.528h1.048c.15 0 .224.071.224.216v.776c0 .144-.074.216-.224.216h-3.574c-.162 0-.243-.072-.243-.216v-.776c0-.145.08-.216.243-.216h.992v-4.293c0-.698-.175-1.238-.524-1.623-.35-.385-.86-.577-1.534-.577-.513 0-.902.075-1.17.225-.268.15-.471.283-.608.397-.138.114-.25.225-.337.333-.15.193-.274.391-.374.596v4.942h.917c.15 0 .224.071.224.216v.776c0 .144-.075.216-.224.216h-3.5c-.162 0-.243-.072-.243-.216v-.776c0-.145.08-.216.243-.216h1.03v-6.457h-1.03c-.162 0-.243-.073-.243-.216v-.777c0-.144.08-.216.243-.216h1.834c.213 0 .365.04.459.117.093.079.14.22.14.424l-.037.902h.056C58.343 27.523 59.35 27 60.717 27c1.366 0 2.299.5 2.797 1.497C64.226 27.5 65.23 27 66.527 27c.998 0 1.775.282 2.33.848.555.565.833 1.328.833 2.29l.019 4.654h1.047c.162 0 .244.071.244.216v.776c0 .144-.082.216-.244.216M79.298 31.775h-1.413c-.692 0-1.265.035-1.718.107-.454.07-.838.224-1.154.461-.316.237-.474.562-.474.976 0 .415.17.755.51 1.022.34.266.784.399 1.333.399 1.157 0 2.129-.51 2.916-1.526v-1.439zm2.487 4.083h-1.557c-.512 0-.769-.248-.769-.745v-.906h-.035C78.552 35.403 77.39 36 75.934 36c-.858 0-1.562-.222-2.11-.665-.55-.444-.824-1.045-.824-1.802 0-.97.426-1.684 1.28-2.14.852-.455 2.024-.683 3.515-.683h1.503v-.213c0-1.48-.775-2.22-2.326-2.22-.728 0-1.252.069-1.574.205a5.971 5.971 0 0 0-.69.329 9.032 9.032 0 0 0-.312.195c-.18.141-.31.154-.394.036l-.5-.622c-.085-.094-.073-.189.035-.284.203-.26.62-.515 1.252-.763.632-.25 1.378-.373 2.237-.373 2.505 0 3.757 1.183 3.757 3.55v4.119h1.002c.144 0 .215.07.215.213v.763c0 .142-.071.213-.215.213zM84.536 31.823c0 1.05.274 1.897.824 2.54.549.643 1.236.964 2.059.964.825 0 1.508-.318 2.051-.954.542-.638.814-1.49.814-2.56s-.272-1.916-.814-2.54c-.543-.624-1.226-.937-2.051-.937-.823 0-1.51.319-2.059.956-.55.637-.824 1.48-.824 2.53M87.307 41c-.624 0-1.095-.045-1.414-.133a11.69 11.69 0 0 1-.767-.24 4.505 4.505 0 0 1-.89-.429c-.549-.37-.756-.637-.617-.803l.486-.706c.076-.114.181-.12.318-.02a.45.45 0 0 1 .122.087 3.366 3.366 0 0 0 .486.344c.12.07.254.133.403.19.15.058.313.112.488.163a5.1 5.1 0 0 0 1.367.172c.898 0 1.62-.22 2.162-.659.543-.44.815-1.13.815-2.072v-2.177c-.225.534-.596.993-1.114 1.375-.519.381-1.165.572-1.939.572-1.273 0-2.293-.451-3.061-1.356-.768-.904-1.152-2.075-1.152-3.514 0-1.439.391-2.597 1.17-3.477.78-.878 1.796-1.317 3.043-1.317.774 0 1.427.181 1.957.544.53.363.915.806 1.152 1.328h.038l-.02-1.51c0-.152.075-.228.226-.228h2.209c.15 0 .225.076.225.228v.822c0 .152-.075.23-.225.23h-1.011v8.48c0 1.362-.41 2.387-1.227 3.075-.818.687-1.894 1.031-3.23 1.031M96.72 24.31c.201.208.303.452.303.732a.95.95 0 0 1-.304.712 1.013 1.013 0 0 1-.728.292c-.283 0-.526-.097-.728-.292a.95.95 0 0 1-.305-.712c0-.28.102-.524.305-.731A.984.984 0 0 1 95.99 24c.283 0 .525.104.728.31M97.76 36h-3.52c-.16 0-.24-.073-.24-.22v-.784c0-.147.08-.22.24-.22h1.014v-6.538h-1.015c-.16 0-.239-.074-.239-.22v-.785c0-.146.08-.219.24-.219h2.323c.146 0 .22.073.22.219v7.543h.977c.16 0 .24.073.24.22v.784c0 .147-.08.22-.24.22M109.762 36h-1.744c-.525 0-.789-.252-.789-.757v-4.744c0-.698-.17-1.238-.514-1.623-.342-.385-.843-.577-1.504-.577-.942 0-1.676.378-2.202 1.136-.061.072-.14.205-.238.397v4.96h.972c.16 0 .239.071.239.216v.776c0 .144-.08.216-.24.216h-3.504c-.159 0-.238-.072-.238-.216v-.776c0-.145.08-.216.238-.216h1.01v-6.457h-1.01c-.159 0-.238-.073-.238-.216v-.777c0-.144.08-.216.238-.216h2.147c.16 0 .239.072.239.216l-.037 1.227h.055c.636-1.046 1.621-1.569 2.954-1.569.979 0 1.744.282 2.294.848.55.565.832 1.328.844 2.29v4.654h1.028c.159 0 .238.071.238.216v.776c0 .144-.08.216-.238.216M112.536 31.823c0 1.05.274 1.897.824 2.54.548.643 1.236.964 2.06.964.824 0 1.507-.318 2.05-.954.543-.638.815-1.49.815-2.56s-.272-1.916-.815-2.54c-.543-.624-1.226-.937-2.05-.937-.824 0-1.512.319-2.06.956-.55.637-.824 1.48-.824 2.53M115.307 41c-.625 0-1.095-.045-1.414-.133a11.69 11.69 0 0 1-.768-.24 4.505 4.505 0 0 1-.89-.429c-.548-.37-.755-.637-.617-.803l.487-.706c.075-.114.181-.12.318-.02a.45.45 0 0 1 .122.087 3.305 3.305 0 0 0 .487.344c.119.07.252.133.402.19.15.058.312.112.488.163a5.1 5.1 0 0 0 1.367.172c.899 0 1.619-.22 2.162-.659.543-.44.814-1.13.814-2.072v-2.177c-.224.534-.596.993-1.113 1.375-.519.381-1.165.572-1.939.572-1.273 0-2.294-.451-3.062-1.356-.767-.904-1.151-2.075-1.151-3.514 0-1.439.39-2.597 1.17-3.477.78-.878 1.795-1.317 3.043-1.317.774 0 1.427.181 1.957.544.53.363.914.806 1.152 1.328h.037l-.018-1.51c0-.152.074-.228.224-.228h2.21c.15 0 .225.076.225.228v.822c0 .152-.075.23-.225.23h-1.011v8.48c0 1.362-.41 2.387-1.227 3.075-.818.687-1.894 1.031-3.23 1.031M133.362 36h-5.121c-.16 0-.241-.072-.241-.217v-.924c0-.145.08-.217.241-.217h1.41V24.358h-1.41c-.16 0-.241-.072-.241-.217v-.924c0-.145.08-.217.241-.217h9.518c.16 0 .241.072.241.217v2.915c0 .157-.08.236-.241.236h-1.002c-.148 0-.222-.079-.222-.236v-1.774h-5.27v4.49h4.36c.161 0 .241.073.241.218v.923c0 .145-.08.217-.24.217h-4.36v4.436h2.096c.148 0 .222.072.222.217v.924c0 .145-.074.217-.222.217M140.519 31.482c0 .973.289 1.761.866 2.366a2.822 2.822 0 0 0 2.124.907c.837 0 1.545-.302 2.124-.907.577-.605.867-1.393.867-2.366 0-.971-.293-1.755-.877-2.348-.584-.593-1.286-.889-2.105-.889-.82 0-1.524.296-2.114.89-.591.592-.885 1.376-.885 2.347m6.216 3.273c-.844.83-1.922 1.245-3.235 1.245s-2.392-.411-3.235-1.236c-.844-.824-1.265-1.92-1.265-3.29s.428-2.458 1.283-3.264c.855-.807 1.93-1.21 3.226-1.21 1.295 0 2.368.406 3.217 1.219.85.812 1.274 1.897 1.274 3.255 0 1.357-.422 2.45-1.265 3.28M158.761 35.874h-1.596c-.526 0-.789-.253-.789-.757v-.668h-.055C155.82 35.483 154.865 36 153.46 36c-.979 0-1.753-.286-2.321-.857-.57-.57-.86-1.331-.872-2.281v-4.654h-1.045c-.147 0-.221-.072-.221-.216v-.776c0-.144.074-.216.22-.216h1.762c.526 0 .789.252.789.757v4.744c0 .698.17 1.239.514 1.624.342.385.844.576 1.504.576.893 0 1.596-.325 2.11-.974.22-.276.33-.463.33-.558v-4.96h-.99c-.147 0-.22-.073-.22-.217v-.776c0-.144.073-.216.22-.216h2.275c.147 0 .22.072.22.216v7.45h1.027c.16 0 .239.071.239.216v.775c0 .145-.08.217-.239.217M169.762 36h-1.743c-.526 0-.79-.252-.79-.757v-4.744c0-.698-.17-1.238-.513-1.623-.343-.385-.844-.577-1.504-.577-.943 0-1.677.378-2.203 1.136a2.26 2.26 0 0 0-.238.397v4.96h.972c.16 0 .239.071.239.216v.776c0 .144-.08.216-.24.216h-3.504c-.159 0-.238-.072-.238-.216v-.776c0-.145.08-.216.238-.216h1.01v-6.457h-1.01c-.159 0-.238-.073-.238-.216v-.777c0-.144.08-.216.238-.216h2.147c.16 0 .239.072.239.216l-.036 1.227h.054c.637-1.046 1.621-1.569 2.955-1.569.978 0 1.743.282 2.293.848.55.565.832 1.328.844 2.29v4.654h1.028c.159 0 .238.071.238.216v.776c0 .144-.08.216-.238.216M172.53 32.076c0 1.07.27 1.932.812 2.588.54.657 1.228.984 2.06.984.834 0 1.52-.325 2.053-.975.535-.65.803-1.515.803-2.597 0-1.081-.274-1.933-.821-2.559-.548-.624-1.225-.936-2.034-.936-.809 0-1.49.315-2.043.946-.553.631-.83 1.48-.83 2.549m8.246 4.789h-1.623c-.287 0-.494-.06-.625-.183-.13-.123-.196-.332-.196-.628v-1.081h-.018c-.2.54-.573 1.013-1.12 1.419-.547.405-1.212.608-1.996.608-1.244 0-2.255-.45-3.032-1.352-.777-.9-1.166-2.082-1.166-3.543 0-1.461.39-2.639 1.166-3.534.777-.894 1.794-1.342 3.05-1.342.772 0 1.412.184 1.922.55.51.367.877.815 1.101 1.343h.019c-.012-.258-.019-.47-.019-.638v-4.19h-1.045c-.162 0-.242-.077-.242-.232v-.83c0-.154.08-.232.242-.232h2.314c.149 0 .224.078.224.232v12.34h1.044c.15 0 .224.076.224.23v.831c0 .155-.074.232-.224.232M189.298 31.775h-1.414c-.692 0-1.264.035-1.717.107-.454.07-.839.224-1.154.461-.316.237-.474.562-.474.976 0 .415.17.755.51 1.022.34.266.784.399 1.333.399 1.157 0 2.129-.51 2.916-1.526v-1.439zm2.487 4.083h-1.557c-.512 0-.769-.248-.769-.745v-.906h-.035c-.872 1.196-2.035 1.793-3.49 1.793-.858 0-1.562-.222-2.11-.665-.55-.444-.824-1.045-.824-1.802 0-.97.426-1.684 1.28-2.14.852-.455 2.024-.683 3.515-.683h1.503v-.213c0-1.48-.775-2.22-2.326-2.22-.728 0-1.252.069-1.574.205a5.971 5.971 0 0 0-.69.329 9.148 9.148 0 0 0-.313.195c-.179.141-.31.154-.393.036l-.501-.622c-.084-.094-.072-.189.036-.284.202-.26.62-.515 1.252-.763.632-.25 1.378-.373 2.237-.373 2.504 0 3.757 1.183 3.757 3.55v4.119h1.002c.143 0 .215.07.215.213v.763c0 .142-.072.213-.215.213zM198.929 34.96a.217.217 0 0 1 .071.153c0 .054-.036.117-.106.188-.521.467-1.175.699-1.962.699-.787 0-1.432-.26-1.935-.78-.503-.519-.755-1.274-.755-2.266v-4.693h-.994c-.166 0-.248-.078-.248-.233v-.734c0-.156.082-.234.248-.234h.994v-1.809c0-.167.083-.251.25-.251h.993c.154 0 .231.084.231.251v1.81h2.254c.166 0 .249.077.249.233v.734c0 .155-.083.233-.249.233h-2.254v4.658c0 .597.133 1.048.4 1.352.265.305.62.457 1.064.457.444 0 .778-.113 1.003-.34.119-.107.225-.102.32.018l.426.555zM203.72 24.31c.201.208.303.452.303.732a.95.95 0 0 1-.304.712 1.013 1.013 0 0 1-.728.292c-.283 0-.526-.097-.728-.292a.95.95 0 0 1-.305-.712c0-.28.102-.524.305-.731a.984.984 0 0 1 .728-.311c.283 0 .525.104.728.31M204.76 36h-3.52c-.16 0-.24-.073-.24-.22v-.784c0-.147.08-.22.24-.22h1.014v-6.538h-1.015c-.16 0-.239-.074-.239-.22v-.785c0-.146.08-.219.24-.219h2.323c.146 0 .22.073.22.219v7.543h.977c.16 0 .24.073.24.22v.784c0 .147-.08.22-.24.22M207.519 31.482c0 .973.289 1.761.866 2.366a2.822 2.822 0 0 0 2.124.907c.838 0 1.545-.302 2.124-.907.577-.605.867-1.393.867-2.366 0-.971-.292-1.755-.877-2.348-.584-.593-1.286-.889-2.105-.889-.82 0-1.524.296-2.114.89-.591.592-.885 1.376-.885 2.347m6.216 3.273c-.844.83-1.922 1.245-3.235 1.245s-2.392-.411-3.235-1.236c-.844-.824-1.265-1.92-1.265-3.29s.428-2.458 1.283-3.264c.855-.807 1.93-1.21 3.226-1.21 1.295 0 2.368.406 3.217 1.219.85.812 1.274 1.897 1.274 3.255 0 1.357-.422 2.45-1.265 3.28M226.762 36h-1.744c-.525 0-.789-.252-.789-.757v-4.744c0-.698-.171-1.238-.514-1.623-.342-.385-.843-.577-1.504-.577-.942 0-1.677.378-2.202 1.136a2.26 2.26 0 0 0-.238.397v4.96h.972c.16 0 .239.071.239.216v.776c0 .144-.08.216-.24.216h-3.503c-.16 0-.239-.072-.239-.216v-.776c0-.145.08-.216.239-.216h1.009v-6.457h-1.01c-.159 0-.238-.073-.238-.216v-.777c0-.144.08-.216.239-.216h2.146c.16 0 .239.072.239.216l-.037 1.227h.055c.636-1.046 1.621-1.569 2.954-1.569.979 0 1.743.282 2.294.848.55.565.832 1.328.844 2.29v4.654h1.028c.158 0 .238.071.238.216v.776c0 .144-.08.216-.238.216"/>
        <path stroke="#FEFEFE" stroke-width="2" d="M36 35.013a.99.99 0 0 1-.987.987H21.987a.99.99 0 0 1-.987-.987V21.987a.99.99 0 0 1 .987-.987h13.026a.99.99 0 0 1 .987.987v13.026zM36 15.013a.99.99 0 0 1-.987.987H21.987a.99.99 0 0 1-.987-.987V1.987A.99.99 0 0 1 21.987 1h13.026a.99.99 0 0 1 .987.987v13.026zM16 35.013a.99.99 0 0 1-.987.987H1.987A.99.99 0 0 1 1 35.013V21.987A.99.99 0 0 1 1.987 21h13.026a.99.99 0 0 1 .987.987v13.026zM16 15.013a.99.99 0 0 1-.987.987H1.987A.99.99 0 0 1 1 15.013V1.987A.99.99 0 0 1 1.987 1h13.026a.99.99 0 0 1 .987.987v13.026z"/>
    </g>
</svg>
