<svg xmlns="http://www.w3.org/2000/svg" xmlns:xlink="http://www.w3.org/1999/xlink" width="243" height="53" viewBox="0 0 243 53">
    <defs>
        <path id="a" d="M0 .214h20.656V3.66H0z"/>
        <path id="c" d="M.34.36h3.446V22H.34z"/>
        <path id="e" d="M.34.358h3.446v21.147H.34z"/>
        <path id="g" d="M0 53h243V1H0z"/>
    </defs>
    <g fill="none" fill-rule="evenodd">
        <path fill="#FEFEFE" d="M72.38 14.84c2.23 0 3.622-1.263 3.622-3.035v-.05c0-1.99-1.415-3.035-3.622-3.035h-3.43v6.12h3.43zM66 6h6.619C76.529 6 79 8.259 79 11.683v.049c0 3.813-3.022 5.803-6.716 5.803H68.95V23H66V6zM91.142 14.427c2.074 0 3.393-1.116 3.393-2.84v-.05c0-1.822-1.273-2.817-3.417-2.817H86.9v5.707h4.242zM84 6h7.354c2.074 0 3.7.631 4.76 1.7.872.923 1.367 2.185 1.367 3.667v.048c0 2.793-1.626 4.47-3.936 5.148L98 23h-3.417l-4.055-5.925H86.9V23H84V6zM102 6h11.886v2.671h-9.069v4.42h8.038v2.673h-8.038v4.565H114V23h-12zM117 14.547V14.5c0-4.672 3.726-8.5 9.024-8.5 3.225 0 5.176 1.056 6.85 2.56l-1.974 2.136c-1.4-1.22-2.9-2.043-4.9-2.043-3.35 0-5.776 2.583-5.776 5.8v.047c0 3.217 2.425 5.847 5.776 5.847 2.149 0 3.525-.822 5.024-2.137L133 20.088c-1.825 1.785-3.826 2.912-7.1 2.912-5.1 0-8.9-3.733-8.9-8.453M137 6h3v17h-3v-7.7zM144 20.355l1.775-2.077c1.607 1.37 3.214 2.15 5.301 2.15 1.822 0 2.974-.828 2.974-2.08v-.046c0-1.18-.67-1.819-3.79-2.527-3.573-.85-5.588-1.888-5.588-4.933v-.049c0-2.833 2.398-4.793 5.733-4.793 2.446 0 4.388.733 6.091 2.078l-1.583 2.196c-1.51-1.109-3.02-1.7-4.557-1.7-1.727 0-2.734.874-2.734 1.96v.046c0 1.276.768 1.843 3.982 2.598 3.55.85 5.396 2.101 5.396 4.84v.047c0 3.094-2.47 4.935-5.996 4.935-2.567 0-4.99-.874-7.004-2.645M161 6h3v17h-3v-4.837zM183.005 14.547V14.5c0-3.194-2.3-5.847-5.528-5.847-3.228 0-5.48 2.607-5.48 5.8v.047c0 3.194 2.298 5.847 5.526 5.847 3.228 0 5.482-2.607 5.482-5.8m-14.005 0V14.5c0-4.626 3.53-8.5 8.523-8.5C182.517 6 186 9.828 186 14.454v.046c0 4.627-3.53 8.5-8.523 8.5-4.994 0-8.477-3.827-8.477-8.453M190 6h2.803l9.221 11.755V6H205v17h-2.533l-9.49-12.095V23H190zM6 31v16h16v-4H10V31zM30 47h16V31h-4v12H30zM46 22V6H30v4h12v12zM22 6H6v16h4V10h12z"/>
        <g transform="translate(0 25)">
            <mask id="b" fill="#fff">
                <use xlink:href="#a"/>
            </mask>
            <path fill="#FEFEFE" d="M18.762.214H1.894C.848.214 0 .985 0 1.937 0 2.89.848 3.66 1.894 3.66h16.868c1.046 0 1.894-.77 1.894-1.723 0-.952-.848-1.723-1.894-1.723" mask="url(#b)"/>
        </g>
        <path fill="#FEFEFE" d="M50.074 25H32.926C31.86 25 31 25.895 31 27s.861 2 1.926 2h17.148C51.14 29 52 28.105 52 27s-.861-2-1.926-2"/>
        <g transform="translate(24 31)">
            <mask id="d" fill="#fff">
                <use xlink:href="#c"/>
            </mask>
            <path fill="#FEFEFE" d="M2.063.36C1.11.36.34 1.25.34 2.346v17.671C.34 21.112 1.11 22 2.063 22c.952 0 1.723-.888 1.723-1.984V2.345C3.786 1.249 3.015.36 2.063.36" mask="url(#d)"/>
        </g>
        <g transform="translate(24)">
            <mask id="f" fill="#fff">
                <use xlink:href="#e"/>
            </mask>
            <path fill="#FEFEFE" d="M2.063.358C1.11.358.34 1.226.34 2.298v17.269c0 1.07.77 1.939 1.723 1.938.952 0 1.723-.868 1.723-1.939V2.296c0-1.07-.771-1.938-1.723-1.938" mask="url(#f)"/>
        </g>
        <path fill="#FEFEFE" d="M66 30h2v17h-2v-6.265zM71 34.25h1.866v1.977C73.69 35.069 74.805 34 76.914 34c2.036 0 3.344 1.022 4.023 2.34.896-1.295 2.23-2.34 4.41-2.34C88.231 34 90 35.817 90 38.726V46h-1.866v-6.864c0-2.272-1.211-3.545-3.247-3.545-1.89 0-3.466 1.318-3.466 3.635V46h-1.842v-6.91c0-2.204-1.236-3.5-3.223-3.5-1.987 0-3.49 1.546-3.49 3.705V46H71V34.25zM103.299 40.512v-.047c0-2.872-2.092-4.8-4.299-4.8-2.299 0-4.184 1.784-4.184 4.8v.047c0 2.943 1.931 4.825 4.184 4.825 2.207 0 4.299-1.955 4.299-4.825M93 40.537v-.049C93 36.412 95.827 34 98.679 34c2.206 0 3.631 1.254 4.55 2.653v-2.388H105v12.47h-1.77v-2.51c-.966 1.497-2.368 2.775-4.551 2.775C95.827 47 93 44.636 93 40.537M118.3 40.036v-.05c0-2.611-2.116-4.31-4.369-4.31-2.254 0-4.115 1.674-4.115 4.286v.05c0 2.562 1.908 4.335 4.115 4.335 2.253 0 4.368-1.749 4.368-4.31m-9.747 9.188l.804-1.477c1.356 1.059 2.874 1.626 4.575 1.626 2.62 0 4.322-1.553 4.322-4.533v-1.503c-1.035 1.478-2.483 2.685-4.667 2.685-2.85 0-5.586-2.29-5.586-5.961v-.05c0-3.722 2.76-6.012 5.586-6.012 2.23 0 3.679 1.182 4.644 2.563V34.27H120v10.52c0 1.971-.552 3.474-1.517 4.51-1.058 1.132-2.644 1.699-4.528 1.699-1.979 0-3.817-.591-5.403-1.775"/>
        <mask id="h" fill="#fff">
            <use xlink:href="#g"/>
        </mask>
        <path fill="#FEFEFE" d="M123.114 47h1.75V34.707h-1.75V47zM123 32.02h2V30h-2v2.02zM129 34.25h1.873v2.045c.829-1.273 2.143-2.295 4.309-2.295 3.043 0 4.818 1.908 4.818 4.704V46h-1.874v-6.864c0-2.181-1.265-3.545-3.48-3.545-2.166 0-3.773 1.477-3.773 3.682V46H129V34.25zM153.3 40.036v-.05c0-2.611-2.116-4.31-4.369-4.31-2.254 0-4.115 1.674-4.115 4.286v.05c0 2.562 1.908 4.335 4.115 4.335 2.253 0 4.368-1.749 4.368-4.31m-9.747 9.188l.804-1.477c1.356 1.059 2.874 1.626 4.575 1.626 2.62 0 4.322-1.553 4.322-4.533v-1.503c-1.035 1.478-2.483 2.685-4.667 2.685-2.85 0-5.586-2.29-5.586-5.961v-.05c0-3.722 2.76-6.012 5.586-6.012 2.23 0 3.679 1.182 4.644 2.563V34.27H155v10.52c0 1.971-.552 3.474-1.517 4.51-1.058 1.132-2.644 1.699-4.528 1.699-1.979 0-3.817-.591-5.403-1.775M164 30h2.03l6.47 9.277L178.97 30H181v17h-2.004V33.23l-6.47 9.107h-.102l-6.47-9.082V47H164zM193.086 39.753c-.221-2.262-1.546-4.187-4.049-4.187-2.184 0-3.853 1.78-4.122 4.187h8.17zm-3.706 5.633c1.742 0 2.97-.697 4-1.756l1.178 1.035C193.282 46.06 191.736 47 189.331 47c-3.484 0-6.331-2.624-6.331-6.5 0-3.611 2.577-6.5 6.086-6.5 3.755 0 5.914 2.938 5.914 6.596 0 .17 0 .362-.025.65h-10.06c.27 2.624 2.232 4.14 4.465 4.14zM198.61 43.36v-7.777H197V33.89h1.61V30h1.723v3.89H204v1.693h-3.667v7.528c0 1.57.782 2.143 1.945 2.143.581 0 1.074-.124 1.677-.448v1.645a3.98 3.98 0 0 1-2.08.549c-1.856 0-3.264-1.023-3.264-3.64M206 34.21h1.871v3.077c.924-1.96 2.747-3.374 5.129-3.283v1.893h-.145c-2.747 0-4.984 1.847-4.984 5.405V46H206V34.21zM215.114 47h1.75V34.707h-1.75V47zM215 32.02h2V30h-2v2.02zM220 40.549v-.05c0-3.515 2.875-6.499 6.68-6.499 2.471 0 4.009.987 5.218 2.215l-1.284 1.299c-1.035-1.035-2.194-1.877-3.958-1.877-2.648 0-4.665 2.143-4.665 4.816v.046c0 2.698 2.067 4.84 4.79 4.84 1.664 0 2.95-.795 3.984-1.854L232 44.593C230.689 45.99 229.125 47 226.68 47c-3.805 0-6.68-2.961-6.68-6.451M233 45.157l.98-1.335c1.407 1.02 2.965 1.601 4.497 1.601 1.558 0 2.689-.775 2.689-1.988v-.05c0-1.26-1.532-1.745-3.242-2.206-2.035-.558-4.296-1.237-4.296-3.541v-.048c0-2.16 1.859-3.59 4.422-3.59 1.584 0 3.342.533 4.674 1.382l-.88 1.407c-1.205-.752-2.588-1.213-3.844-1.213-1.532 0-2.513.777-2.513 1.82v.048c0 1.189 1.608 1.649 3.342 2.158 2.01.582 4.171 1.334 4.171 3.59v.048c0 2.378-2.034 3.76-4.624 3.76-1.858 0-3.919-.703-5.376-1.843" mask="url(#h)"/>
    </g>
</svg>
