<?xml version="1.0" encoding="utf-8"?>
<!-- Generator: Adobe Illustrator 23.0.0, SVG Export Plug-In . SVG Version: 6.00 Build 0)  -->
<svg version="1.1" id="Layer_1" xmlns="http://www.w3.org/2000/svg" xmlns:xlink="http://www.w3.org/1999/xlink" x="0px" y="0px"
	 viewBox="0 0 562 161" style="enable-background:new 0 0 562 161;" xml:space="preserve">
<style type="text/css">
	.st0{fill:#FFFFFF;}
</style>
<g>
	<g>
		<g>
			<g>
				<path class="st0" d="M171.3,43.6h13.5c8,0,13,4.6,13,11.5v0.1c0,7.7-6.2,11.7-13.7,11.7h-6.8v11h-6V43.6z M184.3,61.4
					c4.6,0,7.4-2.6,7.4-6.1v-0.1c0-4-2.9-6.1-7.4-6.1h-7v12.4L184.3,61.4L184.3,61.4z"/>
				<path class="st0" d="M205.4,43.6h15.3c4.3,0,7.7,1.3,9.9,3.4c1.8,1.9,2.8,4.4,2.8,7.4v0.1c0,5.6-3.4,9-8.2,10.4l9.3,13h-7.1
					l-8.4-12h-7.5v12h-6V43.6z M220.2,60.6c4.3,0,7.1-2.2,7.1-5.7v-0.1c0-3.7-2.6-5.7-7.1-5.7h-8.8v11.5H220.2z"/>
				<path class="st0" d="M242.4,43.6h25.5V49h-19.4v8.9h17.2v5.4h-17.2v9.2h19.7v5.4h-25.7L242.4,43.6L242.4,43.6z"/>
				<path class="st0" d="M274.6,60.9v-0.1c0-9.8,7.3-17.8,17.7-17.8c6.3,0,10.1,2.2,13.4,5.3l-3.9,4.5c-2.8-2.6-5.7-4.3-9.6-4.3
					c-6.6,0-11.3,5.4-11.3,12.1v0.1c0,6.7,4.8,12.2,11.3,12.2c4.2,0,6.9-1.7,9.9-4.5l3.9,3.9c-3.6,3.7-7.5,6.1-13.9,6.1
					C282.1,78.5,274.6,70.7,274.6,60.9z"/>
				<path class="st0" d="M313.7,43.6h6v6.1v28.3h-6V62.4V43.6z"/>
				<path class="st0" d="M328,72.9l3.6-4.3c3.3,2.8,6.6,4.5,10.8,4.5c3.7,0,6.1-1.7,6.1-4.3v-0.1c0-2.4-1.4-3.8-7.8-5.2
					c-7.3-1.8-11.4-3.9-11.4-10.2v-0.1c0-5.9,4.9-9.9,11.7-9.9c5,0,9,1.5,12.5,4.3l-3.2,4.6c-3.1-2.3-6.2-3.5-9.3-3.5
					c-3.5,0-5.6,1.8-5.6,4.1v0.1c0,2.6,1.6,3.8,8.1,5.4c7.3,1.8,11,4.4,11,10.1v0.1c0,6.4-5,10.2-12.3,10.2
					C337.1,78.4,332.1,76.6,328,72.9z"/>
				<path class="st0" d="M363.5,43.6h6v6.1v28.3h-6v-9.8V43.6z"/>
				<path class="st0" d="M378.5,60.9v-0.1c0-9.7,7.5-17.8,18-17.8s17.9,8,17.9,17.6v0.1c0,9.7-7.5,17.8-18,17.8
					C385.8,78.5,378.5,70.5,378.5,60.9z M408.1,60.9v-0.1c0-6.7-4.9-12.2-11.7-12.2s-11.6,5.4-11.6,12.1v0.1
					c0,6.7,4.9,12.2,11.7,12.2S408.1,67.5,408.1,60.9z"/>
				<path class="st0" d="M422,43.6h5.6L446,67.3V43.6h5.9v34.3h-5L428,53.5v24.4H422L422,43.6L422,43.6z"/>
			</g>
		</g>
		<g>
			<g>
				<polygon class="st0" points="49.6,93.4 49.6,117.1 49.6,125 49.6,125 57.5,125 57.5,125 81.2,125 81.2,117.1 57.5,117.1 
					57.5,93.4 				"/>
				<polygon class="st0" points="99.5,125 123.2,125 131.1,125 131.1,125 131.1,117.1 131.1,117.1 131.1,93.4 123.2,93.4 
					123.2,117.1 99.5,117.1 				"/>
				<polygon class="st0" points="131.1,75.2 131.1,51.5 131.1,43.6 131.1,43.6 123.2,43.6 123.2,43.6 99.5,43.6 99.5,51.5 
					123.2,51.5 123.2,75.2 				"/>
				<polygon class="st0" points="81.2,43.6 57.5,43.6 49.6,43.6 49.6,43.6 49.6,51.5 49.6,51.5 49.6,75.2 57.5,75.2 57.5,51.5 
					81.2,51.5 				"/>
			</g>
			<g>
				<path class="st0" d="M76.1,80.4H41.6c-2.1,0-3.9,1.7-3.9,3.9s1.7,3.9,3.9,3.9h34.5c2.1,0,3.9-1.7,3.9-3.9
					C80,82.2,78.2,80.4,76.1,80.4z"/>
				<path class="st0" d="M139.1,80.4h-34.5c-2.1,0-3.9,1.7-3.9,3.9s1.7,3.9,3.9,3.9h34.5c2.1,0,3.9-1.7,3.9-3.9
					C143,82.2,141.2,80.4,139.1,80.4z"/>
				<path class="st0" d="M90.3,94.7c-2.1,0-3.9,1.7-3.9,3.9v34.5c0,2.1,1.7,3.9,3.9,3.9c2.1,0,3.9-1.7,3.9-3.9V98.5
					C94.2,96.4,92.5,94.7,90.3,94.7z"/>
				<path class="st0" d="M90.3,31.7c-2.1,0-3.9,1.7-3.9,3.9v34.5c0,2.1,1.7,3.9,3.9,3.9c2.1,0,3.9-1.7,3.9-3.9V35.5
					C94.2,33.4,92.5,31.7,90.3,31.7z"/>
			</g>
		</g>
	</g>
	<g>
		<path class="st0" d="M171.2,91h3.8v12.2V125h-3.8v-12.6V91z"/>
		<path class="st0" d="M181.3,99.9h3.7v4.2c1.6-2.5,3.9-4.8,8.1-4.8c4.1,0,6.7,2.2,8.1,5c1.8-2.8,4.5-5,8.9-5
			c5.8,0,9.3,3.9,9.3,10.1V125h-3.7v-14.7c0-4.9-2.4-7.6-6.5-7.6c-3.8,0-7,2.8-7,7.8V125h-3.7v-14.8c0-4.7-2.5-7.5-6.5-7.5
			s-7,3.3-7,7.9V125h-3.7L181.3,99.9L181.3,99.9z"/>
		<path class="st0" d="M224.6,112.5v-0.1c0-8.2,6-13.1,12-13.1c4.7,0,7.7,2.5,9.6,5.4v-4.8h3.7V125h-3.7V120c-2,3-5,5.6-9.6,5.6
			C230.6,125.6,224.6,120.8,224.6,112.5z M246.4,112.5v-0.1c0-5.8-4.4-9.7-9.1-9.7c-4.9,0-8.9,3.6-8.9,9.7v0.1
			c0,5.9,4.1,9.7,8.9,9.7C241.9,122.2,246.4,118.3,246.4,112.5z"/>
		<path class="st0" d="M256.1,129.4l1.7-2.9c2.9,2.1,6.1,3.2,9.7,3.2c5.5,0,9.1-3.1,9.1-8.9v-3c-2.2,2.9-5.2,5.3-9.9,5.3
			c-6,0-11.8-4.5-11.8-11.8v-0.1c0-7.3,5.8-11.9,11.8-11.9c4.7,0,7.8,2.3,9.8,5.1v-4.5h3.7v20.8c0,3.9-1.2,6.9-3.2,8.9
			c-2.2,2.2-5.6,3.4-9.6,3.4C263.3,132.9,259.5,131.7,256.1,129.4z M276.7,111.3v-0.1c0-5.2-4.5-8.5-9.2-8.5s-8.7,3.3-8.7,8.5v0.1
			c0,5.1,4,8.6,8.7,8.6C272.2,119.8,276.7,116.3,276.7,111.3z"/>
		<path class="st0" d="M287.2,90.2h4.3v4.1h-4.3V90.2z M287.5,99.9h3.7V125h-3.7V99.9z"/>
		<path class="st0" d="M298.5,99.9h3.7v4.4c1.6-2.7,4.3-4.9,8.6-4.9c6.1,0,9.6,4.1,9.6,10.1V125h-3.7v-14.7c0-4.7-2.5-7.6-7-7.6
			c-4.3,0-7.5,3.2-7.5,7.9V125h-3.7L298.5,99.9L298.5,99.9z"/>
		<path class="st0" d="M326.9,129.4l1.7-2.9c2.9,2.1,6.1,3.2,9.7,3.2c5.5,0,9.1-3.1,9.1-8.9v-3c-2.2,2.9-5.2,5.3-9.9,5.3
			c-6,0-11.8-4.5-11.8-11.8v-0.1c0-7.3,5.8-11.9,11.8-11.9c4.7,0,7.8,2.3,9.8,5.1v-4.5h3.7v20.8c0,3.9-1.2,6.9-3.2,8.9
			c-2.2,2.2-5.6,3.4-9.6,3.4C334.1,132.9,330.2,131.7,326.9,129.4z M347.5,111.3v-0.1c0-5.2-4.5-8.5-9.2-8.5s-8.7,3.3-8.7,8.5v0.1
			c0,5.1,4,8.6,8.7,8.6C343,119.8,347.5,116.3,347.5,111.3z"/>
		<path class="st0" d="M371.3,91h3.9l12.4,18.6L400,91h3.9V125H400V97.4l-12.4,18.2h-0.2L375,97.5V125h-3.8V91z"/>
		<path class="st0" d="M421,122.3c3.5,0,5.9-1.4,7.9-3.6l2.3,2.1c-2.5,2.8-5.6,4.7-10.4,4.7c-6.9,0-12.5-5.3-12.5-13.1
			c0-7.3,5.1-13.1,12.1-13.1c7.4,0,11.7,5.9,11.7,13.3c0,0.3,0,0.7,0,1.3h-19.9C412.7,119.3,416.6,122.3,421,122.3z M428.4,111
			c-0.4-4.6-3.1-8.5-8-8.5c-4.3,0-7.6,3.6-8.2,8.5H428.4z"/>
		<path class="st0" d="M438.3,118.4v-15.2h-3.5v-3.3h3.5v-7.6h3.7v7.6h8v3.3h-8v14.7c0,3.1,1.7,4.2,4.2,4.2c1.3,0,2.3-0.2,3.7-0.9
			v3.2c-1.3,0.7-2.7,1.1-4.5,1.1C441.4,125.5,438.3,123.5,438.3,118.4z"/>
		<path class="st0" d="M454.7,99.9h3.7v6.6c1.8-4.2,5.5-7.2,10.3-7v4h-0.3c-5.5,0-10,3.9-10,11.5v10h-3.7L454.7,99.9L454.7,99.9z"/>
		<path class="st0" d="M472.9,90.2h4.3v4.1h-4.3V90.2z M473.1,99.9h3.7V125h-3.7V99.9z"/>
		<path class="st0" d="M482.5,112.6v-0.1c0-7.1,5.5-13.1,12.9-13.1c4.8,0,7.7,2,10.1,4.5l-2.5,2.6c-2-2.1-4.2-3.8-7.6-3.8
			c-5.1,0-9,4.3-9,9.7v0.1c0,5.4,4,9.8,9.2,9.8c3.2,0,5.7-1.6,7.7-3.8l2.4,2.2c-2.5,2.8-5.5,4.9-10.3,4.9
			C488,125.6,482.5,119.6,482.5,112.6z"/>
		<path class="st0" d="M509,121.8l1.9-2.7c2.7,2,5.7,3.2,8.7,3.2c3,0,5.2-1.6,5.2-4v-0.1c0-2.5-3-3.5-6.3-4.4
			c-3.9-1.1-8.3-2.5-8.3-7.1v-0.1c0-4.3,3.6-7.2,8.6-7.2c3.1,0,6.5,1.1,9,2.8l-1.7,2.8c-2.3-1.5-5-2.4-7.4-2.4c-3,0-4.9,1.6-4.9,3.6
			v0.1c0,2.4,3.1,3.3,6.5,4.3c3.9,1.2,8.1,2.7,8.1,7.2v0.1c0,4.8-3.9,7.5-9,7.5C515.9,125.5,511.9,124.1,509,121.8z"/>
	</g>
</g>
</svg>
