<svg xmlns="http://www.w3.org/2000/svg" xmlns:xlink="http://www.w3.org/1999/xlink" width="270" height="78" viewBox="0 0 270 78">
    <defs>
        <path id="a" d="M0 78h269.746V.38H0z"/>
    </defs>
    <g fill="none" fill-rule="evenodd">
        <path fill="#FEFEFE" d="M20.823 55.164v4.875h-1.761v-4.52c0-1.036-.672-1.777-1.627-1.777-1.03 0-1.88.741-1.88 1.66v4.637h-1.822V49.682h1.821v3.749c.463-.74 1.373-1.23 2.404-1.23 1.686 0 2.865 1.23 2.865 2.963M24.272 55.446h4.06c-.208-.963-.865-1.645-1.955-1.645-1.015 0-1.836.637-2.105 1.645m4.12 2.4l1.15 1.185c-.672.712-2.015 1.186-3.135 1.186-2.209 0-4.03-1.675-4.03-4.03 0-2.297 1.731-3.986 3.926-3.986 2.388 0 3.776 1.793 3.776 4.622h-5.821c.223 1.052 1.03 1.793 2.134 1.793.717 0 1.567-.326 2-.77M42.859 57.92l-1.328-1.156.984-1.14 1.374 1.185a3.62 3.62 0 0 0 .523-1.867c0-1.941-1.583-3.571-3.464-3.571-1.896 0-3.493 1.63-3.493 3.571 0 1.956 1.597 3.586 3.493 3.586.702 0 1.358-.222 1.911-.608m2.418.09l1.03.888-.985 1.141-1.104-.948a5.383 5.383 0 0 1-3.27 1.126c-2.926 0-5.388-2.415-5.388-5.275 0-2.86 2.462-5.26 5.388-5.26 2.911 0 5.374 2.4 5.374 5.26 0 1.14-.388 2.208-1.045 3.067M55.027 52.379v7.66h-1.821v-1.022c-.478.711-1.374 1.2-2.388 1.2-1.687 0-2.867-1.23-2.867-2.964v-4.874h1.761v4.52c0 1.036.672 1.777 1.628 1.777.955 0 1.746-.637 1.866-1.452v-4.845h1.821zM61.925 57.639v-.86a5.928 5.928 0 0 0-1.896-.296c-.91 0-1.642.503-1.642 1.23 0 .726.642 1.185 1.508 1.185.881 0 1.821-.445 2.03-1.26m1.776-2.207v4.608h-1.776v-.919c-.567.712-1.538 1.097-2.433 1.097-1.642 0-2.881-.963-2.881-2.445 0-1.511 1.418-2.548 3.15-2.548a6.23 6.23 0 0 1 2.164.414v-.207c0-.889-.493-1.749-1.896-1.749-.73 0-1.433.252-2.09.578L57.313 53c1.09-.533 2.105-.8 3.075-.8 2.046 0 3.314 1.29 3.314 3.231M72.749 55.164v4.875h-1.762v-4.52c0-1.036-.671-1.777-1.627-1.777-.955 0-1.746.637-1.866 1.452v4.845h-1.821v-7.66h1.821v1.022c.478-.71 1.374-1.2 2.39-1.2 1.686 0 2.865 1.23 2.865 2.963M79.094 59.61c-.432.37-1.06.607-1.641.607-1.285 0-2.18-.919-2.18-2.208v-4.134h-1.12v-1.496h1.12v-2.104h1.776v2.104h1.747v1.496h-1.747v3.912c0 .519.329.889.762.889.313 0 .597-.119.76-.282l.523 1.215z"/>
        <mask id="b" fill="#fff">
            <use xlink:href="#a"/>
        </mask>
        <path fill="#FEFEFE" d="M80.513 60.039h1.82v-7.66h-1.82v7.66zm-.12-9.854a1.038 1.038 0 0 1 2.075 0c0 .549-.463 1.039-1.03 1.039-.582 0-1.044-.49-1.044-1.038zM88.724 59.61c-.433.37-1.06.607-1.643.607-1.284 0-2.179-.919-2.179-2.208v-4.134h-1.12v-1.496h1.12v-2.104h1.776v2.104h1.746v1.496h-1.746v3.912c0 .519.328.889.762.889.313 0 .597-.119.76-.282l.524 1.215zM95.039 57.639v-.86a5.928 5.928 0 0 0-1.897-.296c-.91 0-1.641.503-1.641 1.23 0 .726.642 1.185 1.508 1.185.88 0 1.82-.445 2.03-1.26m1.776-2.207v4.608h-1.776v-.919c-.568.712-1.538 1.097-2.433 1.097-1.643 0-2.882-.963-2.882-2.445 0-1.511 1.419-2.548 3.15-2.548a6.23 6.23 0 0 1 2.165.414v-.207c0-.889-.493-1.749-1.897-1.749-.73 0-1.432.252-2.089.578L90.426 53c1.09-.533 2.104-.8 3.075-.8 2.045 0 3.314 1.29 3.314 3.231M103.16 59.61c-.432.37-1.06.607-1.641.607-1.284 0-2.18-.919-2.18-2.208v-4.134h-1.12v-1.496h1.12v-2.104h1.776v2.104h1.746v1.496h-1.746v3.912c0 .519.328.889.762.889.313 0 .597-.119.76-.282l.524 1.215zM104.58 60.039h1.82v-7.66h-1.82v7.66zm-.12-9.854a1.038 1.038 0 0 1 2.075 0c0 .549-.463 1.039-1.03 1.039-.582 0-1.045-.49-1.045-1.038zM107.684 52.379h1.926l2.24 5.571 2.194-5.571h1.94l-3.27 7.66h-1.716zM118.24 55.446h4.06c-.209-.963-.866-1.645-1.955-1.645-1.015 0-1.836.637-2.105 1.645m4.12 2.4l1.15 1.185c-.672.712-2.016 1.186-3.136 1.186-2.209 0-4.03-1.675-4.03-4.03 0-2.297 1.732-3.986 3.926-3.986 2.388 0 3.777 1.793 3.777 4.622h-5.822c.224 1.052 1.03 1.793 2.134 1.793.717 0 1.568-.326 2.001-.77M132.677 51.549h-3.285V49.86h8.42v1.689h-3.284v8.49h-1.851zM146.396 52.379v7.66h-1.82v-1.022c-.478.711-1.374 1.2-2.389 1.2-1.687 0-2.866-1.23-2.866-2.964v-4.874h1.761v4.52c0 1.036.672 1.777 1.628 1.777.955 0 1.746-.637 1.865-1.452v-4.845h1.821zM160.131 55.164v4.875h-1.776v-4.578c0-1.008-.612-1.72-1.493-1.72-1 0-1.687.667-1.687 1.6v4.698H153.4v-4.578c0-1.008-.612-1.72-1.507-1.72-.986 0-1.687.667-1.687 1.6v4.698h-1.821v-7.66h1.82v1.037c.388-.741 1.18-1.215 2.15-1.215 1.09 0 1.985.548 2.463 1.452.373-.89 1.344-1.452 2.493-1.452 1.612 0 2.821 1.23 2.821 2.963M168.18 56.201c0-1.333-1.076-2.46-2.344-2.46-1.284 0-2.359 1.127-2.359 2.46 0 1.348 1.075 2.475 2.36 2.475 1.267 0 2.342-1.127 2.342-2.475m-6.478 0c0-2.177 1.895-4 4.135-4 2.239 0 4.135 1.823 4.135 4 0 2.178-1.896 4.016-4.135 4.016-2.24 0-4.135-1.838-4.135-4.016M176.182 52.2v1.542c-1.657 0-2.761.978-2.761 2.43v3.867h-1.822v-7.66h1.822v1.481c.492-1.022 1.492-1.66 2.761-1.66M181.84 60.039h1.851V49.86h-1.85zM197.515 55.164v4.875h-1.776v-4.578c0-1.008-.612-1.72-1.493-1.72-1 0-1.687.667-1.687 1.6v4.698h-1.776v-4.578c0-1.008-.612-1.72-1.508-1.72-.985 0-1.687.667-1.687 1.6v4.698h-1.821v-7.66h1.821v1.037c.388-.741 1.18-1.215 2.15-1.215 1.09 0 1.985.548 2.463 1.452.373-.89 1.343-1.452 2.492-1.452 1.613 0 2.822 1.23 2.822 2.963M204.384 57.639v-.86a5.925 5.925 0 0 0-1.896-.296c-.91 0-1.642.503-1.642 1.23 0 .726.642 1.185 1.508 1.185.88 0 1.821-.445 2.03-1.26m1.776-2.207v4.608h-1.776v-.919c-.568.712-1.538 1.097-2.434 1.097-1.642 0-2.88-.963-2.88-2.445 0-1.511 1.418-2.548 3.15-2.548a6.23 6.23 0 0 1 2.164.414v-.207c0-.889-.493-1.749-1.896-1.749-.731 0-1.433.252-2.09.578l-.627-1.26c1.09-.533 2.105-.8 3.075-.8 2.045 0 3.314 1.29 3.314 3.231M213.88 55.83c0-1.214-.881-2.088-2.12-2.088-1.224 0-2.105.874-2.105 2.089 0 1.23.88 2.104 2.105 2.104 1.239 0 2.12-.874 2.12-2.104zm1.82-3.45v6.844c0 1.971-1.671 3.364-4.03 3.364-1.328 0-2.552-.43-3.314-1.023l.672-1.318c.537.489 1.463.8 2.373.8 1.523 0 2.478-.727 2.478-1.882v-.993c-.612.815-1.537 1.304-2.642 1.304-2 0-3.478-1.511-3.478-3.645 0-2.134 1.478-3.63 3.478-3.63 1.09 0 2.09.504 2.642 1.319v-1.14h1.821zM217.747 60.039h1.82v-7.66h-1.82v7.66zm-.12-9.854a1.038 1.038 0 1 1 2.075 0c0 .549-.463 1.039-1.03 1.039-.582 0-1.044-.49-1.044-1.038zM228.66 55.164v4.875h-1.762v-4.52c0-1.036-.672-1.777-1.627-1.777-.956 0-1.747.637-1.866 1.452v4.845h-1.821v-7.66h1.82v1.022c.479-.71 1.374-1.2 2.39-1.2 1.686 0 2.865 1.23 2.865 2.963M236.378 55.83c0-1.214-.88-2.088-2.12-2.088-1.224 0-2.104.874-2.104 2.089 0 1.23.88 2.104 2.104 2.104 1.24 0 2.12-.874 2.12-2.104zm1.821-3.45v6.844c0 1.971-1.671 3.364-4.03 3.364-1.329 0-2.553-.43-3.314-1.023l.672-1.318c.537.489 1.462.8 2.373.8 1.523 0 2.478-.727 2.478-1.882v-.993c-.612.815-1.537 1.304-2.642 1.304-2 0-3.477-1.511-3.477-3.645 0-2.134 1.477-3.63 3.477-3.63 1.09 0 2.09.504 2.642 1.319v-1.14h1.821zM251.561 58.35v1.69h-7.12V49.86h1.851v8.49zM257.907 57.639v-.86a5.928 5.928 0 0 0-1.896-.296c-.91 0-1.642.503-1.642 1.23 0 .726.643 1.185 1.508 1.185.881 0 1.821-.445 2.03-1.26m1.776-2.207v4.608h-1.776v-.919c-.567.712-1.538 1.097-2.433 1.097-1.642 0-2.881-.963-2.881-2.445 0-1.511 1.418-2.548 3.15-2.548a6.23 6.23 0 0 1 2.164.414v-.207c0-.889-.493-1.749-1.896-1.749-.73 0-1.433.252-2.09.578l-.627-1.26c1.09-.533 2.105-.8 3.075-.8 2.046 0 3.314 1.29 3.314 3.231M267.94 56.201c0-1.437-.925-2.46-2.225-2.46-1.283 0-2.179 1.023-2.179 2.46 0 1.438.896 2.475 2.18 2.475 1.299 0 2.224-1.037 2.224-2.475m1.806 0c0 2.356-1.493 4.016-3.538 4.016-1.15 0-2.075-.519-2.687-1.393v1.215H261.7V49.682h1.821v3.912c.612-.875 1.538-1.393 2.687-1.393 2.045 0 3.538 1.66 3.538 4M9.148 75.422v-.86a5.911 5.911 0 0 0-1.895-.296c-.91 0-1.642.504-1.642 1.23s.642 1.186 1.507 1.186c.881 0 1.822-.445 2.03-1.26m1.777-2.208v4.608H9.148v-.918C8.581 77.614 7.61 78 6.715 78c-1.642 0-2.881-.963-2.881-2.445 0-1.511 1.419-2.548 3.15-2.548a6.23 6.23 0 0 1 2.164.414v-.207c0-.888-.492-1.748-1.895-1.748-.732 0-1.433.252-2.09.578l-.627-1.26c1.09-.533 2.104-.8 3.074-.8 2.046 0 3.315 1.289 3.315 3.23M17.27 77.392c-.432.37-1.06.608-1.642.608-1.284 0-2.18-.919-2.18-2.208v-4.134H12.33v-1.496h1.12v-2.104h1.776v2.104h1.746v1.496h-1.746v3.911c0 .52.329.89.762.89.313 0 .597-.119.76-.282l.523 1.215zM27.288 77.392c-.433.37-1.06.608-1.642.608-1.284 0-2.18-.919-2.18-2.208v-4.134h-1.119v-1.496h1.12v-2.104h1.776v2.104h1.746v1.496h-1.746v3.911c0 .52.328.89.761.89.313 0 .598-.119.762-.282l.522 1.215zM35.783 72.947v4.875H34.02v-4.52c0-1.036-.671-1.778-1.627-1.778-1.03 0-1.88.742-1.88 1.66v4.638h-1.822V67.465h1.821v3.748c.463-.74 1.374-1.23 2.404-1.23 1.686 0 2.866 1.23 2.866 2.964M39.232 73.23h4.06c-.209-.964-.865-1.646-1.955-1.646-1.015 0-1.836.637-2.105 1.645m4.12 2.4l1.15 1.186C43.83 77.526 42.485 78 41.365 78c-2.208 0-4.03-1.674-4.03-4.03 0-2.297 1.732-3.986 3.926-3.986 2.388 0 3.777 1.793 3.777 4.623h-5.822c.224 1.052 1.03 1.793 2.134 1.793.717 0 1.568-.326 2.001-.77M51.041 67.643h1.867l3.373 6.208 3.389-6.208h1.85v10.179h-1.85v-6.8L56.28 77.23l-3.373-6.209v6.8H51.04zM68.628 75.422v-.86a5.916 5.916 0 0 0-1.896-.296c-.91 0-1.642.504-1.642 1.23s.642 1.186 1.508 1.186c.88 0 1.821-.445 2.03-1.26m1.776-2.208v4.608h-1.776v-.918C68.06 77.614 67.09 78 66.195 78c-1.642 0-2.882-.963-2.882-2.445 0-1.511 1.419-2.548 3.15-2.548.702 0 1.463.148 2.165.414v-.207c0-.888-.493-1.748-1.896-1.748-.731 0-1.433.252-2.09.578l-.627-1.26c1.09-.533 2.105-.8 3.075-.8 2.046 0 3.314 1.289 3.314 3.23M77.004 69.984v1.54c-1.657 0-2.762.98-2.762 2.431v3.867h-1.821v-7.66h1.821v1.482c.492-1.023 1.492-1.66 2.762-1.66M82.721 77.392c-.432.37-1.06.608-1.641.608-1.284 0-2.18-.919-2.18-2.208v-4.134h-1.12v-1.496h1.12v-2.104h1.777v2.104h1.746v1.496h-1.746v3.911c0 .52.328.89.76.89.314 0 .598-.119.762-.282l.522 1.215zM84.14 77.822h1.822v-7.66H84.14v7.66zm-.119-9.853a1.038 1.038 0 0 1 2.074 0c0 .548-.462 1.037-1.029 1.037a1.054 1.054 0 0 1-1.045-1.037zM95.053 72.947v4.875h-1.762v-4.52c0-1.036-.67-1.778-1.626-1.778-.956 0-1.747.638-1.867 1.453v4.845h-1.82v-7.66h1.82v1.022c.478-.711 1.374-1.2 2.389-1.2 1.687 0 2.866 1.23 2.866 2.963M103.1 73.985c0-1.334-1.075-2.46-2.343-2.46-1.284 0-2.359 1.126-2.359 2.46 0 1.348 1.075 2.474 2.359 2.474 1.268 0 2.344-1.126 2.344-2.474m-6.479 0c0-2.178 1.895-4.001 4.135-4.001 2.239 0 4.135 1.823 4.135 4 0 2.179-1.896 4.016-4.135 4.016-2.24 0-4.135-1.837-4.135-4.015M105.953 76.844l.82-1.26c.747.534 1.613.89 2.584.89.731 0 1.238-.311 1.238-.786 0-.593-.67-.785-1.552-1.022-1.672-.43-2.732-.904-2.747-2.267 0-1.437 1.195-2.415 2.911-2.415 1.06 0 2.12.37 2.956.918l-.761 1.32c-.732-.46-1.523-.698-2.195-.698-.641 0-1.134.252-1.134.682 0 .49.403.637 1.582.978 1.299.356 2.702.8 2.702 2.4 0 1.468-1.224 2.416-3.03 2.416-1.18 0-2.448-.415-3.374-1.156M117.837 72.725c0-2.86 2.463-5.26 5.388-5.26 1.508 0 2.882.637 3.867 1.645l-1.329 1.23c-.627-.727-1.552-1.186-2.538-1.186-1.895 0-3.492 1.63-3.492 3.57 0 1.957 1.597 3.587 3.492 3.587 1.001 0 1.91-.46 2.553-1.185l1.314 1.214a5.365 5.365 0 0 1-3.867 1.66c-2.925 0-5.388-2.415-5.388-5.275M129.945 73.23h4.06c-.209-.964-.865-1.646-1.955-1.646-1.015 0-1.837.637-2.105 1.645m4.12 2.4l1.15 1.186c-.672.711-2.016 1.185-3.136 1.185-2.208 0-4.03-1.674-4.03-4.03 0-2.297 1.732-3.986 3.926-3.986 2.388 0 3.777 1.793 3.777 4.623h-5.822c.224 1.052 1.03 1.793 2.134 1.793.717 0 1.568-.326 2.001-.77M144.411 72.947v4.875h-1.762v-4.52c0-1.036-.671-1.778-1.627-1.778-.955 0-1.746.638-1.866 1.453v4.845h-1.82v-7.66h1.82v1.022c.478-.711 1.374-1.2 2.389-1.2 1.686 0 2.866 1.23 2.866 2.963M150.756 77.392c-.432.37-1.06.608-1.641.608-1.285 0-2.18-.919-2.18-2.208v-4.134h-1.12v-1.496h1.12v-2.104h1.776v2.104h1.747v1.496h-1.747v3.911c0 .52.329.89.761.89.314 0 .598-.119.762-.282l.522 1.215zM153.652 73.23h4.06c-.208-.964-.864-1.646-1.955-1.646-1.015 0-1.836.637-2.105 1.645m4.12 2.4l1.15 1.186c-.672.711-2.015 1.185-3.135 1.185-2.209 0-4.03-1.674-4.03-4.03 0-2.297 1.732-3.986 3.926-3.986 2.388 0 3.776 1.793 3.776 4.623h-5.821c.223 1.052 1.03 1.793 2.135 1.793.716 0 1.567-.326 2-.77M165.672 69.984v1.54c-1.658 0-2.762.98-2.762 2.431v3.867h-1.822v-7.66h1.822v1.482c.492-1.023 1.492-1.66 2.762-1.66M22.772 26.08l-4.145-3.606 3.074-3.559 4.285 3.698a11.302 11.302 0 0 0 1.63-5.824c0-6.055-4.937-11.14-10.804-11.14-5.915 0-10.898 5.085-10.898 11.14 0 6.101 4.983 11.186 10.898 11.186 2.188 0 4.237-.693 5.96-1.895m7.545.277l3.212 2.774-3.073 3.56-3.446-2.96c-2.84 2.173-6.38 3.514-10.198 3.514C7.683 33.245 0 25.71 0 16.789 0 7.867 7.683.379 16.812.379c9.08 0 16.764 7.488 16.764 16.41 0 3.559-1.21 6.887-3.26 9.568M44.989 6.203H34.744V.933h26.265v5.27H50.763V32.69h-5.774zM66.086 32.69h5.774V.934h-5.774zM78.986.934h5.822l10.524 19.368L105.903.934h5.775V32.69h-5.775V11.473L95.333 30.84 84.807 11.473V32.69h-5.822zM7.12 51.66H4V50h8v1.66H8.88V60H7.12z" mask="url(#b)"/>
    </g>
</svg>
