<?xml version="1.0" encoding="utf-8"?>
<!-- Generator: Adobe Illustrator 23.0.0, SVG Export Plug-In . SVG Version: 6.00 Build 0)  -->
<svg version="1.1" id="Layer_1" xmlns="http://www.w3.org/2000/svg" xmlns:xlink="http://www.w3.org/1999/xlink" x="0px" y="0px"
	 viewBox="0 0 505 205" style="enable-background:new 0 0 505 205;" xml:space="preserve">
<style type="text/css">
	.st0{fill:#FFFFFF;}
</style>
<g>
	<path class="st0" d="M420.8,62.2c7.6,0,15.2,0,22.8,0c1.6,0,1.5-0.1,1.5,1.5c0,10.2,0,20.5,0,30.7c0,0.1,0,0.3,0,0.4
		c0,1.1-0.1,1.1-1.1,1.1c-0.1,0-0.3,0-0.4,0c-15.3,0-30.5,0-45.8,0c-0.3,0-0.7,0-1,0c-0.3,0-0.4-0.2-0.5-0.5c0-0.2,0-0.5,0-0.7
		c0-10.5,0-21,0-31.5c0-0.2,0-0.4,0-0.5c0-0.4,0.2-0.6,0.6-0.6c0.3,0,0.7,0,1,0C405.6,62.2,413.2,62.2,420.8,62.2z"/>
	<path class="st0" d="M59.2,102.3c12,0,24,0,36,0c0.2,0,0.4,0,0.7,0.1c0,0.2,0.1,0.4,0.1,0.6c0,0.2,0,0.5,0,0.7
		c0,11.4,0,22.7,0,34.1c0,0.4,0,0.8,0,1.3c-0.2,0-0.4,0.1-0.6,0.1c-0.2,0-0.5,0-0.7,0c-11.4,0-22.7,0-34.1,0c-0.4,0-0.8,0-1.2,0
		c-0.3-0.4-0.2-0.7-0.2-1.1c0-1.8,0-3.6,0-5.4c0-3.1,0-6.2,0-9.2c0-0.4,0.1-0.8-0.1-1.2c-0.1,0-0.3-0.1-0.5-0.1
		c-2.1-0.1-9.9,0-10.7,0.1c-0.4,0.9-0.8,1.9-1.6,2.7c-0.4,0.4-0.8,0.8-1.3,1.1c-0.4,0.3-0.8,0.5-1.3,0.7c-0.5,0.2-1,0.3-1.5,0.4
		c-0.5,0.1-1,0.1-1.4,0.1c-0.6,0-1.1-0.1-1.6-0.3c-2.9-0.9-5.1-3.3-5.1-6.8c0-3.3,2.4-6.1,5.6-6.8c1.8-0.4,3.4-0.1,5,0.8
		c1.6,0.9,2.6,2.3,3.2,4c0.8,0.2,1.5,0.1,2.3,0.1c0.8,0,1.5,0,2.3,0c0.7,0,1.4,0,2.2,0c0.8,0,1.5,0,2.3,0c0.8,0,1.5,0.1,2.2-0.1
		c0.2-0.4,0.1-0.8,0.1-1.2c0-4.5,0-9,0-13.5C59.1,103.2,59,102.8,59.2,102.3z M40.9,117.2c-1.7,0-3.1,1.4-3.1,3.1
		c0,1.7,1.4,3.1,3.1,3.1c1.8,0,3.2-1.4,3.1-3.2C44,118.5,42.6,117.2,40.9,117.2z"/>
	<path class="st0" d="M220.9,106.4c0,10.8,0,21.5,0,32.2c0,0.1,0,0.3-0.1,0.4c-0.2,0-0.3,0.1-0.4,0.1c-15.4,0-30.7,0-46.1,0
		c0-0.3-0.1-0.4-0.1-0.6c0-0.2,0-0.4,0-0.6c0-10.1,0-20.1,0-30.2c0-0.4,0-0.8,0-1.2c0.2,0,0.4-0.1,0.6-0.1c0.3,0,0.5,0,0.8,0
		c14.6,0,29.2,0,43.8,0C219.8,106.3,220.3,106.3,220.9,106.4z"/>
	<path class="st0" d="M75.8,46.3c0,3.9,0,7.8,0,11.6c0.3,0.3,0.6,0.2,0.9,0.2c2.7,0,5.4,0,8.1,0c2.1,0,4.2,0,6.2,0
		c0.3,0,0.7,0,1.1,0c0,0.2,0.1,0.4,0.1,0.6c0,0.2,0,0.5,0,0.7c0,11.4,0,22.7,0,34.1c0,0.4,0,0.8,0,1.3c-0.2,0-0.4,0.1-0.6,0.1
		c-0.2,0-0.5,0-0.7,0c-11.4,0-22.7,0-34.1,0c-0.4,0-0.8,0-1.3,0c0-0.3-0.1-0.4-0.1-0.6c0-0.2,0-0.4,0-0.6c0-11.4,0-22.9,0-34.3
		c0-0.4,0-0.8,0-1.1c0.4-0.1,0.8-0.1,1.2-0.1c4.7,0,9.4,0,14,0c0.4,0,0.8,0.1,1.1-0.1c0-0.1,0.1-0.3,0.1-0.4c0-3.7,0-7.5,0-11.2
		c-2-0.7-3.5-2-4.4-3.9c-0.6-1.5-0.8-3-0.3-4.6c0.8-3,3.6-5.1,6.8-5.1c3.1,0,5.9,2.3,6.6,5.3c0.4,1.8,0.2,3.4-0.7,5
		C78.9,44.7,77.6,45.7,75.8,46.3z M73.8,36.7c-1.7,0-3,1.4-3,3c0,1.6,1.3,3,3,3c1.6,0,3.1-1.4,3.1-3C76.8,38,75.5,36.7,73.8,36.7z"
		/>
	<path class="st0" d="M136.4,99c-0.1,0-0.2,0.1-0.3,0.1c-12,0-24,0-36,0c-0.1,0-0.2-0.1-0.3-0.1c0-0.1-0.1-0.2-0.1-0.3
		c0-12,0-24,0-36c0-0.1,0.1-0.2,0.1-0.3c0.1,0,0.2-0.1,0.3-0.1c12,0,24,0,36,0c0.1,0,0.2,0.1,0.3,0.1c0,0.1,0.1,0.2,0.1,0.3
		c0,12,0,24,0,36C136.4,98.8,136.4,98.9,136.4,99z"/>
	<path class="st0" d="M118,138.9c-5.5,0-11.1,0-16.6,0c-0.4,0-0.7,0-1,0c-0.4,0-0.5-0.2-0.5-0.5c0-0.2,0-0.5,0-0.7
		c0-11.3,0-22.6,0-34c0-1.2,0-1.2,1.2-1.2c11.4,0,22.7,0,34.1,0c1.2,0,1.2,0,1.2,1.1c0,0.6,0,1.1,0,1.7c0,10.7,0,21.5,0,32.2
		c0,1.4,0,1.4-1.4,1.4C129.2,138.9,123.6,138.9,118,138.9z"/>
	<path class="st0" d="M241.1,97.9c0-0.1-0.1-0.2-0.1-0.3c0-11,0-22.1,0-33.1c0-0.1,0-0.2,0.1-0.4c0.2,0,0.4-0.1,0.6-0.1
		c3.1,0,6.2-0.1,9.4,0c2.7,0.1,5.5,0.3,8.1,1.2c0.9,0.3,1.8,0.6,2.7,1.1c4.1,2.1,6.7,5.3,7.8,9.7c0.9,3.6,0.8,7.1-0.2,10.7
		c-1.4,4.6-4.4,7.7-8.9,9.5c-1.9,0.7-3.8,1.2-5.8,1.4c-2,0.3-4,0.3-6,0.3c-2.1,0-4.3,0-6.4,0C241.9,98,241.5,98,241.1,97.9z
		 M247.3,92.7c0.2,0,0.4,0.1,0.5,0.1c1.6,0,3.2,0,4.9-0.1c1.2-0.1,2.4-0.3,3.6-0.6c3.9-1.1,6.3-3.7,7.2-7.7c0.4-2,0.5-4,0.1-6
		c-0.6-3.6-2.5-6.2-5.8-7.8c-1.4-0.6-2.9-1-4.4-1.2c-1.8-0.2-3.7-0.2-5.5-0.2c-0.2,0-0.4,0.1-0.6,0.1
		C247.2,70.2,247.2,91.6,247.3,92.7z"/>
	<path class="st0" d="M184.7,84.8c-1.4,0-2.7-0.1-4.1,0.1c-0.2,0.4-0.1,0.8-0.1,1.2c0,3.6,0,7.1,0,10.7c0,0.4,0.1,0.8-0.1,1.2
		c-0.1,0-0.3,0.1-0.5,0.1c-1.6,0.1-4.8,0-5.5-0.1c-0.2-0.3-0.1-0.7-0.1-1c0-2.5,0-5.1,0-7.6c0-8,0-15.9,0-23.9c0-0.4,0-0.8,0-1.3
		c0.2,0,0.5-0.1,0.6-0.1c3.6,0,7.2,0,10.8,0c2.1,0,4.2,0.2,6.3,0.8c1.5,0.4,2.9,1.1,4.1,2.1c1.8,1.5,2.8,3.4,3.1,5.7
		c0.2,1.4,0.1,2.7-0.1,4c-0.5,2.3-1.8,4.2-3.8,5.5c-1,0.7-2.1,1.2-3.3,1.6c-0.2,0.1-0.4,0.2-0.7,0.3c0.8,1.2,1.7,2.4,2.5,3.5
		c0.8,1.1,1.7,2.3,2.5,3.4c0.8,1.1,1.6,2.2,2.4,3.4c0.8,1.1,1.7,2.3,2.5,3.5c-0.3,0.1-0.5,0.1-0.6,0.1c-2,0-4,0-6,0
		c-0.5,0-0.8-0.2-1.1-0.6c-1.8-2.6-3.6-5.1-5.4-7.6c-1-1.4-1.9-2.7-2.9-4.1C185.1,85.4,184.9,85.1,184.7,84.8z M180.6,69.3
		c0,0.2-0.1,0.4-0.1,0.5c0,3.1,0,6.1,0,9.2c0,0.2,0,0.3,0.1,0.4c0.1,0.1,0.2,0.1,0.3,0.1c1.8,0,3.6,0,5.4-0.1c0.9,0,1.7-0.2,2.6-0.4
		c0.7-0.1,1.4-0.4,2-0.8c1-0.6,1.6-1.4,1.9-2.5c0.2-0.7,0.3-1.4,0.3-2.1c-0.2-2.5-1.3-3.4-2.9-4c-0.7-0.2-1.4-0.4-2.1-0.5
		c-2.3-0.3-4.6-0.2-6.9-0.2C180.9,69.2,180.7,69.2,180.6,69.3z"/>
	<path class="st0" d="M277.6,138.8c-0.5,0.1-1.2,0.1-1.8,0c-0.1-0.3-0.2-0.5-0.3-0.7c-3.1-7.4-6.3-14.9-9.4-22.3
		c-0.8-1.9-1.4-3.8-2.2-5.6c-0.1-0.2-0.2-0.3-0.3-0.7c-0.2,0.4-0.1,0.7-0.1,0.9c0,0.3,0,0.6,0,0.9c0,0.3,0,0.6,0,0.8
		c0,0.3,0,0.6,0,0.9c0,0.3,0,0.6,0,0.8c0,0.3,0,0.6,0,0.9c0,0.3,0,0.6,0,0.8c0,0.3,0,0.6,0,0.9c0,0.3,0,0.6,0,0.8c0,0.3,0,0.6,0,0.9
		c0,0.3,0,0.6,0,0.8c0,0.3,0,0.6,0,0.9c0,0.3,0,0.6,0,0.8c0,0.3,0,0.6,0,0.9c0,0.3,0,0.6,0,0.8c0,0.3,0,0.6,0,0.9c0,0.3,0,0.6,0,0.8
		c0,0.3,0,0.6,0,0.9c0,0.3,0,0.6,0,0.8c0,0.3,0,0.6,0,0.9c0,0.3,0,0.6,0,0.8c0,0.3,0,0.6,0,0.9c0,0.3,0,0.6,0,0.8c0,0.3,0,0.6,0,0.9
		c0,0.3,0,0.6,0,0.8c0,0.3,0,0.6,0,0.9c0,0.3,0,0.6,0,0.8c0,0.3,0,0.6,0,0.9c0,0.3,0,0.6,0,0.8c0,0.3,0,0.6,0,0.9c0,0.3,0,0.6,0,0.8
		c0,0.3,0,0.6,0,0.9c0,0.3,0,0.5,0,0.8c-0.8,0.2-2.9,0.2-4,0.1c-0.2-0.3-0.1-0.6-0.1-0.9c0-2.3,0-4.6,0-6.9c0-8.2,0-16.5,0-24.7
		c0-0.4,0-0.8,0-1.2c0.8-0.2,4.4-0.2,5.9-0.1c0.1,0.1,0.2,0.3,0.3,0.5c2.9,7,5.8,13.9,8.7,20.9c0.6,1.6,1.2,3.2,1.8,4.8
		c0.1,0.2,0.2,0.5,0.4,0.9c0.6-1.2,0.9-2.4,1.4-3.5c0.4-1.1,0.9-2.3,1.3-3.4c0.5-1.1,0.9-2.2,1.4-3.4c0.5-1.1,1-2.3,1.4-3.4
		c0.5-1.1,0.9-2.2,1.4-3.4c0.5-1.1,0.9-2.2,1.4-3.4c0.5-1.1,0.9-2.2,1.4-3.4c0.5-1.1,0.9-2.2,1.4-3.3c2,0,3.9,0,5.8,0
		c0,0.2,0.1,0.4,0.1,0.6c0,0.2,0,0.4,0,0.6c0,10.5,0,20.9,0,31.4c0,0.4,0,0.8,0,1.2c-0.5,0.2-0.9,0.1-1.4,0.1c-0.4,0-0.8,0-1.2,0
		c-0.5,0-0.9,0-1.4,0c0-0.2-0.1-0.4-0.1-0.6c0-1,0-1.9,0-2.9c0-4.3,0-8.6,0-12.9c0-3.9,0.2-7.9,0.3-11.8c0-0.3,0-0.5,0-0.8
		c-0.1,0-0.1,0-0.2,0c0,0-0.1,0-0.1,0.1c0,0.1-0.1,0.2-0.1,0.3c-3.5,9.5-7.7,18.7-11.6,28c0,0.1-0.1,0.2-0.2,0.4
		c0,0.1-0.1,0.1-0.1,0.2C277.7,138.7,277.7,138.7,277.6,138.8z"/>
	<path class="st0" d="M236.1,97.8c-0.1,0.1-0.2,0.1-0.3,0.1c-2,0-4,0-6.1,0c-0.6-1.4-1.1-2.9-1.7-4.3c-0.6-1.4-1.1-2.8-1.6-4.3
		c-0.2,0-0.4-0.1-0.6-0.1c-3.9,0-7.8,0-11.6,0c-0.2,0-0.3,0-0.6,0.1c-1.1,2.8-2.2,5.7-3.3,8.5c-1.1,0.2-2.2,0.1-3.2,0.1
		c-1.1,0-2.1,0-3.2,0c-0.1-0.4,0.1-0.7,0.2-0.9c1.8-4.4,3.5-8.9,5.3-13.3c2.5-6.2,4.9-12.4,7.4-18.5c0.1-0.4,0.3-0.8,0.5-1.1
		c0.9-0.1,4.1-0.1,5.6-0.1c0.3,0.2,0.4,0.6,0.5,1c2.1,5.4,4.3,10.8,6.4,16.2c2,5.2,4.1,10.4,6.2,15.5
		C235.9,97.1,236.1,97.4,236.1,97.8z M224.2,84.1c-0.1-0.3-0.1-0.4-0.1-0.6c-1.3-3.6-2.6-7.2-3.9-10.7c0-0.1-0.1-0.2-0.3-0.5
		c-0.1,0.3-0.2,0.6-0.3,0.8c-0.4,1.1-0.7,2.2-1.1,3.2c-0.9,2.3-1.7,4.7-2.6,7c-0.1,0.2-0.3,0.5-0.1,0.8
		C218.5,84.1,221.3,84.1,224.2,84.1z"/>
	<path class="st0" d="M331.7,64c1.9,0,3.8,0,5.6,0c1.2,2.8,2.3,5.6,3.4,8.5c1.1,2.8,2.2,5.6,3.3,8.4c1.1,2.8,2.2,5.7,3.4,8.5
		c1.1,2.8,2.2,5.6,3.4,8.4c-0.2,0.1-0.3,0.1-0.4,0.1c-1.9,0-3.8,0-5.7,0c-0.1,0-0.2,0-0.4-0.1c-1.1-2.8-2.1-5.6-3.3-8.5
		c-1.1-0.1-2.1,0-3.2-0.1c-1.1,0-2.1,0-3.2,0c-1,0-2.1,0-3.1,0c-1.1,0-2.1-0.1-3.2,0.1c-1.1,2.9-2.2,5.7-3.3,8.5
		c-0.2,0-0.3,0.1-0.5,0.1c-1.9,0-3.8,0-5.7,0c-0.1,0-0.2-0.1-0.3-0.1c0-0.1-0.1-0.1-0.1-0.1c0,0,0-0.1,0-0.1
		c4.3-10.9,8.6-21.7,12.9-32.6C331.4,64.7,331.6,64.4,331.7,64z M338.8,84c0-0.1,0-0.1,0-0.2c-1.4-3.8-2.7-7.5-4.1-11.3
		c0-0.1-0.1-0.1-0.1-0.1c-0.1,0.1-0.1,0.1-0.2,0.1c-1.4,3.7-2.7,7.4-4.1,11.2c0,0.1,0,0.2,0,0.3C331.3,84.2,338,84.1,338.8,84z"/>
	<path class="st0" d="M383,105.1c0.8-0.2,2.5-0.2,4-0.1c0.1,0.2,0.3,0.4,0.5,0.6c4.7,6.7,9.4,13.4,14.1,20.1
		c1.5,2.2,2.9,4.4,4.4,6.6c0.2,0.2,0.3,0.4,0.5,0.6c0.4-0.1,0.2-0.4,0.2-0.5c-0.1-1.5-0.2-3-0.2-4.6c-0.1-2.2-0.1-4.5-0.1-6.8
		c0-4.9,0-9.9,0-14.9c0-0.4,0-0.8,0-1.2c1.4-0.2,2.7,0,4-0.1c0,0.3,0.1,0.5,0.1,0.7c0,0.2,0,0.5,0,0.7c0,10.4,0,20.8,0,31.2
		c0,0.4,0,0.8,0,1.2c-0.8,0.2-2.7,0.2-4.2,0.1c-1.3-1.8-2.6-3.7-3.9-5.6c-1.3-1.8-2.6-3.7-3.9-5.5c-1.3-1.9-2.6-3.7-3.9-5.6
		c-1.3-1.8-2.6-3.7-3.8-5.6c-1.3-1.9-2.5-3.8-3.9-5.9c-0.1,0.7,0,1.2,0,1.6c0,0.5,0.1,1,0.1,1.4s0,1,0,1.4c0,0.5,0,1,0,1.4
		c0,0.5,0,1,0,1.6c0,0.5,0,1,0,1.4c0,0.5,0,1,0,1.4s0,1,0,1.4s0,1,0,1.4s0,1,0,1.4s0,1,0,1.4s0,1,0,1.4s0,1,0,1.4s0,1,0,1.4
		c0,0.5,0,1,0,1.6c0,0.5,0,1,0,1.4s0,1,0,1.4s0,1,0,1.4s0,1,0,1.4c-0.8,0.2-3,0.2-4,0.1c0-0.2,0-0.4-0.1-0.6c0-0.2,0-0.4,0-0.6
		c0-10.4,0-20.9,0-31.3C382.9,105.9,382.8,105.4,383,105.1z"/>
	<path class="st0" d="M315.1,92.3c0.1,0.8,0.2,3.7,0.1,5.1c-0.2,0.1-0.3,0.2-0.5,0.2c-2.8,0.7-5.7,1-8.6,0.9
		c-1.7-0.1-3.5-0.3-5.1-0.8c-5.8-1.7-9.4-5.5-10.7-11.4c-0.9-3.9-0.7-7.8,0.5-11.6c0.4-1.2,0.9-2.4,1.6-3.5c2.3-3.9,5.6-6.2,9.9-7.3
		c2.5-0.6,5-0.8,7.5-0.5c1.4,0.1,2.8,0.3,4.1,0.7c0.3,0.1,0.6,0.2,1,0.3c0.2,0.8,0.2,4.1,0,5.2c-0.2,0-0.5,0-0.7-0.1
		c-1.9-0.6-3.8-0.8-5.7-0.9c-1.5-0.1-3,0.1-4.5,0.5c-3,0.9-5.1,2.8-6.5,5.6c-0.6,1.3-1,2.7-1.2,4.2c-0.3,2.4-0.2,4.9,0.5,7.2
		c1.2,3.9,3.9,6.2,7.9,6.9c1.9,0.4,3.7,0.3,5.6,0.1c1.5-0.1,2.9-0.4,4.4-0.9C314.8,92.3,314.9,92.3,315.1,92.3z"/>
	<path class="st0" d="M360.2,105.6c0.1,1.1,0,2.2,0,3.4c-0.3,0-0.5,0-0.7-0.1c-2.7-0.8-5.4-1.1-8.2-0.9c-2.2,0.1-4.2,0.7-6.2,1.7
		c-3.4,1.8-5.5,4.6-6.5,8.4c-0.7,2.9-0.7,5.9,0,8.8c1.1,4.4,4,7.3,8.4,8.4c2.2,0.6,4.4,0.7,6.6,0.5c0.9-0.1,1.9-0.2,2.8-0.3
		c0.3,0,0.6-0.1,0.9-0.2c0.2-0.9,0.1-1.7,0.1-2.5c0-0.8,0-1.7,0-2.5s0-1.7,0-2.5s0-1.6,0-2.4c-0.4-0.3-0.7-0.2-1.1-0.2
		c-1.8,0-3.7,0-5.5,0c-0.3,0-0.7,0-1.1-0.1c-0.1-1.2-0.1-2.4,0-3.5c0.2-0.1,0.3-0.1,0.4-0.1c3.7,0,7.4,0,11.1,0
		c0.1,0,0.2,0.1,0.3,0.1c0,0.1,0.1,0.3,0.1,0.4c0,5.3,0,10.5,0,15.7c-0.2,0.4-0.5,0.4-0.8,0.5c-1.5,0.5-2.9,0.8-4.5,1
		c-2.3,0.3-4.5,0.4-6.8,0.2c-2.1-0.2-4.2-0.6-6.1-1.4c-4.6-1.9-7.5-5.3-8.7-10c-0.7-2.6-0.8-5.2-0.5-7.8c0.2-1.7,0.5-3.4,1.1-4.9
		c1.8-4.7,5-7.9,9.7-9.6c3.1-1.2,6.4-1.4,9.7-1.2c1.5,0.1,2.9,0.3,4.3,0.7C359.5,105.2,359.9,105.3,360.2,105.6z"/>
	<path class="st0" d="M443.9,105.6c0,1.1,0,2.2,0,3.4c-0.3,0-0.5-0.1-0.7-0.1c-2.5-0.7-5.2-1.1-7.8-0.9c-2,0.1-3.8,0.5-5.6,1.3
		c-4.1,1.8-6.6,5-7.5,9.3c-0.6,2.8-0.5,5.6,0.2,8.4c0.9,3.5,3,6.1,6.3,7.5c1.3,0.6,2.8,0.9,4.2,1.1c2.4,0.3,4.8,0.2,7.1-0.2
		c0.3-0.1,0.7-0.1,1-0.2c0.2-0.9,0.1-1.7,0.1-2.5s0-1.7,0-2.5s0-1.7,0-2.5c0-0.8,0-1.6,0-2.4c-0.4-0.2-0.8-0.2-1.1-0.2
		c-1.8,0-3.7,0-5.5,0c-0.3,0-0.7,0.1-1.1-0.2c-0.1-1.1,0-2.2,0-3.3c0.3-0.3,0.6-0.2,0.9-0.2c1.9,0,3.7,0,5.6,0c1.4,0,2.8,0,4.2,0
		c0.3,0,0.7,0,1,0c0.3,0.4,0.2,0.7,0.2,1c0,2.5,0,5.1,0,7.6c0,2.2,0,4.5,0,6.8c0,0.3,0,0.7,0,1c-0.7,0.4-1.4,0.6-2.1,0.7
		c-3.4,0.9-6.8,1.1-10.3,0.8c-2-0.2-4-0.6-5.8-1.4c-4.4-1.8-7.3-5.1-8.6-9.6c-0.5-1.6-0.7-3.3-0.7-5c-0.1-2.3,0.2-4.6,0.8-6.8
		c1.7-5.8,5.5-9.6,11.3-11.3c2.8-0.9,5.8-1.1,8.7-0.8c1.4,0.1,2.8,0.3,4.2,0.7C443.1,105.2,443.5,105.3,443.9,105.6z"/>
	<path class="st0" d="M330.2,138.8c-1.6,0.1-3,0-4.5,0c-1.4-3.4-2.7-6.8-4.1-10.2c-4.7,0-9.4,0-14.1,0c-0.1,0.3-0.3,0.6-0.4,0.9
		c-1.1,2.8-2.2,5.5-3.3,8.3c-0.1,0.3-0.2,0.6-0.4,0.8c-0.8,0.2-3.3,0.2-4.3,0c-0.1-0.4,0.1-0.6,0.3-1c1.9-4.6,3.8-9.3,5.7-13.9
		c2.4-5.9,4.8-11.9,7.2-17.8c0.1-0.4,0.3-0.7,0.5-1c0.8-0.1,2.5-0.2,3.6,0c2.3,5.6,4.6,11.2,6.9,16.9
		C325.6,127.5,327.9,133.1,330.2,138.8z M320.1,124.8c0-0.2,0-0.3-0.1-0.4c-1.9-4.6-3.6-9.3-5.3-14c0,0,0,0-0.1,0c0,0-0.1,0-0.1,0
		c-1.8,4.6-3.6,9.3-5.4,13.9c0,0.1-0.1,0.3-0.1,0.4C309.9,124.9,318.8,125,320.1,124.8z"/>
	<path class="st0" d="M361.9,92.7c0.5,0,0.9,0,1.4,0c4.4,0,8.8,0,13.2,0c0.4,0,0.8-0.1,1.2,0.1c0.1,1,0.1,4.2,0,5
		c-0.3,0-0.6,0.1-0.9,0.1c-9.2,0.1-20.1,0-21-0.1c0-0.2-0.1-0.4-0.1-0.6c-0.1-5.1-0.1-32.1,0.1-33.2c0.6-0.2,1.3-0.1,1.9-0.1
		c0.7,0,1.4,0,2.1,0c0.6,0,1.3,0,2,0c0,0.3,0.1,0.5,0.1,0.7c0,0.4,0,0.9,0,1.4c0,8.4,0,16.9,0,25.3
		C361.9,91.8,361.9,92.2,361.9,92.7z"/>
	<path class="st0" d="M276.9,64.1c1.4-0.1,5.2-0.1,6.1,0.1c0,0.2,0,0.4,0.1,0.6c0,0.2,0,0.5,0,0.7c0,10.4,0,20.8,0,31.1
		c0,0.4,0,0.8,0,1.2c-0.7,0.3-1.4,0.1-2.1,0.1c-0.7,0-1.3,0-2,0c-0.7,0-1.4,0.1-2-0.1c-0.2-1.1-0.2-25.2-0.1-33.1
		C276.8,64.6,276.8,64.4,276.9,64.1z"/>
	<path class="st0" d="M247,105.1c0.8-0.2,3-0.2,4,0c0,0.1,0.1,0.2,0.1,0.3c0,11,0,22,0,33c0,0.1,0,0.3-0.1,0.4
		c-1.3,0.1-2.6,0-3.9,0.1c-0.1-0.2-0.1-0.3-0.1-0.4c0-11,0-22,0-33C246.9,105.3,246.9,105.2,247,105.1z"/>
	<path class="st0" d="M370.2,104.9c1.4,0,2.6-0.1,4,0.1c0,0.2,0.1,0.4,0.1,0.6c0,0.2,0,0.4,0,0.5c0,10.5,0,21,0,31.5
		c0,0.4,0.1,0.8-0.1,1.1c-0.8,0.2-3,0.2-4,0c-0.2-0.3-0.1-0.7-0.1-1.1c0-3.5,0-6.9,0-10.4c0-7,0-14,0-21
		C370.1,105.9,370,105.4,370.2,104.9z"/>
</g>
</svg>
