<svg xmlns="http://www.w3.org/2000/svg" xmlns:xlink="http://www.w3.org/1999/xlink" width="204" height="53" viewBox="0 0 204 53">
    <defs>
        <path id="a" d="M.435.39h13.322V18H.435z"/>
    </defs>
    <g fill="none" fill-rule="evenodd">
        <path fill="#FEFEFE" d="M192.02 14h11.224c.8 0 .756-.031.756.761V30.42c-.007.542-.03.569-.539.58-.068.002-.135 0-.204 0H180.76c-.17 0-.34-.004-.509-.018-.133-.012-.218-.099-.233-.236a3.108 3.108 0 0 1-.016-.364c-.001-5.272 0-10.543 0-15.814 0-.087-.003-.175.004-.261.018-.207.086-.284.281-.297.17-.012.34-.008.51-.008h11.224M3.505 41.662c-.853.004-1.55.72-1.552 1.597-.003.872.696 1.603 1.542 1.613.876.009 1.577-.719 1.569-1.63-.008-.885-.698-1.584-1.56-1.58M12.645 34l17.981.001c.101 0 .202.02.335.033.014.118.031.218.036.319.007.124.002.25.002.374v17.558c0 .211-.007.422-.012.66-.125.02-.222.044-.32.05-.121.009-.243.003-.364.003H12.683c-.145-.192-.103-.377-.104-.55-.004-.929-.002-1.857-.002-2.785 0-1.588.002-3.176-.002-4.764 0-.192.041-.392-.072-.597-.07-.012-.153-.035-.236-.039-1.042-.043-4.93-.012-5.368.045-.217.483-.417 1.001-.809 1.393a5.32 5.32 0 0 1-.629.554c-.196.142-.415.26-.639.349-.24.096-.493.165-.746.212-.237.044-.483.07-.722.054a3.753 3.753 0 0 1-.815-.145C1.082 46.288-.002 45.002 0 43.209c.002-1.709 1.226-3.147 2.791-3.478.89-.188 1.72-.04 2.5.425.782.468 1.283 1.177 1.585 2.049.387.105.768.038 1.144.05.38.012.761.003 1.142.003h1.09c.38 0 .762.01 1.142-.003.376-.012.757.059 1.12-.049.1-.204.061-.404.061-.597.003-2.32.001-4.639.004-6.959 0-.192-.03-.39.065-.65M93 36.055c0 5.254 0 10.471-.002 15.687 0 .065-.02.129-.034.206-.08.018-.146.045-.212.045-7.888.011-15.774.004-23.681.007-.028-.126-.056-.22-.065-.315-.01-.1-.004-.202-.004-.303l.001-14.745c0-.184.01-.367.015-.58.117-.02.215-.045.315-.051.142-.009.284-.003.426-.003h22.493c.228 0 .459-.023.748.052M19.996 1.945c-.825 0-1.475.672-1.469 1.518.006.813.65 1.478 1.45 1.496.804.017 1.494-.674 1.499-1.502a1.488 1.488 0 0 0-1.48-1.512m.977 4.815v5.775c.14.147.3.098.446.099 1.32.004 2.64.002 3.96.002l3.045.001c.167 0 .334.01.524.015.019.117.041.214.047.312.009.12.003.242.003.362v16.988c0 .204-.008.409-.012.639-.123.018-.218.038-.315.043-.118.007-.237.002-.355.002h-16.65c-.2 0-.4-.01-.628-.016-.014-.128-.03-.226-.035-.324-.005-.103-.002-.207-.002-.31l.001-17.092c0-.186.012-.372.02-.57.203-.075.39-.048.571-.048 2.285-.002 4.569 0 6.853-.003.182 0 .37.033.56-.05.013-.074.035-.14.035-.204l.001-5.606c-.98-.367-1.724-.98-2.14-1.957a3.444 3.444 0 0 1-.166-2.28A3.4 3.4 0 0 1 20.056 0c1.536.022 2.894 1.136 3.233 2.653a3.45 3.45 0 0 1-.36 2.5c-.435.787-1.097 1.298-1.956 1.607M50.955 32.951c-.052.018-.098.048-.144.048-5.873.002-11.746.001-17.618-.001-.047 0-.094-.03-.143-.048-.017-.054-.048-.103-.048-.152C33 26.599 33 20.401 33 14.202c0-.049.029-.097.045-.153.052-.018.099-.048.145-.048 5.872-.002 11.745-.001 17.618 0 .046 0 .092.033.144.051.016.052.045.101.045.15.003 6.199.004 12.397.002 18.596 0 .05-.028.099-.044.153M41.992 52h-8.207c-.17 0-.342.003-.512-.01-.176-.012-.25-.085-.264-.252-.01-.12-.009-.24-.009-.36V34.607c0-.603.003-.605.59-.605h16.823c.573 0 .58.01.586.563.003.273 0 .547 0 .82v15.901c0 .713-.002.714-.698.715h-8.31M106.018 29.35c.104.013.185.033.265.032.78-.015 1.559-.016 2.337-.058a7.282 7.282 0 0 0 1.71-.31c1.876-.567 3.036-1.832 3.43-3.842a8.596 8.596 0 0 0 .071-2.995c-.28-1.802-1.183-3.126-2.795-3.893-.672-.32-1.38-.487-2.106-.578-.875-.11-1.754-.105-2.633-.098-.095 0-.189.028-.275.041-.06.439-.066 11.149-.004 11.7m-2.978 2.592c-.015-.056-.038-.105-.038-.153-.002-5.524-.003-11.047 0-16.57 0-.049.023-.097.044-.175.09-.012.185-.034.279-.034 1.493 0 2.986-.027 4.477.012 1.31.034 2.617.169 3.872.604.439.152.876.327 1.288.544 1.948 1.025 3.209 2.648 3.742 4.855a10.368 10.368 0 0 1-.112 5.336c-.657 2.313-2.123 3.867-4.259 4.749-.9.37-1.836.587-2.792.72-.955.134-1.916.161-2.878.166a372.95 372.95 0 0 1-3.084 0c-.18 0-.365.03-.539-.054M73.03 17.645c-.014.096-.035.178-.035.261-.002 1.538-.002 3.077 0 4.614 0 .08.025.161.036.224.063.023.093.045.123.045.863-.006 1.727.007 2.589-.03.411-.017.822-.112 1.228-.198.342-.072.663-.217.967-.4.468-.283.777-.696.931-1.232.095-.333.15-.673.124-1.023-.095-1.255-.645-1.697-1.41-1.98a4.766 4.766 0 0 0-1.017-.234c-1.107-.152-2.222-.078-3.333-.088-.063 0-.125.025-.203.04m1.977 7.758c-.658.009-1.302-.025-1.951.023-.093.2-.062.393-.062.578-.003 1.783 0 3.566-.004 5.35 0 .186.037.379-.054.584-.07.014-.149.04-.228.044-.779.041-2.29.011-2.642-.052-.1-.152-.057-.33-.057-.497-.003-1.264-.002-2.527-.002-3.791V15.695c0-.206.006-.411.01-.638.12-.02.214-.051.308-.051 1.73-.001 3.46-.017 5.19.01 1.014.016 2.026.119 3.011.398.73.206 1.404.536 1.994 1.035.868.735 1.352 1.689 1.492 2.84a6.08 6.08 0 0 1-.072 2.014c-.25 1.172-.863 2.084-1.816 2.753-.487.342-1.02.581-1.569.785-.106.04-.21.088-.35.148.4.614.809 1.178 1.204 1.75.398.577.8 1.15 1.2 1.726.39.56.78 1.121 1.169 1.683L83 31.912c-.134.031-.222.068-.31.069-.965.004-1.93-.005-2.894.007-.247.004-.395-.099-.53-.3-.854-1.28-1.718-2.553-2.578-3.827-.459-.68-.917-1.36-1.378-2.039-.095-.14-.197-.274-.303-.42M120.925 51.968c-.275.056-.58.024-.888.01-.064-.13-.122-.236-.169-.346-1.56-3.72-3.125-7.44-4.675-11.165-.385-.927-.72-1.875-1.08-2.813-.034-.089-.082-.172-.158-.328-.084.202-.054.336-.052.463.003.156.016.312.025.467.008.139.02.277.027.415.008.157.013.313.018.468l.011.416.01.469.01.416.012.468.014.416.016.468c.004.138.009.277.011.415.003.156.004.313.006.469l.005.416V51.05c0 .157.004.312 0 .469-.004.135-.018.27-.026.396-.378.099-1.42.113-1.97.034-.104-.135-.064-.297-.065-.448-.003-1.144-.002-2.288-.002-3.433v-12.38c0-.205.01-.41.014-.604.391-.092 2.212-.114 2.944-.039.04.075.093.162.132.255 1.44 3.489 2.886 6.977 4.317 10.47.322.785.596 1.588.895 2.383.045.12.103.237.186.428.292-.614.458-1.192.673-1.75.218-.566.434-1.132.66-1.695.224-.562.46-1.122.691-1.682l.716-1.727.699-1.68.697-1.679c.232-.56.457-1.122.696-1.68.236-.554.437-1.125.713-1.665h2.893c.023.106.053.202.063.3.01.102.003.207.003.31v15.71c0 .188-.01.376-.016.58-.227.115-.453.063-.67.07-.208.008-.415.003-.622.003h-.692c-.025-.123-.06-.22-.06-.318-.007-.485-.004-.97-.004-1.456 0-2.15-.017-4.3.007-6.45.021-1.976.088-3.952.135-5.928.003-.133 0-.267 0-.396-.047-.008-.065-.015-.08-.012a.056.056 0 0 0-.034.027 1.343 1.343 0 0 0-.065.142c-1.752 4.747-3.852 9.35-5.768 14.028-.026.064-.055.127-.085.19a.803.803 0 0 1-.048.092c-.01.013-.027.02-.07.053M94.137 25.05c-.035-.14-.048-.224-.077-.302-.641-1.79-1.284-3.58-1.929-5.367-.025-.069-.075-.127-.14-.234-.064.166-.11.277-.149.39-.186.54-.362 1.082-.558 1.618-.426 1.17-.862 2.335-1.29 3.503-.044.12-.147.242-.03.392h4.173zM100 31.923c-.065.026-.11.059-.156.06-.993.002-1.985.001-3.005.001-.313-.704-.553-1.424-.83-2.128-.277-.707-.541-1.419-.816-2.143-.11-.016-.208-.043-.306-.043-1.92-.003-3.84-.002-5.758-.001-.084 0-.167.014-.283.023-.57 1.406-1.07 2.839-1.643 4.259-.538.087-1.067.03-1.593.039-.528.01-1.058.01-1.59-.004-.063-.2.035-.331.088-.468l2.611-6.657 3.638-9.26c.076-.19.16-.377.231-.547.438-.059 2.054-.073 2.758-.027.16.12.188.319.256.491 1.064 2.7 2.124 5.4 3.186 8.102l3.05 7.765c.066.17.163.337.162.538zM151.078 25.007c.005-.033.021-.071.011-.099-.671-1.886-1.346-3.771-2.022-5.655-.009-.024-.042-.04-.063-.06-.027.024-.067.04-.077.068-.672 1.867-1.343 3.734-2.011 5.603-.017.045-.002.1-.002.15.453.073 3.772.067 4.164-.007M147.591 15h2.784c.583 1.403 1.114 2.827 1.67 4.24.552 1.4 1.096 2.804 1.643 4.206l1.66 4.254L157 31.924c-.097.034-.156.072-.216.072-.939.004-1.879.003-2.818.001-.048 0-.096-.022-.18-.042-.567-1.392-1.06-2.83-1.636-4.258-.536-.056-1.063-.018-1.588-.025-.53-.007-1.058-.002-1.588-.002-.512 0-1.025-.005-1.537.002-.526.008-1.055-.034-1.602.03l-1.619 4.258c-.099.017-.165.04-.231.04-.94 0-1.878 0-2.817-.004-.047 0-.094-.026-.128-.037-.02-.028-.034-.041-.039-.056a.093.093 0 0 1 .006-.052c2.123-5.447 4.248-10.893 6.372-16.34.062-.16.132-.319.212-.511M173.048 35.072c.362-.08 1.18-.095 1.888-.035.067.09.151.194.225.306 2.216 3.347 4.436 6.69 6.641 10.046.71 1.08 1.377 2.191 2.065 3.288.071.112.15.22.22.325.169-.051.099-.177.096-.263-.027-.762-.074-1.523-.093-2.286a155.301 155.301 0 0 1-.051-3.38c-.008-2.479-.003-4.958-.002-7.437 0-.187.011-.375.018-.59.643-.08 1.255-.019 1.893-.042.02.136.042.232.048.33.007.122.003.243.003.364v15.604c0 .205-.009.41-.013.605-.357.103-1.264.123-1.958.047l-1.844-2.775c-.612-.922-1.221-1.844-1.832-2.766-.62-.935-1.243-1.87-1.86-2.807a405.212 405.212 0 0 1-1.816-2.776c-.604-.936-1.18-1.891-1.825-2.937-.063.36-.02.595-.011.828.009.242.033.484.044.727.011.242.015.485.02.727l.015.728.014.78.01.728.005.729v7.334c0 .242.001.485-.001.728-.002.239-.008.479-.013.706-.378.106-1.39.116-1.896.023-.01-.088-.026-.187-.031-.286-.006-.103-.002-.208-.002-.312l.001-15.656c0-.203-.03-.413.042-.605M139.938 29.77c.068.402.084 1.902.028 2.631-.08.038-.17.094-.266.12a14.972 14.972 0 0 1-4.388.468c-.881-.034-1.754-.138-2.601-.389-2.946-.87-4.776-2.817-5.438-5.832-.437-1.99-.35-3.972.27-5.92a8.85 8.85 0 0 1 .796-1.788c1.152-1.968 2.872-3.166 5.043-3.732 1.254-.326 2.53-.394 3.82-.27.703.068 1.396.165 2.077.352.166.046.33.105.482.154.084.42.093 2.073.016 2.641-.115-.015-.234-.016-.343-.049-.949-.289-1.922-.417-2.909-.46a6.77 6.77 0 0 0-2.293.273c-1.514.464-2.61 1.42-3.29 2.857a6.622 6.622 0 0 0-.599 2.135c-.133 1.241-.102 2.476.276 3.678.625 1.99 1.973 3.165 4.008 3.55.943.177 1.892.147 2.838.055a11.483 11.483 0 0 0 2.22-.438c.081-.025.17-.025.253-.037M161.275 35.676c.039.564.02 1.142.013 1.756-.128-.018-.222-.018-.31-.046-1.265-.39-2.553-.568-3.867-.47-1.02.075-1.995.345-2.9.868-1.603.927-2.612 2.374-3.048 4.274a9.823 9.823 0 0 0 .025 4.47c.533 2.276 1.862 3.721 3.968 4.299 1.02.28 2.058.36 3.105.273.439-.036.875-.103 1.31-.165.144-.02.285-.07.439-.11.08-.433.032-.856.04-1.275.008-.425.002-.85.002-1.275V47c-.002-.421-.006-.843-.009-1.239-.18-.142-.348-.097-.507-.098-.864-.005-1.728-.001-2.592-.004-.16 0-.318-.016-.502-.027-.051-.625-.031-1.219-.018-1.808.077-.03.121-.064.166-.064 1.744-.003 3.488-.003 5.233 0 .043 0 .088.036.145.062.01.065.03.132.03.2.002 2.69.002 5.38.002 8.03-.108.192-.26.218-.396.269-.68.253-1.384.403-2.093.517-1.069.173-2.143.201-3.22.114a8.684 8.684 0 0 1-2.892-.724c-2.154-.97-3.51-2.693-4.095-5.133-.316-1.316-.368-2.654-.237-4.005.084-.867.249-1.712.532-2.527.832-2.398 2.375-4.023 4.576-4.915 1.477-.599 3.01-.74 4.573-.595.683.063 1.36.168 2.02.377.17.054.35.086.507.246"/>
        <g transform="translate(190 35)">
            <mask id="b" fill="#fff">
                <use xlink:href="#a"/>
            </mask>
            <path fill="#FEFEFE" d="M13.027 1.052c.006.559.01 1.127-.004 1.724-.131-.02-.228-.026-.319-.052-1.232-.356-2.484-.531-3.765-.47a7.285 7.285 0 0 0-2.72.643c-1.974.91-3.174 2.486-3.627 4.66a9.176 9.176 0 0 0 .108 4.218c.45 1.736 1.431 3.028 3.05 3.754.648.29 1.33.456 2.029.55 1.152.156 2.301.107 3.445-.092.162-.028.321-.073.487-.112.083-.437.035-.852.043-1.264.008-.415.002-.831.002-1.246 0-.416.002-.831 0-1.247-.004-.411.014-.825-.013-1.21-.197-.124-.368-.085-.532-.086-.886-.003-1.772 0-2.658-.004-.162 0-.333.043-.51-.081-.049-.553-.014-1.12-.022-1.657.142-.17.302-.127.446-.127.902-.005 1.805-.003 2.707-.003l2.006.001c.165 0 .33.012.488.019.125.175.081.354.082.52.003 1.263.001 2.528.001 3.791v3.376c0 .17-.012.341-.018.504-.334.202-.678.281-1.015.37a14.345 14.345 0 0 1-4.974.409 9.06 9.06 0 0 1-2.815-.7c-2.13-.92-3.504-2.532-4.14-4.826-.228-.82-.33-1.66-.35-2.511-.026-1.149.072-2.284.388-3.39.829-2.9 2.662-4.78 5.44-5.67C7.64.403 9.054.313 10.483.451c.684.065 1.36.167 2.021.363.175.053.357.092.523.238" mask="url(#b)"/>
        </g>
        <path fill="#FEFEFE" d="M142.11 44.968c-.013-.086-.01-.14-.03-.186-.915-2.308-1.725-4.656-2.557-6.996-.003-.01-.026-.011-.04-.017-.016.003-.044 0-.047.009-.866 2.326-1.73 4.653-2.593 6.98-.022.061-.028.13-.042.195.385.069 4.708.082 5.309.015m4.89 7.009c-.782.036-1.463.016-2.15.017-.686-1.719-1.3-3.42-1.972-5.1h-6.836c-.066.155-.136.31-.197.466l-1.594 4.157c-.055.143-.115.285-.168.413-.392.084-1.579.094-2.076.02-.034-.18.066-.327.126-.481a28201.363 28201.363 0 0 1 6.244-15.894c.07-.176.146-.349.216-.515.38-.072 1.19-.08 1.747-.017 1.117 2.797 2.217 5.623 3.328 8.446 1.103 2.805 2.21 5.61 3.332 8.488M162.132 29.353c.266.006.47.014.673.014 2.184 0 4.367 0 6.55.003.202 0 .413-.047.603.064.062.483.055 2.092-.016 2.513-.143.01-.294.026-.445.028-4.592.052-10.009.02-10.429-.062-.011-.094-.031-.194-.034-.294-.065-2.562-.03-16.039.047-16.566.31-.09.635-.036.956-.045.344-.009.687-.003 1.03-.002.325 0 .65.002.992.004.024.131.053.23.057.328.008.224.003.45.003.674v12.659c0 .205.008.41.013.682M120.063 15.039c.656-.062 2.497-.047 2.903.023.01.09.027.187.03.286.007.12.003.242.003.364v16.206c-.349.135-.68.06-1.002.073-.314.013-.628.006-.941.002-.326-.005-.655.025-.967-.027-.086-.554-.121-12.612-.054-16.55.002-.117.017-.235.028-.377M106.033 35.069c.408-.088 1.464-.092 1.919-.01.014.042.044.089.044.136.003 5.515.004 11.03.004 16.544 0 .066-.02.131-.034.223-.646.068-1.275.023-1.896.028-.033-.094-.064-.142-.065-.19-.003-5.514-.005-11.029-.005-16.544 0-.065.023-.13.033-.187M167.057 35.004c.653.009 1.263-.027 1.901.026.014.12.029.219.035.318.006.086.002.173.002.26 0 5.256 0 10.513-.002 15.77 0 .185.03.378-.034.552-.396.088-1.45.094-1.901.013-.09-.172-.048-.367-.048-.552-.004-1.735-.003-3.47-.003-5.205l.001-10.512c0-.204-.021-.412.05-.67"/>
    </g>
</svg>
