<svg xmlns="http://www.w3.org/2000/svg" xmlns:xlink="http://www.w3.org/1999/xlink" width="324" height="40" viewBox="0 0 324 40">
    <defs>
        <path id="a" d="M0 40h324V0H0z"/>
    </defs>
    <g fill="none" fill-rule="evenodd">
        <path fill="#FEFEFE" d="M33.312 24.408c0 4.153.112 8.022-2.969 11.368-2.614 2.83-6.697 4.109-10.534 4.22L16.052 40c-3.838-.115-7.91-1.327-10.526-4.155-3.082-3.344-2.964-7.21-2.964-11.364V9.08c0-2.598.406-6.81-2.562-7.906V1h11.053v.173C8.141 2.268 8.488 6.481 8.488 9.08V24.48c0 7.676 3.259 11.249 9.25 11.249 3.255 0 6.568-1.327 8.489-4.04 1.281-1.73 1.222-3.17 1.222-5.248V9.079c0-2.598.35-6.81-2.559-7.906V1H35.94l.061.173c-2.967 1.095-2.62 5.308-2.62 7.963l-.068 15.272z"/>
        <path fill="#FEFEFE" d="M49.606 5.91l-7.184 18.823-2.991 8.146c-1.21 3.232-1.61 4.907 1.148 5.948V39H30v-.173c3.333-1.675 4.314-4.905 5.577-8.205l9.604-24.08c.807-2.077 1.897-4.5-.864-5.369V1h9.088l11.96 29.622c1.322 3.3 2.362 6.53 5.635 8.205V39H59.21v-.173c2.82-1.273 2.358-1.905.808-5.948l-3.108-8.146L49.606 5.91z"/>
        <path fill="#FEFEFE" d="M105.155 4.661c.464-1.219.872-2.383.872-3.602V1h10.005v.175c-1.391.408-1.795 2.093-1.795 3.429l3.815 28.54c.347 2.734.637 4.301 2.948 5.928v.174h-11.159v-.174c2.026-.64 2.37-2.383 2.37-4.359l-3.296-28.018L95.96 40c-2.896-2.209-3.706-3.777-5.094-7.031L79.876 6.754 76.58 31.746c-.462 3.55-.87 6.104 1.852 7.326v.174H69v-.174c2.43-2.15 2.78-5 3.241-8.137L75.54 6.58c.23-1.626.864-3.947-1.794-5.404V1H83.87v.059c0 .928.465 1.805.81 2.617l10.875 25.632 9.6-24.647z"/>
        <path fill="#FEFEFE" d="M142.711 7.83c-2.213-2.32-5.728-3.657-8.908-3.657-3.23 0-7.316 1.28-7.316 5.28 0 7.94 19.513 7.825 19.513 18.546C146 34.204 139.651 40 130.798 40c-3.46 0-6.921-.518-10.15-1.739L119 31.016c3.35 2.96 8 4.81 12.425 4.81 3.232 0 8.112-1.968 8.112-6.03 0-9.04-19.519-7.42-19.519-19.71 0-7.298 7.32-10.086 14.24-10.086 2.837 0 5.731.407 8.453 1.278V7.83zM50.002 32A4.998 4.998 0 0 0 55 26.998 4.995 4.995 0 0 0 50.002 22 5.004 5.004 0 0 0 45 26.998 5.008 5.008 0 0 0 50.002 32"/>
        <mask id="b" fill="#fff">
            <use xlink:href="#a"/>
        </mask>
        <path fill="#FEFEFE" d="M159 40h1V0h-1zM170 12.668V7h1.848v5.598c0 1.828 1.007 2.813 2.66 2.813 1.637 0 2.644-.929 2.644-2.743V7H179v5.583c0 2.94-1.773 4.417-4.522 4.417-2.735 0-4.478-1.476-4.478-4.332M180 9.163h1.787v1.217c.502-.742 1.225-1.38 2.436-1.38 1.758 0 2.777 1.187 2.777 3.013V17h-1.787v-4.453c0-1.216-.605-1.915-1.67-1.915-1.032 0-1.756.727-1.756 1.945V17H180V9.163zM189.077 17h1.861V9.707h-1.86V17zM189 8.589h2V7h-2v1.589zM192 9h1.918l2.097 5.835L198.125 9H200l-3.188 8h-1.61zM205.356 12.455c-.11-1.132-.74-2.018-1.835-2.018-1.014 0-1.726.828-1.877 2.018h3.712zm-5.356.566v-.03C200 10.8 201.466 9 203.534 9c2.302 0 3.466 1.917 3.466 4.123 0 .16-.014.32-.028.494h-5.315c.179 1.249 1.014 1.945 2.083 1.945.808 0 1.383-.319 1.958-.914l.973.914c-.685.872-1.63 1.438-2.959 1.438-2.095 0-3.712-1.612-3.712-3.979zM209 9.152h1.571v1.768C211 9.746 211.792 8.944 213 9.003v1.903h-.09c-1.378 0-2.339 1.025-2.339 3.106V17H209V9.152zM214 15.844l.771-1.198c.814.628 1.7.95 2.472.95.743 0 1.172-.322 1.172-.834v-.028c0-.6-.8-.805-1.687-1.083-1.114-.322-2.357-.79-2.357-2.267v-.028c0-1.464 1.186-2.356 2.686-2.356.944 0 1.972.336 2.772.878l-.686 1.258c-.728-.454-1.5-.732-2.128-.732-.672 0-1.058.322-1.058.776v.028c0 .556.814.79 1.7 1.083 1.1.35 2.343.863 2.343 2.253v.028c0 1.624-1.229 2.428-2.8 2.428-1.071 0-2.257-.394-3.2-1.156M222.076 17h1.862V9.707h-1.862V17zM222 8.589h2V7h-2v1.589zM226.015 14.726V10.65H225V9.126h1.015V7h1.833v2.126H230v1.524h-2.152v3.798c0 .69.364.968.985.968.409 0 .773-.088 1.137-.264v1.452c-.455.25-.97.396-1.652.396-1.349 0-2.303-.572-2.303-2.274M231.487 18.537l.605-1.303c.325.175.68.29 1.048.29.502 0 .812-.218 1.107-.883L231 9h1.904l2.214 5.672L237.14 9H239l-3.1 7.859c-.619 1.562-1.313 2.141-2.569 2.141a3.703 3.703 0 0 1-1.844-.463M249.28 13.036v-.029c0-1.35-.951-2.468-2.302-2.468-1.378 0-2.26 1.103-2.26 2.439v.029c0 1.336.952 2.468 2.289 2.468 1.392 0 2.274-1.117 2.274-2.44m-6.281 0v-.028C243 10.815 244.705 9 247.007 9c2.302 0 3.993 1.786 3.993 3.978v.029c0 2.178-1.706 3.993-4.022 3.993-2.288 0-3.978-1.786-3.978-3.964M253.025 10.662H252V9.153h1.025v-.568c0-.881.23-1.539.658-1.958.427-.418 1.025-.627 1.82-.627.64 0 1.084.09 1.497.209v1.524c-.367-.118-.688-.194-1.086-.194-.703 0-1.07.374-1.07 1.196v.433h2.14v1.494h-2.109V17h-1.85v-6.338zM267.63 13.056l-1.657-3.971-1.645 3.971h3.302zM265.22 7h1.56L271 17h-1.781l-.972-2.397h-4.535L262.726 17H261l4.22-10zM273 9.152h1.572v1.768c.428-1.174 1.22-1.976 2.428-1.917v1.903h-.09c-1.377 0-2.338 1.025-2.338 3.106V17H273V9.152zM278 6h1.715v5.972l3.103-3.205h2.083l-2.976 2.945L285 16h-1.985l-2.252-3.123-1.048 1.055V16H278zM291.29 13.607a5.042 5.042 0 0 0-1.768-.307c-1.111 0-1.769.453-1.769 1.2v.029c0 .73.658 1.14 1.491 1.14 1.17 0 2.047-.658 2.047-1.624v-.438zm-.043 3.233v-.95c-.528.628-1.33 1.11-2.5 1.11-1.461 0-2.747-.833-2.747-2.383v-.03c0-1.712 1.33-2.53 3.127-2.53.935 0 1.535.131 2.133.321v-.146c0-1.067-.671-1.653-1.9-1.653-.861 0-1.505.19-2.206.484l-.482-1.42c.848-.38 1.68-.643 2.938-.643 2.279 0 3.39 1.199 3.39 3.261v4.579h-1.753zM294 9.163h1.787v1.217c.501-.742 1.226-1.38 2.436-1.38C299.98 9 301 10.187 301 12.013V17h-1.787v-4.453c0-1.216-.606-1.915-1.669-1.915-1.034 0-1.757.727-1.757 1.945V17H294V9.163zM303 15.844l.771-1.198c.815.628 1.7.95 2.471.95.744 0 1.172-.322 1.172-.834v-.028c0-.6-.8-.805-1.686-1.083-1.113-.322-2.357-.79-2.357-2.267v-.028c0-1.464 1.186-2.356 2.686-2.356.943 0 1.972.336 2.772.878l-.686 1.258c-.729-.454-1.5-.732-2.129-.732-.67 0-1.056.322-1.056.776v.028c0 .556.813.79 1.699 1.083 1.1.35 2.343.863 2.343 2.253v.028c0 1.624-1.228 2.428-2.8 2.428-1.07 0-2.257-.394-3.2-1.156M315.291 13.607a5.042 5.042 0 0 0-1.769-.307c-1.11 0-1.768.453-1.768 1.2v.029c0 .73.658 1.14 1.49 1.14 1.17 0 2.047-.658 2.047-1.624v-.438zm-.044 3.233v-.95c-.527.628-1.33 1.11-2.5 1.11-1.46 0-2.747-.833-2.747-2.383v-.03c0-1.712 1.33-2.53 3.127-2.53.935 0 1.535.131 2.134.321v-.146c0-1.067-.672-1.653-1.9-1.653-.861 0-1.505.19-2.206.484l-.482-1.42c.848-.38 1.681-.643 2.937-.643 2.28 0 3.39 1.199 3.39 3.261v4.579h-1.753zM318 15.844l.771-1.198c.815.628 1.7.95 2.471.95.743 0 1.172-.322 1.172-.834v-.028c0-.6-.8-.805-1.685-1.083-1.114-.322-2.358-.79-2.358-2.267v-.028c0-1.464 1.186-2.356 2.686-2.356.943 0 1.971.336 2.772.878l-.686 1.258c-.729-.454-1.5-.732-2.129-.732-.67 0-1.057.322-1.057.776v.028c0 .556.815.79 1.7 1.083 1.1.35 2.343.863 2.343 2.253v.028c0 1.624-1.229 2.428-2.8 2.428-1.07 0-2.257-.394-3.2-1.156M170.024 26.662H169v-1.509h1.024v-.568c0-.882.23-1.54.657-1.958.43-.419 1.025-.627 1.821-.627.642 0 1.085.09 1.498.208v1.525c-.367-.119-.688-.194-1.086-.194-.703 0-1.07.374-1.07 1.196v.433h2.14v1.494h-2.11V33h-1.85v-6.338zM180.281 29.036v-.029c0-1.35-.952-2.468-2.302-2.468-1.378 0-2.26 1.103-2.26 2.439v.029c0 1.336.952 2.468 2.289 2.468 1.392 0 2.273-1.118 2.273-2.44m-6.281 0v-.028c0-2.192 1.705-4.007 4.008-4.007 2.302 0 3.992 1.785 3.992 3.978v.029c0 2.178-1.705 3.993-4.021 3.993-2.288 0-3.979-1.786-3.979-3.964M184 25.152h1.571v1.768c.429-1.175 1.222-1.976 2.429-1.917v1.902h-.09c-1.377 0-2.339 1.026-2.339 3.107V33H184v-7.848zM192 23h1.904L197 27.729 200.096 23H202v10h-1.787v-7.17L197 30.541h-.058l-3.183-4.684V33H192zM209.356 28.455c-.109-1.132-.74-2.018-1.835-2.018-1.014 0-1.726.827-1.877 2.018h3.712zm-5.356.566v-.03C204 26.8 205.466 25 207.534 25c2.302 0 3.466 1.916 3.466 4.122 0 .16-.014.32-.028.494h-5.314c.178 1.25 1.013 1.946 2.082 1.946.808 0 1.383-.32 1.958-.915l.973.915c-.685.872-1.63 1.438-2.959 1.438-2.095 0-3.712-1.612-3.712-3.979zM218.257 29.933v-.03c0-1.515-1.056-2.51-2.242-2.51-1.216 0-2.227.95-2.227 2.51v.03c0 1.514 1.025 2.51 2.227 2.51 1.186 0 2.242-1.011 2.242-2.51m-6.257 0v-.03c0-2.598 1.743-4.067 3.59-4.067 1.275 0 2.08.652 2.637 1.38V23H220v10.837h-1.773v-1.306c-.572.817-1.377 1.469-2.637 1.469-1.818 0-3.59-1.469-3.59-4.067M222.077 33h1.862v-7.293h-1.862V33zM222 24.588h2V23h-2v1.588zM225 29.036v-.029c0-2.178 1.66-4.007 3.921-4.007 1.432 0 2.32.537 3.02 1.32l-1.073 1.177c-.53-.567-1.088-.958-1.96-.958-1.26 0-2.177 1.103-2.177 2.439v.029c0 1.364.931 2.468 2.262 2.468.816 0 1.418-.391 1.961-.959L232 31.562c-.745.843-1.619 1.438-3.093 1.438-2.247 0-3.907-1.786-3.907-3.964M238.291 29.607a5.054 5.054 0 0 0-1.768-.307c-1.11 0-1.769.453-1.769 1.2v.029c0 .73.658 1.14 1.491 1.14 1.17 0 2.046-.658 2.046-1.624v-.438zm-.044 3.233v-.95c-.527.628-1.33 1.11-2.499 1.11-1.461 0-2.748-.833-2.748-2.383v-.03c0-1.711 1.33-2.53 3.127-2.53.935 0 1.535.131 2.134.322v-.147c0-1.068-.672-1.653-1.9-1.653-.861 0-1.505.19-2.206.483l-.482-1.42c.848-.38 1.681-.642 2.938-.642 2.279 0 3.389 1.198 3.389 3.261v4.58h-1.753zM241 33h2V23h-2zM247 31.445l1.093-1.222c.989.805 1.977 1.264 3.261 1.264 1.121 0 1.83-.487 1.83-1.223v-.028c0-.695-.412-1.069-2.332-1.486-2.2-.5-3.439-1.11-3.439-2.903v-.027c0-1.668 1.476-2.82 3.529-2.82 1.505 0 2.7.43 3.747 1.223l-.973 1.291c-.93-.653-1.86-1-2.805-1-1.062 0-1.682.514-1.682 1.153v.028c0 .75.473 1.082 2.45 1.527 2.185.5 3.321 1.237 3.321 2.848v.028c0 1.82-1.52 2.902-3.69 2.902-1.58 0-3.07-.513-4.31-1.555M256 29.036v-.029c0-2.178 1.66-4.007 3.922-4.007 1.432 0 2.318.537 3.02 1.32l-1.074 1.177c-.53-.567-1.087-.958-1.96-.958-1.26 0-2.177 1.103-2.177 2.439v.029c0 1.364.931 2.468 2.262 2.468.817 0 1.418-.391 1.961-.959L263 31.562c-.745.843-1.619 1.438-3.093 1.438-2.247 0-3.907-1.786-3.907-3.964M264.078 33h1.86v-7.293h-1.86V33zM264 24.588h2V23h-2v1.588zM273.357 28.455c-.11-1.132-.74-2.018-1.837-2.018-1.013 0-1.725.827-1.877 2.018h3.714zm-5.357.566v-.03C268 26.8 269.465 25 271.534 25c2.302 0 3.466 1.916 3.466 4.122 0 .16-.014.32-.027.494h-5.315c.178 1.25 1.014 1.946 2.082 1.946.808 0 1.384-.32 1.96-.915l.972.915c-.686.872-1.63 1.438-2.96 1.438-2.095 0-3.712-1.612-3.712-3.979zM276 25.163h1.787v1.217c.502-.742 1.226-1.38 2.436-1.38 1.758 0 2.777 1.187 2.777 3.013V33h-1.787v-4.453c0-1.217-.606-1.915-1.669-1.915-1.033 0-1.757.727-1.757 1.945V33H276v-7.837zM285 29.036v-.029c0-2.178 1.66-4.007 3.922-4.007 1.432 0 2.32.537 3.02 1.32l-1.073 1.177c-.53-.567-1.088-.958-1.961-.958-1.26 0-2.176 1.103-2.176 2.439v.029c0 1.364.93 2.468 2.262 2.468.816 0 1.417-.391 1.961-.959L292 31.562c-.744.843-1.618 1.438-3.092 1.438-2.248 0-3.908-1.786-3.908-3.964M297.356 28.455c-.11-1.132-.74-2.018-1.835-2.018-1.014 0-1.727.827-1.878 2.018h3.713zm-5.356.566v-.03C292 26.8 293.465 25 295.534 25c2.302 0 3.466 1.916 3.466 4.122 0 .16-.014.32-.027.494h-5.315c.178 1.25 1.013 1.946 2.082 1.946.807 0 1.384-.32 1.96-.915l.971.915c-.685.872-1.63 1.438-2.96 1.438-2.094 0-3.711-1.612-3.711-3.979zM300 31.845l.771-1.2c.815.63 1.7.951 2.471.951.744 0 1.172-.322 1.172-.834v-.028c0-.6-.8-.806-1.686-1.082-1.113-.322-2.357-.79-2.357-2.268v-.029c0-1.463 1.186-2.355 2.686-2.355.943 0 1.972.336 2.772.878l-.686 1.258c-.729-.454-1.5-.732-2.129-.732-.67 0-1.056.322-1.056.775v.03c0 .555.813.79 1.699 1.083 1.1.35 2.343.862 2.343 2.252v.028c0 1.624-1.228 2.428-2.8 2.428-1.071 0-2.257-.394-3.2-1.155M148.5 36.459h-.695v-.83h.695c.348 0 .568.15.568.415 0 .249-.202.415-.568.415m1.39-.465c0-.68-.566-.994-1.334-.994H147v3h.805v-.945h.513l.713.945H150l-.841-1.078c.44-.132.732-.447.732-.928" mask="url(#b)"/>
        <path fill="#FEFEFE" d="M150.5 36.984V37c0 1.38-1.088 2.532-2.5 2.532-1.428 0-2.498-1.137-2.498-2.516V37c0-1.38 1.087-2.532 2.499-2.532 1.427 0 2.499 1.137 2.499 2.516M148 34a3 3 0 1 0 0 6 3 3 0 0 0 0-6" mask="url(#b)"/>
    </g>
</svg>
