<svg xmlns="http://www.w3.org/2000/svg" xmlns:xlink="http://www.w3.org/1999/xlink">

	<symbol id="icon-create" viewBox="0 0 146 146">
    <g fill="none" fill-rule="evenodd">
			<circle cx="73" cy="73" r="73" fill="#18C8FF"/>
			<g fill="#483191">
				<path d="M57.827 103.124H28.314A2.309 2.309 0 0 1 26 100.821a2.309 2.309 0 0 1 2.314-2.304h29.513a2.309 2.309 0 0 1 2.315 2.304 2.309 2.309 0 0 1-2.315 2.303"/>
				<path d="M43.07 117.814a2.309 2.309 0 0 1-2.313-2.303V86.13a2.309 2.309 0 0 1 2.314-2.304 2.309 2.309 0 0 1 2.314 2.304v29.38a2.309 2.309 0 0 1-2.314 2.303M68.88 68.986l6.659 6.63L107.5 43.798l-6.66-6.63-31.96 31.817zm6.659 12.19a2.311 2.311 0 0 1-1.636-.674l-9.933-9.887a2.3 2.3 0 0 1 0-3.259l35.234-35.075a2.318 2.318 0 0 1 3.273 0l9.932 9.888c.904.9.904 2.358 0 3.258L77.175 80.502a2.312 2.312 0 0 1-1.636.675z"/>
				<path d="M66.617 73.25l-2.319 6.924 6.956-2.307-4.637-4.617zM60.64 86.12a2.32 2.32 0 0 1-1.637-.675 2.296 2.296 0 0 1-.559-2.357l4.966-14.832a2.31 2.31 0 0 1 1.663-1.513 2.322 2.322 0 0 1 2.168.613l9.934 9.888a2.297 2.297 0 0 1-.905 3.815L61.37 86.002c-.24.08-.486.118-.731.118zM104.114 33.91l6.658 6.628.003-.003a4.655 4.655 0 0 0-.013-6.5 4.73 4.73 0 0 0-6.645-.128l-.003.003zm6.658 12.19a2.312 2.312 0 0 1-1.637-.675l-9.93-9.886a2.297 2.297 0 0 1 0-3.258l1.654-1.648.03-.028c3.702-3.56 9.625-3.458 13.203.228a9.23 9.23 0 0 1-.029 12.945l-1.655 1.647a2.313 2.313 0 0 1-1.636.675z"/>
			</g>
    </g>
	</symbol>

	<symbol id="icon-compete" viewBox="0 0 146 146">
    <defs>
			<path id="a" d="M.189.13h15.547v29.683H.189z"/>
    </defs>
    <g fill="none" fill-rule="evenodd">
			<circle cx="73" cy="73" r="73" fill="#18C8FF"/>
			<path fill="#483191" d="M69.065 67a2.306 2.306 0 0 1-1.641-.69l-8.744-8.87a2.378 2.378 0 0 1 0-3.331 2.297 2.297 0 0 1 3.283 0l6.9 7 14.995-19.216a2.3 2.3 0 0 1 3.262-.384 2.379 2.379 0 0 1 .379 3.308l-16.613 21.29a2.313 2.313 0 0 1-1.82.893M41.225 81c-.262 0-.528-.046-.788-.144-6.245-2.357-10.439-8.505-10.437-15.3v-8.74C30 53.61 32.556 51 35.7 51h7.026C43.982 51 45 52.039 45 53.321c0 1.282-1.018 2.32-2.274 2.32h-7.027c-.634 0-1.151.528-1.151 1.176v8.74c-.002 4.862 2.999 9.26 7.466 10.945 1.178.444 1.78 1.78 1.344 2.981A2.276 2.276 0 0 1 41.225 81"/>
			<g transform="translate(100 52)">
				<mask id="b" fill="#fff">
					<use xlink:href="#a"/>
				</mask>
				<path fill="#483191" d="M4.101 29.813c-.959 0-1.859-.574-2.21-1.5-.452-1.19.172-2.51 1.393-2.95 4.63-1.668 7.74-6.02 7.738-10.828v-8.65c0-.64-.536-1.162-1.194-1.162H2.546C1.244 4.723.189 3.695.189 2.427.189 1.158 1.244.13 2.546.13h7.282c3.257 0 5.908 2.582 5.908 5.756v8.648c.002 6.722-4.346 12.805-10.818 15.136-.27.097-.546.143-.817.143" mask="url(#b)"/>
			</g>
			<path fill="#483191" d="M44.865 34.693a1.185 1.185 0 0 0-1.186 1.188v.032c.726 29.795 10.364 35.607 18.109 40.277 5.103 3.077 9.925 5.983 9.925 14.485v.042c-.202 11.286-4.813 17.02-14.514 18.04a1.365 1.365 0 0 0-1.225 1.362c0 .655.532 1.188 1.185 1.188h31.68c.654 0 1.186-.533 1.186-1.189 0-.702-.526-1.287-1.223-1.36-9.703-1.022-14.314-6.755-14.514-18.04l-.001-.043c0-8.502 4.821-11.408 9.925-14.485 7.745-4.67 17.383-10.482 18.108-40.278a1.19 1.19 0 0 0-1.155-1.219H44.865zM88.84 116H57.16c-3.235 0-5.865-2.639-5.865-5.882a6.042 6.042 0 0 1 5.417-6.028c8.375-.882 10.186-6.008 10.321-13.435-.007-5.831-2.888-7.568-7.656-10.443C51.11 75.228 39.789 68.402 39 36.027L39 35.88c0-1.571.61-3.048 1.719-4.159A5.818 5.818 0 0 1 44.864 30h56.27c.049 0 .097 0 .145.002 3.235.08 5.8 2.784 5.72 6.025-.79 32.375-12.11 39.2-20.376 44.185-4.769 2.875-7.65 4.612-7.657 10.443.189 10.268 4.263 12.797 10.323 13.436a6.041 6.041 0 0 1 5.416 6.027c0 3.243-2.632 5.882-5.865 5.882z"/>
    </g>
	</symbol>

	<symbol id="icon-contribute" viewBox="0 0 146 146">
    <defs>
			<path id="a" d="M0 .177h95.984v60.62H0z"/>
    </defs>
    <g fill="none" fill-rule="evenodd">
			<circle cx="73" cy="73" r="73" fill="#18C8FF"/>
			<g transform="translate(25 30)">
					<mask id="b" fill="#fff">
							<use xlink:href="#a"/>
					</mask>
					<path fill="#483191" d="M75.801 60.796h-6.06a2.343 2.343 0 0 1-2.335-2.35 2.342 2.342 0 0 1 2.336-2.35h5.89c1.632-.255 15.681-2.895 15.681-17.623.004-4.697-1.81-9.113-5.11-12.437-3.297-3.323-7.684-5.155-12.352-5.158-.223 0-.453.004-.68.013a2.34 2.34 0 0 1-2.201-1.347C64.998 6.792 49.827 1.305 37.152 7.314c-8.423 3.992-13.994 12.282-14.538 21.634a2.352 2.352 0 0 1-.913 1.73 2.325 2.325 0 0 1-1.899.432 12.402 12.402 0 0 0-9.439 1.782 12.544 12.544 0 0 0-5.423 7.975c-.178.848-.268 1.719-.269 2.587 0 3.694 1.068 6.634 3.175 8.734 3.922 3.91 10.277 3.892 10.342 3.896H26.127a2.343 2.343 0 0 1 2.336 2.35 2.343 2.343 0 0 1-2.336 2.35h-7.898c-.576.002-8.39-.022-13.64-5.227C1.544 52.54 0 48.466 0 43.451c.001-1.193.125-2.387.369-3.551.946-4.529 3.59-8.416 7.441-10.944a17.013 17.013 0 0 1 10.391-2.79c1.418-10.03 7.748-18.738 16.96-23.104 14.55-6.896 31.876-1 39.36 13.127 5.666.171 10.966 2.474 14.988 6.527 4.18 4.211 6.48 9.808 6.475 15.76 0 10.185-5.452 15.732-10.026 18.591-4.836 3.023-9.652 3.683-9.854 3.71-.1.013-.201.02-.303.02" mask="url(#b)"/>
			</g>
			<path fill="#483191" d="M73 111c-1.105 0-2-1.042-2-2.327V67.327c0-1.285.895-2.327 2-2.327s2 1.042 2 2.327v41.346c0 1.285-.895 2.327-2 2.327"/>
			<path fill="#483191" d="M85.71 81c-.587 0-1.172-.24-1.62-.72L73.5 68.928 62.91 80.281a2.183 2.183 0 0 1-3.24 0c-.894-.96-.894-2.513 0-3.472l12.21-13.09a2.183 2.183 0 0 1 3.24 0l12.21 13.09c.894.959.894 2.513 0 3.472-.449.48-1.034.719-1.62.719"/>
    </g>
	</symbol>

	<symbol id="icon-support" viewBox="0 3 24 18">
		<g fill="none" stroke-width="0.5	" stroke_linecap="round" stroke-linejoin="round">
			<rect class="a" x="0.5" y="3.954" width="23" height="16" rx="2" ry="2"/>
			<polyline class="a" points="22.911 4.536 12 13.454 1.089 4.536"/>
		</g>
	</symbol>

	<symbol id="icon-github" viewBox="0 3 24 18">
		<g fill="none" stroke-width="0.5" stroke_linecap="round" stroke-linejoin="round">
			<path class="a" d="M12,.5A11.5,11.5,0,0,0,8.365,22.914c.574.1.756-.237.756-.541,0-.275.006-1.037,0-2-3.2.694-3.861-1.515-3.861-1.515a3.043,3.043,0,0,0-1.276-1.682c-1.044-.714.078-.7.078-.7a2.414,2.414,0,0,1,1.762,1.184,2.448,2.448,0,0,0,3.346.956A2.45,2.45,0,0,1,9.9,17.084c-2.553-.292-5.238-1.278-5.238-5.686A4.447,4.447,0,0,1,5.847,8.312a4.126,4.126,0,0,1,.112-3.043s.967-.309,3.162,1.18a10.883,10.883,0,0,1,5.76,0c2.2-1.488,3.159-1.18,3.159-1.18a4.131,4.131,0,0,1,.114,3.043A4.442,4.442,0,0,1,19.337,11.4c0,4.42-2.689,5.391-5.251,5.674a2.727,2.727,0,0,1,.787,2.12v3.184c0,.307.186.647.77.536A11.5,11.5,0,0,0,12,.5Z"/>
		</g>
	</symbol>

	<symbol id="icon-donate"  viewBox="0 3 24 18">
		<g fill="none" stroke-width="0.5" stroke_linecap="round" stroke-linejoin="round">
			<path class="a" d="M22.5,10.5,12.2,15.413a.5.5,0,0,1-.4,0L1.5,10.5"/>
			<path class="a" d="M22.5,13.5,12.2,18.413a.5.5,0,0,1-.4,0L1.5,13.5"/>
			<path class="a" d="M22.5,16.5,12.2,21.413a.5.5,0,0,1-.4,0L1.5,16.5"/>
			<path class="a" d="M12.2,12.413a.5.5,0,0,1-.4,0L1.555,7.958a.5.5,0,0,1,0-.916L11.8,2.587a.5.5,0,0,1,.4,0L22.445,7.042a.5.5,0,0,1,0,.916Z"/>
		</g>
	</symbol>

	<symbol id="icon-download-data"  viewBox="0 3 24 18">
		<g fill="none" stroke-width="0.5" stroke_linecap="round" stroke-linejoin="round">
			<circle class="a" cx="17.5" cy="6.5" r="6"/>
			<line class="a" x1="17.5" y1="3.5" x2="17.5" y2="9.5"/>
			<line class="a" x1="17.5" y1="9.5" x2="15.25" y2="7.25"/>
			<line class="a" x1="17.5" y1="9.5" x2="19.75" y2="7.25"/>
			<line class="a" x1="0.5" y1="16.5" x2="21.5" y2="16.5"/>
			<path class="a" d="M21.5,13.5v5a1,1,0,0,1-1,1H1.5a1,1,0,0,1-1-1V5.5a1,1,0,0,1,1-1h8"/>
			<path class="a" d="M8,23.5a6.979,6.979,0,0,0,1.5-4"/>
			<path class="a" d="M14,23.5a6.979,6.979,0,0,1-1.5-4"/>
			<line class="a" x1="6.5" y1="23.5" x2="15.5" y2="23.5"/>
		</g>
	</symbol>

</svg>
