<svg xmlns="http://www.w3.org/2000/svg" xmlns:xlink="http://www.w3.org/1999/xlink">
	<symbol id="icon-compete" viewBox="0 0 24 24">
		<title>compete</title>
		<g id="Page-3" stroke="none" stroke-width="1" fill="none" fill-rule="evenodd" stroke_linecap="round" stroke-linejoin="round">
			<g id="compete1" stroke="#18faff">
				<path class="a" d="M3.113,9.253A4,4,0,0,1,.5,5.5v-1a1,1,0,0,1,1-1H4.8"/>
			</g>
			<g id="compete2" stroke="#18faff">
				<path class="a" d="M20.887,9.253A4,4,0,0,0,23.5,5.5v-1a1,1,0,0,0-1-1H19.2"/>
			</g>
			<g id="compete3" stroke="#18faff">
				<path class="a" d="M12.479,3.287,13.507,5.5h2a.489.489,0,0,1,.345.855L14.116,8.065l.962,2.209a.524.524,0,0,1-.746.655L12.008,9.622,9.684,10.929a.524.524,0,0,1-.746-.655L9.9,8.065,8.164,6.357A.489.489,0,0,1,8.508,5.5h2l1.029-2.215A.53.53,0,0,1,12.479,3.287Z"/>
			</g>
			<g id="compete4" stroke="#18faff">
				<line class="a" x1="12" y1="15.5" x2="12" y2="20"/>
			</g>
			<g id="compete5" stroke="#18faff">
				<path class="a" d="M6,23.5C6,21.567,8.686,20,12,20s6,1.567,6,3.5Z"/>
			</g>
			<g id="compete6" stroke="#18faff">
				<path class="a" d="M18.6,9.53c-.449,4.492-5.838,7.865-10.258,4.776A7.312,7.312,0,0,1,5.351,9.013l-.8-7.963a.5.5,0,0,1,.5-.55h13.9a.5.5,0,0,1,.5.55Z"/>
			</g>
		</g>
	</symbol>

	<symbol id="icon-contribute" viewBox="0 0 24 24">
		<title>cloud-upload</title>
		<g id="Page-2" stroke="none" stroke-width="1" fill="none" fill-rule="evenodd" stroke_linecap="round" stroke-linejoin="round">
			<g id="contribute1" stroke="#18faff">
				<path class="a" d="M16.3,15.891h2.4S23,15.33,23,11.108a4.773,4.773,0,0,0-4.955-4.773A6.685,6.685,0,0,0,5.324,8.794,3.586,3.586,0,0,0,1,12.3c0,3.645,3.826,3.588,3.826,3.588H7.689"></path>
			</g>
			<g id="contribute2" stroke="#18faff">
				<line class="a" x1="12" y1="10.391" x2="12" y2="21.391"/>
			</g>
			<g id="contribute3" stroke="#18faff">
				<polyline class="a" points="15 13.391 12 10.391 9 13.391"/>
			</g>
		</g>
	</symbol>

	<symbol id="icon-create" viewBox="0 0 20 22">
		<title>create</title>
		<desc>Created with Sketch.</desc>
		<g id="Page-1" stroke="none" stroke-width="1" fill="none" fill-rule="evenodd" stroke-linecap="round" stroke-linejoin="round">
			<g id="create" stroke="#18faff">
				<g id="shape-square-add" transform="translate(12.000000, 12.000000) scale(-1, 1) translate(-12.000000, -12.000000) ">
					<path d="M12.5,19.5 L1.5,19.5 C0.94771525,19.5 0.5,19.0522847 0.5,18.5 L0.5,1.5 C0.5,0.94771525 0.94771525,0.5 1.5,0.5 L18.5,0.5 C19.0522847,0.5 19.5,0.94771525 19.5,1.5 L19.5,12.5" id="Path"></path>
					<path d="M19.5,15.5 L19.5,23.5" id="Path"></path>
					<path d="M23.5,19.5 L15.5,19.5" id="Path"></path>
				</g>
				<g id="pencil" transform="translate(9.000000, 4.000000)">
					<polygon id="Rectangle" transform="translate(5.622838, 5.377425) rotate(45.000000) translate(-5.622838, -5.377425) " points="4.24783757 0.49984126 6.99783757 0.49984126 6.99783757 10.2550079 4.24783757 10.2550079"></polygon>
					<polygon id="Path" points="1.20129167 7.854 0.229166667 10.7708333 3.146 9.79870833"></polygon>
					<path d="M10.0439167,2.90033333 L8.09966667,0.956083333 L8.42370833,0.632041667 C8.9632293,0.110954879 9.8208249,0.118407153 10.3512089,0.648791125 C10.8815928,1.1791751 10.8890451,2.0367707 10.3679583,2.57629167 L10.0439167,2.90033333 Z" id="Path"></path>
				</g>
			</g>
		</g>
	</symbol>

	<symbol id="icon-donate"  viewBox="0 -10 34 40">
		<g id="Page-4" stroke="none" stroke-width="1" fill="none" fill-rule="evenodd" stroke_linecap="round" stroke-linejoin="round">
			<g id="donate1" stroke="#18faff">
				<path class="a" d="M22.5,10.5,12.2,15.413a.5.5,0,0,1-.4,0L1.5,10.5"/>
			</g>
			<g id="donate2" stroke="#18faff">
				<path class="a" d="M22.5,13.5,12.2,18.413a.5.5,0,0,1-.4,0L1.5,13.5"/>
			</g>
			<g id="donate3" stroke="#18faff">
				<path class="a" d="M22.5,16.5,12.2,21.413a.5.5,0,0,1-.4,0L1.5,16.5"/>
			</g>
			<g id="donate4" stroke="#18faff">
				<path class="a" d="M12.2,12.413a.5.5,0,0,1-.4,0L1.555,7.958a.5.5,0,0,1,0-.916L11.8,2.587a.5.5,0,0,1,.4,0L22.445,7.042a.5.5,0,0,1,0,.916Z"/>
			</g>
		</g>
	</symbol>

	<symbol id="icon-download-data"  viewBox="0 0 80 40">
		<g id="Page-5" stroke="none" stroke-width="1" fill="none" fill-rule="evenodd" stroke_linecap="round" stroke-linejoin="round">
			<g id="download1" stroke="#18faff">
				<circle class="a" cx="17.5" cy="6.5" r="6"/>
				<line class="a" x1="17.5" y1="3.5" x2="17.5" y2="9.5"/>
			</g>
			<g id="download2" stroke="#18faff">
				<line class="a" x1="17.5" y1="9.5" x2="15.25" y2="7.25"/>
			</g>
			<g id="download3" stroke="#18faff">
				<line class="a" x1="17.5" y1="9.5" x2="19.75" y2="7.25"/>
			</g>
			<g id="download4" stroke="#18faff">
				<line class="a" x1="0.5" y1="16.5" x2="21.5" y2="16.5"/>
			</g>
			<g id="download5" stroke="#18faff">
				<path class="a" d="M21.5,13.5v5a1,1,0,0,1-1,1H1.5a1,1,0,0,1-1-1V5.5a1,1,0,0,1,1-1h8"/>
			</g>
			<g id="download6" stroke="#18faff">
				<path class="a" d="M8,23.5a6.979,6.979,0,0,0,1.5-4"/>
			</g>
			<g id="download7" stroke="#18faff">
				<path class="a" d="M14,23.5a6.979,6.979,0,0,1-1.5-4"/>
			</g>
			<g id="download8" stroke="#18faff">
				<line class="a" x1="6.5" y1="23.5" x2="15.5" y2="23.5"/>
			</g>
		</g>
	</symbol>

	<symbol id="icon-github" viewBox="0 -10 70 40">
		<g id="Page-6" stroke="none" stroke-width="1" fill="none" fill-rule="evenodd" stroke_linecap="round" stroke-linejoin="round">
			<g id="github1" stroke="#18faff">
				<path class="a" d="M12,.5A11.5,11.5,0,0,0,8.365,22.914c.574.1.756-.237.756-.541,0-.275.006-1.037,0-2-3.2.694-3.861-1.515-3.861-1.515a3.043,3.043,0,0,0-1.276-1.682c-1.044-.714.078-.7.078-.7a2.414,2.414,0,0,1,1.762,1.184,2.448,2.448,0,0,0,3.346.956A2.45,2.45,0,0,1,9.9,17.084c-2.553-.292-5.238-1.278-5.238-5.686A4.447,4.447,0,0,1,5.847,8.312a4.126,4.126,0,0,1,.112-3.043s.967-.309,3.162,1.18a10.883,10.883,0,0,1,5.76,0c2.2-1.488,3.159-1.18,3.159-1.18a4.131,4.131,0,0,1,.114,3.043A4.442,4.442,0,0,1,19.337,11.4c0,4.42-2.689,5.391-5.251,5.674a2.727,2.727,0,0,1,.787,2.12v3.184c0,.307.186.647.77.536A11.5,11.5,0,0,0,12,.5Z"/>
			</g>
		</g>
	</symbol>

	<symbol id="icon-support" viewBox="0 -10 70 40">
		<g id="Page-6" stroke="none" stroke-width="1" fill="none" fill-rule="evenodd" stroke_linecap="round" stroke-linejoin="round">
			<g id="support1" stroke="#18faff">
				<rect class="a" x="0.5" y="3.954" width="23" height="16" rx="2" ry="2"/>
				<polyline class="a" points="22.911 4.536 12 13.454 1.089 4.536"/>
			</g>
		</g>
	</symbol>

	<symbol id="icon-qiicr">
		<style type="text/css">
			.st0{fill:#FFFFFF;}
			.st1{fill:none;stroke:#FFFFFF;stroke-width:3.2849;}
			.st2{fill:none;stroke:#FFFFFF;stroke-width:3.3579;}
			.st3{fill:none;stroke:#FFFFFF;stroke-width:3.3333;}
			.st4{fill:#26408C;}
			.st5{fill:none;stroke:#26408C;stroke-width:3.3349;}
		</style>
		<g>
			<path class="st0" d="M154.8,105.4c0-6.8-1.1-12.8-3.3-17.9c-2.2-5.2-5.4-9.6-9.7-13.1c-4.3-3.6-9.7-6.3-16.1-8.1
		c-6.4-1.9-13.8-2.8-22.3-2.8s-16,0.9-22.5,2.8c-6.4,1.9-11.9,4.6-16.2,8.1c-4.4,3.5-7.6,7.9-9.9,13.1c-2.2,5.2-3.3,11.1-3.3,17.8
		c0,6.8,1.1,12.8,3.3,17.9c2.2,5.2,5.5,9.6,9.9,13.1c4.4,3.5,9.8,6.2,16.2,8.1c6.5,1.8,14,2.7,22.5,2.7c10.7,0,19.7-1.4,27.1-4.2
		c-2.8-1.2-5.4-2.2-7.8-3.2c-2.4-1-4.4-1.9-6.2-2.7c-2-0.9-3.9-1.7-5.6-2.5l3.4-7c3.8,1.9,7.7,3.8,12,5.6c4.3,1.8,8.7,3.5,13.3,5.1
		c5-3.6,8.9-8.1,11.5-13.6C153.5,119.2,154.8,112.8,154.8,105.4 M163.8,105.4c0,8.1-1.4,15.1-4.1,21c-2.7,5.9-6.5,10.9-11.3,15
		c4.2,1.3,8.2,2.5,12.2,3.6c4,1.1,7.9,1.9,11.7,2.6l-3.4,8.7c-4.5-1.2-9.2-2.6-14.2-4.2c-4.9-1.7-9.7-3.4-14.5-5.1
		c-5,2.8-10.7,4.9-17,6.2c-6.3,1.3-12.9,1.9-20,1.9c-8.6,0-16.6-1-24-2.9s-13.9-4.9-19.3-9c-5.5-4.1-9.8-9.2-12.9-15.4
		c-3.1-6.3-4.7-13.7-4.7-22.3c0-5.7,0.7-10.9,2.2-15.5C46,85.2,48,81,50.6,77.4c2.6-3.7,5.7-6.9,9.4-9.6c3.7-2.7,7.8-4.9,12.3-6.7
		c4.5-1.8,9.4-3.1,14.6-4c5.2-0.9,10.6-1.3,16.4-1.3c8.5,0,16.5,1,23.9,2.9s13.8,5,19.2,9c5.4,4,9.7,9.2,12.8,15.4
		C162.2,89.4,163.8,96.8,163.8,105.4"/>
			<polyline class="st0" points="189.1,153.1 189.1,57.6 197.8,57.6 197.8,153.1 189.1,153.1 	"/>
			<polyline class="st0" points="230,153.1 230,57.6 238.7,57.6 238.7,153.1 230,153.1 	"/>
			<path class="st0" d="M369.1,145.5c-3.3,1.4-6.6,2.7-10,3.8c-3.2,1.2-6.6,2.2-10.2,3c-3.5,0.8-7.2,1.5-11.1,1.9
		c-3.9,0.5-8.1,0.7-12.7,0.7c-5.7,0-11.1-0.5-16.4-1.4c-5.2-0.9-10-2.3-14.5-4.2c-4.5-1.9-8.6-4.1-12.2-6.9c-3.7-2.8-6.8-6-9.5-9.7
		c-2.6-3.7-4.6-7.8-6-12.4c-1.4-4.6-2.1-9.6-2.1-15.1s0.7-10.5,2.1-15.1c1.4-4.6,3.5-8.7,6-12.4c2.6-3.7,5.8-6.9,9.5-9.6
		c3.7-2.8,7.7-5.1,12.2-7c4.5-1.9,9.3-3.2,14.5-4.2c5.2-0.9,10.6-1.4,16.4-1.4c4.6,0,8.8,0.2,12.7,0.7s7.6,1.1,11.1,1.9
		c3.5,0.8,6.9,1.8,10.2,3c3.3,1.1,6.6,2.4,10,3.8v10.4c-2.6-1.7-5.5-3.2-8.5-4.7c-3-1.5-6.3-2.8-9.8-3.9c-3.5-1.1-7.2-2-11.2-2.6
		c-4-0.6-8.2-1-12.8-1c-9.2,0-17.1,1-23.9,3c-6.7,2-12.3,4.8-16.7,8.5c-4.4,3.6-7.6,8-9.7,13.2c-2.1,5.1-3.1,10.9-3.1,17.3
		c0,6.4,1,12.2,3.1,17.3c2.1,5.1,5.4,9.6,9.7,13.2c4.4,3.6,10,6.4,16.7,8.4c6.7,1.9,14.7,2.9,23.9,2.9c4.5,0,8.8-0.3,12.9-1
		c4.1-0.6,7.9-1.5,11.4-2.6c3.6-1.1,6.8-2.4,9.8-3.8c3-1.5,5.8-3,8.2-4.7V145.5"/>
			<path class="st0" d="M474.6,85c0-4.1-0.7-7.4-2.2-9.9c-1.4-2.6-3.8-4.5-7-5.9s-7.5-2.3-12.8-2.8c-5.2-0.5-11.7-0.8-19.3-0.8h-29.6
		v38.4H433c7.7,0,14.1-0.2,19.4-0.6c5.3-0.5,9.6-1.4,12.9-2.7c3.3-1.4,5.7-3.3,7.1-5.8C473.8,92.5,474.6,89.2,474.6,85 M403.6,112.2
		v40.9h-8.7V57.6h47.6c7.3,0,13.5,0.6,18.7,1.7c5.2,1.1,9.4,2.8,12.7,5.1c3.3,2.3,5.8,5.1,7.3,8.6c1.5,3.4,2.3,7.4,2.3,12
		c0,7.1-1.9,12.9-5.6,17.2c-3.8,4.3-9.8,7.2-18.2,8.8l32.6,42.2h-10.9l-30.8-41.2c-1.3,0.1-2.6,0.2-4,0.2c-1.3,0.1-2.7,0.1-4.2,0.1
		L403.6,112.2"/>
			<path class="st0" d="M84.5,170.4v9.3h-1.8v-9.3H81v-1.4h1.8V169c0-0.7,0.1-1.3,0.2-1.8s0.4-0.9,0.8-1.2c0.4-0.3,0.9-0.5,1.5-0.6
		c0.6-0.1,1.4-0.2,2.2-0.2h2.1v1.5h-2.1c-0.6,0-1,0-1.4,0c-0.4,0-0.7,0.1-0.9,0.2s-0.4,0.4-0.5,0.7s-0.1,0.8-0.1,1.3v0.1h5.1v1.4
		L84.5,170.4"/>
			<path class="st0" d="M92.2,174.4c0,0.6,0,1.1,0.1,1.5c0,0.4,0.1,0.8,0.2,1.1c0.1,0.3,0.3,0.6,0.5,0.8c0.2,0.2,0.5,0.4,0.9,0.5
		c0.4,0.1,0.8,0.2,1.3,0.2c0.5,0,1.1,0.1,1.8,0.1c0.6,0,1.1,0,1.6,0s0.9-0.1,1.2-0.2c0.4-0.1,0.6-0.2,0.9-0.4
		c0.2-0.2,0.4-0.4,0.6-0.8c0.1-0.3,0.3-0.7,0.3-1.2s0.1-1,0.1-1.7c0-0.6,0-1.2-0.1-1.6c-0.1-0.5-0.2-0.8-0.3-1.1
		c-0.1-0.3-0.4-0.5-0.6-0.7c-0.2-0.2-0.6-0.3-0.9-0.4c-0.4-0.1-0.8-0.1-1.2-0.2c-0.5,0-1,0-1.6,0c-0.6,0-1.1,0-1.6,0
		c-0.5,0-0.9,0.1-1.2,0.2c-0.4,0.1-0.6,0.2-0.9,0.4c-0.2,0.2-0.4,0.4-0.6,0.7c-0.1,0.3-0.3,0.7-0.3,1.1
		C92.3,173.2,92.2,173.7,92.2,174.4 M90.4,174.4c0-1.1,0.1-2,0.4-2.7c0.2-0.7,0.6-1.3,1.1-1.7c0.5-0.4,1.2-0.7,2-0.9s1.8-0.3,3-0.3
		c1.2,0,2.2,0.1,3,0.3s1.5,0.5,2,0.9s0.9,1,1.1,1.7c0.2,0.7,0.4,1.6,0.4,2.7c0,1.1-0.1,2-0.4,2.7c-0.2,0.7-0.6,1.3-1.1,1.7
		c-0.5,0.4-1.2,0.7-2,0.9c-0.8,0.2-1.8,0.3-3,0.3c-1.2,0-2.2-0.1-3-0.3c-0.8-0.2-1.5-0.5-2-0.9s-0.9-1-1.1-1.7
		C90.6,176.4,90.4,175.4,90.4,174.4"/>
			<path class="st0" d="M114.8,172.6c0-0.5,0-0.8-0.1-1.1c-0.1-0.3-0.2-0.5-0.4-0.7c-0.2-0.2-0.6-0.3-1.1-0.4
		c-0.5-0.1-1.1-0.1-1.9-0.1c-0.8,0-1.4,0.1-1.9,0.2c-0.5,0.1-0.9,0.3-1.2,0.6c-0.3,0.3-0.5,0.6-0.6,0.9s-0.1,0.8-0.1,1.2v6.6h-1.8
		v-10.7h1.8v1.7c0.1-0.2,0.2-0.4,0.3-0.6c0.2-0.2,0.4-0.5,0.8-0.6c0.3-0.2,0.8-0.4,1.3-0.5c0.5-0.1,1.2-0.2,2-0.2
		c0.9,0,1.7,0.1,2.3,0.2c0.6,0.2,1,0.4,1.4,0.7c0.3,0.3,0.6,0.7,0.7,1.2c0.1,0.5,0.2,1,0.2,1.6H114.8"/>
			<path class="st0" d="M121.3,174.4c0-0.7,0-1.4,0.1-2s0.2-1.1,0.4-1.5s0.4-0.8,0.8-1c0.3-0.3,0.7-0.5,1.2-0.7s1.1-0.3,1.7-0.4
		c0.7-0.1,1.4-0.1,2.3-0.1c1.2,0,2.2,0.1,2.9,0.2c0.8,0.1,1.4,0.4,1.8,0.7c0.4,0.3,0.8,0.7,0.9,1.1c0.2,0.5,0.2,1,0.3,1.6H132
		c0-0.2,0-0.4,0-0.6c0-0.2-0.1-0.4-0.1-0.5c-0.1-0.2-0.2-0.3-0.4-0.4c-0.2-0.1-0.4-0.2-0.7-0.3c-0.3-0.1-0.7-0.1-1.2-0.2
		c-0.5,0-1.1-0.1-1.7-0.1c-0.8,0-1.5,0-2,0.1c-0.5,0.1-1,0.1-1.3,0.3c-0.4,0.1-0.6,0.3-0.8,0.5c-0.2,0.2-0.3,0.5-0.4,0.8
		s-0.1,0.7-0.2,1.1c0,0.4,0,0.9,0,1.4c0,0.5,0,1,0,1.4s0.1,0.8,0.2,1.1c0.1,0.3,0.2,0.6,0.4,0.8c0.2,0.2,0.5,0.4,0.8,0.5
		c0.4,0.1,0.8,0.2,1.3,0.3s1.2,0.1,2,0.1c0.7,0,1.3,0,1.7-0.1c0.5,0,0.9-0.1,1.2-0.2c0.3-0.1,0.6-0.2,0.7-0.3
		c0.2-0.1,0.3-0.3,0.4-0.5c0.1-0.2,0.1-0.4,0.1-0.6c0-0.2,0-0.5,0-0.7h1.8c0,0.6-0.1,1.2-0.3,1.7c-0.2,0.5-0.5,0.9-0.9,1.2
		c-0.5,0.3-1,0.5-1.8,0.7c-0.8,0.1-1.7,0.2-2.9,0.2c-0.9,0-1.7,0-2.3-0.1c-0.7-0.1-1.2-0.2-1.7-0.4c-0.5-0.2-0.9-0.4-1.2-0.7
		s-0.6-0.6-0.8-1c-0.2-0.4-0.3-0.9-0.4-1.4C121.4,175.8,121.3,175.2,121.3,174.4"/>
			<path class="st0" d="M142.7,178.6c0.8,0,1.4,0,2-0.1c0.5-0.1,1-0.2,1.3-0.3c0.3-0.1,0.5-0.3,0.7-0.6c0.1-0.2,0.2-0.5,0.2-0.8
		s-0.1-0.5-0.2-0.8c-0.1-0.2-0.4-0.4-0.8-0.5s-0.9-0.2-1.5-0.3s-1.4-0.1-2.2-0.1c-0.9,0-1.6,0-2.2,0c-0.5,0-1,0.1-1.3,0.2
		c-0.3,0.1-0.5,0.3-0.6,0.5s-0.1,0.5-0.1,0.9s0,0.7,0.2,0.9c0.1,0.2,0.3,0.4,0.7,0.5c0.3,0.1,0.8,0.2,1.4,0.3
		C140.8,178.6,141.6,178.6,142.7,178.6 M146.8,178.3c0,0.1-0.2,0.3-0.4,0.6c-0.2,0.2-0.4,0.4-0.7,0.6c-0.3,0.2-0.7,0.3-1.2,0.4
		c-0.5,0.1-1.2,0.1-2,0.1c-1.1,0-2.1-0.1-2.9-0.2c-0.8-0.1-1.4-0.3-1.9-0.5s-0.9-0.5-1.1-0.9c-0.2-0.4-0.3-0.8-0.3-1.3
		c0-0.5,0.1-1,0.2-1.4c0.1-0.4,0.3-0.7,0.6-0.9c0.2-0.3,0.5-0.5,0.9-0.6c0.4-0.1,0.7-0.2,1.2-0.3c0.5-0.1,0.9-0.1,1.5-0.1
		c0.5,0,1.1,0,1.7,0c0.9,0,1.5,0,2.1,0.1c0.6,0.1,1,0.2,1.4,0.3c0.4,0.1,0.6,0.2,0.8,0.3c0.2,0.1,0.3,0.2,0.4,0.3
		c0-0.7,0-1.3-0.1-1.8s-0.1-0.9-0.3-1.2c-0.1-0.3-0.3-0.6-0.5-0.8c-0.2-0.2-0.5-0.4-0.8-0.5c-0.3-0.1-0.7-0.2-1.1-0.2s-0.9,0-1.4,0
		c-0.8,0-1.5,0-2,0.1c-0.5,0-1,0.1-1.3,0.2c-0.3,0.1-0.5,0.3-0.7,0.5c-0.1,0.2-0.2,0.5-0.2,0.8h-1.8c0-0.6,0.1-1,0.3-1.4
		c0.2-0.4,0.5-0.7,1-1c0.5-0.2,1.1-0.4,1.9-0.5c0.8-0.1,1.7-0.2,2.8-0.2c1.1,0,2,0.1,2.8,0.3c0.8,0.2,1.4,0.5,1.8,0.9
		c0.5,0.5,0.8,1.1,1,1.8c0.2,0.8,0.3,1.7,0.3,2.9v5h-1.8L146.8,178.3"/>
			<path class="st0" d="M161.6,179.8v-5.9c0-0.7,0-1.2-0.1-1.7c-0.1-0.5-0.3-0.8-0.6-1.1c-0.3-0.3-0.7-0.5-1.3-0.6
		c-0.5-0.1-1.3-0.2-2.1-0.2c-1,0-1.8,0.1-2.4,0.2c-0.6,0.1-1.1,0.3-1.5,0.6c-0.4,0.3-0.6,0.6-0.7,0.9s-0.2,0.8-0.2,1.2v6.5H151
		v-10.7h1.8v1.8c0.1-0.3,0.3-0.6,0.6-0.8c0.2-0.2,0.5-0.4,0.8-0.6c0.3-0.1,0.6-0.3,1-0.4c0.4-0.1,0.7-0.2,1.1-0.2
		c0.4-0.1,0.7-0.1,1-0.1s0.6,0,0.9,0c0.8,0,1.5,0,2,0.1c0.6,0.1,1.1,0.2,1.5,0.4s0.7,0.4,1,0.7s0.4,0.6,0.6,1
		c0.1,0.4,0.2,0.8,0.3,1.2c0,0.5,0.1,1,0.1,1.5l0,5.9L161.6,179.8"/>
			<path class="st0" d="M165.5,174.4c0-0.7,0-1.4,0.1-2c0.1-0.6,0.2-1.1,0.4-1.5s0.5-0.8,0.8-1c0.3-0.3,0.7-0.5,1.2-0.7
		s1.1-0.3,1.7-0.4c0.7-0.1,1.5-0.1,2.3-0.1c1.2,0,2.2,0.1,2.9,0.2c0.8,0.1,1.4,0.4,1.8,0.7c0.5,0.3,0.8,0.7,0.9,1.1
		c0.2,0.5,0.3,1,0.3,1.6h-1.8c0-0.2,0-0.4,0-0.6c0-0.2-0.1-0.4-0.1-0.5c-0.1-0.2-0.2-0.3-0.4-0.4c-0.2-0.1-0.4-0.2-0.7-0.3
		c-0.3-0.1-0.7-0.1-1.2-0.2s-1-0.1-1.7-0.1c-0.8,0-1.5,0-2,0.1c-0.5,0.1-1,0.1-1.3,0.3c-0.4,0.1-0.6,0.3-0.8,0.5
		c-0.2,0.2-0.3,0.5-0.4,0.8c-0.1,0.3-0.1,0.7-0.2,1.1c0,0.4,0,0.9,0,1.4c0,0.5,0,1,0,1.4s0.1,0.8,0.2,1.1c0.1,0.3,0.2,0.6,0.4,0.8
		c0.2,0.2,0.5,0.4,0.8,0.5c0.4,0.1,0.8,0.2,1.3,0.3s1.2,0.1,2,0.1c0.7,0,1.3,0,1.7-0.1c0.5,0,0.9-0.1,1.2-0.2s0.5-0.2,0.7-0.3
		c0.2-0.1,0.3-0.3,0.4-0.5c0.1-0.2,0.1-0.4,0.1-0.6c0-0.2,0-0.5,0-0.7h1.8c0,0.6-0.1,1.2-0.3,1.7c-0.2,0.5-0.5,0.9-0.9,1.2
		c-0.5,0.3-1,0.5-1.8,0.7c-0.8,0.1-1.7,0.2-2.9,0.2c-0.9,0-1.7,0-2.3-0.1c-0.7-0.1-1.2-0.2-1.7-0.4c-0.5-0.2-0.9-0.4-1.2-0.7
		c-0.3-0.3-0.6-0.6-0.8-1s-0.3-0.9-0.4-1.4C165.5,175.8,165.5,175.2,165.5,174.4"/>
			<path class="st0" d="M186.6,170.3c-0.6,0-1.1,0-1.6,0c-0.5,0-0.9,0.1-1.2,0.2c-0.3,0.1-0.6,0.2-0.9,0.4c-0.2,0.1-0.5,0.3-0.6,0.6
		c-0.1,0.2-0.3,0.5-0.3,0.9c-0.1,0.4-0.1,0.9-0.1,1.4h8.9c0-0.7-0.1-1.3-0.2-1.7c-0.1-0.4-0.4-0.8-0.7-1c-0.3-0.3-0.8-0.5-1.3-0.5
		C187.9,170.3,187.3,170.3,186.6,170.3 M186.6,180c-1.2,0-2.2-0.1-3-0.2c-0.8-0.2-1.5-0.5-2-0.9s-0.9-0.9-1.1-1.6
		c-0.2-0.7-0.4-1.5-0.4-2.5c0-1.2,0.1-2.1,0.4-2.9c0.2-0.8,0.6-1.4,1.1-1.8c0.5-0.5,1.2-0.8,2-0.9c0.8-0.2,1.8-0.3,3-0.3
		c0.9,0,1.6,0.1,2.2,0.2c0.6,0.1,1.2,0.3,1.6,0.5c0.5,0.2,0.8,0.5,1.1,0.9c0.3,0.3,0.5,0.7,0.6,1.1c0.2,0.4,0.3,0.8,0.3,1.3
		s0.1,1,0.1,1.6l-0.1,0.6h-10.5c0,0.8,0.1,1.5,0.2,2c0.2,0.5,0.4,0.9,0.8,1.1c0.4,0.2,0.9,0.4,1.5,0.5c0.6,0.1,1.4,0.1,2.2,0.1
		c0.8,0,1.5,0,2-0.1c0.5,0,1-0.1,1.3-0.3c0.3-0.1,0.5-0.3,0.7-0.5c0.1-0.2,0.2-0.5,0.2-0.9h1.8c0,0.6-0.1,1.1-0.3,1.5
		c-0.2,0.4-0.5,0.7-1,1s-1.1,0.4-1.8,0.5C188.6,179.9,187.7,180,186.6,180"/>
			<path class="st0" d="M204.1,172.6c0-0.5,0-0.8-0.1-1.1c-0.1-0.3-0.2-0.5-0.5-0.7c-0.2-0.2-0.6-0.3-1.1-0.4
		c-0.5-0.1-1.1-0.1-1.9-0.1c-0.8,0-1.5,0.1-2,0.2c-0.5,0.1-0.9,0.3-1.2,0.6c-0.3,0.3-0.5,0.6-0.6,0.9c-0.1,0.4-0.1,0.8-0.1,1.2v6.6
		h-1.8v-10.7h1.8v1.7c0.1-0.2,0.2-0.4,0.3-0.6c0.2-0.2,0.4-0.5,0.8-0.6c0.3-0.2,0.8-0.4,1.3-0.5s1.2-0.2,2-0.2
		c0.9,0,1.7,0.1,2.3,0.2c0.6,0.2,1,0.4,1.4,0.7s0.5,0.7,0.7,1.2c0.1,0.5,0.2,1,0.2,1.6H204.1"/>
			<path class="st0" d="M220.1,172.6c0-0.5,0-0.8-0.1-1.1c-0.1-0.3-0.2-0.5-0.5-0.7c-0.2-0.2-0.6-0.3-1.1-0.4
		c-0.5-0.1-1.1-0.1-1.9-0.1c-0.8,0-1.5,0.1-2,0.2c-0.5,0.1-0.9,0.3-1.2,0.6c-0.3,0.3-0.5,0.6-0.6,0.9c-0.1,0.4-0.1,0.8-0.1,1.2v6.6
		h-1.8v-10.7h1.8v1.7c0.1-0.2,0.2-0.4,0.3-0.6c0.2-0.2,0.4-0.5,0.8-0.6c0.3-0.2,0.8-0.4,1.3-0.5c0.5-0.1,1.2-0.2,2-0.2
		c0.9,0,1.7,0.1,2.3,0.2c0.6,0.2,1,0.4,1.4,0.7c0.3,0.3,0.5,0.7,0.7,1.2c0.1,0.5,0.2,1,0.2,1.6H220.1"/>
			<path class="st0" d="M229,170.3c-0.6,0-1.1,0-1.6,0c-0.5,0-0.9,0.1-1.2,0.2c-0.3,0.1-0.6,0.2-0.9,0.4c-0.2,0.1-0.5,0.3-0.6,0.6
		c-0.1,0.2-0.3,0.5-0.3,0.9c-0.1,0.4-0.1,0.9-0.1,1.4h8.9c0-0.7-0.1-1.3-0.2-1.7c-0.1-0.4-0.4-0.8-0.7-1c-0.3-0.3-0.8-0.5-1.3-0.5
		C230.4,170.3,229.7,170.3,229,170.3 M229,180c-1.2,0-2.2-0.1-3-0.2c-0.8-0.2-1.5-0.5-2-0.9s-0.9-0.9-1.1-1.6
		c-0.2-0.7-0.4-1.5-0.4-2.5c0-1.2,0.1-2.1,0.4-2.9c0.2-0.8,0.6-1.4,1.1-1.8c0.5-0.5,1.2-0.8,2-0.9c0.8-0.2,1.8-0.3,3-0.3
		c0.9,0,1.6,0.1,2.2,0.2c0.6,0.1,1.2,0.3,1.6,0.5c0.5,0.2,0.8,0.5,1.1,0.9c0.3,0.3,0.5,0.7,0.6,1.1c0.2,0.4,0.3,0.8,0.3,1.3
		s0.1,1,0.1,1.6l-0.1,0.6h-10.5c0,0.8,0.1,1.5,0.2,2c0.2,0.5,0.4,0.9,0.8,1.1c0.4,0.2,0.9,0.4,1.5,0.5c0.6,0.1,1.4,0.1,2.2,0.1
		c0.8,0,1.5,0,2-0.1c0.5,0,1-0.1,1.3-0.3c0.3-0.1,0.5-0.3,0.7-0.5c0.1-0.2,0.2-0.5,0.2-0.9h1.8c0,0.6-0.1,1.1-0.3,1.5
		c-0.2,0.4-0.5,0.7-1,1s-1.1,0.4-1.8,0.5C231,179.9,230.1,180,229,180"/>
			<path class="st0" d="M243.5,174.9c0.7,0,1.3,0,1.8,0c0.5,0,0.9,0.1,1.2,0.1c0.3,0,0.6,0.1,0.8,0.2c0.2,0.1,0.3,0.2,0.4,0.4
		c0.1,0.1,0.2,0.3,0.2,0.5c0,0.1,0,0.3,0,0.5c0,0.2,0,0.4,0,0.6c0,0.2-0.1,0.3-0.2,0.5s-0.3,0.3-0.5,0.4c-0.2,0.1-0.5,0.2-0.8,0.3
		c-0.4,0.1-0.8,0.1-1.3,0.2c-0.5,0-1.1,0-1.9,0c-0.8,0-1.5,0-2-0.1c-0.5,0-1-0.1-1.3-0.3c-0.3-0.1-0.5-0.3-0.7-0.5
		c-0.1-0.2-0.2-0.5-0.2-0.9h-1.8c0,0.6,0.1,1,0.3,1.4c0.2,0.4,0.5,0.7,1,1c0.5,0.2,1.1,0.4,1.8,0.5c0.8,0.1,1.7,0.2,2.8,0.2
		c0.9,0,1.7,0,2.3-0.1c0.7,0,1.2-0.1,1.7-0.2c0.5-0.1,0.9-0.3,1.2-0.4c0.3-0.2,0.6-0.4,0.8-0.6c0.2-0.2,0.3-0.5,0.4-0.8
		c0.1-0.3,0.1-0.7,0.1-1.1c0-0.4,0-0.8-0.1-1.1c-0.1-0.3-0.2-0.6-0.4-0.8c-0.2-0.2-0.4-0.4-0.7-0.6s-0.7-0.3-1.1-0.4s-1-0.2-1.6-0.2
		c-0.6,0-1.4-0.1-2.2-0.1h-1.8c-0.5,0-0.9,0-1.2,0c-0.3,0-0.6-0.1-0.8-0.2s-0.3-0.2-0.4-0.3c-0.1-0.1-0.2-0.3-0.2-0.5
		c0-0.2,0-0.4,0-0.6c0-0.4,0.1-0.6,0.2-0.8c0.2-0.2,0.4-0.4,0.8-0.5c0.4-0.1,0.9-0.2,1.5-0.2c0.6,0,1.4,0,2.2,0c0.8,0,1.5,0,2,0.1
		c0.5,0,1,0.1,1.3,0.2s0.5,0.3,0.7,0.5s0.2,0.5,0.2,0.8h1.8c0-0.5-0.1-1-0.3-1.4s-0.5-0.7-1-1c-0.5-0.3-1-0.5-1.8-0.6
		c-0.8-0.1-1.7-0.2-2.9-0.2c-1.2,0-2.2,0-3,0.2s-1.5,0.3-2,0.5s-0.9,0.5-1.1,0.9c-0.2,0.4-0.4,0.8-0.4,1.4c0,0.4,0,0.8,0.1,1.1
		c0.1,0.4,0.2,0.6,0.4,0.9s0.4,0.4,0.7,0.6c0.3,0.1,0.7,0.3,1.1,0.3c0.5,0.1,1,0.1,1.6,0.1C241.9,174.9,242.7,174.9,243.5,174.9"/>
			<path class="st0" d="M258.4,170.3c-0.6,0-1.1,0-1.6,0c-0.5,0-0.9,0.1-1.2,0.2c-0.4,0.1-0.6,0.2-0.9,0.4c-0.2,0.1-0.5,0.3-0.6,0.6
		c-0.1,0.2-0.3,0.5-0.3,0.9c-0.1,0.4-0.1,0.9-0.1,1.4h8.9c0-0.7-0.1-1.3-0.2-1.7c-0.2-0.4-0.4-0.8-0.7-1c-0.3-0.3-0.8-0.5-1.3-0.5
		C259.7,170.3,259.1,170.3,258.4,170.3 M258.4,180c-1.2,0-2.2-0.1-3-0.2c-0.8-0.2-1.5-0.5-2-0.9s-0.9-0.9-1.1-1.6
		c-0.2-0.7-0.4-1.5-0.4-2.5c0-1.2,0.1-2.1,0.4-2.9c0.2-0.8,0.6-1.4,1.1-1.8c0.5-0.5,1.2-0.8,2-0.9s1.8-0.3,3-0.3
		c0.9,0,1.6,0.1,2.2,0.2c0.6,0.1,1.1,0.3,1.6,0.5c0.5,0.2,0.8,0.5,1.1,0.9c0.3,0.3,0.5,0.7,0.6,1.1c0.2,0.4,0.3,0.8,0.3,1.3
		s0.1,1,0.1,1.6l-0.1,0.6h-10.5c0,0.8,0.1,1.5,0.2,2c0.2,0.5,0.4,0.9,0.8,1.1c0.4,0.2,0.9,0.4,1.5,0.5c0.6,0.1,1.4,0.1,2.2,0.1
		c0.8,0,1.5,0,2-0.1c0.5,0,1-0.1,1.3-0.3c0.3-0.1,0.5-0.3,0.7-0.5c0.1-0.2,0.2-0.5,0.2-0.9h1.8c0,0.6-0.1,1.1-0.3,1.5
		c-0.2,0.4-0.5,0.7-1,1s-1.1,0.4-1.8,0.5C260.4,179.9,259.5,180,258.4,180"/>
			<path class="st0" d="M273.2,178.6c0.8,0,1.4,0,2-0.1c0.5-0.1,1-0.2,1.3-0.3c0.3-0.1,0.5-0.3,0.7-0.6c0.1-0.2,0.2-0.5,0.2-0.8
		s-0.1-0.5-0.2-0.8c-0.1-0.2-0.4-0.4-0.8-0.5c-0.4-0.1-0.9-0.2-1.5-0.3c-0.6-0.1-1.4-0.1-2.2-0.1c-0.9,0-1.6,0-2.2,0
		c-0.5,0-1,0.1-1.3,0.2c-0.3,0.1-0.5,0.3-0.6,0.5s-0.1,0.5-0.1,0.9s0.1,0.7,0.2,0.9c0.1,0.2,0.3,0.4,0.7,0.5
		c0.3,0.1,0.8,0.2,1.4,0.3C271.3,178.6,272.1,178.6,273.2,178.6 M277.3,178.3c0,0.1-0.2,0.3-0.4,0.6c-0.2,0.2-0.4,0.4-0.7,0.6
		c-0.3,0.2-0.7,0.3-1.2,0.4c-0.5,0.1-1.2,0.1-2,0.1c-1.1,0-2.1-0.1-2.9-0.2c-0.8-0.1-1.4-0.3-1.9-0.5s-0.9-0.5-1.1-0.9
		c-0.2-0.4-0.3-0.8-0.3-1.3c0-0.5,0.1-1,0.2-1.4c0.1-0.4,0.3-0.7,0.6-0.9c0.2-0.3,0.5-0.5,0.9-0.6c0.4-0.1,0.7-0.2,1.2-0.3
		c0.5-0.1,0.9-0.1,1.5-0.1c0.5,0,1.1,0,1.7,0c0.9,0,1.6,0,2.1,0.1c0.6,0.1,1,0.2,1.4,0.3c0.4,0.1,0.6,0.2,0.8,0.3
		c0.2,0.1,0.3,0.2,0.4,0.3c0-0.7,0-1.3-0.1-1.8s-0.1-0.9-0.3-1.2c-0.1-0.3-0.3-0.6-0.5-0.8c-0.2-0.2-0.5-0.4-0.8-0.5
		c-0.3-0.1-0.7-0.2-1.1-0.2s-0.9,0-1.4,0c-0.8,0-1.5,0-2,0.1c-0.5,0-1,0.1-1.3,0.2c-0.3,0.1-0.5,0.3-0.7,0.5
		c-0.1,0.2-0.2,0.5-0.2,0.8h-1.8c0-0.6,0.1-1,0.3-1.4c0.2-0.4,0.5-0.7,1-1c0.5-0.2,1.1-0.4,1.9-0.5c0.8-0.1,1.7-0.2,2.8-0.2
		c1.1,0,2,0.1,2.8,0.3c0.8,0.2,1.4,0.5,1.8,0.9c0.5,0.5,0.8,1.1,1,1.8c0.2,0.8,0.3,1.7,0.3,2.9v5h-1.8L277.3,178.3"/>
			<path class="st0" d="M290.6,172.6c0-0.5,0-0.8-0.1-1.1c-0.1-0.3-0.2-0.5-0.5-0.7c-0.2-0.2-0.6-0.3-1.1-0.4
		c-0.5-0.1-1.1-0.1-1.9-0.1c-0.8,0-1.5,0.1-2,0.2c-0.5,0.1-0.9,0.3-1.2,0.6c-0.3,0.3-0.5,0.6-0.6,0.9c-0.1,0.4-0.1,0.8-0.1,1.2v6.6
		h-1.8v-10.7h1.8v1.7c0.1-0.2,0.2-0.4,0.3-0.6c0.2-0.2,0.4-0.5,0.8-0.6c0.3-0.2,0.8-0.4,1.3-0.5s1.2-0.2,2-0.2
		c0.9,0,1.7,0.1,2.3,0.2c0.6,0.2,1,0.4,1.4,0.7c0.3,0.3,0.5,0.7,0.7,1.2c0.1,0.5,0.2,1,0.2,1.6H290.6"/>
			<path class="st0" d="M293,174.4c0-0.7,0-1.4,0.1-2c0.1-0.6,0.2-1.1,0.4-1.5s0.5-0.8,0.8-1c0.3-0.3,0.7-0.5,1.2-0.7s1.1-0.3,1.7-0.4
		c0.7-0.1,1.5-0.1,2.3-0.1c1.2,0,2.2,0.1,2.9,0.2c0.8,0.1,1.4,0.4,1.8,0.7c0.5,0.3,0.8,0.7,0.9,1.1c0.2,0.5,0.3,1,0.3,1.6h-1.8
		c0-0.2,0-0.4,0-0.6c0-0.2-0.1-0.4-0.1-0.5c-0.1-0.2-0.2-0.3-0.4-0.4c-0.2-0.1-0.4-0.2-0.7-0.3c-0.3-0.1-0.7-0.1-1.2-0.2
		c-0.5,0-1-0.1-1.7-0.1c-0.8,0-1.5,0-2,0.1c-0.5,0.1-1,0.1-1.3,0.3c-0.4,0.1-0.6,0.3-0.8,0.5c-0.2,0.2-0.3,0.5-0.4,0.8
		c-0.1,0.3-0.1,0.7-0.2,1.1c0,0.4,0,0.9,0,1.4c0,0.5,0,1,0,1.4s0.1,0.8,0.2,1.1c0.1,0.3,0.2,0.6,0.4,0.8s0.5,0.4,0.8,0.5
		c0.4,0.1,0.8,0.2,1.3,0.3s1.2,0.1,2,0.1c0.7,0,1.3,0,1.7-0.1c0.5,0,0.9-0.1,1.2-0.2s0.5-0.2,0.7-0.3c0.2-0.1,0.3-0.3,0.4-0.5
		c0.1-0.2,0.1-0.4,0.1-0.6c0-0.2,0-0.5,0-0.7h1.8c0,0.6-0.1,1.2-0.3,1.7s-0.5,0.9-0.9,1.2c-0.5,0.3-1,0.5-1.8,0.7
		c-0.8,0.1-1.7,0.2-2.9,0.2c-0.9,0-1.7,0-2.3-0.1c-0.7-0.1-1.2-0.2-1.7-0.4c-0.5-0.2-0.9-0.4-1.2-0.7c-0.3-0.3-0.6-0.6-0.8-1
		s-0.3-0.9-0.4-1.4C293,175.8,293,175.2,293,174.4"/>
			<path class="st0" d="M318.5,179.8v-6c0-0.6,0-1.2-0.1-1.6c-0.1-0.5-0.3-0.8-0.6-1.1c-0.3-0.3-0.7-0.5-1.3-0.6
		c-0.5-0.1-1.3-0.2-2.1-0.2c-1,0-1.8,0.1-2.4,0.2c-0.6,0.1-1.1,0.3-1.5,0.6c-0.4,0.2-0.6,0.5-0.7,0.9s-0.2,0.8-0.2,1.2v6.6h-1.8
		v-14.2h1.8v5.2c0.1-0.3,0.3-0.5,0.5-0.8s0.5-0.4,0.8-0.5c0.3-0.1,0.6-0.3,1-0.4s0.7-0.2,1-0.2c0.4,0,0.7-0.1,1-0.1c0.3,0,0.7,0,1,0
		c0.8,0,1.5,0,2,0.1c0.6,0.1,1.1,0.2,1.5,0.4s0.7,0.4,1,0.7s0.4,0.6,0.6,1s0.2,0.8,0.3,1.2c0,0.5,0.1,0.9,0.1,1.5l0,6L318.5,179.8"
		/>
			<path class="st0" d="M87.5,33c-0.7,0-1.3,0-1.8,0.1c-0.5,0-0.9,0.1-1.3,0.2s-0.6,0.2-0.9,0.4s-0.4,0.4-0.5,0.7s-0.2,0.7-0.2,1.1
		c0,0.4-0.1,0.9-0.1,1.5s0,1.1,0.1,1.6c0,0.4,0.1,0.8,0.2,1.1c0.1,0.3,0.3,0.6,0.5,0.8c0.2,0.2,0.5,0.4,0.9,0.5s0.8,0.2,1.3,0.2
		c0.5,0,1.1,0.1,1.8,0.1c0.6,0,1.1,0,1.6,0c0.5,0,0.9-0.1,1.2-0.2c0.4-0.1,0.6-0.2,0.9-0.4c0.2-0.2,0.4-0.4,0.6-0.8
		c0.1-0.3,0.3-0.7,0.3-1.2c0.1-0.5,0.1-1,0.1-1.7c0-0.6,0-1.2-0.1-1.6s-0.2-0.8-0.3-1.1c-0.2-0.3-0.4-0.5-0.6-0.7
		c-0.2-0.2-0.5-0.3-0.9-0.4c-0.4-0.1-0.8-0.1-1.2-0.2C88.6,33,88.1,33,87.5,33 M87.5,31.5c0.8,0,1.5,0.1,2.1,0.1s1,0.2,1.4,0.3
		c0.4,0.1,0.6,0.3,0.8,0.4c0.2,0.2,0.3,0.3,0.4,0.4v-1.1H94V46h-1.8v-4.8c-0.1,0.1-0.2,0.3-0.4,0.4S91.4,42,91,42.2
		c-0.4,0.1-0.8,0.2-1.4,0.3c-0.6,0.1-1.3,0.1-2.1,0.1c-1.2,0-2.2-0.1-3-0.3c-0.8-0.2-1.5-0.5-2-0.9c-0.5-0.4-0.9-1-1.1-1.7
		C81.1,39.1,81,38.1,81,37c0-1.1,0.1-2,0.4-2.7c0.2-0.7,0.6-1.3,1.1-1.7c0.5-0.4,1.2-0.7,2-0.9C85.3,31.6,86.3,31.5,87.5,31.5"/>
			<path class="st0" d="M98.2,31.8v5.9c0,0.7,0.1,1.2,0.1,1.7c0.1,0.4,0.3,0.8,0.6,1.1c0.3,0.3,0.7,0.5,1.3,0.6
		c0.5,0.1,1.3,0.2,2.1,0.2c1,0,1.8-0.1,2.4-0.2c0.6-0.1,1.1-0.3,1.5-0.6c0.4-0.3,0.6-0.6,0.7-0.9s0.2-0.8,0.2-1.2v-6.5h1.8v10.7
		h-1.8v-1.8c-0.1,0.2-0.2,0.4-0.4,0.6c-0.2,0.2-0.5,0.4-0.9,0.6c-0.4,0.2-0.9,0.4-1.6,0.5c-0.6,0.1-1.4,0.2-2.4,0.2
		c-0.8,0-1.5-0.1-2.1-0.1c-0.6-0.1-1.1-0.2-1.5-0.4c-0.4-0.2-0.7-0.4-1-0.7c-0.2-0.3-0.4-0.6-0.6-1c-0.1-0.4-0.2-0.8-0.3-1.2
		s-0.1-0.9-0.1-1.5l0-5.9L98.2,31.8"/>
			<path class="st0" d="M117.7,41.3c0.8,0,1.4,0,2-0.1s1-0.2,1.3-0.3c0.3-0.1,0.6-0.3,0.7-0.6c0.1-0.2,0.2-0.5,0.2-0.8
		s-0.1-0.6-0.2-0.8c-0.1-0.2-0.4-0.4-0.8-0.5c-0.4-0.1-0.9-0.2-1.5-0.3c-0.6-0.1-1.4-0.1-2.2-0.1s-1.6,0-2.2,0.1
		c-0.5,0-1,0.1-1.3,0.2c-0.3,0.1-0.5,0.3-0.6,0.5c-0.1,0.2-0.1,0.5-0.1,0.9c0,0.4,0.1,0.7,0.2,0.9c0.1,0.2,0.3,0.4,0.7,0.5
		c0.3,0.1,0.8,0.2,1.4,0.3C115.8,41.3,116.7,41.3,117.7,41.3 M121.8,41c0,0.1-0.2,0.3-0.4,0.6c-0.2,0.2-0.4,0.4-0.7,0.6
		c-0.3,0.2-0.7,0.3-1.2,0.4c-0.5,0.1-1.2,0.1-2,0.1c-1.1,0-2.1-0.1-2.9-0.2c-0.8-0.1-1.4-0.3-1.9-0.5c-0.5-0.2-0.9-0.6-1.1-0.9
		c-0.2-0.4-0.3-0.8-0.3-1.3c0-0.5,0.1-1,0.2-1.4c0.1-0.4,0.3-0.7,0.6-0.9c0.2-0.2,0.5-0.4,0.9-0.6s0.7-0.2,1.2-0.3
		c0.4-0.1,0.9-0.1,1.5-0.1c0.5,0,1.1,0,1.7,0c0.9,0,1.6,0,2.1,0.1c0.6,0.1,1,0.2,1.4,0.3c0.4,0.1,0.6,0.2,0.8,0.3s0.3,0.2,0.4,0.3
		c0-0.7,0-1.3-0.1-1.8s-0.1-0.9-0.3-1.2c-0.1-0.3-0.3-0.6-0.5-0.8c-0.2-0.2-0.5-0.4-0.8-0.4c-0.3-0.1-0.7-0.2-1.1-0.2
		s-0.9-0.1-1.4-0.1c-0.8,0-1.5,0-2,0.1c-0.5,0-1,0.1-1.3,0.2c-0.3,0.1-0.5,0.3-0.7,0.5c-0.1,0.2-0.2,0.5-0.2,0.8h-1.8
		c0-0.6,0.1-1,0.3-1.4s0.5-0.7,1-0.9c0.5-0.2,1.1-0.4,1.8-0.5c0.8-0.1,1.7-0.2,2.8-0.2c1.1,0,2,0.1,2.8,0.3c0.8,0.2,1.4,0.5,1.8,0.9
		c0.5,0.4,0.8,1.1,1,1.8c0.2,0.8,0.3,1.7,0.3,2.9v5.1h-1.8L121.8,41"/>
			<path class="st0" d="M136.7,42.5v-5.9c0-0.7,0-1.2-0.1-1.7c-0.1-0.5-0.3-0.8-0.6-1.1c-0.3-0.3-0.7-0.5-1.3-0.6
		c-0.5-0.1-1.3-0.2-2.1-0.2c-1,0-1.8,0.1-2.4,0.2s-1.1,0.3-1.4,0.6c-0.4,0.3-0.6,0.6-0.7,0.9c-0.1,0.4-0.2,0.8-0.2,1.2v6.5H126V31.8
		h1.8v1.8c0.1-0.3,0.3-0.6,0.6-0.8c0.2-0.2,0.5-0.4,0.8-0.6c0.3-0.2,0.6-0.3,1-0.4c0.4-0.1,0.7-0.2,1.1-0.2c0.4-0.1,0.7-0.1,1-0.1
		c0.3,0,0.6,0,0.9,0c0.8,0,1.5,0.1,2,0.2s1.1,0.2,1.5,0.4c0.4,0.2,0.7,0.4,1,0.7s0.4,0.6,0.6,1c0.1,0.4,0.2,0.8,0.3,1.2
		c0,0.4,0.1,1,0.1,1.5l0,5.9L136.7,42.5"/>
			<path class="st0" d="M151.2,37.7c0,0.9-0.1,1.7-0.2,2.3c-0.1,0.6-0.4,1.1-0.8,1.5c-0.4,0.4-0.8,0.6-1.4,0.8
		c-0.6,0.1-1.3,0.2-2.1,0.2c-0.8,0-1.5-0.1-2-0.2c-0.5-0.1-1-0.3-1.3-0.6s-0.6-0.7-0.7-1.2c-0.1-0.5-0.2-1.1-0.2-1.9v-5.4h-2.2v-1.5
		h2.2v-2.9h1.8v2.9h6.7v1.5h-6.7v5.4c0,0.6,0,1.1,0.1,1.4c0.1,0.3,0.2,0.6,0.4,0.7c0.2,0.1,0.5,0.2,0.8,0.3c0.3,0,0.7,0,1.2,0
		c0.4,0,0.7,0,1,0c0.3,0,0.5-0.1,0.8-0.1c0.2-0.1,0.4-0.2,0.6-0.3c0.1-0.1,0.3-0.3,0.4-0.6c0.1-0.2,0.2-0.6,0.2-0.9
		c0-0.4,0.1-0.8,0.1-1.4L151.2,37.7"/>
			<path class="st0" d="M155.9,30h-1.8v-1.8h1.8V30 M154.2,31.8h1.8v10.7h-1.8V31.8"/>
			<path class="st0" d="M169.3,37.7c0,0.9-0.1,1.7-0.2,2.3c-0.1,0.6-0.4,1.1-0.8,1.5c-0.4,0.4-0.8,0.6-1.4,0.8
		c-0.6,0.1-1.3,0.2-2.1,0.2c-0.8,0-1.5-0.1-2-0.2c-0.5-0.1-1-0.3-1.3-0.6s-0.6-0.7-0.7-1.2c-0.1-0.5-0.2-1.1-0.2-1.9v-5.4h-2.2v-1.5
		h2.2v-2.9h1.8v2.9h6.7v1.5h-6.7v5.4c0,0.6,0,1.1,0.1,1.4c0.1,0.3,0.2,0.6,0.4,0.7s0.5,0.2,0.8,0.3c0.3,0,0.7,0,1.2,0
		c0.4,0,0.7,0,1,0c0.3,0,0.5-0.1,0.8-0.1c0.2-0.1,0.4-0.2,0.6-0.3c0.1-0.1,0.3-0.3,0.4-0.6c0.1-0.2,0.2-0.6,0.2-0.9
		c0-0.4,0.1-0.8,0.1-1.4L169.3,37.7"/>
			<path class="st0" d="M177.5,41.3c0.8,0,1.4,0,2-0.1s1-0.2,1.3-0.3c0.3-0.1,0.5-0.3,0.7-0.6c0.1-0.2,0.2-0.5,0.2-0.8
		s-0.1-0.6-0.2-0.8c-0.1-0.2-0.4-0.4-0.8-0.5c-0.4-0.1-0.9-0.2-1.5-0.3c-0.6-0.1-1.4-0.1-2.2-0.1c-0.9,0-1.6,0-2.2,0.1
		c-0.5,0-1,0.1-1.3,0.2c-0.3,0.1-0.5,0.3-0.6,0.5c-0.1,0.2-0.1,0.5-0.1,0.9c0,0.4,0.1,0.7,0.2,0.9c0.1,0.2,0.3,0.4,0.7,0.5
		c0.3,0.1,0.8,0.2,1.4,0.3C175.7,41.3,176.5,41.3,177.5,41.3 M181.7,41c0,0.1-0.2,0.3-0.4,0.6c-0.2,0.2-0.4,0.4-0.7,0.6
		s-0.7,0.3-1.2,0.4c-0.5,0.1-1.2,0.1-2,0.1c-1.1,0-2.1-0.1-2.9-0.2c-0.8-0.1-1.4-0.3-1.9-0.5c-0.5-0.2-0.9-0.6-1.1-0.9
		s-0.3-0.8-0.3-1.3c0-0.5,0.1-1,0.2-1.4c0.1-0.4,0.3-0.7,0.6-0.9s0.5-0.4,0.9-0.6c0.4-0.1,0.7-0.2,1.2-0.3c0.5-0.1,0.9-0.1,1.5-0.1
		s1.1,0,1.7,0c0.9,0,1.6,0,2.1,0.1c0.6,0.1,1,0.2,1.4,0.3c0.4,0.1,0.6,0.2,0.8,0.3c0.2,0.1,0.3,0.2,0.4,0.3c0-0.7,0-1.3-0.1-1.8
		s-0.1-0.9-0.3-1.2c-0.1-0.3-0.3-0.6-0.5-0.8c-0.2-0.2-0.5-0.4-0.8-0.4c-0.3-0.1-0.7-0.2-1.1-0.2s-0.9-0.1-1.4-0.1
		c-0.8,0-1.5,0-2,0.1c-0.5,0-1,0.1-1.3,0.2s-0.5,0.3-0.7,0.5c-0.1,0.2-0.2,0.5-0.2,0.8h-1.8c0-0.6,0.1-1,0.3-1.4
		c0.2-0.4,0.5-0.7,1-0.9c0.5-0.2,1.1-0.4,1.9-0.5s1.7-0.2,2.8-0.2c1.1,0,2,0.1,2.8,0.3c0.8,0.2,1.4,0.5,1.8,0.9
		c0.5,0.4,0.8,1.1,1,1.8c0.2,0.8,0.3,1.7,0.3,2.9v5.1h-1.8L181.7,41"/>
			<path class="st0" d="M196.2,37.7c0,0.9-0.1,1.7-0.2,2.3c-0.1,0.6-0.4,1.1-0.8,1.5c-0.4,0.4-0.8,0.6-1.4,0.8
		c-0.6,0.1-1.3,0.2-2.1,0.2c-0.8,0-1.5-0.1-2-0.2c-0.5-0.1-1-0.3-1.3-0.6s-0.6-0.7-0.7-1.2c-0.1-0.5-0.2-1.1-0.2-1.9v-5.4h-2.2v-1.5
		h2.2v-2.9h1.8v2.9h6.7v1.5h-6.7v5.4c0,0.6,0,1.1,0.1,1.4c0.1,0.3,0.2,0.6,0.4,0.7s0.5,0.2,0.8,0.3c0.3,0,0.7,0,1.2,0
		c0.4,0,0.7,0,1,0c0.3,0,0.5-0.1,0.8-0.1c0.2-0.1,0.4-0.2,0.6-0.3c0.1-0.1,0.3-0.3,0.4-0.6c0.1-0.2,0.2-0.6,0.2-0.9
		c0-0.4,0.1-0.8,0.1-1.4L196.2,37.7"/>
			<path class="st0" d="M201,30h-1.8v-1.8h1.8V30 M199.2,31.8h1.8v10.7h-1.8V31.8"/>
			<polyline class="st0" points="209,42.5 211.3,42.5 217,31.8 214.9,31.8 210.1,41.3 205.4,31.8 203.3,31.8 209,42.5 	"/>
			<path class="st0" d="M224.4,33c-0.6,0-1.1,0-1.6,0c-0.5,0-0.9,0.1-1.2,0.2c-0.3,0.1-0.6,0.2-0.9,0.4c-0.2,0.1-0.5,0.3-0.6,0.6
		c-0.1,0.2-0.3,0.5-0.3,0.9c-0.1,0.4-0.1,0.8-0.1,1.4h8.9c0-0.7-0.1-1.3-0.2-1.7c-0.1-0.4-0.4-0.8-0.7-1c-0.3-0.3-0.8-0.4-1.3-0.6
		C225.7,33,225.1,33,224.4,33 M224.4,42.7c-1.2,0-2.2-0.1-3-0.2c-0.8-0.2-1.5-0.4-2-0.9c-0.5-0.4-0.9-0.9-1.1-1.6
		c-0.2-0.7-0.4-1.5-0.4-2.5c0-1.2,0.1-2.1,0.4-2.9c0.2-0.8,0.6-1.4,1.1-1.8c0.5-0.4,1.2-0.8,2-0.9c0.8-0.2,1.8-0.3,3-0.3
		c0.9,0,1.6,0.1,2.2,0.2c0.6,0.1,1.2,0.3,1.6,0.5c0.5,0.2,0.8,0.5,1.1,0.9c0.3,0.3,0.5,0.7,0.6,1.1c0.2,0.4,0.3,0.8,0.3,1.3
		c0.1,0.5,0.1,1,0.1,1.6l-0.1,0.6h-10.5c0,0.8,0.1,1.5,0.2,2c0.2,0.5,0.4,0.9,0.8,1.1s0.9,0.4,1.5,0.5c0.6,0.1,1.4,0.1,2.2,0.1
		c0.8,0,1.5,0,2-0.1c0.5-0.1,1-0.1,1.3-0.3c0.3-0.1,0.5-0.3,0.7-0.5c0.1-0.2,0.2-0.5,0.2-0.9h1.8c0,0.6-0.1,1.1-0.3,1.5
		c-0.2,0.4-0.5,0.7-1,1s-1.1,0.4-1.8,0.5C226.4,42.6,225.5,42.7,224.4,42.7"/>
			<path class="st0" d="M239.2,30h-1.8v-1.8h1.8V30 M237.4,31.8h1.8v10.7h-1.8V31.8"/>
			<path class="st0" d="M253.4,42.5h-1.8v-6c0-0.6,0-1.2-0.1-1.6c-0.1-0.4-0.2-0.8-0.5-1.1s-0.6-0.5-1.1-0.6c-0.5-0.1-1.1-0.2-1.8-0.2
		c-0.8,0-1.5,0.1-2.1,0.2s-1,0.3-1.3,0.6c-0.3,0.2-0.5,0.6-0.6,0.9c-0.1,0.4-0.2,0.7-0.2,1.2v6.6h-1.8V31.8h1.8v1.7
		c0,0,0-0.1,0.1-0.2s0.1-0.2,0.3-0.4c0.1-0.2,0.3-0.3,0.5-0.5c0.2-0.2,0.5-0.3,0.9-0.5c0.4-0.1,0.8-0.3,1.3-0.3
		c0.5-0.1,1.1-0.1,1.8-0.1c0.7,0,1.2,0,1.7,0.1c0.5,0.1,0.9,0.2,1.3,0.4c0.4,0.2,0.6,0.4,0.9,0.6c0.2,0.2,0.4,0.5,0.5,0.8
		c0.1-0.2,0.3-0.4,0.5-0.6s0.5-0.4,0.9-0.6s0.9-0.4,1.5-0.5c0.6-0.1,1.3-0.2,2.2-0.2c0.7,0,1.3,0.1,1.8,0.2c0.5,0.1,1,0.2,1.3,0.4
		c0.4,0.2,0.6,0.4,0.8,0.7s0.4,0.6,0.5,1c0.1,0.4,0.2,0.8,0.2,1.2s0.1,0.9,0.1,1.5v6h-1.8v-6c0-0.6,0-1.2-0.1-1.6
		c-0.1-0.4-0.2-0.8-0.5-1.1s-0.6-0.5-1.1-0.6c-0.5-0.1-1.1-0.2-1.8-0.2c-0.8,0-1.5,0.1-2.1,0.2s-1,0.3-1.3,0.6
		c-0.3,0.2-0.5,0.6-0.6,0.9c-0.1,0.4-0.2,0.7-0.2,1.2L253.4,42.5"/>
			<path class="st0" d="M271.8,41.3c0.8,0,1.4,0,2-0.1s1-0.2,1.3-0.3c0.3-0.1,0.5-0.3,0.7-0.6c0.1-0.2,0.2-0.5,0.2-0.8
		s-0.1-0.6-0.2-0.8c-0.2-0.2-0.4-0.4-0.8-0.5c-0.4-0.1-0.9-0.2-1.5-0.3c-0.6-0.1-1.4-0.1-2.2-0.1c-0.9,0-1.6,0-2.2,0.1
		c-0.5,0-1,0.1-1.3,0.2c-0.3,0.1-0.5,0.3-0.6,0.5c-0.1,0.2-0.1,0.5-0.1,0.9c0,0.4,0,0.7,0.2,0.9c0.1,0.2,0.3,0.4,0.7,0.5
		c0.3,0.1,0.8,0.2,1.4,0.3C269.9,41.3,270.7,41.3,271.8,41.3 M275.9,41c0,0.1-0.2,0.3-0.4,0.6c-0.2,0.2-0.4,0.4-0.7,0.6
		c-0.3,0.2-0.7,0.3-1.2,0.4c-0.5,0.1-1.2,0.1-2,0.1c-1.1,0-2.1-0.1-2.9-0.2c-0.8-0.1-1.4-0.3-1.9-0.5c-0.5-0.2-0.9-0.6-1.1-0.9
		s-0.3-0.8-0.3-1.3c0-0.5,0.1-1,0.2-1.4c0.1-0.4,0.3-0.7,0.6-0.9c0.2-0.2,0.5-0.4,0.9-0.6c0.3-0.1,0.7-0.2,1.2-0.3
		c0.5-0.1,0.9-0.1,1.5-0.1c0.5,0,1.1,0,1.7,0c0.8,0,1.5,0,2.1,0.1s1,0.2,1.4,0.3c0.4,0.1,0.6,0.2,0.8,0.3c0.2,0.1,0.3,0.2,0.4,0.3
		c0-0.7,0-1.3-0.1-1.8s-0.1-0.9-0.3-1.2c-0.1-0.3-0.3-0.6-0.5-0.8c-0.2-0.2-0.5-0.4-0.8-0.4c-0.3-0.1-0.7-0.2-1.1-0.2
		s-0.9-0.1-1.4-0.1c-0.8,0-1.5,0-2,0.1c-0.5,0-1,0.1-1.3,0.2s-0.5,0.3-0.7,0.5c-0.1,0.2-0.2,0.5-0.2,0.8h-1.8c0-0.6,0.1-1,0.3-1.4
		c0.2-0.4,0.5-0.7,1-0.9c0.5-0.2,1.1-0.4,1.8-0.5c0.8-0.1,1.7-0.2,2.8-0.2c1.1,0,2,0.1,2.8,0.3s1.4,0.5,1.8,0.9
		c0.5,0.4,0.8,1.1,1,1.8c0.2,0.8,0.3,1.7,0.3,2.9v5.1h-1.8L275.9,41"/>
			<path class="st0" d="M292.8,41c0,1-0.1,1.9-0.4,2.6s-0.6,1.2-1.1,1.7c-0.5,0.4-1.2,0.7-2,0.9s-1.8,0.2-3,0.2c-1.1,0-2-0.1-2.8-0.1
		c-0.8-0.1-1.4-0.3-1.8-0.5c-0.5-0.2-0.8-0.5-1-0.8c-0.2-0.3-0.3-0.7-0.3-1.2h1.8c0,0.2,0.1,0.4,0.2,0.6c0.1,0.1,0.4,0.3,0.7,0.4
		c0.3,0.1,0.7,0.1,1.3,0.2c0.5,0,1.2,0.1,2,0.1c0.9,0,1.6,0,2.2-0.1c0.6-0.1,1.1-0.2,1.5-0.4c0.4-0.2,0.6-0.6,0.8-1.1
		c0.2-0.5,0.2-1.1,0.2-2c-0.1,0.1-0.2,0.3-0.4,0.5c-0.2,0.2-0.5,0.3-0.8,0.5c-0.4,0.1-0.8,0.3-1.4,0.4c-0.6,0.1-1.3,0.1-2.1,0.1
		c-1.2,0-2.2-0.1-3-0.3c-0.8-0.2-1.5-0.5-2-0.9s-0.9-1-1.1-1.7s-0.4-1.6-0.4-2.7c0-1.1,0.1-2,0.4-2.8c0.2-0.7,0.6-1.3,1.1-1.7
		c0.5-0.4,1.2-0.7,2-0.9c0.8-0.2,1.8-0.3,3-0.3c0.8,0,1.5,0,2.1,0.1c0.6,0.1,1,0.2,1.4,0.3c0.4,0.1,0.6,0.3,0.8,0.4
		c0.2,0.2,0.3,0.3,0.4,0.4v-1h1.8V41 M286.3,33c-0.7,0-1.3,0-1.8,0.1c-0.5,0-0.9,0.1-1.3,0.2s-0.6,0.3-0.9,0.5
		c-0.2,0.2-0.4,0.4-0.5,0.8s-0.2,0.7-0.2,1.1c0,0.4-0.1,0.9-0.1,1.5c0,0.6,0,1.1,0.1,1.5c0,0.4,0.1,0.8,0.2,1.1
		c0.1,0.3,0.3,0.6,0.5,0.8c0.2,0.2,0.5,0.4,0.9,0.5s0.8,0.2,1.3,0.2c0.5,0,1.1,0.1,1.8,0.1c0.6,0,1.1,0,1.6,0c0.5,0,0.9-0.1,1.2-0.2
		s0.6-0.2,0.9-0.4c0.2-0.2,0.5-0.4,0.6-0.7c0.2-0.3,0.3-0.7,0.3-1.1c0.1-0.5,0.1-1,0.1-1.6s0-1.2-0.1-1.6c-0.1-0.5-0.2-0.8-0.3-1.1
		c-0.1-0.3-0.4-0.6-0.6-0.7c-0.2-0.2-0.5-0.3-0.9-0.4c-0.4-0.1-0.8-0.1-1.2-0.2C287.4,33,286.9,33,286.3,33"/>
			<path class="st0" d="M301.4,33c-0.6,0-1.1,0-1.6,0c-0.5,0-0.9,0.1-1.2,0.2c-0.4,0.1-0.6,0.2-0.9,0.4c-0.2,0.1-0.5,0.3-0.6,0.6
		c-0.1,0.2-0.3,0.5-0.3,0.9c-0.1,0.4-0.1,0.8-0.1,1.4h8.9c0-0.7-0.1-1.3-0.2-1.7c-0.1-0.4-0.4-0.8-0.7-1c-0.3-0.3-0.8-0.4-1.3-0.6
		C302.8,33,302.2,33,301.4,33 M301.4,42.7c-1.2,0-2.2-0.1-3-0.2c-0.8-0.2-1.5-0.4-2-0.9c-0.5-0.4-0.9-0.9-1.1-1.6
		c-0.2-0.7-0.4-1.5-0.4-2.5c0-1.2,0.1-2.1,0.4-2.9c0.2-0.8,0.6-1.4,1.1-1.8c0.5-0.4,1.2-0.8,2-0.9s1.8-0.3,3-0.3
		c0.9,0,1.6,0.1,2.2,0.2c0.6,0.1,1.1,0.3,1.6,0.5c0.5,0.2,0.8,0.5,1.1,0.9c0.3,0.3,0.5,0.7,0.6,1.1c0.2,0.4,0.3,0.8,0.3,1.3
		c0.1,0.5,0.1,1,0.1,1.6l-0.1,0.6h-10.5c0,0.8,0.1,1.5,0.2,2c0.2,0.5,0.4,0.9,0.8,1.1s0.9,0.4,1.5,0.5c0.6,0.1,1.4,0.1,2.2,0.1
		c0.8,0,1.5,0,2-0.1c0.5-0.1,1-0.1,1.3-0.3c0.3-0.1,0.5-0.3,0.7-0.5c0.1-0.2,0.2-0.5,0.2-0.9h1.8c0,0.6-0.1,1.1-0.3,1.5
		c-0.2,0.4-0.5,0.7-1,1s-1.1,0.4-1.8,0.5C303.5,42.6,302.5,42.7,301.4,42.7"/>
			<path class="st0" d="M316.2,30h-1.8v-1.8h1.8V30 M314.5,31.8h1.8v10.7h-1.8V31.8"/>
			<path class="st0" d="M329.9,42.5v-5.9c0-0.7,0-1.2-0.1-1.7c-0.1-0.5-0.3-0.8-0.6-1.1c-0.3-0.3-0.7-0.5-1.3-0.6
		c-0.5-0.1-1.3-0.2-2.1-0.2c-1,0-1.8,0.1-2.4,0.2c-0.6,0.1-1.1,0.3-1.5,0.6c-0.4,0.3-0.6,0.6-0.7,0.9c-0.1,0.4-0.2,0.8-0.2,1.2v6.5
		h-1.8V31.8h1.8v1.8c0.1-0.3,0.3-0.6,0.6-0.8c0.2-0.2,0.5-0.4,0.8-0.6c0.3-0.2,0.6-0.3,1-0.4c0.4-0.1,0.7-0.2,1.1-0.2
		c0.4-0.1,0.7-0.1,1-0.1c0.3,0,0.6,0,0.9,0c0.8,0,1.5,0.1,2,0.2s1.1,0.2,1.5,0.4c0.4,0.2,0.7,0.4,1,0.7c0.2,0.3,0.4,0.6,0.6,1
		c0.1,0.4,0.2,0.8,0.3,1.2c0,0.4,0.1,1,0.1,1.5l0,5.9L329.9,42.5"/>
			<path class="st0" d="M337.6,33.1v9.3h-1.8v-9.3H334v-1.3h1.8v-0.1c0-0.7,0.1-1.3,0.2-1.8c0.2-0.5,0.4-0.9,0.8-1.2s0.9-0.5,1.5-0.6
		c0.6-0.1,1.4-0.2,2.2-0.2h2.1v1.5h-2.1c-0.6,0-1,0-1.4,0c-0.4,0-0.7,0.1-0.9,0.2c-0.2,0.1-0.4,0.4-0.5,0.7
		c-0.1,0.3-0.1,0.8-0.1,1.3v0.1h5v1.3H337.6"/>
			<path class="st0" d="M345.3,37.1c0,0.6,0,1.1,0.1,1.6s0.1,0.8,0.2,1.1c0.1,0.3,0.3,0.6,0.5,0.8c0.2,0.2,0.5,0.4,0.9,0.5
		s0.8,0.2,1.3,0.2c0.5,0,1.1,0.1,1.8,0.1c0.6,0,1.1,0,1.6,0c0.5,0,0.9-0.1,1.2-0.2c0.4-0.1,0.6-0.2,0.9-0.4c0.2-0.2,0.5-0.4,0.6-0.8
		c0.1-0.3,0.3-0.7,0.3-1.2c0.1-0.5,0.1-1,0.1-1.7c0-0.6,0-1.2-0.1-1.6c-0.1-0.4-0.2-0.8-0.3-1.1c-0.1-0.3-0.4-0.5-0.6-0.7
		c-0.2-0.2-0.5-0.3-0.9-0.4s-0.8-0.1-1.2-0.2c-0.5,0-1,0-1.6,0s-1.1,0-1.6,0c-0.5,0-0.9,0.1-1.2,0.2c-0.4,0.1-0.6,0.2-0.9,0.4
		c-0.2,0.2-0.5,0.4-0.6,0.7s-0.3,0.7-0.3,1.1C345.3,35.9,345.3,36.4,345.3,37.1 M343.5,37.1c0-1.1,0.1-2,0.4-2.7s0.6-1.3,1.1-1.7
		c0.5-0.4,1.2-0.7,2-0.9c0.8-0.2,1.8-0.3,3-0.3c1.2,0,2.2,0.1,3,0.3c0.8,0.2,1.5,0.5,2,0.9c0.5,0.4,0.9,1,1.1,1.7
		c0.2,0.7,0.4,1.6,0.4,2.7c0,1.1-0.1,2-0.4,2.7c-0.2,0.7-0.6,1.3-1.1,1.7c-0.5,0.4-1.2,0.7-2,0.9c-0.8,0.2-1.8,0.3-3,0.3
		c-1.2,0-2.2-0.1-3-0.3c-0.8-0.2-1.5-0.5-2-0.9c-0.5-0.4-0.9-1-1.1-1.7C343.6,39.1,343.5,38.1,343.5,37.1"/>
			<path class="st0" d="M367.8,35.3c0-0.4,0-0.8-0.1-1.1c-0.1-0.3-0.2-0.5-0.5-0.7c-0.2-0.2-0.6-0.3-1.1-0.4c-0.5-0.1-1.1-0.1-1.9-0.1
		c-0.8,0-1.5,0.1-2,0.2s-0.9,0.3-1.2,0.6c-0.3,0.2-0.5,0.6-0.6,0.9c-0.1,0.4-0.1,0.7-0.1,1.2v6.6h-1.8V31.8h1.8v1.7
		c0.1-0.2,0.2-0.4,0.3-0.6c0.2-0.2,0.4-0.4,0.8-0.7c0.3-0.2,0.8-0.4,1.3-0.5c0.5-0.1,1.2-0.2,2-0.2c0.9,0,1.7,0.1,2.3,0.2
		c0.6,0.2,1,0.4,1.4,0.7c0.3,0.3,0.5,0.7,0.7,1.2c0.1,0.5,0.2,1,0.2,1.6H367.8"/>
			<path class="st0" d="M381.8,42.5H380v-6c0-0.6,0-1.2-0.1-1.6c-0.1-0.4-0.2-0.8-0.5-1.1c-0.2-0.3-0.6-0.5-1.1-0.6
		c-0.5-0.1-1.1-0.2-1.8-0.2c-0.8,0-1.5,0.1-2.1,0.2s-1,0.3-1.3,0.6c-0.3,0.2-0.5,0.6-0.6,0.9c-0.1,0.4-0.2,0.7-0.2,1.2v6.6h-1.8
		V31.8h1.8v1.7c0,0,0-0.1,0.1-0.2c0-0.1,0.1-0.2,0.3-0.4c0.1-0.2,0.3-0.3,0.5-0.5c0.2-0.2,0.5-0.3,0.9-0.5c0.4-0.1,0.8-0.3,1.3-0.3
		c0.5-0.1,1.1-0.1,1.8-0.1s1.2,0,1.7,0.1c0.5,0.1,0.9,0.2,1.3,0.4c0.4,0.2,0.6,0.4,0.9,0.6c0.2,0.2,0.4,0.5,0.5,0.8
		c0.1-0.2,0.3-0.4,0.5-0.6s0.5-0.4,0.9-0.6s0.9-0.4,1.5-0.5c0.6-0.1,1.3-0.2,2.2-0.2c0.7,0,1.3,0.1,1.8,0.2c0.5,0.1,1,0.2,1.3,0.4
		c0.3,0.2,0.6,0.4,0.8,0.7c0.2,0.3,0.4,0.6,0.5,1c0.1,0.4,0.2,0.8,0.2,1.2s0.1,0.9,0.1,1.5v6h-1.8v-6c0-0.6,0-1.2-0.1-1.6
		c-0.1-0.4-0.2-0.8-0.5-1.1c-0.2-0.3-0.6-0.5-1.1-0.6c-0.5-0.1-1.1-0.2-1.8-0.2c-0.8,0-1.5,0.1-2.1,0.2s-1,0.3-1.3,0.6
		c-0.3,0.2-0.5,0.6-0.6,0.9c-0.1,0.4-0.2,0.7-0.2,1.2L381.8,42.5"/>
			<path class="st0" d="M400.1,41.3c0.8,0,1.4,0,2-0.1c0.5-0.1,1-0.2,1.3-0.3c0.3-0.1,0.5-0.3,0.7-0.6c0.1-0.2,0.2-0.5,0.2-0.8
		s-0.1-0.6-0.2-0.8c-0.2-0.2-0.4-0.4-0.8-0.5c-0.4-0.1-0.8-0.2-1.5-0.3c-0.6-0.1-1.3-0.1-2.2-0.1s-1.6,0-2.2,0.1
		c-0.5,0-1,0.1-1.3,0.2s-0.5,0.3-0.6,0.5c-0.1,0.2-0.2,0.5-0.2,0.9c0,0.4,0.1,0.7,0.2,0.9c0.1,0.2,0.3,0.4,0.7,0.5
		c0.3,0.1,0.8,0.2,1.4,0.3C398.3,41.3,399.1,41.3,400.1,41.3 M404.3,41c0,0.1-0.2,0.3-0.4,0.6c-0.2,0.2-0.4,0.4-0.7,0.6
		s-0.7,0.3-1.2,0.4c-0.5,0.1-1.2,0.1-2,0.1c-1.1,0-2.1-0.1-2.9-0.2c-0.8-0.1-1.4-0.3-1.9-0.5c-0.5-0.2-0.9-0.6-1.1-0.9
		s-0.3-0.8-0.3-1.3c0-0.5,0.1-1,0.2-1.4c0.1-0.4,0.3-0.7,0.6-0.9c0.2-0.2,0.5-0.4,0.9-0.6c0.3-0.1,0.7-0.2,1.2-0.3
		c0.5-0.1,0.9-0.1,1.5-0.1s1.1,0,1.7,0c0.8,0,1.6,0,2.1,0.1c0.6,0.1,1,0.2,1.4,0.3c0.4,0.1,0.6,0.2,0.8,0.3s0.3,0.2,0.4,0.3
		c0-0.7,0-1.3-0.1-1.8s-0.2-0.9-0.3-1.2c-0.1-0.3-0.3-0.6-0.5-0.8c-0.2-0.2-0.5-0.4-0.8-0.4c-0.3-0.1-0.7-0.2-1.1-0.2
		c-0.4,0-0.9-0.1-1.4-0.1c-0.8,0-1.5,0-2,0.1c-0.5,0-1,0.1-1.3,0.2c-0.3,0.1-0.5,0.3-0.7,0.5c-0.1,0.2-0.2,0.5-0.2,0.8h-1.8
		c0-0.6,0.1-1,0.3-1.4s0.5-0.7,1-0.9c0.5-0.2,1.1-0.4,1.8-0.5c0.8-0.1,1.7-0.2,2.8-0.2c1.1,0,2,0.1,2.8,0.3c0.8,0.2,1.4,0.5,1.8,0.9
		c0.5,0.4,0.8,1.1,1,1.8c0.2,0.8,0.3,1.7,0.3,2.9v5.1h-1.8L404.3,41"/>
			<path class="st0" d="M418.8,37.7c0,0.9-0.1,1.7-0.2,2.3c-0.2,0.6-0.4,1.1-0.8,1.5c-0.3,0.4-0.8,0.6-1.4,0.8
		c-0.6,0.1-1.3,0.2-2.1,0.2c-0.8,0-1.5-0.1-2-0.2c-0.5-0.1-1-0.3-1.3-0.6c-0.3-0.3-0.6-0.7-0.7-1.2c-0.2-0.5-0.2-1.1-0.2-1.9v-5.4
		h-2.2v-1.5h2.2v-2.9h1.8v2.9h6.7v1.5h-6.7v5.4c0,0.6,0,1.1,0.1,1.4c0.1,0.3,0.2,0.6,0.4,0.7c0.2,0.1,0.5,0.2,0.8,0.3
		c0.3,0,0.7,0,1.2,0c0.4,0,0.7,0,1,0c0.3,0,0.6-0.1,0.8-0.1c0.2-0.1,0.4-0.2,0.6-0.3c0.2-0.1,0.3-0.3,0.4-0.6
		c0.1-0.2,0.2-0.6,0.2-0.9c0-0.4,0.1-0.8,0.1-1.4L418.8,37.7"/>
			<path class="st0" d="M423.6,30h-1.8v-1.8h1.8V30 M421.8,31.8h1.8v10.7h-1.8V31.8"/>
			<path class="st0" d="M426.2,37.1c0-0.7,0-1.4,0.1-2s0.2-1.1,0.4-1.5c0.2-0.4,0.5-0.8,0.8-1.1c0.3-0.3,0.7-0.5,1.2-0.7
		c0.5-0.2,1.1-0.3,1.7-0.4c0.7-0.1,1.5-0.1,2.3-0.1c1.2,0,2.2,0.1,2.9,0.2c0.8,0.1,1.4,0.4,1.8,0.7c0.5,0.3,0.8,0.7,0.9,1.1
		c0.2,0.4,0.3,1,0.3,1.6h-1.8c0-0.2,0-0.4,0-0.6c0-0.2-0.1-0.4-0.1-0.5c-0.1-0.2-0.2-0.3-0.4-0.4c-0.2-0.1-0.4-0.2-0.7-0.3
		c-0.3-0.1-0.7-0.1-1.2-0.2c-0.5-0.1-1-0.1-1.7-0.1c-0.8,0-1.5,0-2,0.1c-0.5,0.1-1,0.1-1.3,0.3c-0.3,0.1-0.6,0.3-0.8,0.5
		c-0.2,0.2-0.3,0.5-0.4,0.8c-0.1,0.3-0.1,0.7-0.2,1.1c0,0.4,0,0.9,0,1.4c0,0.5,0,1,0,1.4c0,0.4,0.1,0.8,0.2,1.1
		c0.1,0.3,0.2,0.6,0.4,0.8c0.2,0.2,0.5,0.4,0.8,0.5c0.3,0.1,0.8,0.2,1.3,0.3c0.5,0.1,1.2,0.1,2,0.1c0.7,0,1.3,0,1.7-0.1
		c0.5-0.1,0.9-0.1,1.2-0.2c0.3-0.1,0.5-0.2,0.7-0.3c0.2-0.1,0.3-0.3,0.4-0.5c0.1-0.2,0.1-0.4,0.1-0.6c0-0.2,0-0.4,0-0.7h1.8
		c0,0.6-0.1,1.2-0.3,1.7c-0.2,0.5-0.5,0.9-0.9,1.2c-0.5,0.3-1,0.5-1.8,0.7s-1.7,0.2-2.9,0.2c-0.9,0-1.7,0-2.3-0.1
		c-0.7-0.1-1.2-0.2-1.7-0.4c-0.5-0.2-0.9-0.4-1.2-0.7c-0.3-0.3-0.6-0.6-0.8-1s-0.3-0.9-0.4-1.4C426.3,38.5,426.2,37.9,426.2,37.1"/>
			<path class="st0" d="M447.3,37.6c0.7,0,1.3,0,1.8,0c0.5,0,0.9,0.1,1.2,0.1c0.3,0.1,0.6,0.1,0.8,0.2s0.3,0.2,0.4,0.4
		c0.1,0.1,0.2,0.3,0.2,0.5c0,0.1,0,0.3,0,0.5c0,0.2,0,0.4,0,0.6c0,0.2-0.1,0.3-0.2,0.5c-0.1,0.1-0.3,0.3-0.5,0.4
		c-0.2,0.1-0.5,0.2-0.8,0.3c-0.3,0.1-0.8,0.1-1.3,0.2c-0.5,0-1.2,0.1-1.9,0.1c-0.8,0-1.5,0-2-0.1c-0.5-0.1-1-0.1-1.3-0.3
		s-0.5-0.3-0.7-0.5c-0.1-0.2-0.2-0.5-0.2-0.9h-1.8c0,0.6,0.1,1,0.3,1.4s0.5,0.7,1,1c0.5,0.2,1.1,0.4,1.8,0.5s1.7,0.2,2.8,0.2
		c0.9,0,1.7,0,2.3-0.1c0.7-0.1,1.2-0.1,1.7-0.2c0.5-0.1,0.9-0.3,1.2-0.4c0.3-0.2,0.6-0.4,0.8-0.6c0.2-0.2,0.3-0.5,0.4-0.8
		c0.1-0.3,0.1-0.7,0.1-1.1s0-0.8-0.1-1.1c-0.1-0.3-0.2-0.6-0.4-0.8c-0.2-0.2-0.4-0.4-0.7-0.6s-0.7-0.3-1.2-0.4
		c-0.5-0.1-1-0.2-1.7-0.2c-0.6,0-1.4-0.1-2.2-0.1h-1.8c-0.5,0-0.9,0-1.2-0.1c-0.3,0-0.6-0.1-0.8-0.2s-0.3-0.2-0.4-0.3
		s-0.2-0.3-0.2-0.5c0-0.2,0-0.4,0-0.6c0-0.4,0.1-0.6,0.2-0.8s0.4-0.4,0.8-0.4c0.4-0.1,0.9-0.2,1.5-0.2s1.3,0,2.2,0
		c0.8,0,1.5,0,2,0.1c0.5,0,1,0.1,1.3,0.2c0.3,0.1,0.5,0.3,0.7,0.5c0.1,0.2,0.2,0.5,0.2,0.8h1.8c0-0.5-0.1-1-0.3-1.4s-0.5-0.7-1-1
		s-1-0.4-1.8-0.6c-0.8-0.1-1.7-0.2-2.9-0.2c-1.2,0-2.2,0.1-3,0.2c-0.8,0.1-1.5,0.3-2,0.5c-0.5,0.2-0.9,0.5-1.1,0.9
		c-0.2,0.4-0.3,0.8-0.3,1.4c0,0.4,0,0.8,0.1,1.1c0.1,0.3,0.2,0.6,0.4,0.9c0.2,0.2,0.4,0.4,0.7,0.6c0.3,0.1,0.7,0.2,1.2,0.3
		c0.5,0.1,1,0.1,1.7,0.1C445.7,37.6,446.4,37.6,447.3,37.6"/>
			<rect x="322.4" y="119.8" class="st1" width="0.9" height="41.8"/>
			<rect x="258.8" y="106.2" class="st2" width="128" height="0.8"/>
			<path class="st3" d="M344.6,106.5c0,12-9.8,21.8-21.8,21.8s-21.8-9.7-21.8-21.8s9.7-21.8,21.8-21.8
		C334.8,84.8,344.6,94.5,344.6,106.5z"/>
			<rect x="312.9" y="96.6" class="st4" width="19.8" height="19.8"/>
			<rect x="312.9" y="96.6" class="st5" width="19.8" height="19.8"/>
			<rect x="322.4" y="51.5" class="st1" width="0.9" height="41.2"/>
			<rect x="37.9" y="32.2" class="st0" width="34.9" height="8.8"/>
			<rect x="462.1" y="32.2" class="st0" width="34.9" height="8.8"/>
			<rect x="462.1" y="169.3" class="st0" width="34.9" height="8.8"/>
			<rect x="417" y="169.2" class="st0" width="30.9" height="8.8"/>
			<rect x="377.1" y="169.2" class="st0" width="25.6" height="8.8"/>
			<rect x="347.2" y="169.2" class="st0" width="15.7" height="8.8"/>
			<rect x="327.2" y="169.3" class="st0" width="5.7" height="8.8"/>
			<rect x="37.9" y="169.2" class="st0" width="34.9" height="8.8"/>
		</g>
	</symbol>
</svg>
