<?xml version="1.0" encoding="utf-8"?>
<!-- Generator: Adobe Illustrator 23.0.0, SVG Export Plug-In . SVG Version: 6.00 Build 0)  -->
<svg version="1.1" id="Layer_1" xmlns="http://www.w3.org/2000/svg" xmlns:xlink="http://www.w3.org/1999/xlink" x="0px" y="0px"
	 viewBox="0 0 512 147" style="enable-background:new 0 0 512 147;" xml:space="preserve">
<style type="text/css">
	.st0{fill:#FFFFFF;}
	.st1{fill:none;stroke:#FFFFFF;stroke-width:3;stroke-miterlimit:10;}
</style>
<g>
	<g>
		<path class="st0" d="M149.8,53.1c0,4.1-1.2,7.4-3.7,9.9s-5.5,3.8-9.2,3.8s-6.8-1.3-9.3-3.9s-3.7-5.9-3.7-9.9s1.3-7.3,3.8-9.8
			s5.6-3.7,9.2-3.7c3.5,0,6.6,1.2,9.1,3.7C148.5,45.7,149.8,49,149.8,53.1z M130.2,60.9c1.9,1.9,4.1,2.9,6.6,2.9s4.7-0.9,6.6-2.9
			c1.9-1.9,2.8-4.5,2.8-7.8c0-3.3-1-5.9-2.9-7.8c-1.9-1.9-4.1-2.8-6.6-2.8s-4.7,0.9-6.6,2.8c-1.9,1.9-2.9,4.5-2.9,7.8
			C127.4,56.4,128.3,59.1,130.2,60.9z"/>
		<path class="st0" d="M161,74.9h-7.5c-0.3,0-0.5-0.1-0.5-0.4v-1.6c0-0.3,0.2-0.4,0.5-0.4h2.1V50.7h-2c-0.3,0-0.5-0.1-0.5-0.4v-1.6
			c0-0.3,0.2-0.4,0.5-0.4h4.4c0.3,0,0.5,0.1,0.5,0.4l0,2.9h0c0.5-1,1.2-1.9,2.3-2.6c1.1-0.7,2.4-1.1,3.9-1.1c2.5,0,4.5,0.9,6.1,2.6
			s2.3,4,2.3,6.8c0,2.8-0.8,5.1-2.3,6.9c-1.5,1.8-3.5,2.6-6.1,2.6c-1.5,0-2.8-0.4-3.9-1.1c-1-0.7-1.8-1.6-2.2-2.6h-0.1
			c0.1,0.8,0.1,1.4,0.1,1.7v7.6h2.4c0.3,0,0.5,0.1,0.5,0.4v1.6C161.5,74.8,161.3,74.9,161,74.9z M158.5,57.5c0,2.2,0.6,3.8,1.7,5
			c1.1,1.2,2.5,1.8,4.1,1.8s2.9-0.6,4-1.9s1.6-2.9,1.6-5s-0.5-3.7-1.6-4.9c-1.1-1.2-2.4-1.9-4-1.9c-1.6,0-3,0.6-4.1,1.8
			S158.5,55.3,158.5,57.5z"/>
		<path class="st0" d="M192.3,57.8h-13.4c0.1,2.1,0.8,3.6,2,4.8s2.6,1.7,4.1,1.7c1.5,0,2.8-0.3,3.9-1c1.1-0.6,1.8-1.3,2.2-1.9
			c0.2-0.2,0.4-0.3,0.7-0.1l1,1c0.1,0.1,0.2,0.3,0.2,0.4s-0.1,0.2-0.2,0.4c-0.1,0.2-0.3,0.4-0.7,0.8c-0.4,0.4-0.8,0.8-1.5,1.3
			s-1.5,0.9-2.5,1.2c-1,0.3-2.1,0.5-3.2,0.5c-2.6,0-4.8-0.9-6.5-2.6s-2.6-4-2.6-6.9s0.9-5.2,2.6-6.9c1.7-1.7,3.9-2.5,6.4-2.5
			c2.5,0,4.5,0.8,5.9,2.4s2.2,3.8,2.2,6.6c0,0.1,0,0.2,0,0.3C192.8,57.6,192.6,57.8,192.3,57.8z M188.2,51.8
			c-0.9-0.9-2.1-1.4-3.6-1.4s-2.8,0.4-3.8,1.3c-1.1,0.8-1.7,2.1-1.9,3.8h10.8C189.6,53.9,189.1,52.7,188.2,51.8z"/>
		<path class="st0" d="M215.5,66.6H212c-1.1,0-1.6-0.5-1.6-1.6v-9.8c0-1.4-0.4-2.6-1-3.4c-0.7-0.8-1.7-1.2-3-1.2
			c-1.9,0-3.4,0.8-4.5,2.4c-0.1,0.1-0.3,0.4-0.5,0.8v10.2h2c0.3,0,0.5,0.1,0.5,0.4v1.6c0,0.3-0.2,0.4-0.5,0.4h-7.1
			c-0.3,0-0.5-0.1-0.5-0.4v-1.6c0-0.3,0.2-0.4,0.5-0.4h2V50.7h-2c-0.3,0-0.5-0.1-0.5-0.4v-1.6c0-0.3,0.2-0.4,0.5-0.4h4.4
			c0.3,0,0.5,0.1,0.5,0.4l-0.1,2.5h0.1c1.3-2.2,3.3-3.2,6-3.2c2,0,3.5,0.6,4.7,1.8s1.7,2.7,1.7,4.7v9.6h2.1c0.3,0,0.5,0.1,0.5,0.4
			v1.6C216,66.4,215.9,66.6,215.5,66.6z"/>
		<path class="st0" d="M257.4,66.6h-9c-0.3,0-0.5-0.1-0.5-0.4v-1.9c0-0.3,0.1-0.4,0.5-0.4h2.9v-9.1h-13.9v9.1h2.9
			c0.3,0,0.5,0.1,0.5,0.4v1.9c0,0.3-0.2,0.4-0.5,0.4h-8.9c-0.3,0-0.5-0.1-0.5-0.4v-1.9c0-0.3,0.2-0.4,0.5-0.4h2.8V42.6h-2.8
			c-0.3,0-0.5-0.1-0.5-0.4v-1.9c0-0.3,0.2-0.4,0.5-0.4h8.9c0.3,0,0.5,0.1,0.5,0.4v1.9c0,0.3-0.2,0.4-0.5,0.4h-2.9v9.3h13.9v-9.3
			h-2.9c-0.3,0-0.5-0.1-0.5-0.4v-1.9c0-0.3,0.1-0.4,0.5-0.4h9c0.3,0,0.5,0.1,0.5,0.4v1.9c0,0.3-0.1,0.4-0.5,0.4h-2.9v21.2h2.9
			c0.3,0,0.5,0.1,0.5,0.4v1.9C257.9,66.4,257.7,66.6,257.4,66.6z"/>
		<path class="st0" d="M276.5,57.8h-13.4c0.1,2.1,0.8,3.6,2,4.8c1.2,1.1,2.6,1.7,4.1,1.7c1.5,0,2.8-0.3,3.9-1
			c1.1-0.6,1.8-1.3,2.2-1.9c0.2-0.2,0.4-0.3,0.7-0.1l1,1c0.1,0.1,0.2,0.3,0.2,0.4s-0.1,0.2-0.2,0.4c-0.1,0.2-0.3,0.4-0.7,0.8
			c-0.4,0.4-0.8,0.8-1.5,1.3s-1.5,0.9-2.5,1.2c-1,0.3-2.1,0.5-3.2,0.5c-2.6,0-4.8-0.9-6.5-2.6s-2.6-4-2.6-6.9s0.9-5.2,2.6-6.9
			c1.7-1.7,3.9-2.5,6.4-2.5c2.5,0,4.5,0.8,5.9,2.4s2.2,3.8,2.2,6.6c0,0.1,0,0.2,0,0.3C277,57.6,276.9,57.8,276.5,57.8z M272.5,51.8
			c-0.9-0.9-2.1-1.4-3.6-1.4s-2.8,0.4-3.8,1.3c-1.1,0.8-1.7,2.1-1.9,3.8h10.8C273.9,53.9,273.4,52.7,272.5,51.8z"/>
		<path class="st0" d="M298.2,66.6H295c-1.1,0-1.6-0.5-1.6-1.6v-1.9h-0.1c-1.8,2.5-4.2,3.8-7.3,3.8c-1.8,0-3.2-0.5-4.4-1.4
			c-1.1-0.9-1.7-2.2-1.7-3.8c0-2,0.9-3.5,2.7-4.5c1.8-1,4.2-1.4,7.3-1.4h3.1v-0.4c0-3.1-1.6-4.7-4.8-4.7c-1.5,0-2.6,0.1-3.3,0.4
			s-1.1,0.5-1.4,0.7c-0.3,0.2-0.5,0.3-0.6,0.4c-0.4,0.3-0.6,0.3-0.8,0.1l-1-1.3c-0.2-0.2-0.1-0.4,0.1-0.6c0.4-0.6,1.3-1.1,2.6-1.6
			c1.3-0.5,2.9-0.8,4.7-0.8c5.2,0,7.8,2.5,7.8,7.4v8.6h2.1c0.3,0,0.5,0.1,0.5,0.4v1.6C298.7,66.4,298.5,66.6,298.2,66.6z M293,58
			h-2.9c-1.4,0-2.6,0.1-3.6,0.2c-0.9,0.1-1.8,0.5-2.4,1c-0.7,0.5-1,1.2-1,2.1c0,0.9,0.4,1.6,1.1,2.1s1.6,0.8,2.8,0.8
			c2.4,0,4.4-1.1,6.1-3.2L293,58L293,58z"/>
		<path class="st0" d="M308.9,66.6h-7.1c-0.3,0-0.5-0.1-0.5-0.4v-1.6c0-0.3,0.2-0.4,0.5-0.4h2V42.3h-2c-0.3,0-0.5-0.1-0.5-0.4v-1.6
			c0-0.3,0.2-0.4,0.5-0.4h4.1c0.7,0,1,0.3,1,0.9V64h2c0.3,0,0.5,0.1,0.5,0.4v1.6C309.4,66.4,309.2,66.6,308.9,66.6z"/>
		<path class="st0" d="M324.5,64.7c0.1,0.1,0.1,0.2,0.1,0.3s-0.1,0.2-0.2,0.4c-1.1,1-2.5,1.4-4.1,1.4s-3-0.5-4.1-1.6
			c-1.1-1.1-1.6-2.6-1.6-4.7v-9.8h-2.1c-0.4,0-0.5-0.2-0.5-0.5v-1.5c0-0.3,0.2-0.5,0.5-0.5h2.1v-3.8c0-0.4,0.2-0.5,0.5-0.5h2.1
			c0.3,0,0.5,0.2,0.5,0.5v3.8h4.7c0.4,0,0.5,0.2,0.5,0.5v1.5c0,0.3-0.2,0.5-0.5,0.5h-4.7v9.7c0,1.2,0.3,2.2,0.8,2.8s1.3,0.9,2.2,0.9
			c0.9,0,1.6-0.2,2.1-0.7c0.2-0.2,0.5-0.2,0.7,0L324.5,64.7z"/>
		<path class="st0" d="M346.5,66.6h-3.5c-1.1,0-1.6-0.5-1.6-1.6v-9.8c0-1.4-0.4-2.6-1-3.4c-0.7-0.8-1.7-1.2-3-1.2
			c-1,0-1.8,0.2-2.3,0.5c-0.5,0.3-0.9,0.6-1.2,0.8s-0.5,0.5-0.7,0.7c-0.3,0.4-0.5,0.8-0.8,1.2v10.2h2c0.3,0,0.5,0.1,0.5,0.4v1.6
			c0,0.3-0.2,0.4-0.5,0.4h-7.1c-0.3,0-0.5-0.1-0.5-0.4v-1.6c0-0.3,0.2-0.4,0.5-0.4h2V42.3h-2c-0.3,0-0.5-0.1-0.5-0.4v-1.6
			c0-0.3,0.2-0.4,0.5-0.4h4.7c0.3,0,0.5,0.1,0.5,0.4v8.3c0,0.8,0,1.6-0.1,2.3h0.1c1.2-1.9,3.1-2.9,5.8-2.9c2,0,3.5,0.6,4.7,1.8
			s1.7,2.7,1.7,4.7v9.6h2.1c0.3,0,0.5,0.1,0.5,0.4v1.6C347,66.4,346.8,66.6,346.5,66.6z"/>
		<path class="st0" d="M133.3,112.6h-8.9c-0.3,0-0.5-0.1-0.5-0.4v-1.9c0-0.3,0.2-0.4,0.5-0.4h2.8V88.6h-2.8c-0.3,0-0.5-0.1-0.5-0.4
			v-1.9c0-0.3,0.2-0.4,0.5-0.4h8.9c0.3,0,0.5,0.1,0.5,0.4v1.9c0,0.3-0.2,0.4-0.5,0.4h-2.9v21.2h2.9c0.3,0,0.5,0.1,0.5,0.4v1.9
			C133.8,112.4,133.6,112.6,133.3,112.6z"/>
		<path class="st0" d="M168.2,112.6h-3.5c-0.6,0-1-0.1-1.2-0.4c-0.3-0.2-0.4-0.6-0.4-1.2v-9.8c0-1.4-0.3-2.6-1-3.4
			c-0.7-0.8-1.7-1.2-3-1.2c-2,0-3.5,0.9-4.6,2.6c0.1,0.4,0.2,0.9,0.2,1.5v9.4h2.1c0.3,0,0.5,0.1,0.5,0.4v1.6c0,0.3-0.1,0.4-0.5,0.4
			h-7.1c-0.3,0-0.5-0.1-0.5-0.4v-1.6c0-0.3,0.2-0.4,0.5-0.4h2v-8.9c0-1.4-0.4-2.6-1-3.4c-0.7-0.8-1.7-1.2-3-1.2
			c-1,0-1.8,0.2-2.3,0.5c-0.5,0.3-0.9,0.6-1.2,0.8s-0.5,0.5-0.7,0.7c-0.3,0.4-0.5,0.8-0.8,1.2v10.2h1.8c0.3,0,0.5,0.1,0.5,0.4v1.6
			c0,0.3-0.1,0.4-0.5,0.4h-7c-0.3,0-0.5-0.1-0.5-0.4v-1.6c0-0.3,0.2-0.4,0.5-0.4h2V96.8h-2c-0.3,0-0.5-0.1-0.5-0.4v-1.6
			c0-0.3,0.2-0.4,0.5-0.4h3.6c0.4,0,0.7,0.1,0.9,0.2c0.2,0.2,0.3,0.4,0.3,0.9l-0.1,1.9h0.1c1.3-2.2,3.3-3.2,6-3.2s4.6,1,5.6,3.1
			c1.4-2.1,3.4-3.1,6-3.1c2,0,3.5,0.6,4.6,1.8c1.1,1.2,1.7,2.7,1.7,4.7l0,9.6h2.1c0.3,0,0.5,0.1,0.5,0.4v1.6
			C168.7,112.4,168.5,112.6,168.2,112.6z"/>
		<path class="st0" d="M189.4,112.6h-3.2c-1.1,0-1.6-0.5-1.6-1.6v-1.9h-0.1c-1.8,2.5-4.2,3.8-7.3,3.8c-1.8,0-3.2-0.5-4.4-1.4
			c-1.1-0.9-1.7-2.2-1.7-3.8c0-2,0.9-3.5,2.7-4.5c1.8-1,4.2-1.4,7.3-1.4h3.1v-0.4c0-3.1-1.6-4.7-4.8-4.7c-1.5,0-2.6,0.1-3.3,0.4
			s-1.1,0.5-1.4,0.7c-0.3,0.2-0.5,0.3-0.6,0.4c-0.4,0.3-0.6,0.3-0.8,0.1l-1-1.3c-0.2-0.2-0.1-0.4,0.1-0.6c0.4-0.6,1.3-1.1,2.6-1.6
			c1.3-0.5,2.9-0.8,4.7-0.8c5.2,0,7.8,2.5,7.8,7.4v8.6h2.1c0.3,0,0.5,0.1,0.5,0.4v1.6C189.9,112.4,189.7,112.6,189.4,112.6z
			 M184.2,104h-2.9c-1.4,0-2.6,0.1-3.6,0.2c-0.9,0.1-1.8,0.5-2.4,1c-0.7,0.5-1,1.2-1,2.1c0,0.9,0.4,1.6,1.1,2.1s1.6,0.8,2.8,0.8
			c2.4,0,4.4-1.1,6.1-3.2L184.2,104L184.2,104z"/>
		<path class="st0" d="M200.8,121.3c-1.2,0-2.2-0.1-2.8-0.3s-1.1-0.3-1.5-0.5c-0.4-0.1-0.7-0.3-1-0.4c-0.3-0.1-0.5-0.3-0.8-0.4
			c-1.1-0.7-1.5-1.2-1.2-1.6l1-1.4c0.1-0.2,0.4-0.2,0.6,0c0,0,0.1,0.1,0.2,0.2c0.1,0.1,0.3,0.2,0.4,0.3s0.3,0.2,0.6,0.4
			c0.2,0.1,0.5,0.3,0.8,0.4s0.6,0.2,1,0.3c0.8,0.2,1.7,0.3,2.7,0.3c1.8,0,3.2-0.4,4.3-1.3s1.6-2.2,1.6-4V109c-0.5,1-1.2,1.9-2.2,2.7
			c-1,0.8-2.3,1.1-3.9,1.1c-2.5,0-4.6-0.9-6.1-2.6c-1.5-1.8-2.3-4.1-2.3-6.9s0.8-5.1,2.3-6.8c1.5-1.7,3.6-2.6,6.1-2.6
			c1.5,0,2.8,0.4,3.9,1.1c1.1,0.7,1.8,1.6,2.3,2.6h0.1l0-2.9c0-0.3,0.1-0.4,0.5-0.4h4.4c0.3,0,0.5,0.1,0.5,0.4v1.6
			c0,0.3-0.1,0.4-0.5,0.4h-2v16.5c0,2.7-0.8,4.7-2.4,6C205.6,120.6,203.5,121.3,200.8,121.3z M195.3,103.4c0,2.1,0.5,3.7,1.6,5
			c1.1,1.2,2.5,1.9,4.1,1.9s3-0.6,4.1-1.9s1.6-2.9,1.6-5c0-2.1-0.5-3.7-1.6-5s-2.4-1.8-4.1-1.8c-1.6,0-3,0.6-4.1,1.9
			C195.9,99.7,195.3,101.4,195.3,103.4z"/>
		<path class="st0" d="M222.6,112.6h-7.1c-0.3,0-0.5-0.1-0.5-0.4v-1.6c0-0.3,0.2-0.4,0.5-0.4h2V96.7h-2c-0.3,0-0.5-0.1-0.5-0.4v-1.6
			c0-0.3,0.2-0.4,0.5-0.4h4.7c0.3,0,0.5,0.1,0.5,0.4v15.4h2c0.3,0,0.5,0.1,0.5,0.4v1.6C223.1,112.4,223,112.6,222.6,112.6z
			 M220.5,88.7c0.4,0.4,0.6,0.9,0.6,1.5s-0.2,1.1-0.6,1.4c-0.4,0.4-0.9,0.6-1.5,0.6s-1.1-0.2-1.5-0.6c-0.4-0.4-0.6-0.9-0.6-1.4
			c0-0.6,0.2-1.1,0.6-1.5c0.4-0.4,0.9-0.6,1.5-0.6C219.6,88.1,220.1,88.3,220.5,88.7z"/>
		<path class="st0" d="M245.8,112.6h-3.5c-1.1,0-1.6-0.5-1.6-1.6v-9.8c0-1.4-0.4-2.6-1-3.4c-0.7-0.8-1.7-1.2-3-1.2
			c-1.9,0-3.4,0.8-4.5,2.4c-0.1,0.1-0.3,0.4-0.5,0.8v10.2h2c0.3,0,0.5,0.1,0.5,0.4v1.6c0,0.3-0.2,0.4-0.5,0.4h-7.1
			c-0.3,0-0.5-0.1-0.5-0.4v-1.6c0-0.3,0.2-0.4,0.5-0.4h2V96.8h-2c-0.3,0-0.5-0.1-0.5-0.4v-1.6c0-0.3,0.2-0.4,0.5-0.4h4.4
			c0.3,0,0.5,0.1,0.5,0.4l-0.1,2.5h0.1c1.3-2.2,3.3-3.2,6-3.2c2,0,3.5,0.6,4.7,1.8s1.7,2.7,1.7,4.7v9.6h2.1c0.3,0,0.5,0.1,0.5,0.4
			v1.6C246.2,112.4,246.1,112.6,245.8,112.6z"/>
		<path class="st0" d="M257,121.3c-1.2,0-2.2-0.1-2.8-0.3s-1.1-0.3-1.5-0.5c-0.4-0.1-0.7-0.3-1-0.4c-0.3-0.1-0.5-0.3-0.8-0.4
			c-1.1-0.7-1.5-1.2-1.2-1.6l1-1.4c0.1-0.2,0.4-0.2,0.6,0c0,0,0.1,0.1,0.2,0.2c0.1,0.1,0.3,0.2,0.4,0.3s0.3,0.2,0.6,0.4
			c0.2,0.1,0.5,0.3,0.8,0.4s0.6,0.2,1,0.3c0.8,0.2,1.7,0.3,2.7,0.3c1.8,0,3.2-0.4,4.3-1.3s1.6-2.2,1.6-4V109c-0.5,1-1.2,1.9-2.2,2.7
			c-1,0.8-2.3,1.1-3.9,1.1c-2.5,0-4.6-0.9-6.1-2.6c-1.5-1.8-2.3-4.1-2.3-6.9s0.8-5.1,2.3-6.8c1.5-1.7,3.6-2.6,6.1-2.6
			c1.5,0,2.8,0.4,3.9,1.1c1.1,0.7,1.8,1.6,2.3,2.6h0.1l0-2.9c0-0.3,0.1-0.4,0.5-0.4h4.4c0.3,0,0.5,0.1,0.5,0.4v1.6
			c0,0.3-0.1,0.4-0.5,0.4h-2v16.5c0,2.7-0.8,4.7-2.4,6C261.7,120.6,259.6,121.3,257,121.3z M251.4,103.4c0,2.1,0.5,3.7,1.6,5
			c1.1,1.2,2.5,1.9,4.1,1.9s3-0.6,4.1-1.9s1.6-2.9,1.6-5c0-2.1-0.5-3.7-1.6-5s-2.4-1.8-4.1-1.8c-1.6,0-3,0.6-4.1,1.9
			S251.4,101.4,251.4,103.4z"/>
		<path class="st0" d="M293.9,112.6h-10.3c-0.3,0-0.5-0.1-0.5-0.4v-1.9c0-0.3,0.2-0.4,0.5-0.4h2.8V88.6h-2.8c-0.3,0-0.5-0.1-0.5-0.4
			v-1.9c0-0.3,0.2-0.4,0.5-0.4h19.1c0.3,0,0.5,0.1,0.5,0.4v6c0,0.3-0.2,0.5-0.5,0.5h-2c-0.3,0-0.5-0.2-0.5-0.5v-3.6h-10.6v9.2h8.8
			c0.3,0,0.5,0.1,0.5,0.4v1.9c0,0.3-0.2,0.4-0.5,0.4h-8.8v9.1h4.2c0.3,0,0.5,0.1,0.5,0.4v1.9C294.4,112.4,294.2,112.6,293.9,112.6z"
			/>
		<path class="st0" d="M319.5,110.2c-1.7,1.7-4,2.6-6.7,2.6s-4.9-0.9-6.7-2.6c-1.7-1.7-2.6-4-2.6-6.9s0.9-5.1,2.6-6.8
			c1.8-1.7,4-2.5,6.6-2.5s4.9,0.9,6.6,2.6s2.6,4,2.6,6.8C322.1,106.2,321.3,108.5,319.5,110.2z M306.7,103.4c0,2,0.6,3.7,1.8,5
			s2.6,1.9,4.4,1.9s3.2-0.6,4.4-1.9c1.2-1.3,1.8-2.9,1.8-5c0-2-0.6-3.7-1.8-4.9c-1.2-1.2-2.6-1.9-4.3-1.9s-3.1,0.6-4.4,1.9
			C307.3,99.7,306.7,101.3,306.7,103.4z"/>
		<path class="st0" d="M343.7,112.6h-3.2c-1.1,0-1.6-0.5-1.6-1.6v-1.4h-0.1c-1,2.1-3,3.2-5.8,3.2c-2,0-3.6-0.6-4.7-1.8
			c-1.1-1.2-1.7-2.8-1.8-4.7v-9.6h-2.1c-0.3,0-0.5-0.1-0.5-0.4v-1.6c0-0.3,0.1-0.4,0.5-0.4h3.6c1.1,0,1.6,0.5,1.6,1.6v9.8
			c0,1.4,0.4,2.6,1,3.4c0.7,0.8,1.7,1.2,3.1,1.2c1.8,0,3.2-0.7,4.3-2c0.5-0.6,0.7-1,0.7-1.1V96.7h-2c-0.3,0-0.5-0.1-0.5-0.4v-1.6
			c0-0.3,0.1-0.4,0.5-0.4h4.6c0.3,0,0.5,0.1,0.5,0.4v15.4h2.1c0.3,0,0.5,0.1,0.5,0.4v1.6C344.2,112.4,344,112.6,343.7,112.6z"/>
		<path class="st0" d="M366.7,112.6h-3.5c-1.1,0-1.6-0.5-1.6-1.6v-9.8c0-1.4-0.4-2.6-1-3.4c-0.7-0.8-1.7-1.2-3-1.2
			c-1.9,0-3.4,0.8-4.5,2.4c-0.1,0.1-0.3,0.4-0.5,0.8v10.2h2c0.3,0,0.5,0.1,0.5,0.4v1.6c0,0.3-0.2,0.4-0.5,0.4h-7.1
			c-0.3,0-0.5-0.1-0.5-0.4v-1.6c0-0.3,0.2-0.4,0.5-0.4h2V96.8h-2c-0.3,0-0.5-0.1-0.5-0.4v-1.6c0-0.3,0.2-0.4,0.5-0.4h4.4
			c0.3,0,0.5,0.1,0.5,0.4l-0.1,2.5h0.1c1.3-2.2,3.3-3.2,6-3.2c2,0,3.5,0.6,4.7,1.8s1.7,2.7,1.7,4.7v9.6h2.1c0.3,0,0.5,0.1,0.5,0.4
			v1.6C367.2,112.4,367,112.6,366.7,112.6z"/>
		<path class="st0" d="M388.6,112.6h-3.2c-0.6,0-1-0.1-1.2-0.4c-0.3-0.2-0.4-0.6-0.4-1.2v-2.1h0c-0.4,1-1.1,2-2.2,2.7
			c-1.1,0.8-2.4,1.2-4,1.2c-2.5,0-4.5-0.9-6.1-2.6c-1.5-1.7-2.3-4-2.3-6.8s0.8-5.1,2.3-6.8c1.5-1.7,3.6-2.6,6.1-2.6
			c1.5,0,2.8,0.4,3.8,1.1s1.8,1.6,2.2,2.6h0c0-0.5,0-0.9,0-1.2v-8.1h-2.1c-0.3,0-0.5-0.1-0.5-0.4v-1.6c0-0.3,0.2-0.4,0.5-0.4h4.6
			c0.3,0,0.5,0.1,0.5,0.4v23.8h2.1c0.3,0,0.5,0.1,0.5,0.4v1.6C389,112.4,388.9,112.6,388.6,112.6z M372.1,103.3c0,2.1,0.5,3.7,1.6,5
			c1.1,1.3,2.5,1.9,4.1,1.9c1.7,0,3-0.6,4.1-1.9s1.6-2.9,1.6-5s-0.5-3.7-1.6-4.9c-1.1-1.2-2.5-1.8-4.1-1.8c-1.6,0-3,0.6-4.1,1.8
			C372.7,99.6,372.1,101.3,372.1,103.3z"/>
		<path class="st0" d="M410.2,112.6h-3.2c-1.1,0-1.6-0.5-1.6-1.6v-1.9h-0.1c-1.8,2.5-4.2,3.8-7.3,3.8c-1.8,0-3.2-0.5-4.4-1.4
			c-1.1-0.9-1.7-2.2-1.7-3.8c0-2,0.9-3.5,2.7-4.5c1.8-1,4.2-1.4,7.3-1.4h3.1v-0.4c0-3.1-1.6-4.7-4.8-4.7c-1.5,0-2.6,0.1-3.3,0.4
			c-0.7,0.3-1.2,0.5-1.4,0.7c-0.3,0.2-0.5,0.3-0.7,0.4c-0.4,0.3-0.7,0.3-0.8,0.1l-1-1.3c-0.2-0.2-0.2-0.4,0.1-0.6
			c0.4-0.6,1.3-1.1,2.6-1.6s2.9-0.8,4.7-0.8c5.2,0,7.8,2.5,7.8,7.4v8.6h2.1c0.3,0,0.5,0.1,0.5,0.4v1.6
			C410.6,112.4,410.5,112.6,410.2,112.6z M405,104H402c-1.4,0-2.6,0.1-3.6,0.2c-0.9,0.1-1.8,0.5-2.4,1c-0.7,0.5-1,1.2-1,2.1
			c0,0.9,0.3,1.6,1.1,2.1s1.6,0.8,2.8,0.8c2.4,0,4.4-1.1,6.1-3.2V104z"/>
		<path class="st0" d="M424.8,110.7c0.1,0.1,0.2,0.2,0.2,0.3s-0.1,0.2-0.2,0.4c-1.1,1-2.5,1.4-4.1,1.4s-3-0.5-4.1-1.6
			c-1.1-1.1-1.6-2.6-1.6-4.7v-9.8h-2.1c-0.3,0-0.5-0.2-0.5-0.5v-1.5c0-0.3,0.2-0.5,0.5-0.5h2.1v-3.8c0-0.4,0.2-0.5,0.5-0.5h2.1
			c0.3,0,0.5,0.2,0.5,0.5v3.8h4.7c0.3,0,0.5,0.2,0.5,0.5v1.5c0,0.3-0.2,0.5-0.5,0.5h-4.7v9.7c0,1.2,0.3,2.2,0.8,2.8s1.3,0.9,2.2,0.9
			c0.9,0,1.6-0.2,2.1-0.7c0.2-0.2,0.5-0.2,0.7,0L424.8,110.7z"/>
		<path class="st0" d="M434.6,112.6h-7.1c-0.3,0-0.5-0.1-0.5-0.4v-1.6c0-0.3,0.2-0.4,0.5-0.4h2V96.7h-2c-0.3,0-0.5-0.1-0.5-0.4v-1.6
			c0-0.3,0.2-0.4,0.5-0.4h4.7c0.3,0,0.5,0.1,0.5,0.4v15.4h2c0.3,0,0.5,0.1,0.5,0.4v1.6C435.1,112.4,435,112.6,434.6,112.6z
			 M432.5,88.7c0.4,0.4,0.6,0.9,0.6,1.5s-0.2,1.1-0.6,1.4c-0.4,0.4-0.9,0.6-1.5,0.6c-0.6,0-1.1-0.2-1.5-0.6
			c-0.4-0.4-0.6-0.9-0.6-1.4c0-0.6,0.2-1.1,0.6-1.5c0.4-0.4,0.9-0.6,1.5-0.6C431.6,88.1,432.1,88.3,432.5,88.7z"/>
		<path class="st0" d="M453.5,110.2c-1.7,1.7-4,2.6-6.7,2.6s-4.9-0.9-6.7-2.6s-2.6-4-2.6-6.9s0.9-5.1,2.7-6.8c1.8-1.7,4-2.5,6.7-2.5
			s4.9,0.9,6.6,2.6s2.6,4,2.6,6.8C456.1,106.2,455.2,108.5,453.5,110.2z M440.6,103.4c0,2,0.6,3.7,1.8,5s2.7,1.9,4.4,1.9
			s3.2-0.6,4.4-1.9c1.2-1.3,1.8-2.9,1.8-5c0-2-0.6-3.7-1.8-4.9s-2.7-1.9-4.3-1.9s-3.1,0.6-4.4,1.9
			C441.2,99.7,440.6,101.3,440.6,103.4z"/>
		<path class="st0" d="M478.6,112.6h-3.5c-1.1,0-1.6-0.5-1.6-1.6v-9.8c0-1.4-0.3-2.6-1-3.4c-0.7-0.8-1.7-1.2-3-1.2
			c-1.9,0-3.4,0.8-4.5,2.4c-0.1,0.1-0.3,0.4-0.5,0.8v10.2h2c0.3,0,0.5,0.1,0.5,0.4v1.6c0,0.3-0.2,0.4-0.5,0.4h-7.1
			c-0.3,0-0.5-0.1-0.5-0.4v-1.6c0-0.3,0.2-0.4,0.5-0.4h2V96.8h-2c-0.3,0-0.5-0.1-0.5-0.4v-1.6c0-0.3,0.2-0.4,0.5-0.4h4.4
			c0.3,0,0.5,0.1,0.5,0.4l-0.1,2.5h0.1c1.3-2.2,3.3-3.2,6-3.2c2,0,3.5,0.6,4.7,1.8s1.7,2.7,1.7,4.7v9.6h2.1c0.3,0,0.5,0.1,0.5,0.4
			v1.6C479.1,112.4,479,112.6,478.6,112.6z"/>
	</g>
	<g>
		<g>
			<path class="st1" d="M99.8,110c0,1.1-0.9,2-2,2H71.4c-1.1,0-2-0.9-2-2V83.6c0-1.1,0.9-2,2-2h26.4c1.1,0,2,0.9,2,2V110z"/>
		</g>
		<g>
			<path class="st1" d="M99.8,70.3c0,1.1-0.9,2-2,2H71.4c-1.1,0-2-0.9-2-2V43.9c0-1.1,0.9-2,2-2h26.4c1.1,0,2,0.9,2,2V70.3z"/>
		</g>
		<g>
			<path class="st1" d="M59.7,110c0,1.1-0.9,2-2,2H31.3c-1.1,0-2-0.9-2-2V83.6c0-1.1,0.9-2,2-2h26.4c1.1,0,2,0.9,2,2V110z"/>
		</g>
		<g>
			<path class="st1" d="M59.7,70.3c0,1.1-0.9,2-2,2H31.3c-1.1,0-2-0.9-2-2V43.9c0-1.1,0.9-2,2-2h26.4c1.1,0,2,0.9,2,2V70.3z"/>
		</g>
	</g>
</g>
</svg>
