<?xml version="1.0" encoding="utf-8"?>
<!-- Generator: Adobe Illustrator 23.0.0, SVG Export Plug-In . SVG Version: 6.00 Build 0)  -->
<svg version="1.1" id="Layer_1" xmlns="http://www.w3.org/2000/svg" xmlns:xlink="http://www.w3.org/1999/xlink" x="0px" y="0px"
	 viewBox="0 0 615 239" style="enable-background:new 0 0 615 239;" xml:space="preserve">
<style type="text/css">
	.st0{fill:#FFFFFF;}
	.st1{fill:#E5E5E4;}
	.st2{fill:url(#SVGID_1_);}
	.st3{fill:url(#SVGID_2_);stroke:#F2F2F2;stroke-width:2.6144;stroke-miterlimit:10;}
	.st4{fill:url(#SVGID_3_);stroke:url(#SVGID_4_);stroke-width:2.5497;stroke-miterlimit:10;}
	.st5{fill:none;stroke:url(#SVGID_5_);stroke-width:2.5497;stroke-miterlimit:10;}
	.st6{fill:#333333;}
	.st7{fill:#676767;}
	.st8{fill:url(#SVGID_6_);}
	.st9{fill:url(#SVGID_7_);}
	.st10{fill:url(#SVGID_8_);}
</style>
<g>
	<path class="st0" d="M216.8,147.1c-1.7-4.9-4.3-11.4-7.7-19.4l-9.1-21.5h-41.8l-8.8,21.4c-3.8,9.2-6.3,15.5-7.4,19.5h-9.8
		c3.5-6.6,7.2-14.9,10.8-23.4l35.3-83.9h2.5l35.5,83.9c3.7,8.4,7.7,17.1,11.1,23.4L216.8,147.1L216.8,147.1z M179.1,55.3L161,99.7
		h36.3L179.1,55.3z"/>
	<path class="st0" d="M249.3,147.1h-8.8c0.3-4.3,0.5-14.1,0.5-22.3V68.9c0-9.2-0.1-21.2-0.5-29.5h2c3.7,5.1,6,7.8,11.2,14.1
		l61.5,76.2V69.4c0-8.8-0.1-21.1-0.5-27.5h8.8c-0.3,6.8-0.5,19.1-0.5,27.5v57.9c0,6.4,0,12.8,0.5,21.7h-2
		c-3.5-4.9-5.5-7.4-10.5-13.4L249,58.5l-0.3,66.5C248.7,133,249,142.9,249.3,147.1z"/>
	<path class="st0" d="M400,141.8c11.8,0,21.8-2.6,28.9-8.6v9.8c-9.1,3.4-18.3,5.8-29.3,5.8c-31.3,0-56.1-24.4-56.1-54.4
		c0-30,24.7-54.4,56.1-54.4c12.1,0,20.3,2.9,28.3,5.4v10c-7.5-6-17-8.1-27.8-8.1c-26.7,0-48.2,21.1-48.2,47.2S373.3,141.8,400,141.8
		z"/>
	<path class="st0" d="M453.8,48.5v38.4h13.5c10.5,0,18.6-0.1,23.3-0.5v7.7c-4.8-0.3-12.9-0.5-23.3-0.5h-13.5v46.7h14.4
		c10.6,0,21.2-0.1,25.8-0.5v7.7c-4.6-0.3-15.2-0.5-25.8-0.5H445c0.3-8.4,0.6-20.6,0.6-27.5V69.3c0-10.6-0.3-22.7-0.6-27.3h22
		c10.6,0,21-0.2,25.8-0.5v7.7c-4.8-0.5-15.2-0.6-25.8-0.6L453.8,48.5L453.8,48.5z"/>
	<path class="st0" d="M520,120.9c0,10.4,0,21.5,0.5,26.3h-9.1c0.3-4.8,0.6-15.8,0.6-26.3V69.4c0-10.4-0.3-22.9-0.6-27.5h17.7
		c22.4,0,34.6,12.6,34.6,29.8c0,16.3-10.1,25-20.7,28.3c10.9,14,24.7,35.9,36.3,47.2h-11.5c-9.4-12.4-21.8-29.3-32-45.6
		c-2,0.3-3.8,0.5-5.8,0.5H520L520,120.9L520,120.9z M520,95.7h10.6c14.1,0,24.7-9.4,24.7-23.8c0-12.3-8.6-23.5-26.6-23.5H520
		L520,95.7L520,95.7z"/>
	<g>
		<path class="st1" d="M54.4,189.4c0,3.5,0.1,7.6,0.2,9.2H50c0.1-1.6,0.2-5.7,0.2-9.2v-16.8c0-3.5-0.1-7.6-0.2-9.2h4.6
			c-0.1,1.5-0.2,5.7-0.2,9.2V189.4z"/>
		<path class="st1" d="M106.8,190.3c0.4,3.6,0.7,5.8,1.2,8.2h-4.9c0-1.6-0.1-3.5-0.5-7l-1.7-18.7L89.4,199h-1l-11.3-26.1l-2.2,18.3
			c-0.4,3-0.6,5.4-0.7,7.4h-4.5c0.4-1.6,0.9-5.5,1.4-9.3l3.7-26.5h1.1L89.2,192l13.4-29.2h1.2L106.8,190.3z"/>
		<path class="st1" d="M145.8,198.5c-0.5-1.5-1.3-3.5-2.3-5.8l-2.6-6.1h-13.4l-2.5,6c-1.1,2.7-1.8,4.5-2.2,5.9h-4.7
			c1.2-2.2,2.5-4.9,3.7-7.8l12.1-28h1.2l12.2,28c1.3,2.9,2.7,5.7,3.8,7.8H145.8z M134.2,170.3l-5.3,12.9h10.6L134.2,170.3z"/>
		<path class="st1" d="M185,197.4c-3.1,1-5.3,1.7-9.6,1.7c-11.1,0-18.9-8.1-18.9-18.2c0-10,7.7-18.2,18.7-18.2c3.7,0,6.2,0.7,9,1.7
			v4.8c-2.5-2.1-5.4-2.8-8.9-2.8c-8.5,0-14.6,6.4-14.6,14.5c0,8.1,6.2,14.5,14.6,14.5c2.3,0,4.4-0.3,5.6-1v-5.8
			c0-3.6-0.1-4.9-0.2-6.4h4.4c-0.1,1.5-0.2,3-0.2,6.4L185,197.4L185,197.4z"/>
		<path class="st1" d="M201.5,189.4c0,3.5,0.1,7.6,0.2,9.2h-4.6c0.1-1.6,0.2-5.7,0.2-9.2v-16.8c0-3.5-0.1-7.6-0.2-9.2h4.6
			c-0.1,1.5-0.2,5.7-0.2,9.2V189.4z"/>
		<path class="st1" d="M223.1,198.5h-4.4c0.1-1.4,0.2-4.7,0.2-7.4v-18.5c0-3.1-0.1-7.1-0.2-9.9h1c1.5,1.9,2.5,2.9,4.2,4.9l19,22.5
			v-17.5c0-2.9-0.1-7-0.1-9.2h4.3c-0.1,2.2-0.1,6.4-0.1,9.2v19.1c0,2.1,0,4.5,0.1,7.4h-0.9c-1.3-1.6-2.1-2.7-3.8-4.6L223,171.6
			l-0.1,19.5C222.9,193.8,223,197.1,223.1,198.5z"/>
		<path class="st1" d="M290.7,197.4c-3.1,1-5.3,1.7-9.6,1.7c-11.1,0-18.9-8.1-18.9-18.2c0-10,7.7-18.2,18.7-18.2
			c3.7,0,6.2,0.7,9,1.7v4.8c-2.5-2.1-5.4-2.8-8.9-2.8c-8.5,0-14.6,6.4-14.6,14.5c0,8.1,6.2,14.5,14.6,14.5c2.3,0,4.4-0.3,5.6-1v-5.8
			c0-3.6-0.1-4.9-0.2-6.4h4.4c-0.1,1.5-0.2,3-0.2,6.4L290.7,197.4L290.7,197.4z"/>
		<path class="st1" d="M350.5,198.5c-0.5-1.5-1.3-3.5-2.3-5.8l-2.6-6.1h-13.4l-2.5,6c-1.1,2.7-1.8,4.5-2.2,5.9h-4.7
			c1.2-2.2,2.5-4.9,3.7-7.8l12.1-28h1.2l12.2,28c1.3,2.9,2.7,5.7,3.8,7.8H350.5z M338.9,170.3l-5.3,12.9h10.5L338.9,170.3z"/>
		<path class="st1" d="M372,189.7c0,3.5,0,7.3,0.2,8.9h-4.6c0.1-1.6,0.2-5.4,0.2-8.9v-17.1c0-3.5,0-7.6-0.2-9.2h7.3
			c7.8,0,12,4.3,12,10.2c0,5.5-3.4,8.4-6.9,9.5c3.7,4.6,8.1,11.5,12.1,15.4h-5.7c-2.9-3.7-7.1-9.5-10.1-14.6
			c-0.6,0.1-1.1,0.1-1.7,0.1H372L372,189.7L372,189.7z M372,180.9h3.3c4.3,0,7.4-2.9,7.4-7.1c0-3.6-2.6-7-7.9-7H372L372,180.9
			L372,180.9z"/>
		<path class="st1" d="M420.9,195.5c3.7,0,7-0.9,9.3-2.9v4.8c-3,0.9-5.7,1.7-9.6,1.7c-10.7,0-18.8-8.1-18.8-18.1
			c0-10,8.1-18.2,18.8-18.2c4.2,0,6.6,1,9.2,1.6v4.9c-2.4-2-5.5-2.8-9-2.8c-8.2,0-14.8,6.4-14.8,14.4
			C406.1,189,412.7,195.5,420.9,195.5z"/>
		<path class="st1" d="M448.7,177.9h19.2v-5.3c0-2.9,0-7-0.2-9.2h4.5c-0.1,2.2-0.2,6.4-0.2,9.2v18.5c0,2.7,0.1,5.9,0.2,7.4h-4.5
			c0.1-1.4,0.2-4.7,0.2-7.4v-9.7h-19.2v9.8c0,2.7,0.1,5.9,0.2,7.4h-4.5c0.1-1.4,0.2-4.7,0.2-7.4v-18.5c0-3.6,0-7.8-0.2-9.2h4.5
			c-0.1,1.4-0.2,5.5-0.2,9.2V177.9z"/>
		<path class="st1" d="M493.7,189.4c0,3.5,0.1,7.6,0.2,9.2h-4.6c0.1-1.6,0.2-5.7,0.2-9.2v-16.8c0-3.5-0.1-7.6-0.2-9.2h4.6
			c-0.1,1.5-0.2,5.7-0.2,9.2V189.4z"/>
		<path class="st1" d="M526.8,191.6l9-22c0.9-2.2,1.8-4.5,2.3-6.1h4.7c-1.1,2.1-2.5,5-3.6,7.7l-12.1,28.4h-0.8L514,171.2
			c-1.2-2.8-2.5-5.7-3.7-7.7h5c0.5,1.6,1.3,3.8,2.2,6.1L526.8,191.6z"/>
		<path class="st1" d="M560.1,166.9V178h4c3.5,0,6.4-0.1,8-0.1v3.8c-1.6-0.1-4.5-0.1-8-0.1h-4v13.5h4.5c3.5,0,7.1,0,8.7-0.1v3.8
			c-1.5-0.1-5.1-0.1-8.7-0.1h-8.9c0.1-2.8,0.2-6.9,0.2-9.2v-16.8c0-3.5-0.1-7.6-0.2-9.1h8.5c3.5,0,7.1-0.1,8.7-0.2v3.8
			c-1.6-0.1-5.1-0.2-8.7-0.2L560.1,166.9L560.1,166.9z"/>
	</g>
	<g>
		<g>
			
				<linearGradient id="SVGID_1_" gradientUnits="userSpaceOnUse" x1="91.6145" y1="161.8824" x2="106.1491" y2="136.7079" gradientTransform="matrix(1 0 0 -1 0 250)">
				<stop  offset="0" style="stop-color:#F2F2F2"/>
				<stop  offset="0.1415" style="stop-color:#E6E6E6"/>
				<stop  offset="0.3964" style="stop-color:#C7C7C7"/>
				<stop  offset="0.7327" style="stop-color:#949494"/>
				<stop  offset="1" style="stop-color:#676767"/>
			</linearGradient>
			<path class="st2" d="M122.6,95.1c0,14.1-12.1,25.5-27,25.5c-14.9,0-27-11.4-27-25.5s12.1-25.5,27-25.5S122.6,81,122.6,95.1z"/>
			
				<linearGradient id="SVGID_2_" gradientUnits="userSpaceOnUse" x1="87.4766" y1="148.5343" x2="104.212" y2="170.8482" gradientTransform="matrix(1 0 0 -1 0 250)">
				<stop  offset="0" style="stop-color:#FFFFFF"/>
				<stop  offset="0.2145" style="stop-color:#C8C8C8"/>
				<stop  offset="0.4744" style="stop-color:#808080"/>
			</linearGradient>
			<path class="st3" d="M116.9,95.3c0,13.7-11.1,24.8-24.8,24.8c-13.7,0-24.8-11.1-24.8-24.8s11.1-24.8,24.8-24.8
				C105.8,70.5,116.9,81.6,116.9,95.3z"/>
			
				<linearGradient id="SVGID_3_" gradientUnits="userSpaceOnUse" x1="94.6" y1="166.05" x2="94.6" y2="143.37" gradientTransform="matrix(1 0 0 -1 0 250)">
				<stop  offset="0.2162" style="stop-color:#73D0FF"/>
				<stop  offset="0.4191" style="stop-color:#5DA4C8"/>
				<stop  offset="0.8831" style="stop-color:#28363E"/>
				<stop  offset="1" style="stop-color:#1A1A1A"/>
			</linearGradient>
			
				<linearGradient id="SVGID_4_" gradientUnits="userSpaceOnUse" x1="94.6" y1="167.3249" x2="94.6" y2="142.0952" gradientTransform="matrix(1 0 0 -1 0 250)">
				<stop  offset="0" style="stop-color:#4D4E4E"/>
				<stop  offset="0.184" style="stop-color:#4E5051"/>
				<stop  offset="0.3356" style="stop-color:#50585B"/>
				<stop  offset="0.4757" style="stop-color:#54656D"/>
				<stop  offset="0.6088" style="stop-color:#597685"/>
				<stop  offset="0.737" style="stop-color:#5F8DA4"/>
				<stop  offset="0.8616" style="stop-color:#68AACB"/>
				<stop  offset="0.981" style="stop-color:#71CAF7"/>
				<stop  offset="1" style="stop-color:#73D0FF"/>
			</linearGradient>
			<path class="st4" d="M105.9,95.3c0,6.3-5.1,11.3-11.3,11.3s-11.3-5.1-11.3-11.3s5.1-11.3,11.3-11.3S105.9,89,105.9,95.3z"/>
		</g>
		
			<linearGradient id="SVGID_5_" gradientUnits="userSpaceOnUse" x1="94.6" y1="167.3249" x2="94.6" y2="142.0952" gradientTransform="matrix(1 0 0 -1 0 250)">
			<stop  offset="0" style="stop-color:#4D4E4E"/>
			<stop  offset="0.184" style="stop-color:#4E5051"/>
			<stop  offset="0.3356" style="stop-color:#50585B"/>
			<stop  offset="0.4757" style="stop-color:#54656D"/>
			<stop  offset="0.6088" style="stop-color:#597685"/>
			<stop  offset="0.737" style="stop-color:#5F8DA4"/>
			<stop  offset="0.8616" style="stop-color:#68AACB"/>
			<stop  offset="0.981" style="stop-color:#71CAF7"/>
			<stop  offset="1" style="stop-color:#73D0FF"/>
		</linearGradient>
		<path class="st5" d="M105.9,95.3c0,6.3-5.1,11.3-11.3,11.3s-11.3-5.1-11.3-11.3s5.1-11.3,11.3-11.3S105.9,89,105.9,95.3z"/>
		<path class="st6" d="M91,118.5c0,0.7-0.6,1.2-1.3,1.2l-22.9-0.5c-0.7,0-1.2-0.6-1.2-1.3l0.1-2.5c0-0.7,0.6-1.2,1.3-1.2l22.9,0.5
			c0.7,0,1.2,0.6,1.2,1.3L91,118.5z"/>
		<path class="st7" d="M96.6,109.1c0,0.7,0,1.2-0.2,1.2l-6.3,9.1c-0.2,0-0.6-0.6-0.6-1.2v-2.5c0-0.7,0.5-1.2,0.7-1.2l6.1-9.1
			c0.2,0,0.3,0.6,0.3,1.2V109.1z"/>
		
			<linearGradient id="SVGID_6_" gradientUnits="userSpaceOnUse" x1="81.365" y1="137.37" x2="81.365" y2="149.8364" gradientTransform="matrix(1 0 0 -1 0 250)">
			<stop  offset="0.2162" style="stop-color:#F2F2F2"/>
			<stop  offset="0.5283" style="stop-color:#BCBBBC"/>
			<stop  offset="0.578" style="stop-color:#B3B2B3"/>
			<stop  offset="1" style="stop-color:#73D0FF"/>
		</linearGradient>
		<path class="st8" d="M95.4,112.2c0,0.3-0.6,0.4-1.2,0.4L60.3,112c-0.7,0-1.2-0.2-1.2-0.4l26-11.4c0.3-0.1,0.6,0,1.2,0h16.1
			c0.7,0,0.8,0,1.2,0L95.4,112.2z"/>
		
			<linearGradient id="SVGID_7_" gradientUnits="userSpaceOnUse" x1="67.4016" y1="126.4841" x2="87.2106" y2="146.2931" gradientTransform="matrix(1 0 0 -1 0 250)">
			<stop  offset="0" style="stop-color:#4D4E4E"/>
			<stop  offset="0.1695" style="stop-color:#575858"/>
			<stop  offset="0.4546" style="stop-color:#717172"/>
			<stop  offset="0.8181" style="stop-color:#9B9B9B"/>
			<stop  offset="1" style="stop-color:#B3B2B3"/>
		</linearGradient>
		<path class="st9" d="M95.4,115.5c0,0.2,0,0.4-0.2,0.4l-35.8-0.6c-0.2,0-0.4-0.2-0.4-0.4v-3.1c0-0.2,0.2-0.4,0.4-0.4l36,0.6
			c0.2,0,0.4,0.2,0.4,0.4L95.4,115.5z"/>
		
			<linearGradient id="SVGID_8_" gradientUnits="userSpaceOnUse" x1="95.6561" y1="-2286.2947" x2="100.6501" y2="-2281.3008" gradientTransform="matrix(1 -1.6825 0 -1 5.000000e-04 -2009.7408)">
			<stop  offset="0.1736" style="stop-color:#CBCBCA"/>
			<stop  offset="1" style="stop-color:#4D4E4E"/>
		</linearGradient>
		<path class="st10" d="M103.6,101.1l-8.3,14.8c0,0.1-0.7,0.2-0.7-0.1V112c0.7-0.1,0.6-0.5,0.6-0.6l8.4-11.2"/>
	</g>
	<g>
		<g>
			<path class="st0" d="M80.7,48.7c3.8-0.9,7.6-1.4,11.8-1.4c10.8,0,19.8,2.2,27.6,8.1v-10c-7.8-2.5-16-5.4-28.1-5.4
				c-5.5,0-10.7,0.8-15.6,2.2L80.7,48.7z"/>
			<path class="st0" d="M92.3,141.8c-26.7,0-48.1-21.2-48.1-47.3c0-10.1,3.3-19.3,8.7-27l-4.6-7.1c-7.7,9.3-12.3,21.2-12.3,34.1
				c0,30,24.4,54.4,55.7,54.4c11.1,0,20.5-2.5,29-5.8v-9.8C114.4,139.2,104.1,141.8,92.3,141.8z"/>
		</g>
		<g>
			<path class="st0" d="M56.3,53.4c0.8-0.5,1.6-1,1.9-1.3l0.5,0.8c-0.4,0.2-1.2,0.7-1.9,1.2l-0.8,0.5c0.3,0.4,0.6,1,0.9,1.4l2.2,3.4
				c0.5,0.8,1.1,1.6,1.3,1.9l-1,0.6c-0.2-0.4-0.8-1.2-1.3-2l-2.2-3.4c-0.3-0.4-0.7-1-1-1.4l-0.8,0.5c-0.8,0.5-1.5,1-1.9,1.3L52,56.3
				c0.4-0.2,1.2-0.7,1.9-1.2L56.3,53.4z"/>
			<path class="st0" d="M62.1,54.1l4.1-2.7l-0.8-1.2c-0.4-0.6-1-1.5-1.3-2l1-0.6c0.3,0.5,0.9,1.4,1.2,2l2.6,4
				c0.4,0.6,0.9,1.3,1.1,1.6l-1,0.6c-0.2-0.3-0.6-1-1-1.6l-1.4-2.1l-4.1,2.7L64,57c0.4,0.6,0.9,1.3,1.1,1.6l-1,0.6
				c-0.2-0.3-0.6-1-1-1.6l-2.6-4c-0.5-0.8-1.1-1.7-1.3-2l1-0.6c0.2,0.3,0.7,1.2,1.2,2L62.1,54.1z"/>
			<path class="st0" d="M68.4,46.6l1.6,2.4l0.9-0.6c0.8-0.5,1.4-0.9,1.7-1.2l0.5,0.8c-0.4,0.2-1,0.6-1.8,1.1l-0.9,0.6l1.9,2.9l1-0.6
				c0.8-0.5,1.5-1,1.9-1.3l0.5,0.8c-0.4,0.2-1.1,0.7-1.9,1.2l-1.9,1.2c-0.4-0.6-0.9-1.5-1.2-2l-2.4-3.6c-0.5-0.8-1.1-1.6-1.3-1.9
				l1.8-1.2c0.8-0.5,1.5-1,1.8-1.3l0.5,0.8c-0.4,0.2-1.1,0.7-1.9,1.2L68.4,46.6z"/>
		</g>
	</g>
</g>
</svg>
