<?xml version="1.0" encoding="utf-8"?>
<!-- Generator: Adobe Illustrator 23.0.0, SVG Export Plug-In . SVG Version: 6.00 Build 0)  -->
<svg version="1.1" id="Layer_1" xmlns="http://www.w3.org/2000/svg" xmlns:xlink="http://www.w3.org/1999/xlink" x="0px" y="0px"
	 viewBox="0 0 496 185.2" style="enable-background:new 0 0 496 185.2;" xml:space="preserve">
<style type="text/css">
	.st0{fill:#FFFFFF;}
	.st1{fill:#D0D2D3;}
	.st2{fill:#231F20;}
	.st3{fill:none;stroke:#231F20;stroke-width:0.156;}
	.st4{clip-path:url(#SVGID_2_);fill:none;stroke:#231F20;stroke-width:0.156;}
	.st5{clip-path:url(#SVGID_4_);fill:none;stroke:#231F20;stroke-width:0.764;}
	.st6{fill:#B91127;}
	.st7{fill:none;stroke:#FFFFFF;stroke-width:5.615000e-03;stroke-miterlimit:3.864;}
	.st8{fill:none;stroke:#FFFFFF;stroke-width:6.275000e-03;}
</style>
<g>
	<g>
		<path class="st0" d="M174.3,71.6c8.5,0,13.2,3.8,13.2,10.4c0,5.6-3.2,8.8-7.9,10.3l8.4,18.8h-4.8l-8-18H166v18h-4.4V71.6H174.3
			L174.3,71.6z M173.9,89.4c6,0,9.2-2.2,9.2-7.2c0-5.3-3.6-6.9-9.2-6.9H166v14.1H173.9L173.9,89.4z"/>
		<path class="st0" d="M212.6,71.6l12.1,39.5h-4.6l-3.7-12.4h-14.2l-3.7,12.4H194l12.1-39.5H212.6z M209.7,74.6h-0.6L203.4,95h12
			L209.7,74.6z"/>
		<path class="st0" d="M242.2,71.6c10.7,0,17.8,6.8,17.8,19.8c0,11.6-6.2,19.8-18.1,19.8h-10.4V71.6H242.2L242.2,71.6z M241.9,107.4
			c9.1,0,13.8-5.4,13.8-16c0-11.6-5.5-16-13.6-16H236v32.1L241.9,107.4L241.9,107.4z"/>
		<path class="st0" d="M269.5,111.1V71.6h4.4v39.5H269.5z"/>
		<path class="st0" d="M299.1,71c9.7,0,15.4,7.1,15.4,20.3s-5.8,20.3-15.4,20.3s-15.4-7.1-15.4-20.3S289.4,71,299.1,71z
			 M299.1,107.9c7,0,11.1-5.4,11.1-16.6s-4.1-16.6-11.1-16.6S288,80.1,288,91.3S292.1,107.9,299.1,107.9z"/>
		<path class="st0" d="M352.9,75l-11.1,36.1h-3.4l-11-36.1h-0.2v36.1h-3.9V71.6h6.8l10.1,32h0.1l9.9-32h6.9v39.5h-3.9V75H352.9z"/>
		<path class="st0" d="M369.8,111.1V71.6h4.4v39.5H369.8z"/>
		<path class="st0" d="M412.5,99.3c-1.8,7.3-5.8,12.4-13.9,12.4c-8.9,0-15.1-6.5-15.1-20.3c0-12.9,5.6-20.3,15.1-20.3
			c7.3,0,11.6,4.3,13.4,11.5l-4,1.2c-1.4-5.6-3.9-9-9.8-9c-5.7,0-10.2,5.3-10.2,16.6c0,11.4,4.5,16.6,11.1,16.6
			c6.1,0,8.4-4.6,9.6-9.4L412.5,99.3z"/>
		<path class="st0" d="M439.1,81.6c-1-3.8-4.1-6.9-9.2-6.9c-4.6,0-7.3,2.2-7.4,6.1c-0.1,8.6,22.2,6.5,22.2,19.2
			c0,5.8-3.2,11.6-13.3,11.6c-8.7,0-12-5.6-14.1-10.3l4-1.4c1.6,4.2,4.5,8,10.3,8s8.7-3.1,8.7-7.1c0-10.1-22.2-7.1-22.2-19.6
			c0-5.7,4.8-10.2,11.9-10.2c6.1,0,11,3.2,13,9.7L439.1,81.6z"/>
	</g>
	<g>
		<path class="st1" d="M86,34.6H37l-0.1,39.2c0,48,48.2,78.6,48.6,78.9l0.1,0.1c0.1,0,0.4-0.2,0.4-0.2c8.2-5.4,49-34.3,49-78.6V34.7
			C135.1,34.6,86,34.6,86,34.6L86,34.6z M37.9,63.6h97v5.7h-97L37.9,63.6"/>
		<path class="st0" d="M57.7,73.7c0,0.1-0.1,0.6-0.1,0.6c-0.1,0.4-0.3,0.6-0.7,0.6l-1.4-0.2c-0.6-0.1-1.1-0.3-1.5-0.1
			c-0.2,0.1-0.5,0.4-0.8,0.7c0.1,0.1,0.2,0.1,0.2,0.1c0.4,0.1,1,0.4,1.2,1.2c0,0.6,0.4,1.1,0.7,1.5l0.2,0.4c0.1,0.1,0.2,0.3,0.2,0.4
			s0,0.2-0.1,0.3L54.9,80l-0.4,0.4c0,0-0.3,0.8-0.5,1.2c0.1,0.3,0.3,0.5,0.5,0.6c0.6-0.1,1.1-0.1,1.6,0l0.9,0.1c-0.1,0,0.2,0,0.2,0
			h0.4c0.4-0.1,1-0.1,1.4,0.2l0.4,0.9c0.1,0.3,0.2,0.6,0.2,0.8c0,0.4-0.1,0.7-0.1,1l-0.1,0.5c0,0.1-0.1,0.3-0.1,0.4
			c-0.9,1.3-2.1,2.3-3.4,3C56,89,56,89,56,89s0,0.1,0,0.2v0.1c0.2,0.1,0.7,0.1,1.1,0h0.4c0.6,0,1.2-0.2,1.8-0.5l1.9-0.5
			c0.3-0.1,0.6,0.1,0.7,0.4c0.4,0.7,0.8,1.2,1.2,1.4c0,0,0,0,0.4-0.3s1-0.8,1.9-0.5c0.1,0,0.1,0.1,0.2,0.1c0.6,0.5,0.8,1.2,1,1.7
			c0.1,0.4,0.2,0.8,0.5,1c0.1,0.1,0.2,0.2,0.2,0.4c0,0.1,0,0.1,0,0.2c0,0.7-0.6,1-0.8,1.1l-0.1,0.1c-0.1,0-0.1,0.1-0.2,0.1l-1.6,0.3
			c-0.5,0-1,0.1-1.3,0.3c0.1,0.1,0.1,0.1,0.2,0.2c0.7,0.4,1.6,0.5,2.6,0.7l0.5,0.1h1.2l1.9,0.1c0.3,0,0.4,0.1,0.5,0.4s0,0.5-0.1,0.7
			l-0.3,0.5c-0.1,0.1-0.1,0.2-0.2,0.2l-3.2,2.1c-0.1,0.1-1.9,0.7-1.9,0.7l-2.4,1c0,0-0.1,0.1-0.2,0.1c-1.4,0.4-2.4-0.4-3.2-1.1
			c-0.6-0.4-1-0.8-1.6-0.8s-0.9,0.1-1.4,0.5c-0.1,0.1-0.2,0.4-0.2,0.6c0,0.1,0,0.2,0,0.2c0.1,0,0.1,0.1,0.1,0.1c0.3,0.1,1,0.4,1,1.2
			c0,1.1-0.5,2-0.9,2.8c-0.4,0.7-0.7,1.4-0.8,2.2c0,0.1,0,0.1,0,0.1c0,0.2,0,0.3,0.1,0.4c0.1,0,0.1,0.1,0.1,0.1c0.1,0,0.2,0,0.2-0.1
			l0.2-0.3c0.2-0.3,0.5-0.9,1.2-1c0.1,0,0.1,0,0.2,0c1.3,0.1,2,0,2.4-0.5c0.1-0.1,0.2-0.2,0.4-0.2c0.4-0.1,0.8,0.1,1.1,0.3
			s0.5,0.7,0.5,1c0,0,0,0.2,0,0.3c0.8-0.1,1.3-0.8,1.9-1.9l0.2-0.4c0.1-0.1,0.3-0.3,0.5-0.3l0.5-0.2c0.6-0.2,1.4-0.4,2.2,0.1
			c0.2,0.1,0.3,0.3,0.3,0.4c0,0.2,0.1,0.4,0.1,0.6c0,0.7-0.3,1.2-0.5,1.7c0,0-0.1,0.3-0.2,0.6c1.2-0.3,2.1-1.3,3-2.5l0.5-0.7
			c0.2-0.4,0.5-1.2,1.5-1.2c0.1,0,0.1,0,0.2,0c0.4,0.1,0.6,0,1.2-0.8l1-1.1c0.1-0.2,0.2-0.1,0.4-0.1h0.4c0.2,0,0.4,0,0.5,0.1
			s0.2,0.2,0.2,0.4v0.9c0,0,0,0,0,0.1c0.1-0.1,0.7-0.3,1-0.4l1.3-0.8c0.2-0.1,0.4-0.1,0.6-0.1l4.9,1.3c1,0.4,1.2,1.1,1.2,1.6
			c0,0.2,0,0.4-0.1,0.6c0,0.2,0,0.3,0,0.5c0,0.1,0,0.2,0.1,0.3c0.1,0.1,0.2,0.3,0.2,0.5c0,0.1,0,0.2-0.1,0.3c-0.2,0.5-0.7,1-2,1
			l-2.5,0.1c-2.1,0-4,0.1-5.4,1.4l-1.3,1.4c-0.1,0.1-0.3,0.2-0.5,0.2c-0.9,0-1.7,0.5-2.5,1c-0.7,0.5-1.5,1-2.5,1.1
			c-0.7,0.4-1.5,0.4-2.2,0.4c-0.6,0-0.9,0-1.2,0.1c0.6,0.8,1.8,1.1,2.9,1.4c0.1,0,0.6,0.1,0.6,0.1c0.5,0,1.3,0.1,1.7,0.8
			c0,0.1,0.1,0.2,0.1,0.3c0.1,0.6,0.2,0.9,0.4,1c0.1,0,0.1-0.1,0.1-0.1c0.2-0.1,0.9-0.5,1.6,0c0.1,0.1,1.2,1.2,1.2,1.2l1.3,1.3
			c0.2,0.2,0.2,0.5,0,0.7c-0.6,1.1-1.7,0.9-2.4,0.8l-0.6-0.1c-0.1-0.1-0.7,0-0.7,0c-1.1,0.2-2.5,0.4-3.5-0.8l0.1,0.1l-1-0.8
			c-0.8-0.7-1.5-1.3-2.5-1.3c-1,0.3-1.5,0.6-1.6,1.1l0,0l0.2,0.3l0.4,0.5c0.1,0.1,0.2,0.3,0.2,0.4s0,0.1,0,0.1
			c0,0.2-0.2,0.4-0.4,0.5c-0.8,0.6-1.8,1.4-1.8,2.4c0,0.1,0,0.2,0.1,0.4c0,0,0,0.1,0.1,0.1s0.3-0.1,0.3-0.1c0.4-0.1,0.9-0.4,1.6,0
			c0.2,0.1,0.4,0.3,0.4,0.5l0.1,0.8c0,0.8,0.1,1.2,0.4,1.4c0.2-0.1,0.4-0.2,0.4-0.2c0.6-0.3,1.4-0.7,2.4,0c0.2,0.1,0.4-0.1,1-0.4
			l0.9-0.4c0.1,0,0.1,0,0.2,0c1.7,0,2.4,1.5,2.9,2.5l0,0h0.1c0.8,0.6,1.4,1,2,0.9c0-0.1,0.1-0.1,0.1-0.2c0-0.2,0-0.4-0.1-0.6
			c0-0.2-0.1-0.5-0.1-0.8c0-0.6,0.2-1.3,1.1-1.7c0.1,0,1.7-0.2,1.7-0.2h1h0.2c1.5,0.1,2.7,0.2,3.2-0.9c0,0,1.1-1.9,1.2-2.1
			c0-0.2,0.2-1.2,0.2-1.2c0.1-0.2,0.2-0.5,0.5-0.6c0.6-0.2,1.1,0,1.5,0.2c0,0,0.2,0.1,0.4,0.1c-0.2-0.9-0.4-1.7-0.4-2.6
			c0-0.4,0-0.9,0.1-1.3c0.3-1.2,0.9-2.2,1.6-2.9c0.2-0.2,0.5-0.3,0.8-0.2l0.3,0.1c0.2,0.1,0.4,0.2,0.4,0.5l0.3,1.6
			c0.2,1.1,0.4,2,0.8,2.9c0.1,0.1,0.1,0.2,0.1,0.4l-0.6,2.4l-0.5,1.9c-0.4,1.8-1.6,3.2-3.3,4c0,0-0.1,0.1-0.1,0.2c0,0,0.4,0,0.6,0
			c0,0,0.4,0,0.7,0c1.8-0.2,3.5-1.1,4.8-2.5c0.2-0.2,0.5-0.3,0.7-0.2c0.4,0.1,0.6-0.1,1.1-0.3c0.6-0.3,1.4-0.8,2.5-0.2
			c0.4,0.3,1,0.3,1.6,0.2c1-0.1,2.6-0.2,3,1.7c0,0,0,0.2,0,0.3v0.9c0.1,0.9,0.3,2.6-1.5,3c-0.1,0-0.1,0.1-0.3,0l-1.8-0.7
			c-1.4-0.7-2.1-0.9-2.8-0.1c-0.2,0.2-0.4,0.4-0.3,0.6c0.2,0.4,0.9,1.5-0.1,2.3c0.1-0.1,0.1-0.1,0.1-0.2l-0.1,0.2
			c-0.5,0.8-0.8,1.4-0.6,1.9c0,0,0.1,0.1,0.7,0c0.8-0.3,1.5,0,2.1,0.2l0.9,0.3c0.1,0,0.3,0.1,0.4,0.1l0.3,0.2
			c0.6,0.5,1.2,0.9,1.8,0.9c0-0.1,0.1-0.1,0.1-0.1l0.4-0.8c0.1-0.1,1.2-0.6,1.2-0.6c0.7-0.3,0.8-0.4,0.8-0.6c0.2-1.2,1-2.2,2.2-3
			c0.1-0.1,0.3-0.1,0.4-0.1c0.3,0,1.1-0.3,1.6-0.6l-0.1-0.1l-0.3-0.3c-0.1-0.1-0.2-0.3-0.2-0.4c0-0.2-0.1-0.3-0.1-0.5
			c0-0.8,0.4-1.5,0.8-2.1s0.6-0.9,0.6-1.3c0-0.2-0.1-0.4-0.2-0.6c-0.1-0.1-0.1-0.1-0.1-0.2l-0.2-1.2c-0.1-0.8-0.2-1.4-0.7-1.8
			l-1.3-0.7l-1.4-0.7c-0.2-0.1-0.3-0.3-0.3-0.6c0-0.6,0.4-1,1.2-1.1h0.2c0.9-0.2,1.6,0,2.2,0.3c0.6,0.2,0.8,0.2,1,0.1
			c-0.1-0.5-0.6-1.1-1-1.5c-0.8-0.6-1.8-0.8-2.8-1.1c-1.6-0.4-3.2-0.8-4.3-2.3c-0.1-0.1-0.1-0.3-0.1-0.4c0-0.2,0.1-0.4,0.2-0.5
			l0.2-0.2c0.2-0.2,0.4-0.2,0.7-0.2c2,0.4,3.9,0,5.2-1.1c0.8-1,1.8-2.2,3.3-2.8c1.1-0.9,1.3-2.3,1.3-4.1c0.1-0.9,0.5-1.7,1.1-2.4
			l1.4-0.7c0.5-0.1,0.6-0.2,0.7-0.3c-0.8-0.4-1.7-0.8-2.7-0.7c-0.1,0-0.3,0-0.4-0.1c-0.4-0.2-0.6-0.6-0.6-0.8v-0.1
			c0-0.5,0.4-0.8,0.6-1.1l0.1-0.1c0-0.1,0.1-0.1,0.2-0.2l1.5-0.9c2-1.1,3.3-1.9,3.3-3.6c0,0,0,0,0-0.1s-0.1-0.1-0.1-0.2
			c-0.2,0.1-0.5,0.2-0.7,0.4l-1.1,0.7c-1,0.6-2.1,0.8-3.2,1s-2.1,0.4-3,1c-0.1,0.1-0.2,0.1-0.4,0.1c-0.4,0-0.7-0.2-0.9-0.6
			c-0.1-0.1-0.1-0.3-0.1-0.4c0-0.4,0.1-0.7,0.3-0.9c0.3-0.5,0.9-0.8,1.4-1.1c0.6-0.3,0.9-0.5,1.1-1l0.2-0.6c0.3-0.9,0.7-1.9,1.8-2.4
			c0.1-0.1,1-0.5,1-0.5c0.2-0.1,0.3-0.2,0.4-0.2c-0.1,0,0,0-0.1-0.1c-1.7-0.5-3.4,0.8-4.2,1.6c-0.1,0.1-0.1,0.1-0.2,0.1l-0.6,0.3
			c-1.1,0.5-2.3,0.9-3,1.8c-0.1,0.1-0.2,0.1-0.3,0.2c-0.3,0.1-0.7,0.1-1-0.2c-0.3-0.2-0.5-0.5-0.5-0.9c-0.3-2.7,1.9-4.6,3.6-6.1
			l0.4-0.4c0,0,0.2-0.1,0.3-0.2l1-0.5c0.8-0.5,1.8-1.2,3.1-0.6c1,0.5,1.8,0.9,2.6,0.6c0.5-0.2,0.9-0.7,1.3-1.3
			c0.4-0.5,0.9-1.2,1.6-1.6c0.8-0.3,1.4-0.1,1.8,0.1c0.2,0.1,0.6,0.2,0.7,0.1l0.1-0.2c0-0.1,0-0.1,0-0.2c0-0.5-0.3-0.9-0.9-1.6
			l-0.6-0.9c-0.1-0.1-0.1-0.2-0.1-0.4c0-0.1,0-0.2,0.1-0.3c0.2-0.5,0.3-1.1,0.3-1.6c0-1.3-0.5-2.5-1.5-3.4c-0.3-0.1-0.9-0.4-1.6-0.4
			c0.1,0.1,0.2,0.4,0.2,0.4l0.6,1.3c0,0.2,0,0.3,0,0.5c0,2.9-2.5,4.2-4.6,5.3l-1.8,1c-4.2,2.1-9.7,5.5-10,11
			c0.1,2.8,1.2,5.6,3.4,7.8l0.1,0.1l0.8,1.2c0.9,1.3,1.8,2.7,1.8,4.4c0,0.4,0,0.8-0.2,1.3c-0.7,1.7-2.6,1.7-3.3,1.7
			c-4.1-0.3-6.4-4.4-8-7.4l-0.2-0.5c0-0.1-0.3-0.7-0.3-0.7c-0.4-0.9-0.9-1.9-1-3.2c0-0.2,0.1-0.4,0.2-0.6c0.2-0.2,0.7-0.6,1.5-0.1
			c0.1,0.1,0.8,1.2,0.8,1.2c0.1,0.2,0.1,0.3,0.2,0.4c0.1-0.2,0.2-0.4,0.2-0.6c0-0.7-0.3-1.5-0.6-2.3L92,95.3
			c-0.2-0.4-0.7-0.8-1.1-1.2c-0.6-0.5-1.2-1.1-1.6-1.9c0-0.1-0.1-0.1-0.1-0.2v-0.1c0-1,0.9-1.2,1.2-1.3c0,0,0.1-0.1,0.2-0.1
			c-0.3-1-0.5-2.1-0.5-3.3c0-0.6,0-1.1,0.1-1.7l0,0c0-0.1,0-0.1,0-0.1s0,0,0.1-0.1l0.9-1c0.3-0.2,0.3-0.2,0.3-0.3
			c-0.3-1.2-0.4-2.4-0.4-3.6c0-0.5,0-1,0-1.4c0-0.1,0.3-1.2,0.3-1.2c0.2-0.5,0.3-0.9,0.3-1.2c0-0.1,0-0.2-0.1-0.3
			c-0.6-0.4-0.8-1.1-0.8-1.5l-0.1-0.4l0,0c0.1,0,0.1,0,0.2,0c-1.7,0-3.1-0.6-4.4-1.2L85,72.5c-0.4-0.1-0.7,0-1.2,0.3L83,73.1
			l-0.9,0.2c-0.9,0.1-1.7,0.3-2.1,0.8c-0.3,0.3-0.3,0.8-0.3,1.5v0.5c0,0.1,0,0.1,0,0.2c-0.1,0.4-0.4,0.6-0.6,0.7
			c-0.5,0.2-0.9-0.1-1.1-0.2l-0.1-0.1c-1.3-0.7-1.8-2-1.4-3.3c0.1-0.2-0.1-0.4-0.2-0.5c-0.3-0.2-0.9-0.4-1.4-0.2
			c-0.4,0.1-0.6,0.6-0.9,1.2c0,0-0.1,0.2-0.2,0.4c0,0.1,0,0.1,0,0.2c0,0.5,0.1,0.9,0.3,1.2c0.6,0.6,1.4,1,2.3,1.5l2.1,1.3
			c0.1,0.1,0.2,0.2,0.2,0.3c0.1,0.2,0.1,0.4,0.1,0.6c0,0.8-0.4,1.4-0.8,1.9h0.1c0.2,0.2,0.7,0.5,0.7,1.1c0,0.1,0,0.2,0,0.3
			c-0.1,0.3-0.3,0.5-0.5,0.6c-1.3,0.3-2.5,0.1-3.5-0.7l-0.6-0.8c-0.2-0.4-0.3-0.5-0.4-0.5c-0.1,0.1-0.2,0.4-0.3,0.6l-0.3,0.6
			c0-0.1-0.1,0.5-0.1,0.5c-0.1,0.5-0.1,1.2-0.7,1.6c-0.1,0.1-0.4,0.2-0.6,0.2l-0.6-0.1c-2.6-0.9-5.1-2.2-7.7-4.2
			c-1.1-0.9-2-2.1-2.9-3.2L60,76.4c-0.1-0.1-0.1-0.1-0.1-0.2l-0.2-0.8c-0.4-1.6-0.8-2.7-2-3C57.9,73.6,57.8,73.6,57.7,73.7
			L57.7,73.7z M59.4,83.1L59.4,83.1L59.4,83.1L59.4,83.1L59.4,83.1z M54.2,82.1c0.1,0,0.2,0,0.3-0.1C54.4,82,54.3,82.1,54.2,82.1
			L54.2,82.1z M78.1,83c0.1-0.1,0.2-0.1,0.2-0.2l0,0C78.2,82.8,78.1,82.9,78.1,83L78.1,83z M90.9,91.8C90.9,91.8,91,91.8,90.9,91.8
			C91,91.9,91,91.8,90.9,91.8L90.9,91.8L90.9,91.8z M75.2,102.8L75.2,102.8C75.2,102.8,75.1,102.8,75.2,102.8L75.2,102.8L75.2,102.8
			z M75.2,102.9C75.2,102.8,75.2,102.8,75.2,102.9L75.2,102.9C75.2,102.9,75.2,102.9,75.2,102.9L75.2,102.9z M61.1,107.1
			C61.2,107.1,61.2,107.1,61.1,107.1C61.2,107.1,61.2,107.1,61.1,107.1L61.1,107.1z M84.7,121.1c0,0.1,0,0.1,0.1,0.2
			C84.7,121.3,84.7,121.2,84.7,121.1L84.7,121.1L84.7,121.1z M85.5,128.1c0.1,0,0.2,0,0.2,0S85.6,128.1,85.5,128.1"/>
		<path class="st0" d="M123.3,38c-1.6,0-3.1,0-4.1,0.8l-0.3,0.2l-1-0.4c-0.7-0.3-1.4-0.5-2-0.5c0,0-7.2-0.2-8.7-0.2
			c0,0.6-0.1,3.1-0.1,3.1l-0.3,0.8l-0.3,0.1l-1.1,0.2c-0.8,0.1-1.2,0.2-1.4,0.6c0,0.1,0,0.1,0,0.2c0,0.2,0,0.6,0.3,0.7l0.7,0.1
			c0.6,0,1.8,0,2,1.3c0,0.1,0,3.5,0,3.5V51v0.1c-0.3,0.9-1.1,0.9-1.5,0.9h-0.3l-0.2,0.1c-0.3,0.1-0.7,0.2-0.7,0.6c0,0,0,0.1,0,0.2
			c0,0.2,0,0.5,0.3,0.6l0.7,0.1c0.5,0.1,1.3,0.2,1.7,0.8l0.1,0.1l0,0l0.1,1.6c0,0.2,0,0.5,0,0.7c0,0.4,0.1,0.6,0.3,0.9
			c0.6,0,5.4,0.1,5.4,0.1h1.3c1.6,0,3.4,0,4.8,0.9c0.4,0.1,0.8-0.1,1.4-0.5l0.6-0.4h0.2l7.7,0.1c0.6,0,1.2,0,1.7-0.2
			c0-0.4,0-1.1,0-1.1l0.1-1.9c0.3-0.9,1.1-1,1.6-1.1l0.4-0.1c0.4-0.1,0.5-0.3,0.6-0.6c0-0.2-0.2-0.4-0.4-0.7
			c-0.2-0.1-0.7-0.2-0.7-0.2l-1.7-0.6l0.1-0.4v-2.2v-4.4l0.1-0.1c0.5-0.6,1.1-0.6,1.6-0.6c0.3,0,0.5,0,0.6-0.1
			c0.2-0.3,0.4-0.5,0.4-0.8v-0.1c-0.1-0.5-0.2-0.6-1.1-0.7c-0.5-0.1-1.1-0.1-1.6-0.5l-0.2-0.2v-0.2v-1.4c0-0.2,0-0.4,0-0.6
			c0-0.4-0.1-0.7-0.3-1c-0.5,0-2-0.2-2-0.2s-2.1-0.2-2.4-0.2C125.6,37.9,123.3,38,123.3,38"/>
		<path class="st0" d="M45.3,39.4L45.3,39.4h-0.9c-0.8-0.1-1.1-0.1-1.3,0.2c0,0.4-0.3,3.1-0.3,3.1l-0.1,0.2
			c-0.5,0.6-1.3,0.6-1.8,0.6s-0.7,0-0.8,0.1s-0.2,0.2-0.2,0.4c0,0.1,0,0.3,0.1,0.5s0.2,0.4,0.9,0.5H41c0,0,0.1,0.1,0.2,0.1h0.2
			c0.3,0,0.9,0,1.2,0.5l0.1,0.1v0.1c0.2,0.8,0.2,1.6,0.2,2.3c0,0.6,0,1.1-0.1,1.7v2.9l-0.2,0.2l-0.5,0.5l-0.7,0.1
			c-0.4,0-0.9,0.1-1.1,0.2C40.1,53.8,40,54,40,54.6c0,0.1,0.1,0.1,0.1,0.1l0.2,0.3l0.2,0.1l0.5,0.1c0.4,0,1.1,0,1.6,0.5l0.1,0.2V56
			l0.1,1.7c0,0.2,0,0.4,0,0.5c0,0.4,0.1,0.6,0.3,0.8c0.6,0,2.8,0,2.8,0l6.5,0.1l0.1,0.1l0.2,0.1c0.4,0.3,0.9,0.5,1.3,0.6
			c0.7-0.1,1.3-0.3,1.8-0.7L56,59h6.8c0,0,2.5,0,3.3,0.1c0-0.2,0.1-0.4,0.1-0.6c0-0.3,0-0.6,0-0.8v-0.8c0-0.1,0-0.2,0-0.4
			c0-0.4,0.1-0.7,0.3-1c0.4-0.5,1.1-0.5,1.7-0.5c0.9,0,1-0.1,1.1-0.4c0.1-0.2,0.1-0.4,0.1-0.6c0-0.2-0.1-0.3-0.1-0.4
			c-0.5-0.4-1.2-0.4-1.9-0.4H67l-0.1-0.1c-0.8-0.5-0.7-1.3-0.6-1.8c-0.2-1-0.1-2.1-0.1-3.1l0.1-2.4l0.1-0.2l0.4-0.6H67l0.9-0.1
			c0.6,0,0.9-0.1,1.1-0.4c0-0.1,0.2-0.5,0.1-0.8c0-0.1-0.4-0.4-0.4-0.4c-0.1-0.1-0.6-0.1-0.6-0.1c-0.5,0-1.3,0.1-1.7-0.8l-0.1-0.1
			c0,0-0.1-2.4-0.1-2.9c-0.2-0.2-0.4-0.2-1.1-0.2h-1.2h0.2l-3.6-0.1c-2.3,0.2-4.5,0-6.5,0.9l-0.3,0.1L53.5,40
			c-0.9-0.4-1.9-0.6-3.2-0.7L49,39.2C47.7,39.2,46.4,39.1,45.3,39.4"/>
		<path class="st2" d="M130.1,39c0.8,1,0.3,2.4,0.5,3.5c0.9,0.7,2.7-0.1,2.9,1.6c0.1,0.6-0.3,1.1-0.6,1.5c-0.6,0.6-1.6,0-2.2,0.7
			c-0.2,2,0,4.1,0,6.4c0.6,0.4,1.4,0.3,2,0.6c0.3,0.4,0.6,0.8,0.6,1.3c-0.1,0.5-0.4,0.9-0.9,1.1c-0.5,0.3-1.4,0-1.7,0.7
			c-0.3,1.1,0.1,2.2-0.1,3.3c-0.7,0.3-1.6,0.3-2.4,0.3l-7.7-0.1c-0.7,0.4-1.5,1.1-2.5,0.7c-1.6-1-3.9-0.7-5.8-0.8l-5.8-0.1
			c-1-0.9-0.3-2.5-0.6-3.6c-0.4-0.7-1.4-0.4-2.1-0.7c-0.6-0.2-0.7-0.9-0.6-1.4c0.1-0.6,0.6-1,1.2-1.1c0.5-0.3,1.3,0.2,1.5-0.5
			c0-2-0.1-4-0.1-5.9c-0.1-1.2-1.7-0.5-2.4-0.9c-0.6-0.4-0.7-1.1-0.5-1.8c0.5-1.1,1.8-0.9,2.8-1.2l0.1-0.3l0.1-3.4l0.3-0.3l9,0.2
			c1,0,2,0.5,3,0.8c1.9-1.4,4.7-0.7,7-1.1C126.9,38.9,128.5,38.6,130.1,39"/>
		<path class="st3" d="M130.1,39c0.8,1,0.3,2.4,0.5,3.5c0.9,0.7,2.7-0.1,2.9,1.6c0.1,0.6-0.3,1.1-0.6,1.5c-0.6,0.6-1.6,0-2.2,0.7
			c-0.2,2,0,4.1,0,6.4c0.6,0.4,1.4,0.3,2,0.6c0.3,0.4,0.6,0.8,0.6,1.3c-0.1,0.5-0.4,0.9-0.9,1.1c-0.5,0.3-1.4,0-1.7,0.7
			c-0.3,1.1,0.1,2.2-0.1,3.3c-0.7,0.3-1.6,0.3-2.4,0.3l-7.7-0.1c-0.7,0.4-1.5,1.1-2.5,0.7c-1.6-1-3.9-0.7-5.8-0.8l-5.8-0.1
			c-1-0.9-0.3-2.5-0.6-3.6c-0.4-0.7-1.4-0.4-2.1-0.7c-0.6-0.2-0.7-0.9-0.6-1.4c0.1-0.6,0.6-1,1.2-1.1c0.5-0.3,1.3,0.2,1.5-0.5
			c0-2-0.1-4-0.1-5.9c-0.1-1.2-1.7-0.5-2.4-0.9c-0.6-0.4-0.7-1.1-0.5-1.8c0.5-1.1,1.8-0.9,2.8-1.2l0.1-0.3l0.1-3.4l0.3-0.3l9,0.2
			c1,0,2,0.5,3,0.8c1.9-1.4,4.7-0.7,7-1.1C126.9,38.9,128.5,38.6,130.1,39L130.1,39z"/>
		<path class="st2" d="M53.8,39.4C57,38,60.6,39,64.2,38.8c0.9,0.2,2.3-0.4,2.9,0.5c0,1.1,0,2,0.1,3.1c0.3,0.7,1.4,0.1,2,0.5
			c0.3,0.2,0.7,0.4,0.8,0.8c0.2,0.5,0.1,1-0.2,1.4c-0.7,0.7-1.5,0.5-2.4,0.7L67,46.3c0.1,1.9-0.4,3.6,0,5.4
			c-0.1,0.4-0.2,0.9,0.3,1.2c0.9,0,1.8,0,2.5,0.6c0.3,0.5,0.3,1.1,0.1,1.6c-0.4,2-3.4-0.3-3.1,2c0,0.9,0.2,2-0.1,2.8
			c-3.5,0-7.1-0.3-10.5-0.1c-0.6,0.5-1.4,0.9-2.2,0.9c-0.7-0.1-1.2-0.5-1.8-0.9c-3.2-0.1-6.4-0.1-9.4-0.2c-1-0.9-0.3-2.2-0.6-3.5
			c-0.5-0.6-1.3-0.1-1.9-0.5c-0.5-0.1-0.6-0.5-0.9-0.9c0-0.7,0-1.3,0.5-1.8c0.5-0.4,1.2-0.3,1.9-0.4l0.3-0.3
			C41.9,50,42.4,48,42,45.7c-0.3-0.5-0.9-0.1-1.3-0.4c-0.6-0.1-1.2-0.3-1.4-1C39.2,44,39,43.5,39.6,43c0.7-0.8,2,0.1,2.6-0.6
			l0.3-3.1c0.5-0.9,1.8-0.5,2.7-0.5c1.6-0.3,3.5-0.1,5.2,0C51.5,38.8,52.7,39,53.8,39.4"/>
		<g>
			<g>
				<g>
					<defs>
						<polyline id="SVGID_1_" points="36.2,33.3 36.2,154 136.5,154 136.5,33.3 						"/>
					</defs>
					<clipPath id="SVGID_2_">
						<use xlink:href="#SVGID_1_"  style="overflow:visible;"/>
					</clipPath>
					<path class="st4" d="M53.8,39.4C57,38,60.6,39,64.2,38.8c0.9,0.2,2.3-0.4,2.9,0.5c0,1.1,0,2,0.1,3.1c0.3,0.7,1.4,0.1,2,0.5
						c0.3,0.2,0.7,0.4,0.8,0.8c0.2,0.5,0.1,1-0.2,1.4c-0.7,0.7-1.5,0.5-2.4,0.7L67,46.3c0.1,1.9-0.4,3.6,0,5.4
						c-0.1,0.4-0.2,0.9,0.3,1.2c0.9,0,1.8,0,2.5,0.6c0.3,0.5,0.3,1.1,0.1,1.6c-0.4,2-3.4-0.3-3.1,2c0,0.9,0.2,2-0.1,2.8
						c-3.5,0-7.1-0.3-10.5-0.1c-0.6,0.5-1.4,0.9-2.2,0.9c-0.7-0.1-1.2-0.5-1.8-0.9c-3.2-0.1-6.4-0.1-9.4-0.2c-1-0.9-0.3-2.2-0.6-3.5
						c-0.5-0.6-1.3-0.1-1.9-0.5c-0.5-0.1-0.6-0.5-0.9-0.9c0-0.7,0-1.3,0.5-1.8c0.5-0.4,1.2-0.3,1.9-0.4l0.3-0.3
						C41.9,50,42.4,48,42,45.7c-0.3-0.5-0.9-0.1-1.3-0.4c-0.6-0.1-1.2-0.3-1.4-1C39.2,44,39,43.5,39.6,43c0.7-0.8,2,0.1,2.6-0.6
						l0.3-3.1c0.5-0.9,1.8-0.5,2.7-0.5c1.6-0.3,3.5-0.1,5.2,0C51.5,38.8,52.7,39,53.8,39.4L53.8,39.4z"/>
				</g>
			</g>
			<g>
				<g>
					<defs>
						<polyline id="SVGID_3_" points="36.2,33.3 36.2,154 136.5,154 136.5,33.3 						"/>
					</defs>
					<clipPath id="SVGID_4_">
						<use xlink:href="#SVGID_3_"  style="overflow:visible;"/>
					</clipPath>
					<path class="st5" d="M37.1,73.6c0-11.5,0-24.4,0-39.4h98.5c0,0,0,5.9,0,39.6c0,49.9-49.7,79.2-49.7,79.2S37.1,122.2,37.1,73.6
						L37.1,73.6z"/>
				</g>
			</g>
		</g>
		<path class="st2" d="M105.9,131L105.9,131L105.9,131L105.9,131L105.9,131L105.9,131L105.9,131L105.9,131L105.9,131L105.9,131
			c-0.3-0.3-0.7-0.8-0.9-1c-0.4-1.7,2.3-2.9,1-4.8c-0.3-1.1-0.1-2.5-1.2-3.4c-0.8-0.6-1.8-0.8-2.7-1.4c0-0.5,0.6-0.3,0.9-0.5
			c1.4-0.4,2.7,1.4,3.7,0.1c0.1-1-0.8-1.8-1.4-2.4c-2.1-1.5-5.3-0.9-7-3.2l0.2-0.2c2.1,0.4,4.3,0.1,5.9-1.3c0.9-1.2,1.8-2.3,3.2-2.7
			c1.4-1.1,1.6-2.9,1.6-4.7c0.1-0.7,0.4-1.4,0.9-1.9c0.8-0.7,2.8-0.4,2.4-1.9c-1.1-0.6-2.2-1.1-3.5-1c-0.6-0.3,0.1-0.8,0.3-1
			c2.1-1.4,5.3-2.2,5.1-5.2c-0.2-0.3-0.1-0.8-0.6-0.9c-0.9,0.1-1.4,1-2.3,1.4c-1.9,1.1-4.4,0.9-6.2,2.1c-0.4,0-0.2-0.5-0.1-0.6
			c0.7-1,2.1-1,2.6-2.3c0.4-1,0.6-2.2,1.7-2.6c0.6-0.5,1.7-0.5,2.1-1.3c-0.1-0.4-0.6-0.7-1-0.8c-1.9-0.6-3.7,0.5-5,1.8
			c-1.4,0.6-2.9,1.1-3.9,2.2c-0.2,0.1-0.5-0.1-0.5-0.4c-0.3-2.6,2.1-4.4,3.7-6c1.2-0.3,2.2-1.8,3.7-1.2c1,0.5,2,1,3.2,0.6
			c1.4-0.5,1.7-2.1,3-2.9c1-0.3,2.3,1.1,2.9-0.3c0.3-1.4-0.8-2.2-1.5-3.3c0.8-2,0.2-4.3-1.4-5.7c-0.8-0.5-1.7-0.8-2.6-0.5
			c-0.7,0.9,0.6,1.5,0.7,2.4c0.3,3.7-3.7,4.5-6,6.1c-4.5,2.3-10,5.7-10.3,11.5c0.1,3.2,1.4,6.1,3.6,8.3c1.2,2,3,3.9,2.3,6.4
			c-0.5,1-1.7,1.2-2.6,1.2c-3.9-0.3-6-4.6-7.6-7.5c-0.5-1.1-1.2-2.2-1.3-3.6c0.2-0.2,0.4-0.1,0.6,0c0.7,0.6,0.6,2.2,1.9,2
			c1-1.4,0.3-3-0.2-4.3c-0.7-1.2-2.2-1.9-2.8-3.2c-0.1-1,1.4-0.4,1.4-1.4c-0.5-1.7-0.6-3.4-0.4-5c0.3-0.7,1.3-0.6,1.3-1.5
			c-0.5-1.6-0.5-3.2-0.4-5c0.2-1,1-2.1,0.4-3.2c-1.2-0.3-0.2-1.7-1.3-2.1c-2.2,0-3.8-1.2-5.7-1.9c-1-0.3-1.7,0.3-2.4,0.5
			c-1.2,0.3-2.5,0.3-3.4,1.2c-0.6,0.7-0.4,1.5-0.4,2.4c-0.2,0.6-0.7,0.1-1,0c-0.9-0.5-1.2-1.5-1-2.4c0.1-0.5-0.1-0.9-0.5-1.2
			c-0.6-0.4-1.4-0.6-2.1-0.3c-0.9,0.3-1.2,1.4-1.6,2.1c-0.1,0.6,0.1,1.4,0.4,1.9c1.3,1.4,3.1,1.9,4.5,3c0.3,0.8-0.3,1.5-0.8,2.2
			c-0.1,0.7,1,0.7,0.8,1.4c-1,0.3-2.1,0.1-2.8-0.6c-0.5-0.4-0.6-1.4-1.5-1.6c-0.8,0-0.9,1-1.2,1.6c-0.2,0.6-0.1,1.6-0.6,2l-0.6-0.1
			c-2.6-0.9-5-2.3-7.4-4.1c-1.4-1-2.3-2.6-3.4-3.9c-0.5-1.6-0.8-3.9-2.8-4.4c-0.5,0.1-1,0.1-1.1,0.6L56.8,74c-1,0-2.1-0.7-3.2-0.3
			c-0.5,0.3-1,0.7-1.4,1.2c-0.1,1.2,1.4,0.7,1.6,1.6c0,0.8,0.6,1.6,1,2.1c-0.3,0.5-0.8,0.7-1,1.2l-0.6,1.6c0.3,0.5,0.6,1.2,1.2,1.2
			c0.9-0.4,1.7,0.2,2.6,0.1c0.6,0.1,1.6-0.4,1.6,0.5c0.3,0.8,0,1.5-0.1,2.2c-0.8,1.2-1.9,2.1-3.2,2.7c-0.4,0.3-0.4,0.8-0.3,1.2
			c0.4,0.6,1.5,0.4,2.2,0.3c1.4-0.1,2.4-0.8,3.7-1c0.3,0.6,0.9,1.4,1.5,1.7c1,0.3,1.3-1.2,2.3-0.8c0.8,0.6,0.6,1.9,1.4,2.6
			c0.1,0.4-0.4,0.4-0.6,0.6c-1.1,0.4-2.6,0-3.5,0.9c-0.1,0.5,0.3,1,0.7,1.2c1,0.5,2.2,0.6,3.4,0.8c1,0.1,2.1-0.3,3.1,0L69,96.5
			l-3.2,2.1c-1.4,0.6-3,0.9-4.2,1.6c-2,0.5-2.8-2-4.6-1.9c-0.8,0-1.3,0.3-1.8,0.7c-0.4,0.4-0.5,1.2-0.4,1.7c0.2,0.6,1.1,0.3,1.1,1
			c-0.1,1.8-1.6,3.1-1.7,5c-0.1,0.5,0.1,1,0.6,1.2c0.3,0.2,0.8,0.1,1.1-0.2c0.4-0.4,0.4-1,1-1.1c1.1,0.1,2.3,0.1,3-0.7
			c0.4-0.1,0.8,0.3,0.8,0.6c0,0.4,0,1,0.4,1.2c1.6,0.1,2.4-1.6,3.1-2.8c0.7-0.1,1.5-0.6,2.2-0.2c0.3,1.1-0.6,1.9-0.8,2.9
			c0.1,0.2,0.4,0.5,0.7,0.6c1.9-0.3,3-2.1,4.2-3.5c0.2-0.4,0.4-0.9,1-0.9c1.5,0.4,1.9-1.4,2.8-2h0.4c0.1,0.4-0.2,0.8,0,1.2
			c0.6,0.7,1.4-0.1,2-0.2l1.4-0.8c1.6,0.5,3.3,0.9,5,1.3c1.4,0.5,0,1.9,0.8,2.8c-0.2,0.4-0.8,0.6-1.4,0.6c-2.8,0.4-6.1-0.4-8.4,1.7
			l-1.4,1.4c-2.1,0.1-3.2,1.9-5.1,2.2c-1.3,0.9-3.3-0.4-4.1,1.1c0.6,1.4,2.3,1.8,3.7,2.2c0.6,0.2,1.6-0.1,1.9,0.6
			c0.1,0.6,0.2,1.4,1,1.7c0.6,0.2,0.9-0.6,1.4-0.2c0.7,1,1.7,1.4,2.3,2.3c-0.4,0.8-1.6,0.3-2.3,0.3l-0.1-0.1
			c-1.2,0.1-2.6,0.7-3.6-0.4c-1.2-0.9-2.2-2.3-3.9-2.3c-1,0.2-2,0.6-2.2,1.7c-0.1,0.6,0.5,0.9,0.8,1.3c-1.2,0.8-2.4,2-2,3.5
			c0.1,0.3,0.3,0.7,0.7,0.7c0.6,0,1-0.5,1.6-0.2c0.1,1-0.1,2.4,1,2.9c0.9-0.1,1.6-1.1,2.5-0.4c1,0.4,1.7-0.4,2.6-0.7
			c1.4,0,1.9,1.3,2.3,2.3c0.8,0.6,2,1.7,3.2,1c0.8-1.1-0.7-2.5,0.8-3.2c0.9-0.3,1.7,0.1,2.6-0.1c1.4,0.1,3.2,0.2,3.9-1.3l1.3-2.2
			l0.3-1.4c0.8-0.2,2.1,1.1,2.4-0.2c-0.4-1.3-0.6-2.6-0.4-4c0.3-1,0.7-1.9,1.4-2.5l0.3,0.1c0.4,1.6,0.4,3.2,1.2,4.7
			c-0.1,1.5-0.9,2.8-1.1,4.2c-0.4,1.6-1.5,2.8-2.9,3.5c-0.3,0.3-0.6,0.7-0.4,1.2c0.4,0.7,1.4,0.3,2.1,0.4c2-0.3,3.9-1.2,5.2-2.7
			c1.4,0.4,2.1-1.3,3.4-0.6c1.4,1,3.8-0.8,4.3,1.4c-0.2,1,0.8,2.9-0.9,3.4c-1.7-0.3-3.6-2.4-5.3-0.5c-0.4,0.4-0.6,0.9-0.4,1.4
			c0.3,0.4,0.6,1,0.1,1.4c-0.4,0.8-1.1,1.7-0.7,2.7c0.3,0.6,1,0.6,1.6,0.4c1-0.4,1.9,0.4,2.8,0.5c0.8,0.6,1.7,1.4,2.8,1.4
			c0.5-0.3,0.4-0.8,0.7-1.2c0.7-0.6,2.2-0.5,2.2-1.7c0.2-1,1-1.8,1.9-2.3C103.5,132.4,105.4,131.9,105.9,131"/>
		<path class="st3" d="M105.9,131L105.9,131L105.9,131L105.9,131L105.9,131L105.9,131L105.9,131L105.9,131L105.9,131L105.9,131
			c-0.3-0.3-0.7-0.8-0.9-1c-0.4-1.7,2.3-2.9,1-4.8c-0.3-1.1-0.1-2.5-1.2-3.4c-0.8-0.6-1.8-0.8-2.7-1.4c0-0.5,0.6-0.3,0.9-0.5
			c1.4-0.4,2.7,1.4,3.7,0.1c0.1-1-0.8-1.8-1.4-2.4c-2.1-1.5-5.3-0.9-7-3.2l0.2-0.2c2.1,0.4,4.3,0.1,5.9-1.3c0.9-1.2,1.8-2.3,3.2-2.7
			c1.4-1.1,1.6-2.9,1.6-4.7c0.1-0.7,0.4-1.4,0.9-1.9c0.8-0.7,2.8-0.4,2.4-1.9c-1.1-0.6-2.2-1.1-3.5-1c-0.6-0.3,0.1-0.8,0.3-1
			c2.1-1.4,5.3-2.2,5.1-5.2c-0.2-0.3-0.1-0.8-0.6-0.9c-0.9,0.1-1.4,1-2.3,1.4c-1.9,1.1-4.4,0.9-6.2,2.1c-0.4,0-0.2-0.5-0.1-0.6
			c0.7-1,2.1-1,2.6-2.3c0.4-1,0.6-2.2,1.7-2.6c0.6-0.5,1.7-0.5,2.1-1.3c-0.1-0.4-0.6-0.7-1-0.8c-1.9-0.6-3.7,0.5-5,1.8
			c-1.4,0.6-2.9,1.1-3.9,2.2c-0.2,0.1-0.5-0.1-0.5-0.4c-0.3-2.6,2.1-4.4,3.7-6c1.2-0.3,2.2-1.8,3.7-1.2c1,0.5,2,1,3.2,0.6
			c1.4-0.5,1.7-2.1,3-2.9c1-0.3,2.3,1.1,2.9-0.3c0.3-1.4-0.8-2.2-1.5-3.3c0.8-2,0.2-4.3-1.4-5.7c-0.8-0.5-1.7-0.8-2.6-0.5
			c-0.7,0.9,0.6,1.5,0.7,2.4c0.3,3.7-3.7,4.5-6,6.1c-4.5,2.3-10,5.7-10.3,11.5c0.1,3.2,1.4,6.1,3.6,8.3c1.2,2,3,3.9,2.3,6.4
			c-0.5,1-1.7,1.2-2.6,1.2c-3.9-0.3-6-4.6-7.6-7.5c-0.5-1.1-1.2-2.2-1.3-3.6c0.2-0.2,0.4-0.1,0.6,0c0.7,0.6,0.6,2.2,1.9,2
			c1-1.4,0.3-3-0.2-4.3c-0.7-1.2-2.2-1.9-2.8-3.2c-0.1-1,1.4-0.4,1.4-1.4c-0.5-1.7-0.6-3.4-0.4-5c0.3-0.7,1.3-0.6,1.3-1.5
			c-0.5-1.6-0.5-3.2-0.4-5c0.2-1,1-2.1,0.4-3.2c-1.2-0.3-0.2-1.7-1.3-2.1c-2.2,0-3.8-1.2-5.7-1.9c-1-0.3-1.7,0.3-2.4,0.5
			c-1.2,0.3-2.5,0.3-3.4,1.2c-0.6,0.7-0.4,1.5-0.4,2.4c-0.2,0.6-0.7,0.1-1,0c-0.9-0.5-1.2-1.5-1-2.4c0.1-0.5-0.1-0.9-0.5-1.2
			c-0.6-0.4-1.4-0.6-2.1-0.3c-0.9,0.3-1.2,1.4-1.6,2.1c-0.1,0.6,0.1,1.4,0.4,1.9c1.3,1.4,3.1,1.9,4.5,3c0.3,0.8-0.3,1.5-0.8,2.2
			c-0.1,0.7,1,0.7,0.8,1.4c-1,0.3-2.1,0.1-2.8-0.6c-0.5-0.4-0.6-1.4-1.5-1.6c-0.8,0-0.9,1-1.2,1.6c-0.2,0.6-0.1,1.6-0.6,2l-0.6-0.1
			c-2.6-0.9-5-2.3-7.4-4.1c-1.4-1-2.3-2.6-3.4-3.9c-0.5-1.6-0.8-3.9-2.8-4.4c-0.5,0.1-1,0.1-1.1,0.6L56.8,74c-1,0-2.1-0.7-3.2-0.3
			c-0.5,0.3-1,0.7-1.4,1.2c-0.1,1.2,1.4,0.7,1.6,1.6c0,0.8,0.6,1.6,1,2.1c-0.3,0.5-0.8,0.7-1,1.2l-0.6,1.6c0.3,0.5,0.6,1.2,1.2,1.2
			c0.9-0.4,1.7,0.2,2.6,0.1c0.6,0.1,1.6-0.4,1.6,0.5c0.3,0.8,0,1.5-0.1,2.2c-0.8,1.2-1.9,2.1-3.2,2.7c-0.4,0.3-0.4,0.8-0.3,1.2
			c0.4,0.6,1.5,0.4,2.2,0.3c1.4-0.1,2.4-0.8,3.7-1c0.3,0.6,0.9,1.4,1.5,1.7c1,0.3,1.3-1.2,2.3-0.8c0.8,0.6,0.6,1.9,1.4,2.6
			c0.1,0.4-0.4,0.4-0.6,0.6c-1.1,0.4-2.6,0-3.5,0.9c-0.1,0.5,0.3,1,0.7,1.2c1,0.5,2.2,0.6,3.4,0.8c1,0.1,2.1-0.3,3.1,0L69,96.5
			l-3.2,2.1c-1.4,0.6-3,0.9-4.2,1.6c-2,0.5-2.8-2-4.6-1.9c-0.8,0-1.3,0.3-1.8,0.7c-0.4,0.4-0.5,1.2-0.4,1.7c0.2,0.6,1.1,0.3,1.1,1
			c-0.1,1.8-1.6,3.1-1.7,5c-0.1,0.5,0.1,1,0.6,1.2c0.3,0.2,0.8,0.1,1.1-0.2c0.4-0.4,0.4-1,1-1.1c1.1,0.1,2.3,0.1,3-0.7
			c0.4-0.1,0.8,0.3,0.8,0.6c0,0.4,0,1,0.4,1.2c1.6,0.1,2.4-1.6,3.1-2.8c0.7-0.1,1.5-0.6,2.2-0.2c0.3,1.1-0.6,1.9-0.8,2.9
			c0.1,0.2,0.4,0.5,0.7,0.6c1.9-0.3,3-2.1,4.2-3.5c0.2-0.4,0.4-0.9,1-0.9c1.5,0.4,1.9-1.4,2.8-2h0.4c0.1,0.4-0.2,0.8,0,1.2
			c0.6,0.7,1.4-0.1,2-0.2l1.4-0.8c1.6,0.5,3.3,0.9,5,1.3c1.4,0.5,0,1.9,0.8,2.8c-0.2,0.4-0.8,0.6-1.4,0.6c-2.8,0.4-6.1-0.4-8.4,1.7
			l-1.4,1.4c-2.1,0.1-3.2,1.9-5.1,2.2c-1.3,0.9-3.3-0.4-4.1,1.1c0.6,1.4,2.3,1.8,3.7,2.2c0.6,0.2,1.6-0.1,1.9,0.6
			c0.1,0.6,0.2,1.4,1,1.7c0.6,0.2,0.9-0.6,1.4-0.2c0.7,1,1.7,1.4,2.3,2.3c-0.4,0.8-1.6,0.3-2.3,0.3l-0.1-0.1
			c-1.2,0.1-2.6,0.7-3.6-0.4c-1.2-0.9-2.2-2.3-3.9-2.3c-1,0.2-2,0.6-2.2,1.7c-0.1,0.6,0.5,0.9,0.8,1.3c-1.2,0.8-2.4,2-2,3.5
			c0.1,0.3,0.3,0.7,0.7,0.7c0.6,0,1-0.5,1.6-0.2c0.1,1-0.1,2.4,1,2.9c0.9-0.1,1.6-1.1,2.5-0.4c1,0.4,1.7-0.4,2.6-0.7
			c1.4,0,1.9,1.3,2.3,2.3c0.8,0.6,2,1.7,3.2,1c0.8-1.1-0.7-2.5,0.8-3.2c0.9-0.3,1.7,0.1,2.6-0.1c1.4,0.1,3.2,0.2,3.9-1.3l1.3-2.2
			l0.3-1.4c0.8-0.2,2.1,1.1,2.4-0.2c-0.4-1.3-0.6-2.6-0.4-4c0.3-1,0.7-1.9,1.4-2.5l0.3,0.1c0.4,1.6,0.4,3.2,1.2,4.7
			c-0.1,1.5-0.9,2.8-1.1,4.2c-0.4,1.6-1.5,2.8-2.9,3.5c-0.3,0.3-0.6,0.7-0.4,1.2c0.4,0.7,1.4,0.3,2.1,0.4c2-0.3,3.9-1.2,5.2-2.7
			c1.4,0.4,2.1-1.3,3.4-0.6c1.4,1,3.8-0.8,4.3,1.4c-0.2,1,0.8,2.9-0.9,3.4c-1.7-0.3-3.6-2.4-5.3-0.5c-0.4,0.4-0.6,0.9-0.4,1.4
			c0.3,0.4,0.6,1,0.1,1.4c-0.4,0.8-1.1,1.7-0.7,2.7c0.3,0.6,1,0.6,1.6,0.4c1-0.4,1.9,0.4,2.8,0.5c0.8,0.6,1.7,1.4,2.8,1.4
			c0.5-0.3,0.4-0.8,0.7-1.2c0.7-0.6,2.2-0.5,2.2-1.7c0.2-1,1-1.8,1.9-2.3C103.5,132.4,105.4,131.9,105.9,131L105.9,131z"/>
		<path class="st0" d="M76.4,74.6c-0.2,0.8-0.1,1.6,0.4,2.3c1.4,1.5,3.4,1.9,4.2,3.7l-0.5-0.1c-1.6-1-3.1-2.2-4.8-3
			c-0.6-0.4-1.1-1.2-1-2c0.1-0.6,0.3-1.2,1-1.4C76,74.1,76.4,74.3,76.4,74.6"/>
		<path class="st0" d="M90.2,76.1c0.2,0.4,0.1,1.2,0.8,1.3c0.2,0,0.4,0.2,0.4,0.4c-0.1,0.6-0.2,1.4-0.4,2c-0.2,0.5-0.9,0.7-0.9,1.4
			c0,0.4,0.6,0.6,0.6,1l-0.1,2.6c-1.6,0.5-0.8,2.5-1,3.5c-0.2,0.8,0,1.7-0.1,2.5c-0.4,0.2-1.1,0.1-1.3,0.7c0,1,0.4,1.7,0.8,2.5
			c0.6,0.8,1.8,1,1.9,2.1c-0.8,0.1-1.6-0.5-2.4-0.8c-1.2-0.6-2.1-1.9-2.8-3.1c-0.2-0.2-0.5-0.2-0.6,0.1c-0.1,0.8-0.2,1.9-0.9,2.4
			c-0.8-0.5-0.8-2.6-2.1-1.9c-0.4,2.8-2.3,5-3.9,7.3c-0.4,0.1-0.4,0.7-1,0.6c0.8-2.1,1.5-4.7,0.6-7.1c-0.2-0.4-0.6-0.3-1-0.1
			c-0.4,0.2-0.6,0.9-1.2,0.7c-0.4-0.7,0.5-1.8-0.6-2.2c-0.9,0.2-1.4,1-2.2,1.4c-1.9,1.2-4.2,1.6-6.6,1.7c-0.4,0-0.8-0.1-1.1-0.3
			c0.6-0.6,1.4-0.7,2.1-1.1c2.7-1.6,4.5-4.6,6.7-6.8c-0.2-1-1-2.1-0.1-3c0.7-0.1,1,0.8,1.6,1c1,0.5,2.2,0.8,3.2,0.4
			c0.9-0.2,1.6-1,1.6-1.9c0.1-0.4-0.2-0.6-0.4-0.7c-0.3,0-0.6,0-0.7-0.3c0-0.4,0.3-0.8,0.7-0.8c1.1,0.1,2.2,2.4,3,0.4
			c0.4-1.5-1-2.7-2.1-3.7c-0.3-0.3-0.5-0.6-0.3-1.1c0.8-0.5-0.2-1.2,0.4-1.8c1.1-0.8,2.8-0.3,3.9-1.2C86.9,74.2,88.4,75.7,90.2,76.1
			"/>
		<path class="st0" d="M59.5,75.6c0.1,0.3,0.1,0.6,0,0.9c-0.3,0.3-0.6,0-0.8-0.1c-0.4-0.3-0.6-0.8-0.5-1.2
			C58.3,73.8,59.5,75,59.5,75.6"/>
		<path class="st0" d="M58.6,77.5c1.7,0.8,3,2.6,4.3,4.1c2.8,2.3,5.7,4.3,9.1,5.2c0.1,0.5-0.3,1-0.6,1.4c-1.1,1.2-2,2.5-3.2,3.6
			c-0.2,0.1-0.5,0.1-0.7-0.1c-1.2-1.1-1-3.4-3-3.4c-0.6-0.1-1.2,0.8-1.8,0.3s0.2-1.7-0.8-1.9c-1.1,0.4-2,1.7-3.3,1.5
			c0.8-1.4,2.3-3,1.6-4.8c-0.2-0.8-0.7-1.7-1.5-2.1c-0.8-0.1-1.2,0.8-2,0.4c-0.3-0.7-1.7-0.4-1.2-1.3c0.5-0.8,2.4-0.9,1.6-2.2
			c-0.5-0.7-1.7-0.3-1.9-1.3c0.1-0.6-0.4-1.4,0-1.7C56.7,75,57.7,76.5,58.6,77.5"/>
		<path class="st0" d="M115.2,78.3c0.2,1-0.8,1.7-0.5,2.6c0.3,0.5,1.1,0.6,1,1.2c-2.4,0.1-2.9,3.3-5.4,3.2c-1-0.2-1.8-1.3-3-0.8
			c-3.2,1.5-6.6,3.7-7.4,7.4c-0.4,1.4-0.3,3,0.8,4.2c0.3,0.1,0.6,0.1,0.8,0c0.6-1.1,1.2-2.7,2.7-3c0.9-0.3,1.8-0.6,2.6-1.2
			c0.1,0,0.3-0.1,0.4,0.1c-0.4,1.1-0.9,2.4-2.1,2.8c-0.9,0.8-1.7,1.7-1.9,2.8c-0.1,0.6-0.1,1.4,0.3,1.8c0.5,0.4,1-0.1,1.4-0.4
			c1.7-2.1,4.2-2.3,6.7-2.4c0.1,0.2-0.2,0.6-0.5,0.6c-2.1,0.7-4.1,2.4-4.8,4.6c0.1,0.3,0.3,0.6,0.5,0.7c1-0.1,1.9-0.8,3-0.6
			c0.3,0.7-0.8,0.7-1.1,1.3c-2,1.7,0,5.7-3.4,6.2c-1,0.3-0.8,1.4-1.5,2c-1.1,1.4-2.9,1.8-4.7,1.6c-1.3,0.1-2.4-1.7-3.5-0.5
			c0.1,1.3,1.2,2,1.8,3.1c1.6,1.6,3.9,1.7,5.9,2.3c0.2,0.1,0.5,0.3,0.6,0.5c0,0.4-0.6,0.3-1,0.3c-1.3,0.2-2.8,0.4-4.1-0.1
			c-0.2-0.1-0.4,0.2-0.5,0.4c0.2,1.4,1.8,1.9,2.8,2.7c1,0.5,2.3,0.3,2.7,1.5v1.5c0.5,0.7,0.7,1.6,0.5,2.5c-0.9,1-1.5,2.4-0.8,3.7
			c-0.4,0.3-1,0-1.4,0.3c-0.5,1-1.7,1.1-2,2.1c-0.1,0.8-0.5,1.5-1.3,1.6c-0.6-0.1-1.1,0.3-1.7,0.1c-0.4-0.4,0.2-1.2-0.5-1.4
			c-0.9-0.2-1.2,1.2-2.2,0.7c-0.4-0.3-0.9-0.5-1.1-0.9c-0.1-0.6,0.5-0.8,0.9-1c2.1-0.3,4.9-0.6,5.7-3c0.1-1.1-0.4-2-0.2-3
			c-0.3-1.2-1.5-2-2.8-2.1c-1.2-0.3-2.4,0.1-3.3-0.7c-0.3-0.3-0.7-0.5-1.1-0.3c-0.3,0.1-0.4,0.5-0.8,0.3c-0.3-0.3-0.8-0.8-1.2-0.3
			c-0.8,1.6-1.9,3.2-3.8,3.6c-0.3-0.4,0.3-1,0.5-1.5c0.6-1.2,1-2.6,1.3-3.9c0.5-0.7,1.1-1.6,0.7-2.6c-0.8-2.2-1.7-4.6-1-7.1
			c0.4-3-0.3-5.7-2.4-7.7c-1.2-0.7-2.2-1.9-3.7-2.2c-1-0.3-2.4,0.1-2.9-0.9c0.1-1,1.2-1.6,1.7-2.5l1.7-2.6c0.7-0.1,0.5,0.9,1.2,0.8
			c1.4,0,1.3-2.3,2.7-1.6c0.6,0.9,1.7,1.2,2.3,2c0.9,3.7,2.2,7.2,4.8,10.2c1.9,2.5,4.9,4.4,8,3.5c0.8-0.7,2-1.5,2.2-2.7
			c0.8-5.9-6.6-8.8-6.1-14.6c0.5-5.5,6.1-8.4,10.6-10.6c2.5-1.3,5.5-3,5.7-6.2c-0.1-0.3,0-0.5,0.1-0.8
			C115.2,76.3,115.1,77.4,115.2,78.3"/>
		<path class="st0" d="M75.1,95.7c0.7,0.1,1.6-0.8,1.9,0.2c-0.1,1.4-0.2,2.9-0.8,4.1c-0.6,0.6-1.6,0.1-2.3,0.4
			c-1,0.3-1.2,2.6-2.4,1.1c-0.5-0.2-0.8,0.3-1.1,0.6c-0.5,1.2-1,2.4-1.9,3.4c-0.2,0.1-0.5,0.3-0.7,0.1c-0.1-0.8,0.5-2.3-0.7-2.6
			c-0.5-0.1-1,0.2-1.4,0.4c-1-0.1-2.3-0.1-2.8,0.9c-0.1,0.4-0.2,1.1-0.8,1.2c-0.6-0.2-1.4-0.4-1.6-1.2c-0.3-0.2-0.6-0.4-1-0.1
			c-0.5,0.5-0.7,1.4-1.6,1.4c-0.6,0-1.2-0.2-1.7-0.4c0.1-1.5,1.8-1.7,2.8-2.3c2.1-0.4,3.6-1.7,5.7-2.1c3.2-1.2,5.8-3.6,8.3-6.1
			c0.4-0.1,0.8-0.3,1.2-0.3C74.4,94.8,74.4,95.5,75.1,95.7"/>
		<path class="st0" d="M59.4,101.6c-0.6,0.4-1.5,0.6-2.2,0.3c-0.4-0.4-0.2-1.1-0.2-1.7c0.2-0.5,0.8-0.3,1.1-0.1
			C58.5,100.6,59.4,100.8,59.4,101.6"/>
		<path class="st0" d="M87,109.9c-0.1,1-0.1,1.7-0.6,2.5c-1.1,1-2.1,2.4-2.5,3.9c0,1.1-0.1,2.1-0.2,3.2c-0.3,0.3-0.6-0.1-0.8-0.3
			c-0.5-0.8-0.4-2.5-1.7-2.3c-0.7,0.8-1.4,1.9-1,3c0.6,0.8,1.7,1.5,1.1,2.6c-1,0.5-0.7,2-2,2.1c-1.9,0.3-3.9-0.6-5.5,0.8
			c-0.5,0.4-0.8,1.1-1.1,1.8c-0.9,0.1-0.6-1.1-1.1-1.6c-0.3-0.5-1-0.2-1.4-0.4c-0.7-0.3-1.4-1-2.3-0.5c-0.7,0.4-1.6,1.3-2.4,0.6
			l-1.2-0.3c-0.1-0.4,0.4-0.9,0.1-1.3l-2.2-1c-0.1-0.2,0.1-0.4,0.2-0.6c1.9-1.2,4,0.2,6.2-0.2c1.4-0.5,2.8-0.3,4.3-0.2
			c0.8,0.1,1.9,0.3,2.4-0.4c0.3-0.5,0.4-1.1,0.1-1.6c-0.6-1.4-2.7-1.7-3-3.4c-0.1-0.3-0.4-0.6-0.7-0.8c-0.5-0.2-0.8,0.4-1.4,0.1
			c-0.1-0.4-0.3-1-0.8-1.2c-1,0-2.1,0.4-3-0.2c0.1-0.5,0.8-0.4,1.2-0.7c1.4-0.3,2.5-1.2,3.7-1.7l1.9-0.3c1.9-3,5.7-2.8,8.9-3l3.2-1
			C86.5,107.7,86.8,109,87,109.9"/>
		<path class="st0" d="M66.4,120.4c-0.6,0.4-1.4,0.1-2,0.1c-0.4-0.3-0.5-1-0.4-1.4C64.9,118.5,66,119.5,66.4,120.4"/>
		<path class="st0" d="M95.2,130.8c0.1,0.3-0.4,0.2-0.5,0.2c-0.3,0.1-0.3-0.1-0.4-0.2C94.4,130.2,95.1,130.5,95.2,130.8"/>
		<path class="st2" d="M86.9,77.2c0.1,0.4-0.2,0.8-0.6,0.9c-0.8,0.1-1.5,0-2.1-0.6c-0.6-0.4-0.3-1.2-0.1-1.8c0.3-0.3,0.7-0.3,1-0.1
			C85.8,75.9,86.4,76.6,86.9,77.2"/>
		<path class="st2" d="M90.5,78.3c0,0.5-0.3,1-0.6,1.4c-0.3,0.2-0.6,0.1-0.7-0.3c-0.1-0.6,0.1-1.1,0.4-1.4
			C90,77.8,90.5,77.9,90.5,78.3"/>
		<path class="st2" d="M86.4,82.9V84c-1.1,1.2-1.1,3.1-2.8,3.8c-0.5,0.1-0.8-0.2-0.9-0.6c-0.1-0.7-0.2-1.6,0.1-2.3
			c0.7-0.4,0.9,1,1.5,0.4c0.3-1,1.1-1.8,1.6-2.6C86.1,82.5,86.3,82.7,86.4,82.9"/>
		<polyline class="st2" points="37.1,62.8 135.6,62.8 135.6,69.6 37.1,69.6 37.1,62.8 		"/>
		<polygon class="st3" points="37.1,62.8 135.6,62.8 135.6,69.6 37.1,69.6 		"/>
		<polyline class="st0" points="110.8,64 122,64 122,68.4 110.8,68.4 110.8,64 		"/>
		<polyline class="st0" points="86,64 97.2,64 97.2,68.4 86,68.4 86,64 		"/>
		<polyline class="st0" points="61.5,64 72.7,64 72.7,68.4 61.5,68.4 61.5,64 		"/>
		<polyline class="st0" points="38.3,64 48.5,64 48.5,68.4 38.3,68.4 38.3,64 		"/>
		<path class="st0" d="M53.3,40.3l0.3,0.6c0.1,4.4,0.1,8.8,0.1,13.4L53.6,56c-1.1,0.1-2.2-0.5-3.5-0.4c-1.2-0.1-2.6,0.1-3.7-0.2
			c-0.6-1.5-0.2-3-0.3-4.6c0.1-3.3,0.1-7.3,0.1-10.8c0-0.3,0.3-0.4,0.5-0.5C49,39.7,51.5,39.1,53.3,40.3"/>
		<path class="st0" d="M44.6,39.9c-0.6,0.5-1.4,1.3-1.1,2.1c0.3,5.5,0,10.4,0.3,15.6l0.5,0.5c2.6,0,5.4-0.2,7.9,0.2
			c0.1,0.1,0.1,0.3,0.1,0.4c-0.7,0.3-1.4,0.1-2.2,0.1l-6.7-0.1c-0.5-0.4-0.3-1.3-0.3-1.8c0-0.6,0.2-1.4-0.5-1.8
			c-0.9-0.2-1.8,0.1-2.4-0.7c0.5-1.3,2.6-0.3,2.9-1.7c0.2-2.4-0.2-4.8-0.1-7.1c-0.3-1.3-1.7-0.9-2.6-1.1c-0.1-0.1-0.3-0.3-0.3-0.6
			c0.8-0.8,2.4,0.1,2.9-1c0.3-1,0.1-2,0.2-3c0.3-0.3,0.9-0.3,1.4-0.2L44.6,39.9"/>
		<path class="st0" d="M63.1,39.9c0,5.3,0,10.3-0.1,15.5c-2.6,0.3-5.6-0.2-8.2,0.5c-0.6-0.5-0.1-1.4-0.3-2.1c-0.1-1.7,0-3.6-0.1-5.4
			c0.1-2.6-0.1-5.4,0.1-7.9c0.4-0.8,1.3-1.1,2.2-1.1l6.1,0.1L63.1,39.9"/>
		<path class="st0" d="M66.1,39.9c0.2,1.1-0.3,2.4,0.4,3.5c0.6,0.4,1.6,0.2,2.3,0.3c0.3,0.3,0.2,0.6,0.1,0.9c-0.7,0.7-2.2-0.2-2.6,1
			c0,2.6-0.1,5,0.1,7.6l0.4,0.3c0.9,0.1,1.9-0.2,2.5,0.5c0.1,0.4,0,0.8-0.4,0.9c-0.9,0.2-2.1-0.3-2.6,0.7c-0.2,1.1,0.1,2.1-0.2,3.1
			l-0.5,0.2l-9.2-0.1c-0.2-0.1,0-0.3,0.1-0.4l0.9-0.3l7.5,0.1c0.8-0.2,0.8-1.2,0.9-1.8c-0.1-3.7,0-6.9-0.1-10.4
			c-0.1-1.8,0.3-3.5-0.1-5.2c-0.1-0.4-0.7-0.6-0.7-1.1C65.1,39.5,65.8,39.5,66.1,39.9"/>
		<path class="st0" d="M126.8,38.3c0.3,0.5,0.3,1.2,0.3,1.8c0,3.1,0.1,6.1-0.1,9c0,0,0.1,4-0.1,5.1l-0.5,0.2
			c-2.4,0.2-4.9-0.5-6.9,0.6c-0.4,0.1-0.4-0.5-0.5-0.6l0.1-6.8c0.1-0.1,0.1-0.2,0.3-0.2c0.3,0.4,0.5,0.8,0.4,1.3l-0.5,0.7l0.3,0.3
			c0.8-0.1,1.8,0.2,2.5-0.1c-0.2-0.4-0.6-0.5-0.9-0.8c-0.9-2.4-1.6-5-2.3-7.4c0.1-0.9-0.2-1.8,0.5-2.6c1.4-0.9,3.3-0.3,5-0.6
			L126.8,38.3"/>
		<path class="st0" d="M108.7,38.5c-0.1,0.5-0.8,0.9-1,1.4c0.1,5.4,0,11.2,0.2,16.8l0.5,0.3c2.9,0.1,6-0.6,8.5,0.6
			c0.1,0.1,0.1,0.1,0,0.1c-3.1-0.1-6.3,0.2-9.4-0.1l-0.3-0.3c-0.1-1.2,0.1-2.3-0.4-3.3c-0.7-0.7-2.8,0.2-2.3-1.3
			c0.8-0.6,2,0.2,2.5-0.8c0-2.8,0.1-5.2-0.1-7.7c-0.6-0.8-1.7-0.3-2.5-0.5c-0.3-0.3-0.5-0.7-0.2-1c0.9-0.7,3.3,0.2,2.9-1.8
			c0.3-0.9-0.4-2.5,0.8-2.6C108.2,38.3,108.5,38.2,108.7,38.5"/>
		<path class="st0" d="M117.1,38.5c1.4,0.5,1,2.2,1.1,3.3c-0.5,2.2-1.4,4.3-1.9,6.6c-0.1,0.5-0.6,0.5-0.9,0.8
			c-0.5,0.1-0.7-0.4-0.9-0.7c-0.1-2,0.2-3.6,0.1-5.7c-0.1-0.3,0.3-0.7,0.7-0.4c0.5,0.2,0.5,0.9,0.7,1.4c0.1,0.2,0.5,0.2,0.5-0.1
			l0.3-2c-0.3-0.7-0.9,0.1-1.4,0c-1-0.1-2.4,0.2-3.3-0.4c-0.8,0.3-0.6,1.4-0.7,2.1c-0.1,0.1,0,0.3,0.1,0.3c0.7-0.4,1-1.4,1.9-1.2
			l0.1,2l-0.2,4.2c-0.3,0.3-0.9,0.5-0.9,0.9c1.1,0.3,2.5,0,3.6,0.1c0.7,0.1,1.4,0.2,1.9,0c0.1-0.1,0.1-0.3-0.1-0.5
			c-0.4-0.2-0.9-0.5-0.7-1c0.2-0.3,0.3-1,0.9-0.8c0.4,0,0.3,0.5,0.3,0.7c0.1,2.2,0.1,4.6-0.1,6.7c-0.7,0.2-1.2-0.4-1.9-0.4
			c-1.8,0.1-3.5-0.2-5.4,0.1c-0.7-0.3-0.5-1.1-0.5-1.6c-0.1-5,0-9.3-0.1-14.3c0.1-0.1,0.3-0.2,0.4-0.2C113,38.3,115,38.3,117.1,38.5
			"/>
		<path class="st0" d="M130,38.6c0.3,1.2-0.3,2.5,0.5,3.6c0.8,0.2,2-0.3,2.4,0.5c-0.1,1.6-2.2,0.3-2.7,1.6c0.2,2.5-0.2,4.5,0.1,7.2
			c-0.3,0.2-0.3,0.4-0.1,0.7c0.7,0.6,1.6-0.4,2.4,0.3c0.5,0.1,0.2,0.5,0.2,0.8c-0.6,0.9-2-0.1-2.4,1l-0.1,3.3l-0.5,0.2l-8.7-0.1
			c-0.1-0.1-0.1-0.2,0.1-0.3l1-0.4h6.6c0.3-0.1,0.8-0.3,0.8-0.8c-0.1-5.2-0.1-10.5-0.1-16.2l-0.8-1.6
			C128.9,38.1,129.8,38.1,130,38.6"/>
		<path class="st0" d="M109.7,40.6c0,4.6,0,9.4,0,14.1c-0.1,0.4-0.6,0.6-0.9,0.9l-0.3-0.2c-0.1-1.5,0.1-3.2-0.1-4.6v-1.1
			c-0.1-3.1-0.1-6.5,0.1-9.6c0.3-0.2,0.5-0.8,0.9-0.9C109.7,39.6,109.5,40,109.7,40.6"/>
		<path class="st0" d="M128.8,39.9c-0.1,3.7-0.1,7.1,0.1,10.6c-0.1,1.6-0.1,3.1-0.1,4.6c-0.1,0.1-0.1,0.2-0.2,0.2
			c-1.1-0.5-0.7-1.7-0.8-2.7c0.1-1.4-0.1-2.9,0.1-4.3l-0.2-0.5l0.1-8.6C128.1,38.7,128.6,39.6,128.8,39.9"/>
		<path class="st0" d="M45.3,40.5c0.3,5.3-0.1,10.4,0.1,15.4c-0.1,0.3-0.3,0.6-0.7,0.6c-0.4-1.6-0.3-3.2-0.2-4.8
			c-0.1-3.3-0.1-7.1-0.1-10.4C44.5,40.9,44.9,40.6,45.3,40.5"/>
		<path class="st0" d="M64.8,41.1c-0.1,5.3,0.1,10.5-0.1,15.3c-0.1,0.3-0.4-0.1-0.6-0.2c-0.3-0.8-0.1-1.8-0.1-2.6
			c-0.2-4.3,0-8.6,0-12.9C64.2,40.4,64.6,40.8,64.8,41.1"/>
		<path class="st6" d="M55.5,51L55.5,51L55.5,51L55.5,51"/>
		<path class="st6" d="M125.1,41.9C125.2,41.9,125.2,41.9,125.1,41.9C125.2,41.9,125.2,41.9,125.1,41.9
			C125.2,41.9,125.2,41.9,125.1,41.9"/>
		<path class="st7" d="M125.1,41.9C125.2,41.9,125.2,41.9,125.1,41.9C125.2,41.9,125.2,41.9,125.1,41.9
			C125.2,41.9,125.2,41.9,125.1,41.9L125.1,41.9z"/>
		<path class="st0" d="M119.2,46.4c-0.1,0.3-0.7,0.3-1,0.2l-0.3-0.1c0.2-0.7,0-1.6,0.6-2.1C119,44.7,118.9,45.7,119.2,46.4"/>
		<path class="st0" d="M64,57.1c-0.2,0.4-0.8,0.2-1.2,0.3h-2.1c-1.7-0.1-3.4-0.2-4.9,0.1c-0.3-0.1-0.5-0.3-0.5-0.6
			c0.2-0.6,0.9-0.4,1.4-0.6c2,0.1,4.4-0.1,6.4,0C63.5,56.5,63.8,56.8,64,57.1"/>
		<path class="st0" d="M53,56.8c0.1,0.3-0.3,0.7-0.6,0.8c-2.1-0.6-4.4-0.2-6.6-0.5L45.7,57c0.1-0.4,0.5-0.7,0.9-0.7
			C48.9,56.4,51.1,56.4,53,56.8"/>
		<path class="st0" d="M117.8,55.7c0.2,0.1,0.2,0.5,0,0.5c-0.8,0.9-1.8-0.2-2.8,0c-1.7-0.2-3.6,0-5.3-0.2c0.5-1.4,2.5-0.6,3.6-0.9
			C114.8,55.4,116.5,54.9,117.8,55.7"/>
		<path class="st0" d="M127.4,55.4c0.3,0.2,0.7,0.5,0.7,0.9c-2.7,0.3-5.3-0.3-7.9,0.4c-0.4-0.1-0.5-0.5-0.4-0.8
			c0.5-0.6,1.4-0.5,2.2-0.6L127.4,55.4"/>
		<path class="st0" d="M55.2,58.1c0.1,0.5,0.1,1.2-0.4,1.4c-0.3,0.3-0.8,0.4-1.2,0.2c-0.4-0.1-0.5-0.5-0.5-0.9c-0.1-0.7,0.6-1,1-1.5
			C54.6,57.4,54.9,57.7,55.2,58.1"/>
		<path class="st0" d="M119.7,57.1c0.1,0.6,0.1,1.4-0.7,1.4c-0.5,0.1-1-0.2-1.1-0.7c-0.1-0.6,0.3-1.2,0.7-1.5
			C119.2,56.3,119.4,56.8,119.7,57.1"/>
		<path class="st2" d="M125.5,42.1c0,0.5,0.3,1.3-0.1,1.7c-0.5-0.4-0.5-0.8-1.3-1c-0.4,0-0.8,0.1-0.9,0.5c-0.1,1.4,1.3,1.4,2.1,2.3
			c0.7,0.7,1.1,1.9,0.7,2.9c-0.3,0.8-0.7,1.2-1.4,1.2c-0.7,0.1-1.1-0.3-1.7-0.1c-0.1,0-0.4,0.1-0.5-0.1l0.1-2.6
			c0.1-0.1,0.2-0.2,0.3-0.2c0.4,0.9,0.1,1.9,1.3,1.9c0.4-0.1,0.7-0.1,0.8-0.6c0.1-2.3-2.9-1.8-2.9-4.2c0.1-0.5,0.1-1,0.4-1.5
			c0.5-0.9,1.7-0.3,2.5-0.9C125.4,41.5,125.4,41.9,125.5,42.1"/>
		<path class="st8" d="M125.5,42.1c0,0.5,0.3,1.3-0.1,1.7c-0.5-0.4-0.5-0.8-1.3-1c-0.4,0-0.8,0.1-0.9,0.5c-0.1,1.4,1.3,1.4,2.1,2.3
			c0.7,0.7,1.1,1.9,0.7,2.9c-0.3,0.8-0.7,1.2-1.4,1.2c-0.7,0.1-1.1-0.3-1.7-0.1c-0.1,0-0.4,0.1-0.5-0.1l0.1-2.6
			c0.1-0.1,0.2-0.2,0.3-0.2c0.4,0.9,0.1,1.9,1.3,1.9c0.4-0.1,0.7-0.1,0.8-0.6c0.1-2.3-2.9-1.8-2.9-4.2c0.1-0.5,0.1-1,0.4-1.5
			c0.5-0.9,1.7-0.3,2.5-0.9C125.4,41.5,125.4,41.9,125.5,42.1L125.5,42.1z"/>
		<path class="st0" d="M87,39.9L87,39.9c-0.8,0.5-1.6,0.1-2.3-0.2L84,39.5l-5.9-0.1c0.1,0-1.3,0-1.3,0c-1-0.1-1.6-0.1-1.9,0.4
			c0,0.4-0.2,3-0.2,3l-0.1,0.1c-0.4,0.7-1.2,0.7-1.7,0.7h-0.6c-0.4,0.1-0.6,0.3-0.6,0.7c0,0.1,0,0.1,0,0.2c0.1,0.5,0.2,0.6,1.2,0.6
			l1.7,0.3l0.1,0.6l0.1,1.3v2.6c0-0.1,0.1,2.8,0.1,2.8v0.2l-0.2,0.2c-0.5,0.6-1.3,0.6-1.9,0.6s-0.9,0.1-1.1,0.2
			c-0.1,0.3-0.1,0.5-0.1,0.6s0,0.1,0,0.2c0.2,0.4,0.6,0.5,1.5,0.5l1.7,0.2v0.4c0.1,0.5,0.2,0.9,0.2,1.4c0,0.3,0,0.7,0,1
			c0,0,0,0.4,0,0.6c0.4,0.4,1.1,0.5,2.2,0.4h1.2c-0.1,0,2.9,0,2.9,0h3l0.1,0.1L86,60c0.5,0.3,0.9,0,1.6-0.4l0.4-0.3h0l2.6-0.1h3.6
			c1.4,0.1,2.8,0.1,4.1-0.1c0.1-0.1,0.1-0.1,0.1-0.2c0-0.1,0-0.2,0-0.4l0.1-1.4c0,0,0,0,0-0.1s0-0.3,0-0.3c0-0.1,0-0.2,0-0.4
			c0-0.3,0.1-0.7,0.4-0.9l0.1-0.1l0.7-0.1c0.8-0.1,1.2-0.2,1.5-0.6v-0.1c0-0.2-0.1-0.4-0.2-0.6c-0.2-0.2-0.4-0.3-0.9-0.4
			c-0.5-0.1-1-0.1-1.5-0.6l0,0.1v-0.2c-0.1-1-0.1-1.9-0.1-2.8c0-1.1,0-2.2,0.1-3.5v-0.1v-0.1c0.4-0.9,1.3-0.9,1.9-0.9
			c0.5,0,0.7-0.1,0.9-0.2c0.1-0.1,0.1-0.3,0.1-0.5s0-0.3-0.1-0.5c-0.1-0.4-0.5-0.4-1.2-0.5l-1.5-0.3l0.1-0.3l-0.2-1.9
			c0,0-0.1-1-0.1-1.4c-0.1-0.1-0.4-0.2-0.4-0.2c-1.5,0.2-3,0.1-4.4,0C91.3,39.2,89.1,39.1,87,39.9"/>
		<path class="st2" d="M98,38.7c0.4-0.1,0.8,0.3,1.1,0.5c0.3,1.2-0.1,2.3,0.3,3.5c0.9,0.3,2.1,0.1,2.5,1.1c0.2,0.5,0.2,1.2-0.1,1.6
			c-0.7,0.9-2.2,0.1-2.6,1.1c-0.1,2.4-0.2,4,0,6.2c0.7,0.7,1.8,0.1,2.4,1c0.3,0.4,0.5,0.8,0.3,1.4c-0.5,0.9-1.6,0.9-2.5,1.1
			c-0.4,0.3,0,0.9-0.2,1.4c-0.3,0.9,0.5,1.9-0.5,2.4c-2.7,0.4-5.2-0.1-8,0.1L88,60c-0.7,0.5-1.6,1.2-2.5,0.6l-1.6-0.7
			c-2,0.1-3.8-0.1-5.8,0c-1.3-0.1-3.1,0.5-4-0.7c0-1.1,0.2-2.1-0.1-3.1c-1-0.3-2.6,0.1-3.1-1.1c-0.1-0.4,0-0.9,0.1-1.3
			c0.7-1.1,2.4-0.1,3.1-1L74,49.8c0.2-1.4-0.1-2.5-0.1-3.8c-1-0.4-2.7,0.1-2.9-1.4c-0.1-0.8,0.3-1.4,1.1-1.6
			c0.7-0.2,1.6,0.1,1.9-0.5l0.2-3.1c0.8-1.3,2.7-0.5,3.9-0.7l6,0.1c0.9,0.1,1.8,1.1,2.7,0.5C90.3,37.9,94.3,39.1,98,38.7"/>
		<path class="st3" d="M98,38.7c0.4-0.1,0.8,0.3,1.1,0.5c0.3,1.2-0.1,2.3,0.3,3.5c0.9,0.3,2.1,0.1,2.5,1.1c0.2,0.5,0.2,1.2-0.1,1.6
			c-0.7,0.9-2.2,0.1-2.6,1.1c-0.1,2.4-0.2,4,0,6.2c0.7,0.7,1.8,0.1,2.4,1c0.3,0.4,0.5,0.8,0.3,1.4c-0.5,0.9-1.6,0.9-2.5,1.1
			c-0.4,0.3,0,0.9-0.2,1.4c-0.3,0.9,0.5,1.9-0.5,2.4c-2.7,0.4-5.2-0.1-8,0.1L88,60c-0.7,0.5-1.6,1.2-2.5,0.6l-1.6-0.7
			c-2,0.1-3.8-0.1-5.8,0c-1.3-0.1-3.1,0.5-4-0.7c0-1.1,0.2-2.1-0.1-3.1c-1-0.3-2.6,0.1-3.1-1.1c-0.1-0.4,0-0.9,0.1-1.3
			c0.7-1.1,2.4-0.1,3.1-1L74,49.8c0.2-1.4-0.1-2.5-0.1-3.8c-1-0.4-2.7,0.1-2.9-1.4c-0.1-0.8,0.3-1.4,1.1-1.6
			c0.7-0.2,1.6,0.1,1.9-0.5l0.2-3.1c0.8-1.3,2.7-0.5,3.9-0.7l6,0.1c0.9,0.1,1.8,1.1,2.7,0.5C90.3,37.9,94.3,39.1,98,38.7L98,38.7z"
			/>
		<path class="st0" d="M95.3,40.1c-0.1,5.1,0.1,10.3-0.1,15.4L95,55.6c-2.8,0.3-5.6-0.5-8.1,0.5c-0.5-0.2-0.1-1-0.2-1.5
			c0-4.4,0-9,0-13.6c0-0.5,0.3-0.9,0.7-1c0.7-0.5,1.7-0.3,2.6-0.5l5.2,0.1L95.3,40.1"/>
		<path class="st0" d="M85.3,40.1c0.6,0.5,0.5,1.4,0.5,2.2c-0.1,2.5,0.1,5.4-0.1,8.1c-0.2,0.1-0.5-0.1-0.7-0.2
			c-0.8-0.6-1-1.6-1.6-2.4c0.3-0.4,0.7-0.5,1.1-0.8c0.5-0.5,1.1-1.2,0.8-2c-0.1-0.7-0.4-1.3-1.1-1.6c-1.4-0.5-3.1-0.3-4.5-0.2
			c-0.3,0.1-0.3,0.4-0.1,0.6c0.5,0.2,0.7,0.6,0.8,1c-0.1,1.8-0.1,3.5-0.3,5.3l-0.7,0.8c0.7,0.7,1.7,0.1,2.8,0.3
			c0.3-0.5-0.4-0.8-0.6-1.3c0.1-0.5,0-1.2,0.3-1.7c1,0.9,1.3,2.2,2.5,3l1.4,0.1c0.1,1.7,0,3.1-0.1,4.9c-0.8-0.1-1.6-0.4-2.5-0.5
			c-1.6,0-3.2,0.1-4.8-0.1L78.3,55c0-5.1,0.1-9.9,0.1-15.1c-0.1-0.3,0.2-0.1,0.3-0.2C80.9,39.7,83.5,39.3,85.3,40.1"/>
		<path class="st0" d="M98.4,39.9c0,1.2-0.1,2.2,0.2,3.4c0.8,0.7,3-0.3,2.6,1.4c-0.7,0.5-1.7,0.1-2.5,0.3l-0.2,0.3
			c-0.3,2.6,0.2,5.3,0,7.7c0.1,0.3,0.2,0.7,0.6,0.8c0.7,0.1,1.8-0.5,2.1,0.4c-0.1,1.6-2.2,0.1-2.7,1.4c-0.2,1.2,0.3,2.2-0.1,3.3
			L98,59.1C94.7,59,91.4,59,88.2,59c-0.1-0.1-0.1-0.3,0.1-0.3l0.6-0.3c2.6-0.3,5.5,0,8.2-0.3c0.4-0.1,0.7-0.4,0.6-0.8
			c0-5,0.1-10.1,0.1-15.7c-0.1-0.8-0.9-1.2-1-2C97.3,39.6,98.1,39.3,98.4,39.9"/>
		<path class="st0" d="M76.6,39.7c-0.1,0.6-0.7,0.8-0.9,1.2c-0.4,1.1,0.1,2.1-0.1,3.2c0.1,4.5,0,8.8,0.1,13.2c0,0.3,0.3,0.7,0.6,0.8
			l7,0.1c0.4,0.1,0.9,0.2,1.1,0.4c-0.1,0.4-0.6,0.3-1,0.3c-2.6-0.1-5.4,0.1-8-0.2l-0.3-0.2c-0.1-1.2,0.1-2.4-0.4-3.5
			c-0.8-0.3-1.8,0-2.6-0.3c-0.4-0.2-0.3-0.7,0-1c0.9-0.5,2.5,0.3,2.9-0.9c-0.1-2.6,0.1-5,0-7.6c-0.7-1-2.2-0.1-2.9-1
			c0.3-1.5,2.4-0.2,2.9-1.4l0.2-3.1C75.7,39.5,76.2,39.6,76.6,39.7"/>
		<path class="st0" d="M77.6,40.6c0.2,4.5-0.3,8.6,0,13.1c-0.4,1.1,0.5,2.6-1.1,2.8c-0.3-4.5-0.1-9.4-0.2-14.3
			c-0.1-0.8,0.3-1.5,1-1.9L77.6,40.6"/>
		<path class="st0" d="M97.1,41.4c-0.1,5,0.1,10.3-0.2,15.2c-0.3,0.1-0.6-0.3-0.6-0.5c-0.1-2-0.3-4.1-0.1-6.2c0.1-2.8-0.2-6.1,0.1-9
			C96.5,40.6,97.1,41,97.1,41.4"/>
		<path class="st0" d="M83.7,44.3c0.3,0.5,0.3,1.1,0.3,1.6c-0.3,0.4-0.4,1-0.9,1.1c-0.5,0-1.2,0.3-1.3-0.3c0.1-0.9-0.3-2,0-2.8
			C82.3,43.5,83.3,43.7,83.7,44.3"/>
		<path class="st0" d="M85.1,56.8c0.3,0.1,0.6,0.3,0.4,0.7L85,57.9c-2.3-0.9-5.2-0.3-7.6-0.6c0.2-0.3,0.4-0.7,0.7-0.9
			C80.4,56.6,82.9,56.2,85.1,56.8"/>
		<path class="st0" d="M95.5,56.5c0.3,0.2,0.7,0.5,0.7,0.9l-0.3,0.1c-2.8,0.1-5.6-0.3-8.1,0.3c-0.4,0.1-0.9,0-0.9-0.5
			c0.3-0.6,1.1-0.8,1.7-0.9C90.9,56.3,93.2,56.5,95.5,56.5"/>
		<path class="st0" d="M87.1,58.7c0,0.5-0.1,1.2-0.7,1.2c-0.5,0.1-1.2,0-1.2-0.7c0.1-0.5,0.5-0.9,1-1.1
			C86.7,57.9,86.9,58.4,87.1,58.7"/>
		<path class="st2" d="M92.2,43.3c-0.7,0.3-1.4,0.9-1.2,1.8c-0.2,1.6-0.1,3.2-0.1,4.9l1.1,0.9L91.9,51c-1.1,0-2.2,0.2-3.3,0
			c-0.5-0.5,0.6-0.8,0.8-1.2c0.2-1.8,0.4-3.7,0.2-5.8c-0.2-0.6-1.2-0.3-0.9-1c1-0.1,2.3-0.1,3.3,0L92.2,43.3"/>
		<path class="st8" d="M92.2,43.3c-0.7,0.3-1.4,0.9-1.2,1.8c-0.2,1.6-0.1,3.2-0.1,4.9l1.1,0.9L91.9,51c-1.1,0-2.2,0.2-3.3,0
			c-0.5-0.5,0.6-0.8,0.8-1.2c0.2-1.8,0.4-3.7,0.2-5.8c-0.2-0.6-1.2-0.3-0.9-1c1-0.1,2.3-0.1,3.3,0L92.2,43.3L92.2,43.3z"/>
		<path class="st2" d="M60.4,44.6c-0.6,0.8-0.8-0.7-1.4-0.8c-0.4-0.1-1-0.2-1.3,0.1c-0.1,0.9-0.3,1.6,0,2.4c0.3,0.2,0.8,0.1,1.1,0.1
			c0.4-0.3,0.6-1,1.1-0.9c0.3,0.3-0.1,0.9,0.1,1.2c-0.1,0.5,0.3,1.1-0.3,1.3c-0.4-0.2-0.6-0.9-1.1-0.9l-0.9,0.1
			c-0.3,1.2-0.2,2.2,0,3.3c0.5,0.5,1.2,0.1,1.8,0.1c0.9-0.2,0.7-1.4,1.4-1.2c0.2,0.5,0.3,1.2,0.1,1.7l-0.4,0.3L56,51.3
			c-0.2-0.1-0.7-0.1-0.5-0.4c1.5-0.9,0.6-2.7,0.9-4.1c-0.2-1,0.6-2.6-0.8-3.3c-0.1-0.4,0.4-0.3,0.5-0.4c1.2,0,2.8,0.5,3.7-0.5
			C60.4,42.9,60.3,43.9,60.4,44.6"/>
		<path class="st8" d="M60.4,44.6c-0.6,0.8-0.8-0.7-1.4-0.8c-0.4-0.1-1-0.2-1.3,0.1c-0.1,0.9-0.3,1.6,0,2.4c0.3,0.2,0.8,0.1,1.1,0.1
			c0.4-0.3,0.6-1,1.1-0.9c0.3,0.3-0.1,0.9,0.1,1.2c-0.1,0.5,0.3,1.1-0.3,1.3c-0.4-0.2-0.6-0.9-1.1-0.9l-0.9,0.1
			c-0.3,1.2-0.2,2.2,0,3.3c0.5,0.5,1.2,0.1,1.8,0.1c0.9-0.2,0.7-1.4,1.4-1.2c0.2,0.5,0.3,1.2,0.1,1.7l-0.4,0.3L56,51.3
			c-0.2-0.1-0.7-0.1-0.5-0.4c1.5-0.9,0.6-2.7,0.9-4.1c-0.2-1,0.6-2.6-0.8-3.3c-0.1-0.4,0.4-0.3,0.5-0.4c1.2,0,2.8,0.5,3.7-0.5
			C60.4,42.9,60.3,43.9,60.4,44.6L60.4,44.6z"/>
		<path class="st2" d="M53.2,43.5c-1.3,1-1.4,2.9-2,4.4c-0.5,0.9-0.3,2.1-1.1,2.8c-0.3,0.1-0.6-0.2-0.7-0.5c-0.5-2-1.1-4.1-1.8-6
			c-0.1-0.6-1.4-0.7-0.7-1.2c1-0.1,1.7,0.1,2.6,0.1c0.2,0.6-0.7,0.9-0.5,1.6c0.6,0.9,0.4,2.2,1.1,3l0.3-0.3c0.1-1.5,1.8-2.9,0.3-4.2
			c0.3-0.6,1.3-0.2,2-0.4C53.1,43.1,53.6,43.2,53.2,43.5"/>
		<path class="st8" d="M53.2,43.5c-1.3,1-1.4,2.9-2,4.4c-0.5,0.9-0.3,2.1-1.1,2.8c-0.3,0.1-0.6-0.2-0.7-0.5c-0.5-2-1.1-4.1-1.8-6
			c-0.1-0.6-1.4-0.7-0.7-1.2c1-0.1,1.7,0.1,2.6,0.1c0.2,0.6-0.7,0.9-0.5,1.6c0.6,0.9,0.4,2.2,1.1,3l0.3-0.3c0.1-1.5,1.8-2.9,0.3-4.2
			c0.3-0.6,1.3-0.2,2-0.4C53.1,43.1,53.6,43.2,53.2,43.5L53.2,43.5z"/>
	</g>
</g>
</svg>
