<?xml version="1.0" encoding="utf-8"?>
<!-- Generator: Adobe Illustrator 23.0.0, SVG Export Plug-In . SVG Version: 6.00 Build 0)  -->
<svg version="1.1" id="Layer_1" xmlns="http://www.w3.org/2000/svg" xmlns:xlink="http://www.w3.org/1999/xlink" x="0px" y="0px"
	 viewBox="0 0 204 276" style="enable-background:new 0 0 204 276;" xml:space="preserve">
<style type="text/css">
	.st0{fill-rule:evenodd;clip-rule:evenodd;fill:#FFFFFF;}
</style>
<g>
	<path class="st0" d="M161.9,172.7v12.8c-6.2-5.2-12.7-7.8-19.4-7.8c-7.4,0-13.5,2.6-18.6,7.9c-5.1,5.3-7.6,11.7-7.6,19.3
		c0,7.5,2.5,13.9,7.6,19s11.3,7.7,18.6,7.7c3.8,0,7-0.6,9.7-1.9c1.5-0.6,3-1.5,4.6-2.5c1.6-1,3.3-2.3,5-3.8v13
		c-6.2,3.5-12.7,5.2-19.5,5.2c-10.2,0-19-3.6-26.2-10.7c-7.2-7.2-10.8-15.9-10.8-26.1c0-9.1,3-17.2,9-24.4
		c7.4-8.8,17-13.1,28.8-13.1C149.7,167.4,155.9,169.2,161.9,172.7z"/>
	<polygon class="st0" points="49.6,114 49.6,46.2 95.8,94.6 95.8,50.6 105.4,50.6 105.4,117.8 59.1,69.6 59.1,114 	"/>
	<path class="st0" d="M112.6,149l-9.4-21.6L93.4,149H112.6z M116.5,158H89.4l-7.1,15.4H72l31.4-67.4l30.3,67.4h-10.5L116.5,158z"/>
</g>
</svg>
