<?xml version="1.0" encoding="utf-8"?>
<!-- Generator: Adobe Illustrator 23.0.0, SVG Export Plug-In . SVG Version: 6.00 Build 0)  -->
<svg version="1.1" id="Layer_1" xmlns="http://www.w3.org/2000/svg" xmlns:xlink="http://www.w3.org/1999/xlink" x="0px" y="0px"
	 viewBox="0 0 554 192.9" style="enable-background:new 0 0 554 192.9;" xml:space="preserve">
<style type="text/css">
	.st0{fill:none;stroke:#FFFFFF;stroke-miterlimit:10;}
	.st1{fill:#FFFFFF;}
</style>
<g>
	<line class="st0" x1="505.7" y1="122" x2="45.8" y2="122"/>
	<g>
		<g>
			<path class="st1" d="M47.7,48.8h15.4v3.9H52.3v8h10.1v3.9H52.3v13.1h-4.6V48.8z"/>
			<path class="st1" d="M66.1,56h4.4v3.4h0.1c1-2.4,2.6-4,5.1-4c0.5,0,0.8,0.1,1.1,0.2V60c-0.3-0.1-1.1-0.2-1.8-0.2
				c-2,0-4.4,0.9-4.4,4.9v13h-4.4L66.1,56L66.1,56z"/>
			<path class="st1" d="M82.4,67.4v1.2c0,2.9,0.4,6.6,3.6,6.6c3.1,0,3.5-3.6,3.5-4.9h4.1c0,4.8-2.9,7.8-7.6,7.8c-3.6,0-8-1.1-8-11.1
				c0-5.7,1.2-11.8,8-11.8c6.1,0,7.7,3.6,7.7,9.7v2.3H82.4z M89.4,64.4v-1.2c0-2.8-0.9-4.9-3.4-4.9c-2.8,0-3.6,2.8-3.6,5.6v0.4H89.4
				z"/>
			<path class="st1" d="M108.4,75L108.4,75c-0.7,1.4-1.7,3.2-4.9,3.2c-5.1,0-7.1-4.2-7.1-11.7c0-9.7,3.4-11.2,6.7-11.2
				c2.3,0,4.1,1.2,4.9,3.1h0.1v-9.7h4.4v28.9h-4.1L108.4,75L108.4,75z M104.5,58.9c-2.5,0-3.4,2-3.4,7.9c0,4.9,0.6,8,3.7,8
				c3,0,3.7-3.1,3.7-7.7C108.4,61.9,107.8,58.9,104.5,58.9z"/>
			<path class="st1" d="M120.5,67.4v1.2c0,2.9,0.4,6.6,3.6,6.6c3.1,0,3.5-3.6,3.5-4.9h4.1c0,4.8-2.9,7.8-7.6,7.8
				c-3.6,0-8-1.1-8-11.1c0-5.7,1.2-11.8,8-11.8c6.1,0,7.7,3.6,7.7,9.7v2.3H120.5z M127.5,64.4v-1.2c0-2.8-0.9-4.9-3.4-4.9
				c-2.8,0-3.6,2.8-3.6,5.6v0.4H127.5z"/>
			<path class="st1" d="M135.5,56h4.4v3.4h0.1c1-2.4,2.6-4,5-4c0.5,0,0.8,0.1,1,0.2V60c-0.3-0.1-1.1-0.2-1.8-0.2
				c-2,0-4.4,0.9-4.4,4.9v13h-4.4L135.5,56L135.5,56z"/>
			<path class="st1" d="M148.4,48.5h4.4v4.4h-4.4V48.5z M148.4,56h4.4v21.7h-4.4V56z"/>
			<path class="st1" d="M171.9,69.8c-0.3,5.2-2.1,8.5-7.4,8.5c-6.3,0-8.1-4.7-8.1-11.4s1.8-11.4,8.1-11.4c6.5-0.1,7.5,5.1,7.5,7.8
				h-4.4c0-2-0.6-4.6-3.1-4.6c-3.1,0-3.7,3.4-3.7,8.2c0,4.8,0.6,8.2,3.7,8.2c2.4,0,3.3-2,3.3-5.2L171.9,69.8L171.9,69.8z"/>
			<path class="st1" d="M174.9,48.8h4.4v16.2h0.1l6.6-9.1l5,0l-6.5,8.4l7.4,13.4h-4.8l-5.3-9.9l-2.5,3v6.9h-4.4L174.9,48.8
				L174.9,48.8z"/>
			<path class="st1" d="M203.6,48.8h5.6l8.4,21.5h0.1V48.8h4.4v28.9h-5.6L208,55.6h-0.1v22.1h-4.4L203.6,48.8L203.6,48.8z"/>
			<path class="st1" d="M240.8,73.2c0,0.8,0.5,1.5,1.1,1.5c0.3,0,0.6,0,0.7-0.1v2.8c-0.5,0.2-1.3,0.5-2.1,0.5
				c-1.9,0-3.6-0.8-3.7-2.9h-0.1c-1.2,2.1-2.9,3.2-5.4,3.2c-3.5,0-5.7-1.9-5.7-6.1c0-4.9,2.1-5.9,5-6.8l3.4-0.9
				c1.6-0.4,2.5-0.9,2.5-2.8c0-2-0.7-3.2-3-3.2c-2.9,0-3.3,2.1-3.3,4.2h-4.1c0-4.6,1.9-7.1,7.6-7.1c3.8,0,6.9,1.5,6.9,5.3
				L240.8,73.2L240.8,73.2z M236.7,66.2c-1.1,0.9-3.6,1.4-4.9,2c-1.2,0.6-1.8,1.9-1.8,3.5c0,1.8,0.9,3.3,2.7,3.3
				c2.6,0,3.9-2,3.9-5.2V66.2z"/>
			<path class="st1" d="M243.3,56h3v-6.2h4.4V56h3.6v3.2h-3.6v13c0,1.7,0.5,2.3,2,2.3c0.6,0,1.2,0,1.6-0.1v3.2
				c-0.9,0.2-2.1,0.4-3.5,0.4c-3,0-4.4-0.8-4.4-5.2V59.2h-3L243.3,56L243.3,56z"/>
			<path class="st1" d="M256.7,48.5h4.4v4.4h-4.4V48.5z M256.7,56h4.4v21.7h-4.4V56z"/>
			<path class="st1" d="M272.7,55.4c6.4,0,8.1,4.7,8.1,11.4s-2.1,11.4-8.1,11.4c-6,0-8.1-4.7-8.1-11.4
				C264.6,60.1,266.4,55.4,272.7,55.4z M272.7,75c3.2,0,3.8-2.7,3.8-8.2c0-4.8-0.6-8.2-3.8-8.2c-3.1,0-3.7,3.4-3.7,8.2
				C269,72.4,269.5,75,272.7,75z"/>
			<path class="st1" d="M284.2,56h4.1v2.6h0.1c1.1-1.9,3.1-3.1,5.6-3.1c3.3,0,5.4,1.5,5.4,5.9v16.4H295V62.8c0-2.8-0.9-3.9-3-3.9
				c-1.8,0-3.5,1.4-3.5,4.2v14.6h-4.4L284.2,56L284.2,56z"/>
			<path class="st1" d="M317.9,73.2c0,0.8,0.5,1.5,1.1,1.5c0.3,0,0.6,0,0.7-0.1v2.8c-0.5,0.2-1.3,0.5-2.1,0.5
				c-1.9,0-3.6-0.8-3.7-2.9h-0.1c-1.2,2.1-2.9,3.2-5.4,3.2c-3.5,0-5.7-1.9-5.7-6.1c0-4.9,2.1-5.9,5-6.8l3.4-0.9
				c1.6-0.4,2.5-0.9,2.5-2.8c0-2-0.7-3.2-3-3.2c-2.9,0-3.3,2.1-3.3,4.2h-4.1c0-4.6,1.9-7.1,7.6-7.1c3.8,0,6.9,1.5,6.9,5.3
				L317.9,73.2L317.9,73.2z M313.7,66.2c-1.1,0.9-3.6,1.4-4.9,2c-1.2,0.6-1.8,1.9-1.8,3.5c0,1.8,0.9,3.3,2.7,3.3
				c2.6,0,3.9-2,3.9-5.2V66.2z"/>
			<path class="st1" d="M322.5,48.8h4.4v28.9h-4.4V48.8z"/>
			<path class="st1" d="M340.7,48.8h4.6v25h11.2v3.9h-15.8L340.7,48.8L340.7,48.8z"/>
			<path class="st1" d="M373.2,73.2c0,0.8,0.5,1.5,1.1,1.5c0.3,0,0.6,0,0.7-0.1v2.8c-0.5,0.2-1.3,0.5-2.1,0.5
				c-1.9,0-3.6-0.8-3.7-2.9h-0.1c-1.2,2.1-2.9,3.2-5.4,3.2c-3.5,0-5.7-1.9-5.7-6.1c0-4.9,2.1-5.9,5-6.8l3.4-0.9
				c1.6-0.4,2.5-0.9,2.5-2.8c0-2-0.7-3.2-3-3.2c-2.9,0-3.3,2.1-3.3,4.2h-4.1c0-4.6,1.9-7.1,7.6-7.1c3.8,0,6.9,1.5,6.9,5.3
				L373.2,73.2L373.2,73.2z M369.1,66.2c-1.1,0.9-3.6,1.4-4.9,2c-1.2,0.6-1.8,1.9-1.8,3.5c0,1.8,0.9,3.3,2.7,3.3
				c2.6,0,3.9-2,3.9-5.2V66.2z"/>
			<path class="st1" d="M377.6,48.8h4.4v9.7h0.1c0.8-1.9,2.6-3.1,4.9-3.1c3.3,0,6.7,1.5,6.7,11.2c0,7.5-2,11.7-7.1,11.7
				c-3.1,0-4.2-1.8-4.8-3.2h-0.1v2.7h-4.1L377.6,48.8L377.6,48.8z M385.4,74.8c3,0,3.7-3.1,3.7-8c0-5.9-0.9-7.9-3.4-7.9
				c-3.4,0-4,3-4,8.2C381.8,71.7,382.5,74.8,385.4,74.8z"/>
			<path class="st1" d="M404.3,55.4c6.3,0,8.1,4.7,8.1,11.4s-2.1,11.4-8.1,11.4c-6,0-8.1-4.7-8.1-11.4
				C396.2,60.1,398,55.4,404.3,55.4z M404.3,75c3.2,0,3.8-2.7,3.8-8.2c0-4.8-0.6-8.2-3.8-8.2c-3.2,0-3.7,3.4-3.7,8.2
				C400.6,72.4,401.2,75,404.3,75z"/>
			<path class="st1" d="M415.8,56h4.4v3.4h0.1c1-2.4,2.6-4,5-4c0.5,0,0.8,0.1,1,0.2V60c-0.3-0.1-1.1-0.2-1.8-0.2
				c-2,0-4.4,0.9-4.4,4.9v13h-4.4L415.8,56L415.8,56z"/>
			<path class="st1" d="M442.6,73.2c0,0.8,0.5,1.5,1.1,1.5c0.3,0,0.6,0,0.7-0.1v2.8c-0.5,0.2-1.3,0.5-2.1,0.5
				c-1.9,0-3.6-0.8-3.7-2.9h-0.1c-1.2,2.1-2.9,3.2-5.4,3.2c-3.5,0-5.7-1.9-5.7-6.1c0-4.9,2.1-5.9,5-6.8l3.4-0.9
				c1.6-0.4,2.5-0.9,2.5-2.8c0-2-0.7-3.2-3-3.2c-2.9,0-3.3,2.1-3.3,4.2H428c0-4.6,1.9-7.1,7.6-7.1c3.8,0,6.9,1.5,6.9,5.3L442.6,73.2
				L442.6,73.2z M438.4,66.2c-1.1,0.9-3.6,1.4-4.8,2c-1.2,0.6-1.8,1.9-1.8,3.5c0,1.8,0.9,3.3,2.7,3.3c2.6,0,3.9-2,3.9-5.2V66.2z"/>
			<path class="st1" d="M445.1,56h3v-6.2h4.4V56h3.5v3.2h-3.6v13c0,1.7,0.5,2.3,2,2.3c0.7,0,1.2,0,1.6-0.1v3.2
				c-0.9,0.2-2.1,0.4-3.5,0.4c-3,0-4.4-0.8-4.4-5.2V59.2h-3L445.1,56L445.1,56z"/>
			<path class="st1" d="M465.5,55.4c6.3,0,8.1,4.7,8.1,11.4s-2.1,11.4-8.1,11.4c-6,0-8.1-4.7-8.1-11.4
				C457.4,60.1,459.2,55.4,465.5,55.4z M465.5,75c3.2,0,3.8-2.7,3.8-8.2c0-4.8-0.6-8.2-3.8-8.2c-3.2,0-3.7,3.4-3.7,8.2
				C461.8,72.4,462.3,75,465.5,75z"/>
			<path class="st1" d="M477,56h4.4v3.4h0.1c1-2.4,2.6-4,5-4c0.5,0,0.8,0.1,1,0.2V60c-0.3-0.1-1.1-0.2-1.8-0.2c-2,0-4.4,0.9-4.4,4.9
				v13H477L477,56L477,56z"/>
			<path class="st1" d="M493.3,56l3.8,16.3h0.1l3.5-16.3h4.6l-6,22.6c-1.7,5.9-3.1,6.7-7.6,6.6c-0.6,0-1.2-0.1-1.7-0.2v-3.5
				c0.5,0.1,0.9,0.2,1.4,0.2c1.5,0,2.5-0.3,3-1.7l0.6-1.8L488.7,56L493.3,56L493.3,56z"/>
		</g>
		<g>
			<path class="st1" d="M254.5,95.6H252v-2.1h2.5v-2c0-2.6,1.1-3.9,3.7-3.9h2v2.3h-1.2c-1.1,0-1.7,0.4-1.7,1.6v2h2.9v2.1h-2.9v15
				h-2.7L254.5,95.6L254.5,95.6z"/>
			<path class="st1" d="M267.2,93.1c5,0,6.2,4.2,6.2,9s-1.2,9-6.2,9c-5,0-6.2-4.2-6.2-9C261,97.2,262.3,93.1,267.2,93.1z
				 M270.5,102.1c0-3.7-0.5-6.9-3.4-6.9c-2.7,0-3.3,3.2-3.3,6.9s0.5,6.9,3.3,6.9C269.9,108.9,270.5,105.8,270.5,102.1z"/>
			<path class="st1" d="M275.9,93.5h2.7v2.6h0.1c0.8-1.6,1.8-3,3.7-3c0.5,0,0.9,0.1,1.2,0.2v2.6c-0.3,0-0.6-0.1-1.4-0.1
				c-1.3,0-3.5,1.2-3.5,4.1v10.8h-2.7L275.9,93.5L275.9,93.5z"/>
			<path class="st1" d="M306.7,102.8c-0.3,4.3-2,8.3-6.9,8.3c-6.5,0-7.3-6.1-7.3-11.8c0-5.7,1-11.8,7.3-11.8c4.7,0,6.6,2.6,6.7,7.1
				h-2.9c-0.1-2.6-0.9-4.8-3.8-4.8c-3.9,0-4.4,4.3-4.4,9.5s0.5,9.5,4.4,9.5c3.4,0,3.9-3.2,4-6L306.7,102.8L306.7,102.8z"/>
			<path class="st1" d="M308.6,98.7c0-3.9,1.7-5.6,5.7-5.6c5.2,0,5.2,3.1,5.2,4.9v9.5c0,0.7,0,1.4,0.8,1.4c0.4,0,0.5-0.1,0.6-0.2
				v1.9c-0.2,0-0.9,0.2-1.6,0.2c-1,0-2.3,0-2.4-2.2H317c-0.9,1.5-2.5,2.5-4.1,2.5c-3.2,0-4.7-1.9-4.7-5c0-2.4,1-4.1,3.2-4.7l3.6-1.1
				c2-0.6,2-1.1,2-2.6c0-1.6-1-2.5-2.7-2.5c-2.9,0-2.9,2.7-2.9,3.4v0.2L308.6,98.7L308.6,98.7z M316.9,101.3c-1,1.1-3.4,1.3-4.6,2
				c-0.9,0.5-1.3,1.2-1.3,2.7c0,1.7,0.6,2.9,2.4,2.9c1.8,0,3.5-1.5,3.5-3.2L316.9,101.3L316.9,101.3z"/>
			<path class="st1" d="M323,93.5h2.5v2h0.1c0.7-1.6,2.5-2.5,4.1-2.5c4.5,0,4.5,3.4,4.5,5.4v12.1h-2.7V98.8c0-1.3-0.1-3.4-2.5-3.4
				c-1.4,0-3.4,1-3.4,3.4v11.8H323V93.5z"/>
			<path class="st1" d="M345.8,98.7c0-1.7-0.7-3.5-2.7-3.5c-1.7,0-3.4,0.8-3.4,7.1c0,2.2,0,6.7,3.3,6.7c2.3,0,2.8-2.4,2.8-4.3h2.7
				c0,2.7-1.3,6.4-5.6,6.4c-4.2,0-5.9-2.9-5.9-8.8c0-4.3,0.8-9.2,6.1-9.2c4.7,0,5.5,3.7,5.5,5.6L345.8,98.7L345.8,98.7z"/>
			<path class="st1" d="M353.3,102.4c0,2.6,0,6.6,3.3,6.6c2.5,0,2.9-2.7,2.9-4h2.7c0,1.8-1.1,6.1-5.7,6.1c-4.2,0-5.9-2.9-5.9-8.8
				c0-4.3,0.8-9.2,6.1-9.2c5.2,0,5.7,4.6,5.7,8.2v1.1L353.3,102.4L353.3,102.4z M359.5,100.3v-0.9c0-1.9-0.6-4.2-3-4.2
				c-2.8,0-3.1,3.4-3.1,4.5v0.6L359.5,100.3L359.5,100.3z"/>
			<path class="st1" d="M365.1,93.5h2.7v2.6h0.1c0.8-1.6,1.8-3,3.7-3c0.5,0,0.9,0.1,1.2,0.2v2.6c-0.3,0-0.6-0.1-1.4-0.1
				c-1.3,0-3.5,1.2-3.5,4.1v10.8h-2.7L365.1,93.5L365.1,93.5z"/>
			<path class="st1" d="M382,87.8h7.4c3.6,0,5.8,2.1,5.8,5.7c0,2.5-0.9,5.1-3.5,5.7v0.1c2,0.2,3.1,1.9,3.2,3.8l0.2,3.9
				c0.1,2.5,0.5,3.2,1.2,3.6h-3.4c-0.5-0.5-0.7-2.2-0.8-3.3l-0.2-3.5c-0.2-3.1-2-3.3-3.4-3.3h-3.8v10.1H382V87.8z M384.8,98.2h2.8
				c1.7,0,4.7,0,4.7-4.4c0-2.2-1.5-3.6-4.1-3.6h-3.3L384.8,98.2L384.8,98.2z"/>
			<path class="st1" d="M400.5,102.4c0,2.6,0,6.6,3.3,6.6c2.5,0,2.9-2.7,2.9-4h2.7c0,1.8-1.1,6.1-5.7,6.1c-4.2,0-5.9-2.9-5.9-8.8
				c0-4.3,0.8-9.2,6.1-9.2c5.2,0,5.7,4.6,5.7,8.2v1.1L400.5,102.4L400.5,102.4z M406.7,100.3v-0.9c0-1.9-0.6-4.2-3-4.2
				c-2.8,0-3.1,3.4-3.1,4.5v0.6L406.7,100.3L406.7,100.3z"/>
			<path class="st1" d="M419.6,98.5c0-2.2-0.6-3.4-2.5-3.4c-0.9,0-2.8,0.2-2.8,2.6c0,2,2.1,2.4,4.2,3.1c2.1,0.7,4.2,1.4,4.2,4.8
				c0,3.6-2.3,5.4-5.5,5.4c-5.8,0-5.9-4.3-5.9-6.1h2.7c0,2.1,0.6,4,3.2,4c0.9,0,2.8-0.4,2.8-2.8c0-2.3-2.1-2.8-4.2-3.5
				s-4.2-1.3-4.2-4.9c0-3.2,2.5-4.7,5.5-4.7c5,0,5.2,3.4,5.2,5.5L419.6,98.5L419.6,98.5z"/>
			<path class="st1" d="M427.4,102.4c0,2.6,0,6.6,3.3,6.6c2.5,0,2.9-2.7,2.9-4h2.7c0,1.8-1.1,6.1-5.7,6.1c-4.2,0-5.9-2.9-5.9-8.8
				c0-4.3,0.8-9.2,6.1-9.2c5.2,0,5.7,4.6,5.7,8.2v1.1L427.4,102.4L427.4,102.4z M433.6,100.3v-0.9c0-1.9-0.6-4.2-3-4.2
				c-2.8,0-3.1,3.4-3.1,4.5v0.6L433.6,100.3L433.6,100.3z"/>
			<path class="st1" d="M438.7,98.7c0-3.9,1.7-5.6,5.7-5.6c5.2,0,5.2,3.1,5.2,4.9v9.5c0,0.7,0,1.4,0.8,1.4c0.3,0,0.5-0.1,0.6-0.2
				v1.9c-0.2,0-0.9,0.2-1.6,0.2c-1,0-2.3,0-2.4-2.2h-0.1c-0.9,1.5-2.5,2.5-4.1,2.5c-3.2,0-4.7-1.9-4.7-5c0-2.4,1-4.1,3.2-4.7
				l3.6-1.1c2-0.6,2-1.1,2-2.6c0-1.6-1-2.5-2.7-2.5c-2.9,0-2.9,2.7-2.9,3.4v0.2L438.7,98.7L438.7,98.7z M447,101.3
				c-1,1.1-3.3,1.3-4.6,2c-0.9,0.5-1.3,1.2-1.3,2.7c0,1.7,0.6,2.9,2.4,2.9c1.8,0,3.5-1.5,3.5-3.2L447,101.3L447,101.3z"/>
			<path class="st1" d="M453.2,93.5h2.7v2.6h0.1c0.8-1.6,1.8-3,3.7-3c0.5,0,0.9,0.1,1.2,0.2v2.6c-0.3,0-0.6-0.1-1.4-0.1
				c-1.3,0-3.5,1.2-3.5,4.1v10.8h-2.7L453.2,93.5L453.2,93.5z"/>
			<path class="st1" d="M470.6,98.7c0-1.7-0.7-3.5-2.7-3.5c-1.7,0-3.3,0.8-3.3,7.1c0,2.2,0,6.7,3.2,6.7c2.3,0,2.8-2.4,2.8-4.3h2.7
				c0,2.7-1.3,6.4-5.6,6.4c-4.2,0-5.9-2.9-5.9-8.8c0-4.3,0.8-9.2,6.1-9.2c4.7,0,5.5,3.7,5.5,5.6L470.6,98.7L470.6,98.7z"/>
			<path class="st1" d="M475.9,87.8h2.7v7.6h0.1c0.7-1.4,2.6-2.4,4.1-2.4c4.4,0,4.4,3.4,4.4,5.4v12.1h-2.7V98.8
				c0-1.3-0.1-3.4-2.5-3.4c-1.4,0-3.4,1-3.4,3.4v11.8h-2.7V87.8z"/>
		</g>
	</g>
	<g>
		<path class="st1" d="M206.8,137.6c0.1-0.9-0.8-1.4-1.7-1.4c-0.8,0-1.8,0.2-1.8,1.1c0,0.8,1.1,1.1,2.2,1.5c1.1,0.4,2.2,1,2.2,2.3
			c0,1.8-1.8,2.6-3.4,2.6c-1.9,0-3.4-0.7-3.3-2.8h1.4c-0.1,1.2,1,1.6,2.1,1.6c0.9,0,1.9-0.3,1.9-1.3c0-0.8-1.1-1.1-2.2-1.6
			c-1.1-0.4-2.2-1-2.2-2.2c0-1.5,1.5-2.4,3.1-2.4s3.1,0.7,3.1,2.6L206.8,137.6L206.8,137.6z"/>
		<path class="st1" d="M210.5,135.2h1.3l-0.3,1.2h0c0.8-1.1,1.6-1.4,2.7-1.4c2.1,0,3.2,1.4,3.2,3.4c0,2.5-1.7,5.2-4.6,5.2
			c-1,0-2.2-0.4-2.6-1.4h0l-0.9,4.4h-1.3L210.5,135.2z M214,136.2c-2.1,0-3.2,2.4-3.2,4.1c0,1.2,0.7,2.1,2.1,2.1
			c2.1,0,3.3-2.2,3.3-4.1C216.1,137,215.5,136.2,214,136.2z"/>
		<path class="st1" d="M223.2,135c2.2,0,3.4,1.2,3.4,3.4c0,2.7-1.7,5.2-4.6,5.2c-2.2,0-3.5-1.4-3.5-3.4
			C218.6,137.5,220.3,135,223.2,135z M222.2,142.4c2,0,3.1-2.3,3.1-3.9c0-1.3-0.7-2.3-2.2-2.3c-2.1,0-3.2,2.3-3.2,4
			C219.9,141.5,220.7,142.4,222.2,142.4z"/>
		<path class="st1" d="M229.1,135.2h1.3l-0.3,1.2h0c0.7-0.9,1.8-1.4,2.9-1.4c1.5,0,2.3,0.7,2.3,2.1c0,0.4-0.1,1-0.2,1.6l-1,4.7h-1.4
			l1-4.8c0.1-0.3,0.2-1,0.2-1.3c0-0.8-0.6-1.1-1.4-1.1c-0.8,0-1.5,0.4-2,1c-0.5,0.4-0.7,1.1-0.9,1.7l-1,4.6h-1.4L229.1,135.2z"/>
		<path class="st1" d="M242,137.6c0.1-0.9-0.8-1.4-1.7-1.4c-0.8,0-1.8,0.2-1.8,1.1c0,0.8,1.1,1.1,2.2,1.5c1.1,0.4,2.2,1,2.2,2.3
			c0,1.8-1.8,2.6-3.4,2.6c-1.9,0-3.4-0.7-3.3-2.8h1.4c-0.1,1.2,1,1.6,2.1,1.6c0.9,0,1.9-0.3,1.9-1.3c0-0.8-1.1-1.1-2.2-1.6
			c-1.1-0.4-2.2-1-2.2-2.2c0-1.5,1.5-2.4,3.1-2.4s3.1,0.7,3.1,2.6L242,137.6L242,137.6z"/>
		<path class="st1" d="M248.9,135c2.2,0,3.4,1.2,3.4,3.4c0,2.7-1.7,5.2-4.6,5.2c-2.2,0-3.5-1.4-3.5-3.4
			C244.3,137.5,246,135,248.9,135z M247.9,142.4c2,0,3.1-2.3,3.1-3.9c0-1.3-0.7-2.3-2.2-2.3c-2.1,0-3.2,2.3-3.2,4
			C245.6,141.5,246.4,142.4,247.9,142.4z"/>
		<path class="st1" d="M254.8,135.2h1.3l-0.4,1.8h0c0.6-1.1,1.6-2,3-2c0.2,0,0.3,0,0.5,0l-0.3,1.4c-0.1,0-0.3,0-0.4,0
			c-0.3,0-0.5,0-0.8,0.1c-0.8,0.2-1.3,0.7-1.8,1.3c-0.4,0.5-0.6,1.3-0.7,1.9l-0.8,3.6h-1.4L254.8,135.2z"/>
		<path class="st1" d="M260.1,139.7c0,0.2,0,0.5,0,0.7c0,1.3,1,2,2.1,2c1.2,0,2-0.6,2.4-1.6h1.4c-0.4,1.8-1.9,2.8-3.7,2.8
			c-2.7,0-3.5-1.9-3.5-3.3c0-3.2,2-5.3,4.2-5.3c2.4,0,3.5,1.3,3.5,3.6c0,0.4-0.1,0.9-0.1,1.1H260.1z M265.1,138.5
			c0.1-1.2-0.4-2.3-1.9-2.3c-1.6,0-2.5,1.1-2.9,2.3H265.1z"/>
		<path class="st1" d="M274.4,143.4h-1.3l0.3-1.2h0c-0.8,1.1-1.6,1.4-2.7,1.4c-2.1,0-3.2-1.4-3.2-3.4c0-2.5,1.7-5.2,4.6-5.2
			c1,0,2.2,0.4,2.6,1.4h0l0.9-4.4h1.3L274.4,143.4z M270.9,142.4c2.1,0,3.2-2.4,3.2-4.1c0-1.2-0.7-2.1-2.1-2.1
			c-2.1,0-3.3,2.2-3.3,4.1C268.8,141.6,269.4,142.4,270.9,142.4z"/>
		<path class="st1" d="M283.4,132h1.4l-0.9,4.2l0,0c0.6-0.8,1.5-1.2,2.5-1.2c2.2,0,3.2,1.4,3.2,3.6c0,2.6-1.6,5.1-4.4,5.1
			c-1.5,0-2.6-0.9-2.8-1.7h0l-0.3,1.5H281L283.4,132z M286.4,136.2c-2.4,0-3.4,2.4-3.4,4.2c0,1.3,0.9,2.1,2.2,2.1c2,0,3-2.3,3-3.9
			C288.3,137.2,287.7,136.2,286.4,136.2z"/>
		<path class="st1" d="M293.1,144.8c-0.7,1.1-1.3,1.9-2.7,1.9c-0.3,0-0.7-0.1-0.9-0.2l0.2-1.1c0.2,0.1,0.5,0.2,0.8,0.2
			c0.6,0,1-0.4,1.3-0.9l0.8-1.4l-1.5-8.2h1.5l1,6.6h0l3.5-6.6h1.5L293.1,144.8z"/>
		<path class="st1" d="M306.1,135.2h1.6l-0.3,1.2h-1.6l-1,4.9c0,0.2,0,0.4,0,0.5c0,0.4,0.4,0.6,0.8,0.6c0.3,0,0.5-0.1,0.8-0.1
			l-0.2,1.2c-0.3,0.1-0.6,0.1-1,0.1c-1,0-1.9-0.3-1.9-1.3c0-0.2,0-0.4,0.1-0.7l1.1-5.1h-1.4l0.2-1.2h1.4l0.5-2.4h1.4L306.1,135.2z"
			/>
		<path class="st1" d="M310,132h1.4l-1,4.4l0,0c0.7-0.9,1.8-1.4,2.9-1.4c1.5,0,2.3,0.7,2.3,2.1c0,0.4-0.1,1-0.2,1.6l-1,4.7H313
			l1-4.8c0.1-0.3,0.2-1,0.2-1.3c0-0.8-0.6-1.1-1.4-1.1c-0.8,0-1.5,0.4-2,1c-0.5,0.4-0.7,1.1-0.9,1.7l-1,4.6h-1.4L310,132z"/>
		<path class="st1" d="M318.1,139.7c0,0.2,0,0.5,0,0.7c0,1.3,1,2,2.1,2c1.2,0,2-0.6,2.4-1.6h1.4c-0.4,1.8-1.9,2.8-3.7,2.8
			c-2.7,0-3.5-1.9-3.5-3.3c0-3.2,2-5.3,4.2-5.3c2.4,0,3.5,1.3,3.5,3.6c0,0.4-0.1,0.9-0.1,1.1H318.1z M323.1,138.5
			c0.1-1.2-0.4-2.3-1.9-2.3c-1.6,0-2.5,1.1-2.9,2.3H323.1z"/>
		<path class="st1" d="M332,132h1.6l4.1,9.4h0l1.9-9.4h1.5l-2.4,11.4h-1.6l-4-9.4h0l-1.9,9.4h-1.5L332,132z"/>
		<path class="st1" d="M341.9,137.7c0.3-1.8,1.8-2.7,3.6-2.7c1.6,0,3,0.4,3,2.1c0,0.5-0.2,1.1-0.3,1.5l-0.5,2.2
			c-0.1,0.3-0.2,0.8-0.2,1.2c0,0.4,0.2,0.5,0.4,0.5c0.1,0,0.3-0.1,0.4-0.1l-0.2,1c-0.2,0.1-0.6,0.2-0.8,0.2c-0.8,0-1.1-0.4-1.1-1.2
			l0,0c-0.6,0.8-1.4,1.2-2.8,1.2c-1.4,0-2.5-0.6-2.5-2.3c0-2.4,2.3-2.6,4.2-2.7c1.4-0.1,2.1-0.2,2.1-1.3c0-0.9-0.9-1.1-1.7-1.1
			c-1,0-2.1,0.4-2.2,1.5L341.9,137.7L341.9,137.7z M343.7,142.4c1,0,1.8-0.4,2.3-1.1c0.5-0.6,0.5-1.4,0.7-2.1h0
			c-0.6,0.4-1.7,0.4-2.6,0.6c-1,0.1-1.8,0.4-1.8,1.5C342.2,142,343,142.4,343.7,142.4z"/>
		<path class="st1" d="M352.8,135.2h1.6l-0.3,1.2h-1.6l-1,4.9c0,0.2,0,0.4,0,0.5c0,0.4,0.4,0.6,0.8,0.6c0.3,0,0.5-0.1,0.8-0.1
			l-0.2,1.2c-0.3,0.1-0.6,0.1-1,0.1c-1,0-1.9-0.3-1.9-1.3c0-0.2,0-0.4,0.1-0.7l1.1-5.1h-1.4l0.2-1.2h1.4l0.5-2.4h1.4L352.8,135.2z"
			/>
		<path class="st1" d="M356,135.2h1.4l-1.7,8.2h-1.4L356,135.2z M357.7,133.7h-1.4l0.4-1.7h1.4L357.7,133.7z"/>
		<path class="st1" d="M362.8,135c2.2,0,3.4,1.2,3.4,3.4c0,2.7-1.7,5.2-4.6,5.2c-2.2,0-3.5-1.4-3.5-3.4
			C358.2,137.5,359.9,135,362.8,135z M361.8,142.4c2,0,3.1-2.3,3.1-3.9c0-1.3-0.7-2.3-2.2-2.3c-2.1,0-3.2,2.3-3.2,4
			C359.5,141.5,360.3,142.4,361.8,142.4z"/>
		<path class="st1" d="M368.7,135.2h1.3l-0.3,1.2h0c0.7-0.9,1.8-1.4,2.9-1.4c1.5,0,2.3,0.7,2.3,2.1c0,0.4-0.1,1-0.2,1.6l-1,4.7h-1.4
			l1-4.8c0.1-0.3,0.2-1,0.2-1.3c0-0.8-0.6-1.1-1.4-1.1c-0.8,0-1.5,0.4-2,1c-0.5,0.4-0.7,1.1-0.9,1.7l-1,4.6H367L368.7,135.2z"/>
		<path class="st1" d="M376.8,137.7c0.3-1.8,1.8-2.7,3.6-2.7c1.6,0,3,0.4,3,2.1c0,0.5-0.2,1.1-0.3,1.5l-0.5,2.2
			c-0.1,0.3-0.2,0.8-0.2,1.2c0,0.4,0.2,0.5,0.4,0.5c0.1,0,0.3-0.1,0.4-0.1l-0.2,1c-0.2,0.1-0.6,0.2-0.8,0.2c-0.8,0-1.2-0.4-1.1-1.2
			l0,0c-0.6,0.8-1.4,1.2-2.8,1.2c-1.4,0-2.5-0.6-2.5-2.3c0-2.4,2.3-2.6,4.2-2.7c1.4-0.1,2.1-0.2,2.1-1.3c0-0.9-0.9-1.1-1.7-1.1
			c-1,0-2.1,0.4-2.2,1.5L376.8,137.7L376.8,137.7z M378.6,142.4c1,0,1.8-0.4,2.3-1.1c0.5-0.6,0.5-1.4,0.7-2.1h0
			c-0.6,0.4-1.7,0.4-2.7,0.6c-1,0.1-1.8,0.4-1.8,1.5C377.1,142,377.8,142.4,378.6,142.4z"/>
		<path class="st1" d="M386.5,132h1.4l-2.4,11.4h-1.4L386.5,132z"/>
		<path class="st1" d="M402.7,139.6c-0.6,2.6-2.2,4.1-5,4.1c-3.1,0-4.9-1.9-4.9-5c0-3.7,2.4-6.9,6.2-6.9c2.5,0,4.3,1.3,4.3,3.9h-1.5
			c0-1.8-1.2-2.7-2.8-2.7c-3.2,0-4.7,2.9-4.7,5.7c0,2.2,1.1,3.7,3.4,3.7c1.9,0,3-1.1,3.5-2.8L402.7,139.6L402.7,139.6z"/>
		<path class="st1" d="M404.5,137.7c0.3-1.8,1.8-2.7,3.6-2.7c1.6,0,3,0.4,3,2.1c0,0.5-0.2,1.1-0.3,1.5l-0.5,2.2
			c-0.1,0.3-0.2,0.8-0.2,1.2c0,0.4,0.2,0.5,0.4,0.5c0.1,0,0.3-0.1,0.4-0.1l-0.2,1c-0.2,0.1-0.6,0.2-0.8,0.2c-0.8,0-1.2-0.4-1.1-1.2
			l0,0c-0.6,0.8-1.4,1.2-2.8,1.2c-1.4,0-2.5-0.6-2.5-2.3c0-2.4,2.3-2.6,4.2-2.7c1.4-0.1,2.1-0.2,2.1-1.3c0-0.9-0.9-1.1-1.7-1.1
			c-1,0-2.1,0.4-2.2,1.5L404.5,137.7L404.5,137.7z M406.4,142.4c1,0,1.8-0.4,2.3-1.1c0.5-0.6,0.5-1.4,0.7-2.1h0
			c-0.6,0.4-1.7,0.4-2.7,0.6c-1,0.1-1.8,0.4-1.8,1.5C404.9,142,405.6,142.4,406.4,142.4z"/>
		<path class="st1" d="M413.6,135.2h1.3l-0.3,1.2h0c0.7-0.9,1.8-1.4,2.9-1.4c1.5,0,2.3,0.7,2.3,2.1c0,0.4-0.1,1-0.2,1.6l-1,4.7h-1.4
			l1-4.8c0.1-0.3,0.2-1,0.2-1.3c0-0.8-0.6-1.1-1.4-1.1c-0.8,0-1.5,0.4-2,1c-0.5,0.4-0.7,1.1-0.9,1.7l-1,4.6h-1.4L413.6,135.2z"/>
		<path class="st1" d="M427.5,137.8c0-1-0.7-1.6-1.7-1.6c-2.1,0-3.2,2.1-3.2,3.9c0,1.3,0.5,2.4,2,2.4c1.2,0,2-0.7,2.4-1.7h1.4
			c-0.5,1.8-1.9,2.9-3.8,2.9c-2.2,0-3.4-1.3-3.4-3.6c0-2.6,1.6-5.1,4.6-5.1c1.9,0,3,0.9,3.1,2.8L427.5,137.8L427.5,137.8z"/>
		<path class="st1" d="M431,139.7c0,0.2,0,0.5,0,0.7c0,1.3,1,2,2.1,2c1.2,0,2-0.6,2.4-1.6h1.4c-0.4,1.8-1.9,2.8-3.7,2.8
			c-2.7,0-3.5-1.9-3.5-3.3c0-3.2,2-5.3,4.2-5.3c2.4,0,3.5,1.3,3.5,3.6c0,0.4-0.1,0.9-0.1,1.1H431z M436,138.5
			c0.1-1.2-0.4-2.3-1.9-2.3c-1.6,0-2.5,1.1-2.9,2.3H436z"/>
		<path class="st1" d="M439.6,135.2h1.3l-0.4,1.8h0c0.6-1.1,1.6-2,3-2c0.2,0,0.3,0,0.5,0l-0.3,1.4c-0.1,0-0.3,0-0.4,0
			c-0.3,0-0.5,0-0.8,0.1c-0.8,0.2-1.3,0.7-1.8,1.3c-0.4,0.5-0.6,1.3-0.7,1.9l-0.8,3.6h-1.4L439.6,135.2z"/>
		<path class="st1" d="M450.2,132h1.5l-2.4,11.4h-1.5L450.2,132z"/>
		<path class="st1" d="M453.5,135.2h1.3l-0.3,1.2h0c0.7-0.9,1.8-1.4,2.9-1.4c1.5,0,2.3,0.7,2.3,2.1c0,0.4-0.1,1-0.2,1.6l-1,4.7h-1.4
			l1-4.8c0.1-0.3,0.2-1,0.2-1.3c0-0.8-0.6-1.1-1.4-1.1c-0.8,0-1.5,0.4-2,1c-0.5,0.4-0.7,1.1-0.9,1.7l-1,4.6h-1.4L453.5,135.2z"/>
		<path class="st1" d="M466.4,137.6c0.1-0.9-0.8-1.4-1.7-1.4c-0.8,0-1.8,0.2-1.8,1.1c0,0.8,1.1,1.1,2.2,1.5c1.1,0.4,2.2,1,2.2,2.3
			c0,1.8-1.8,2.6-3.4,2.6c-1.9,0-3.3-0.7-3.3-2.8h1.4c-0.1,1.2,1,1.6,2.1,1.6c0.9,0,1.9-0.3,1.9-1.3c0-0.8-1.1-1.1-2.2-1.6
			c-1.1-0.4-2.2-1-2.2-2.2c0-1.5,1.5-2.4,3.1-2.4c1.5,0,3.1,0.7,3.1,2.6L466.4,137.6L466.4,137.6z"/>
		<path class="st1" d="M471.9,135.2h1.6l-0.3,1.2h-1.6l-1,4.9c0,0.2,0,0.4,0,0.5c0,0.4,0.4,0.6,0.8,0.6c0.3,0,0.5-0.1,0.8-0.1
			l-0.2,1.2c-0.3,0.1-0.6,0.1-1,0.1c-1,0-1.8-0.3-1.8-1.3c0-0.2,0-0.4,0.1-0.7l1.1-5.1H469l0.2-1.2h1.4l0.5-2.4h1.4L471.9,135.2z"/>
		<path class="st1" d="M475.1,135.2h1.4l-1.7,8.2h-1.4L475.1,135.2z M476.8,133.7h-1.4l0.3-1.7h1.4L476.8,133.7z"/>
		<path class="st1" d="M480.5,135.2h1.6l-0.3,1.2h-1.6l-1,4.9c0,0.2,0,0.4,0,0.5c0,0.4,0.4,0.6,0.8,0.6c0.3,0,0.5-0.1,0.8-0.1
			l-0.2,1.2c-0.3,0.1-0.6,0.1-1,0.1c-1,0-1.8-0.3-1.8-1.3c0-0.2,0-0.4,0.1-0.7l1.1-5.1h-1.4l0.2-1.2h1.4l0.5-2.4h1.4L480.5,135.2z"
			/>
		<path class="st1" d="M488.6,143.4h-1.3l0.3-1.2h0c-0.7,0.9-1.8,1.4-2.9,1.4c-1.5,0-2.3-0.7-2.3-2.1c0-0.4,0.1-1,0.2-1.6l1-4.7h1.4
			l-1,4.8c-0.1,0.3-0.2,1-0.2,1.3c0,0.8,0.6,1.1,1.4,1.1c1.5,0,2.7-1.3,3-2.7l1-4.6h1.4L488.6,143.4z"/>
		<path class="st1" d="M494.4,135.2h1.6l-0.3,1.2h-1.6l-1,4.9c0,0.2,0,0.4,0,0.5c0,0.4,0.4,0.6,0.8,0.6c0.3,0,0.5-0.1,0.8-0.1
			l-0.2,1.2c-0.3,0.1-0.6,0.1-1,0.1c-1,0-1.8-0.3-1.8-1.3c0-0.2,0-0.4,0.1-0.7l1.1-5.1h-1.4l0.3-1.2h1.4l0.5-2.4h1.4L494.4,135.2z"
			/>
		<path class="st1" d="M497.5,139.7c0,0.2,0,0.5,0,0.7c0,1.3,1,2,2.1,2c1.2,0,2-0.6,2.4-1.6h1.4c-0.4,1.8-1.9,2.8-3.7,2.8
			c-2.7,0-3.5-1.9-3.5-3.3c0-3.2,2-5.3,4.2-5.3c2.4,0,3.5,1.3,3.5,3.6c0,0.4-0.1,0.9-0.1,1.1H497.5z M502.5,138.5
			c0.1-1.2-0.4-2.3-1.9-2.3c-1.6,0-2.5,1.1-2.9,2.3H502.5z"/>
	</g>
</g>
</svg>
