<?xml version="1.0" encoding="utf-8"?>
<!-- Generator: Adobe Illustrator 23.0.0, SVG Export Plug-In . SVG Version: 6.00 Build 0)  -->
<svg version="1.1" id="Layer_1" xmlns="http://www.w3.org/2000/svg" xmlns:xlink="http://www.w3.org/1999/xlink" x="0px" y="0px"
	 viewBox="0 0 621 238" style="enable-background:new 0 0 621 238;" xml:space="preserve">
<style type="text/css">
	.st0{fill:#FFFFFF;}
</style>
<g>
	<g>
		<path class="st0" d="M57.9,142.9h-6.5v-3.4h16.7v3.4h-6.5v17h-3.7V142.9z"/>
		<path class="st0" d="M85.2,150.1v9.8h-3.5v-9c0-2.1-1.3-3.6-3.2-3.6c-2.1,0-3.7,1.5-3.7,3.3v9.3h-3.6v-20.7h3.6v7.5
			c0.9-1.5,2.7-2.5,4.8-2.5C82.9,144.2,85.2,146.6,85.2,150.1z"/>
		<path class="st0" d="M100.3,155.5l2.3,2.4c-1.3,1.4-4,2.4-6.2,2.4c-4.4,0-8-3.4-8-8.1c0-4.6,3.4-8,7.8-8c4.7,0,7.5,3.6,7.5,9.2H92
			c0.4,2.1,2.1,3.6,4.2,3.6C97.7,157,99.4,156.4,100.3,155.5z M92.1,150.7h8.1c-0.4-1.9-1.7-3.3-3.9-3.3
			C94.2,147.4,92.6,148.6,92.1,150.7z"/>
		<path class="st0" d="M133.8,155.8l2,1.8l-2,2.3l-2.2-1.9c-1.8,1.4-4.1,2.2-6.5,2.2c-5.8,0-10.7-4.8-10.7-10.6s4.9-10.5,10.7-10.5
			c5.8,0,10.7,4.8,10.7,10.5C135.8,151.9,135.1,154.1,133.8,155.8z M129,155.6l-2.6-2.3l2-2.3l2.7,2.4c0.6-1.1,1-2.4,1-3.7
			c0-3.9-3.1-7.1-6.9-7.1c-3.8,0-6.9,3.3-6.9,7.1c0,3.9,3.2,7.2,6.9,7.2C126.6,156.8,127.9,156.4,129,155.6z"/>
		<path class="st0" d="M153.1,144.5v15.3h-3.6v-2c-0.9,1.4-2.7,2.4-4.7,2.4c-3.4,0-5.7-2.5-5.7-5.9v-9.8h3.5v9
			c0,2.1,1.3,3.6,3.2,3.6s3.5-1.3,3.7-2.9v-9.7L153.1,144.5L153.1,144.5z"/>
		<path class="st0" d="M170.3,150.6v9.2h-3.5V158c-1.1,1.4-3,2.2-4.8,2.2c-3.3,0-5.7-1.9-5.7-4.9c0-3,2.8-5.1,6.2-5.1
			c1.4,0,2.9,0.3,4.3,0.8v-0.4c0-1.8-1-3.5-3.8-3.5c-1.5,0-2.8,0.5-4.1,1.2l-1.2-2.5c2.2-1.1,4.2-1.6,6.1-1.6
			C167.8,144.2,170.3,146.8,170.3,150.6z M166.8,155v-1.7c-1.1-0.4-2.4-0.6-3.8-0.6c-1.8,0-3.3,1-3.3,2.5c0,1.4,1.3,2.4,3,2.4
			C164.5,157.6,166.4,156.7,166.8,155z"/>
		<path class="st0" d="M188.3,150.1v9.8h-3.5v-9c0-2.1-1.3-3.6-3.2-3.6c-1.9,0-3.5,1.3-3.7,2.9v9.7h-3.6v-15.3h3.6v2
			c1-1.4,2.7-2.4,4.7-2.4C186,144.2,188.3,146.6,188.3,150.1z"/>
		<path class="st0" d="M200.9,159c-0.9,0.7-2.1,1.2-3.3,1.2c-2.5,0-4.3-1.8-4.3-4.4v-8.3h-2.2v-3h2.2v-4.2h3.5v4.2h3.5v3h-3.5v7.8
			c0,1,0.6,1.8,1.5,1.8c0.6,0,1.2-0.2,1.5-0.6L200.9,159z"/>
		<path class="st0" d="M203.5,140.1c0-1.1,0.9-2,2.1-2c1.1,0,2,0.9,2,2c0,1.1-0.9,2.1-2,2.1C204.4,142.2,203.5,141.2,203.5,140.1z
			 M203.7,144.5h3.6v15.3h-3.6V144.5z"/>
		<path class="st0" d="M220,159c-0.9,0.7-2.1,1.2-3.3,1.2c-2.5,0-4.3-1.8-4.3-4.4v-8.3h-2.2v-3h2.2v-4.2h3.5v4.2h3.5v3H216v7.8
			c0,1,0.6,1.8,1.5,1.8c0.6,0,1.2-0.2,1.5-0.6L220,159z"/>
		<path class="st0" d="M236.1,150.6v9.2h-3.5V158c-1.1,1.4-3,2.2-4.8,2.2c-3.3,0-5.7-1.9-5.7-4.9c0-3,2.8-5.1,6.2-5.1
			c1.4,0,2.9,0.3,4.3,0.8v-0.4c0-1.8-1-3.5-3.8-3.5c-1.5,0-2.8,0.5-4.1,1.2l-1.2-2.5c2.2-1.1,4.2-1.6,6.1-1.6
			C233.6,144.2,236.1,146.8,236.1,150.6z M232.6,155v-1.7c-1.1-0.4-2.4-0.6-3.8-0.6c-1.8,0-3.3,1-3.3,2.5c0,1.4,1.3,2.4,3,2.4
			C230.3,157.6,232.1,156.7,232.6,155z"/>
		<path class="st0" d="M248.7,159c-0.9,0.7-2.1,1.2-3.3,1.2c-2.5,0-4.3-1.8-4.3-4.4v-8.3h-2.2v-3h2.2v-4.2h3.5v4.2h3.5v3h-3.5v7.8
			c0,1,0.6,1.8,1.5,1.8c0.6,0,1.2-0.2,1.5-0.6L248.7,159z"/>
		<path class="st0" d="M251.3,140.1c0-1.1,0.9-2,2.1-2c1.1,0,2,0.9,2,2c0,1.1-0.9,2.1-2,2.1C252.2,142.2,251.3,141.2,251.3,140.1z
			 M251.5,144.5h3.6v15.3h-3.6V144.5z"/>
		<path class="st0" d="M257.7,144.5h3.8l4.5,11.1l4.4-11.1h3.9l-6.5,15.3h-3.4L257.7,144.5z"/>
		<path class="st0" d="M286.8,155.5l2.3,2.4c-1.3,1.4-4,2.4-6.2,2.4c-4.4,0-8-3.4-8-8.1c0-4.6,3.4-8,7.8-8c4.7,0,7.5,3.6,7.5,9.2
			h-11.6c0.4,2.1,2,3.6,4.2,3.6C284.2,157,285.9,156.4,286.8,155.5z M278.6,150.7h8.1c-0.4-1.9-1.7-3.3-3.9-3.3
			C280.8,147.4,279.1,148.6,278.6,150.7z"/>
		<path class="st0" d="M307.3,142.9h-6.5v-3.4h16.7v3.4h-6.5v17h-3.7V142.9z"/>
		<path class="st0" d="M334.5,144.5v15.3h-3.6v-2c-1,1.4-2.7,2.4-4.7,2.4c-3.4,0-5.7-2.5-5.7-5.9v-9.8h3.5v9c0,2.1,1.3,3.6,3.2,3.6
			c1.9,0,3.5-1.3,3.7-2.9v-9.7L334.5,144.5L334.5,144.5z"/>
		<path class="st0" d="M361.8,150.1v9.8h-3.5v-9.2c0-2-1.2-3.4-3-3.4c-2,0-3.4,1.3-3.4,3.2v9.4h-3.5v-9.2c0-2-1.2-3.4-3-3.4
			c-2,0-3.4,1.3-3.4,3.2v9.4h-3.6v-15.3h3.6v2.1c0.8-1.5,2.3-2.4,4.3-2.4c2.2,0,3.9,1.1,4.9,2.9c0.7-1.8,2.7-2.9,5-2.9
			C359.4,144.2,361.8,146.6,361.8,150.1z"/>
		<path class="st0" d="M364.9,152.2c0-4.4,3.8-8,8.2-8c4.4,0,8.2,3.6,8.2,8s-3.8,8-8.2,8S364.9,156.5,364.9,152.2z M377.8,152.2
			c0-2.7-2.1-4.9-4.6-4.9c-2.5,0-4.7,2.2-4.7,4.9c0,2.7,2.1,4.9,4.7,4.9C375.6,157.1,377.8,154.9,377.8,152.2z"/>
		<path class="st0" d="M393.6,144.2v3.1c-3.3,0-5.5,2-5.5,4.9v7.7h-3.6v-15.3h3.6v3C389.1,145.4,391.1,144.2,393.6,144.2z"/>
		<path class="st0" d="M404.9,139.5h3.7v20.4h-3.7V139.5z"/>
		<path class="st0" d="M436,150.1v9.8h-3.5v-9.2c0-2-1.2-3.4-3-3.4c-2,0-3.3,1.3-3.3,3.2v9.4h-3.5v-9.2c0-2-1.2-3.4-3-3.4
			c-2,0-3.3,1.3-3.3,3.2v9.4h-3.6v-15.3h3.6v2.1c0.8-1.5,2.3-2.4,4.3-2.4c2.2,0,3.9,1.1,4.9,2.9c0.7-1.8,2.7-2.9,5-2.9
			C433.6,144.2,436,146.6,436,150.1z"/>
		<path class="st0" d="M453.2,150.6v9.2h-3.5V158c-1.1,1.4-3,2.2-4.8,2.2c-3.3,0-5.7-1.9-5.7-4.9c0-3,2.8-5.1,6.2-5.1
			c1.4,0,2.9,0.3,4.3,0.8v-0.4c0-1.8-1-3.5-3.8-3.5c-1.5,0-2.8,0.5-4.2,1.2l-1.2-2.5c2.2-1.1,4.2-1.6,6.1-1.6
			C450.6,144.2,453.2,146.8,453.2,150.6z M449.6,155v-1.7c-1.1-0.4-2.4-0.6-3.8-0.6c-1.8,0-3.3,1-3.3,2.5c0,1.4,1.3,2.4,3,2.4
			C447.3,157.6,449.2,156.7,449.6,155z"/>
		<path class="st0" d="M472.1,144.5v13.7c0,3.9-3.3,6.7-8,6.7c-2.6,0-5.1-0.9-6.6-2.1l1.3-2.6c1.1,1,2.9,1.6,4.7,1.6
			c3,0,4.9-1.4,4.9-3.8v-2c-1.2,1.6-3,2.6-5.2,2.6c-4,0-6.9-3-6.9-7.3c0-4.3,2.9-7.3,6.9-7.3c2.2,0,4.2,1,5.2,2.6v-2.3L472.1,144.5
			L472.1,144.5z M468.5,151.4c0-2.4-1.8-4.2-4.2-4.2c-2.4,0-4.2,1.8-4.2,4.2c0,2.5,1.8,4.2,4.2,4.2
			C466.7,155.6,468.5,153.9,468.5,151.4z"/>
		<path class="st0" d="M475.9,140.1c0-1.1,0.9-2,2.1-2c1.1,0,2,0.9,2,2c0,1.1-0.9,2.1-2,2.1C476.8,142.2,475.9,141.2,475.9,140.1z
			 M476.2,144.5h3.6v15.3h-3.6V144.5z"/>
		<path class="st0" d="M497.8,150.1v9.8h-3.5v-9c0-2.1-1.3-3.6-3.2-3.6c-1.9,0-3.5,1.3-3.7,2.9v9.7h-3.6v-15.3h3.6v2
			c1-1.4,2.7-2.4,4.7-2.4C495.5,144.2,497.8,146.6,497.8,150.1z"/>
		<path class="st0" d="M516.8,144.5v13.7c0,3.9-3.3,6.7-8,6.7c-2.6,0-5.1-0.9-6.6-2.1l1.3-2.6c1.1,1,2.9,1.6,4.7,1.6
			c3,0,4.9-1.4,4.9-3.8v-2c-1.2,1.6-3,2.6-5.2,2.6c-4,0-6.9-3-6.9-7.3c0-4.3,2.9-7.3,6.9-7.3c2.2,0,4.1,1,5.2,2.6v-2.3L516.8,144.5
			L516.8,144.5z M513.1,151.4c0-2.4-1.7-4.2-4.2-4.2c-2.4,0-4.2,1.8-4.2,4.2c0,2.5,1.8,4.2,4.2,4.2
			C511.4,155.6,513.1,153.9,513.1,151.4z"/>
		<path class="st0" d="M543.3,156.5v3.4h-14.1v-20.4h3.7v17H543.3z"/>
		<path class="st0" d="M559.4,150.6v9.2h-3.5V158c-1.1,1.4-3,2.2-4.8,2.2c-3.3,0-5.7-1.9-5.7-4.9c0-3,2.8-5.1,6.2-5.1
			c1.4,0,2.9,0.3,4.3,0.8v-0.4c0-1.8-1-3.5-3.8-3.5c-1.5,0-2.8,0.5-4.2,1.2l-1.2-2.5c2.2-1.1,4.2-1.6,6.1-1.6
			C556.9,144.2,559.4,146.8,559.4,150.6z M555.9,155v-1.7c-1.1-0.4-2.4-0.6-3.8-0.6c-1.8,0-3.3,1-3.3,2.5c0,1.4,1.3,2.4,3,2.4
			C553.6,157.6,555.5,156.7,555.9,155z"/>
		<path class="st0" d="M579.4,152.2c0,4.7-3,8-7,8c-2.3,0-4.1-1-5.3-2.8v2.4h-3.6v-20.7h3.6v7.8c1.2-1.8,3-2.8,5.3-2.8
			C576.4,144.2,579.4,147.5,579.4,152.2z M575.8,152.2c0-2.9-1.8-4.9-4.4-4.9c-2.5,0-4.3,2.1-4.3,4.9s1.8,4.9,4.3,4.9
			C574,157.1,575.8,155,575.8,152.2z"/>
		<path class="st0" d="M65.6,186.2v9.2H62v-1.8c-1.1,1.4-3.1,2.2-4.8,2.2c-3.3,0-5.7-1.9-5.7-4.9c0-3,2.8-5.1,6.2-5.1
			c1.4,0,2.9,0.3,4.3,0.8v-0.4c0-1.8-1-3.5-3.8-3.5c-1.4,0-2.8,0.5-4.1,1.2l-1.2-2.5c2.2-1.1,4.2-1.6,6.1-1.6
			C63.1,179.7,65.6,182.3,65.6,186.2z M62,190.6v-1.7c-1.1-0.4-2.4-0.6-3.8-0.6c-1.8,0-3.3,1-3.3,2.5c0,1.5,1.3,2.4,3,2.4
			C59.8,193.1,61.6,192.2,62,190.6z"/>
		<path class="st0" d="M78.2,194.6c-0.9,0.7-2.1,1.2-3.3,1.2c-2.6,0-4.3-1.8-4.3-4.4v-8.3h-2.2v-3h2.2v-4.2h3.5v4.2h3.5v3h-3.5v7.8
			c0,1,0.6,1.8,1.5,1.8c0.6,0,1.2-0.2,1.5-0.6L78.2,194.6z"/>
		<path class="st0" d="M98.1,194.6c-0.9,0.7-2.1,1.2-3.3,1.2c-2.6,0-4.3-1.8-4.3-4.4v-8.3h-2.2v-3h2.2v-4.2H94v4.2h3.5v3H94v7.8
			c0,1,0.6,1.8,1.5,1.8c0.6,0,1.2-0.2,1.5-0.6L98.1,194.6z"/>
		<path class="st0" d="M114.9,185.7v9.8h-3.5v-9c0-2.1-1.3-3.6-3.2-3.6c-2.1,0-3.7,1.5-3.7,3.3v9.3h-3.6v-20.7h3.6v7.5
			c0.9-1.5,2.7-2.5,4.8-2.5C112.6,179.7,114.9,182.2,114.9,185.7z"/>
		<path class="st0" d="M129.9,191l2.3,2.4c-1.3,1.4-4,2.4-6.2,2.4c-4.4,0-8-3.4-8-8.1c0-4.6,3.4-8,7.8-8c4.7,0,7.5,3.6,7.5,9.2
			h-11.6c0.4,2.1,2.1,3.6,4.2,3.6C127.4,192.6,129.1,191.9,129.9,191z M121.8,186.2h8.1c-0.4-1.9-1.7-3.3-3.9-3.3
			C123.9,182.9,122.3,184.2,121.8,186.2z"/>
		<path class="st0" d="M145.2,175.1h3.7l6.7,12.4l6.7-12.4h3.7v20.4h-3.7v-13.6l-6.7,12.4l-6.7-12.4v13.6h-3.7V175.1z"/>
		<path class="st0" d="M183.7,186.2v9.2h-3.5v-1.8c-1.1,1.4-3,2.2-4.8,2.2c-3.3,0-5.7-1.9-5.7-4.9c0-3,2.8-5.1,6.2-5.1
			c1.4,0,2.9,0.3,4.3,0.8v-0.4c0-1.8-1-3.5-3.8-3.5c-1.5,0-2.8,0.5-4.1,1.2l-1.2-2.5c2.2-1.1,4.2-1.6,6.1-1.6
			C181.1,179.7,183.7,182.3,183.7,186.2z M180.1,190.6v-1.7c-1.1-0.4-2.4-0.6-3.8-0.6c-1.8,0-3.3,1-3.3,2.5c0,1.5,1.3,2.4,3,2.4
			C177.8,193.1,179.7,192.2,180.1,190.6z"/>
		<path class="st0" d="M196.8,179.7v3.1c-3.3,0-5.5,2-5.5,4.9v7.7h-3.6v-15.3h3.6v3C192.2,181,194.2,179.7,196.8,179.7z"/>
		<path class="st0" d="M208.1,194.6c-0.9,0.7-2.1,1.2-3.3,1.2c-2.5,0-4.3-1.8-4.3-4.4v-8.3h-2.2v-3h2.2v-4.2h3.5v4.2h3.5v3H204v7.8
			c0,1,0.6,1.8,1.5,1.8c0.6,0,1.2-0.2,1.5-0.6L208.1,194.6z"/>
		<path class="st0" d="M210.7,175.7c0-1.1,0.9-2,2.1-2c1.1,0,2,0.9,2,2c0,1.1-0.9,2.1-2,2.1C211.6,177.8,210.7,176.8,210.7,175.7z
			 M210.9,180.1h3.6v15.3h-3.6V180.1z"/>
		<path class="st0" d="M232.6,185.7v9.8h-3.5v-9c0-2.1-1.3-3.6-3.2-3.6c-1.9,0-3.5,1.3-3.7,2.9v9.7h-3.6v-15.3h3.6v2
			c1-1.4,2.7-2.4,4.7-2.4C230.2,179.7,232.6,182.2,232.6,185.7z"/>
		<path class="st0" d="M235.7,187.7c0-4.4,3.8-8,8.2-8c4.4,0,8.2,3.6,8.2,8c0,4.4-3.8,8-8.2,8C239.5,195.8,235.7,192.1,235.7,187.7z
			 M248.6,187.7c0-2.7-2.1-4.9-4.6-4.9c-2.5,0-4.7,2.2-4.7,4.9c0,2.7,2.1,5,4.7,5C246.4,192.7,248.6,190.4,248.6,187.7z"/>
		<path class="st0" d="M254.2,193.5l1.6-2.5c1.5,1.1,3.2,1.8,5.1,1.8c1.5,0,2.5-0.6,2.5-1.6c0-1.2-1.3-1.6-3.1-2
			c-3.3-0.9-5.4-1.8-5.5-4.5c0-2.9,2.4-4.8,5.8-4.8c2.1,0,4.2,0.7,5.9,1.8l-1.5,2.6c-1.5-0.9-3-1.4-4.4-1.4c-1.3,0-2.2,0.5-2.2,1.4
			c0,1,0.8,1.3,3.1,2c2.6,0.7,5.4,1.6,5.4,4.8c0,2.9-2.4,4.8-6,4.8C258.6,195.8,256.1,194.9,254.2,193.5z"/>
		<path class="st0" d="M277.8,185.2c0-5.7,4.9-10.5,10.7-10.5c3,0,5.7,1.3,7.7,3.3l-2.6,2.5c-1.2-1.4-3.1-2.4-5-2.4
			c-3.8,0-6.9,3.3-6.9,7.1c0,3.9,3.2,7.2,6.9,7.2c2,0,3.8-0.9,5.1-2.4l2.6,2.4c-2,2-4.7,3.3-7.7,3.3
			C282.7,195.8,277.8,190.9,277.8,185.2z"/>
		<path class="st0" d="M310,191l2.3,2.4c-1.3,1.4-4,2.4-6.2,2.4c-4.4,0-8-3.4-8-8.1c0-4.6,3.4-8,7.8-8c4.7,0,7.5,3.6,7.5,9.2h-11.6
			c0.4,2.1,2,3.6,4.2,3.6C307.5,192.6,309.2,191.9,310,191z M301.9,186.2h8.1c-0.4-1.9-1.7-3.3-3.9-3.3
			C304,182.9,302.4,184.2,301.9,186.2z"/>
		<path class="st0" d="M330.6,185.7v9.8h-3.5v-9c0-2.1-1.3-3.6-3.2-3.6c-1.9,0-3.5,1.3-3.7,2.9v9.7h-3.6v-15.3h3.6v2
			c1-1.4,2.7-2.4,4.7-2.4C328.2,179.7,330.6,182.2,330.6,185.7z"/>
		<path class="st0" d="M343.2,194.6c-0.9,0.7-2.1,1.2-3.3,1.2c-2.5,0-4.3-1.8-4.3-4.4v-8.3h-2.2v-3h2.2v-4.2h3.5v4.2h3.5v3h-3.5v7.8
			c0,1,0.6,1.8,1.5,1.8c0.6,0,1.2-0.2,1.5-0.6L343.2,194.6z"/>
		<path class="st0" d="M357.1,191l2.3,2.4c-1.3,1.4-4,2.4-6.2,2.4c-4.4,0-8-3.4-8-8.1c0-4.6,3.4-8,7.8-8c4.7,0,7.5,3.6,7.5,9.2
			h-11.6c0.4,2.1,2,3.6,4.2,3.6C354.5,192.6,356.2,191.9,357.1,191z M348.9,186.2h8.1c-0.4-1.9-1.7-3.3-3.9-3.3
			C351.1,182.9,349.4,184.2,348.9,186.2z"/>
		<path class="st0" d="M372.8,179.7v3.1c-3.3,0-5.5,2-5.5,4.9v7.7h-3.6v-15.3h3.6v3C368.3,181,370.3,179.7,372.8,179.7z"/>
	</g>
	<g>
		<path class="st0" d="M104.1,92.5l6.4,5.6l-6.1,7.1l-6.8-5.9c-5.6,4.4-12.7,7-20.2,7c-18.1,0-33.4-15.1-33.4-32.9
			s15.2-32.8,33.4-32.8c18,0,33.3,15,33.3,32.8C110.5,80.5,108.1,87.1,104.1,92.5z M89.1,91.9l-8.2-7.2l6.1-7.1l8.5,7.4
			c2-3.4,3.2-7.4,3.2-11.6c0-12.1-9.8-22.3-21.4-22.3c-11.7,0-21.6,10.2-21.6,22.3c0,12.2,9.9,22.4,21.6,22.4
			C81.6,95.7,85.7,94.3,89.1,91.9z"/>
		<path class="st0" d="M133.2,52.2h-20.3V41.6H165v10.5h-20.3v53h-11.5V52.2z"/>
		<path class="st0" d="M175.1,41.6h11.5v63.5h-11.5V41.6z"/>
		<path class="st0" d="M200.7,41.6h11.6l20.9,38.7l21-38.7h11.5v63.5h-11.5V62.7l-21,38.7l-20.9-38.7v42.4h-11.6L200.7,41.6
			L200.7,41.6z"/>
	</g>
</g>
</svg>
