<?xml version="1.0" encoding="utf-8"?>
<!-- Generator: Adobe Illustrator 23.0.0, SVG Export Plug-In . SVG Version: 6.00 Build 0)  -->
<svg version="1.1" id="Layer_1" xmlns="http://www.w3.org/2000/svg" xmlns:xlink="http://www.w3.org/1999/xlink" x="0px" y="0px"
	 viewBox="0 0 736 147" style="enable-background:new 0 0 736 147;" xml:space="preserve">
<style type="text/css">
	.st0{fill:#FFFFFF;}
</style>
<g>
	<g>
		<path class="st0" d="M102.9,82.2c0,8.4,0.2,16.2-5.9,22.9c-5.2,5.7-13.4,8.3-21.1,8.5l-7.5,0c-7.7-0.2-15.8-2.7-21.1-8.4
			c-6.2-6.8-5.9-14.6-5.9-22.9V51.3c0-5.2,0.8-13.7-5.1-15.9V35h22.1v0.4c-5.8,2.2-5.1,10.7-5.1,15.9v31.1
			c0,15.5,6.5,22.7,18.5,22.7c6.5,0,13.2-2.7,17-8.1c2.6-3.5,2.4-6.4,2.4-10.6v-35c0-5.2,0.7-13.7-5.1-15.9V35h22.1l0.1,0.4
			c-5.9,2.2-5.2,10.7-5.2,16.1L102.9,82.2L102.9,82.2z"/>
		<path class="st0" d="M137.7,44.9l-14.5,37.9l-6.1,16.4c-2.4,6.5-3.3,9.9,2.3,12v0.4H98v-0.4c6.8-3.4,8.7-9.9,11.3-16.5l19.4-48.5
			c1.6-4.2,3.8-9.1-1.8-10.8V35h18.4l24.2,59.7c2.7,6.6,4.8,13.2,11.4,16.5v0.4h-23.9v-0.4c5.7-2.6,4.8-3.8,1.6-12l-6.3-16.4
			L137.7,44.9L137.7,44.9z"/>
		<path class="st0" d="M248.4,42.3c0.9-2.4,1.8-4.8,1.8-7.2V35h20.1v0.4c-2.8,0.8-3.6,4.2-3.6,6.9l7.7,57.1
			c0.7,5.5,1.3,8.6,5.9,11.9v0.4h-22.5v-0.4c4.1-1.3,4.8-4.8,4.8-8.7L256,46.4l-26.1,66.7c-5.8-4.4-7.5-7.6-10.2-14.1l-22.1-52.5
			l-6.6,50.1c-0.9,7.1-1.8,12.2,3.7,14.7v0.4h-19v-0.4c4.9-4.3,5.6-10,6.5-16.3l6.6-48.8c0.5-3.3,1.7-7.9-3.6-10.8V35h20.4v0.1
			c0,1.9,0.9,3.6,1.6,5.2l21.9,51.3L248.4,42.3L248.4,42.3z"/>
		<path class="st0" d="M326.5,48.9c-4.5-4.7-11.8-7.3-18.3-7.3c-6.6,0-15,2.6-15,10.6c0,15.9,40,15.7,40,37.2
			c0,12.5-13,24.1-31.2,24.1c-7.1,0-14.2-1-20.8-3.5l-3.4-14.6c6.9,5.9,16.4,9.7,25.5,9.7c6.6,0,16.6-3.9,16.6-12.1
			c0-18.1-40-14.9-40-39.6c0-14.6,15-20.2,29.2-20.2c5.8,0,11.8,0.8,17.3,2.6V48.9L326.5,48.9z"/>
		<path class="st0" d="M137.9,98.1c5.4,0,9.7-4.4,9.7-9.8s-4.4-9.7-9.7-9.7c-5.4,0-9.8,4.4-9.8,9.7S132.5,98.1,137.9,98.1
			L137.9,98.1z"/>
	</g>
	<g>
		<rect x="358.6" y="33" class="st0" width="2.2" height="80.2"/>
	</g>
	<g>
		<g>
			<path class="st0" d="M380.6,58.1V46.5h3.6V58c0,3.8,1.9,5.8,5.1,5.8c3.1,0,5.1-1.9,5.1-5.6V46.5h3.6v11.5c0,6.1-3.4,9.1-8.7,9.1
				C383.9,67,380.6,64,380.6,58.1z"/>
			<path class="st0" d="M401.3,51.5h3.5v2.4c1-1.4,2.4-2.7,4.8-2.7c3.4,0,5.4,2.3,5.4,5.9v9.7h-3.5V58c0-2.4-1.2-3.7-3.3-3.7
				c-2,0-3.4,1.4-3.4,3.8v8.6h-3.5V51.5z"/>
			<path class="st0" d="M419.1,45.8h3.8v3.3h-3.8V45.8z M419.2,51.5h3.5v15.3h-3.5V51.5z"/>
			<path class="st0" d="M425.4,51.5h3.8l4.1,11.2l4.1-11.2h3.7l-6.2,15.4h-3.1L425.4,51.5z"/>
			<path class="st0" d="M442.3,59.1L442.3,59.1c0-4.4,3.1-8,7.5-8c4.9,0,7.3,3.8,7.3,8.2c0,0.3,0,0.6-0.1,1h-11.2
				c0.4,2.5,2.1,3.9,4.4,3.9c1.7,0,2.9-0.6,4.1-1.8l2,1.8c-1.5,1.7-3.4,2.9-6.2,2.9C445.7,67.1,442.3,63.9,442.3,59.1z M453.6,58
				c-0.2-2.3-1.6-4-3.9-4c-2.1,0-3.6,1.6-4,4H453.6z"/>
			<path class="st0" d="M460.5,51.5h3.5v3.4c1-2.3,2.7-3.9,5.4-3.7v3.7h-0.2c-3.1,0-5.2,2-5.2,6v5.8h-3.5V51.5z"/>
			<path class="st0" d="M471.1,64.7l1.6-2.4c1.6,1.2,3.4,1.9,5,1.9c1.5,0,2.4-0.6,2.4-1.6v-0.1c0-1.2-1.6-1.6-3.4-2.1
				c-2.3-0.6-4.8-1.6-4.8-4.5v-0.1c0-2.9,2.4-4.7,5.4-4.7c1.9,0,4,0.7,5.6,1.7l-1.4,2.5c-1.5-0.9-3-1.4-4.3-1.4
				c-1.4,0-2.1,0.6-2.1,1.5v0.1c0,1.1,1.7,1.6,3.4,2.1c2.2,0.7,4.7,1.7,4.7,4.4v0.1c0,3.2-2.5,4.8-5.7,4.8
				C475.4,67,473,66.2,471.1,64.7z"/>
			<path class="st0" d="M486.6,45.8h3.8v3.3h-3.8V45.8z M486.8,51.5h3.5v15.3h-3.5V51.5z"/>
			<path class="st0" d="M495.2,62.5v-8h-1.9v-3h1.9v-4.2h3.5v4.2h4.1v3h-4.1V62c0,1.4,0.7,1.9,1.9,1.9c0.8,0,1.5-0.2,2.2-0.5v2.9
				c-0.9,0.5-1.8,0.8-3.2,0.8C497.1,67,495.2,65.9,495.2,62.5z"/>
			<path class="st0" d="M506,70.5l1.2-2.6c0.6,0.4,1.3,0.6,2,0.6c1,0,1.6-0.4,2.2-1.8l-6.4-15.3h3.7l4.3,11.3l4-11.3h3.6l-6.1,15.7
				c-1.2,3.1-2.6,4.3-5,4.3C508.2,71.4,507.1,71.1,506,70.5z"/>
			<path class="st0" d="M529.6,59.2L529.6,59.2c0-4.4,3.5-8,8.2-8c4.7,0,8.1,3.6,8.1,7.9v0.1c0,4.3-3.5,8-8.2,8
				C533,67.1,529.6,63.5,529.6,59.2z M542.4,59.2L542.4,59.2c0-2.8-1.9-5-4.7-5c-2.8,0-4.6,2.2-4.6,4.9v0.1c0,2.7,1.9,4.9,4.7,4.9
				C540.6,64,542.4,61.8,542.4,59.2z"/>
			<path class="st0" d="M549.7,54.5h-1.9v-2.9h1.9v-1.1c0-1.7,0.4-3,1.2-3.8c0.8-0.8,1.9-1.2,3.4-1.2c1.2,0,2,0.2,2.8,0.4v2.9
				c-0.7-0.2-1.3-0.4-2-0.4c-1.3,0-2,0.7-2,2.3v0.8h4v2.9h-4v12.3h-3.5V54.5z"/>
			<path class="st0" d="M574.1,46.3h3.3l8.9,20.4h-3.8l-2-4.9h-9.6l-2.1,4.9h-3.7L574.1,46.3z M579.2,58.7l-3.5-8.1l-3.5,8.1H579.2z
				"/>
			<path class="st0" d="M588.6,51.5h3.5v3.4c0.9-2.3,2.7-3.9,5.4-3.7v3.7h-0.2c-3.1,0-5.2,2-5.2,6v5.8h-3.5L588.6,51.5L588.6,51.5z"
				/>
			<path class="st0" d="M600.2,45.6h3.5v12.6l6.3-6.8h4.2l-6.1,6.2l6.3,9.1h-4.1l-4.6-6.6l-2.1,2.2v4.4h-3.5L600.2,45.6L600.2,45.6z
				"/>
			<path class="st0" d="M626,66.7v-1.9c-1,1.2-2.6,2.2-5,2.2c-2.9,0-5.4-1.6-5.4-4.7v-0.1c0-3.4,2.6-5,6.2-5c1.8,0,3,0.3,4.2,0.6
				v-0.3c0-2.1-1.3-3.3-3.8-3.3c-1.7,0-3,0.4-4.4,1l-0.9-2.8c1.7-0.8,3.3-1.3,5.8-1.3c4.5,0,6.7,2.4,6.7,6.4v9.1L626,66.7L626,66.7z
				 M626.1,60.3c-0.9-0.4-2.1-0.6-3.5-0.6c-2.2,0-3.5,0.9-3.5,2.4v0.1c0,1.4,1.3,2.3,2.9,2.3c2.3,0,4.1-1.3,4.1-3.2V60.3z"/>
			<path class="st0" d="M633.1,51.5h3.5v2.4c1-1.4,2.4-2.7,4.8-2.7c3.4,0,5.4,2.3,5.4,5.9v9.7h-3.5V58c0-2.4-1.2-3.7-3.3-3.7
				c-2,0-3.4,1.4-3.4,3.8v8.6h-3.5V51.5z"/>
			<path class="st0" d="M649.7,64.7l1.6-2.4c1.7,1.2,3.4,1.9,5,1.9c1.5,0,2.4-0.6,2.4-1.6v-0.1c0-1.2-1.6-1.6-3.4-2.1
				c-2.3-0.6-4.8-1.6-4.8-4.5v-0.1c0-2.9,2.4-4.7,5.4-4.7c1.9,0,4,0.7,5.6,1.7l-1.4,2.5c-1.5-0.9-3-1.4-4.3-1.4
				c-1.4,0-2.1,0.6-2.1,1.5v0.1c0,1.1,1.7,1.6,3.4,2.1c2.2,0.7,4.8,1.7,4.8,4.4v0.1c0,3.2-2.5,4.8-5.7,4.8
				C654,67,651.6,66.2,649.7,64.7z"/>
			<path class="st0" d="M674.6,66.7v-1.9c-1,1.2-2.6,2.2-5,2.2c-2.9,0-5.4-1.6-5.4-4.7v-0.1c0-3.4,2.6-5,6.2-5c1.8,0,3,0.3,4.2,0.6
				v-0.3c0-2.1-1.3-3.3-3.8-3.3c-1.7,0-3,0.4-4.4,1l-0.9-2.8c1.7-0.8,3.3-1.3,5.8-1.3c4.5,0,6.7,2.4,6.7,6.4v9.1L674.6,66.7
				L674.6,66.7z M674.7,60.3c-0.9-0.4-2.1-0.6-3.5-0.6c-2.2,0-3.5,0.9-3.5,2.4v0.1c0,1.4,1.3,2.3,3,2.3c2.3,0,4-1.3,4-3.2V60.3z"/>
			<path class="st0" d="M681,64.7l1.6-2.4c1.7,1.2,3.4,1.9,5,1.9c1.5,0,2.4-0.6,2.4-1.6v-0.1c0-1.2-1.6-1.6-3.4-2.1
				c-2.3-0.6-4.8-1.6-4.8-4.5v-0.1c0-2.9,2.4-4.7,5.4-4.7c1.9,0,4,0.7,5.6,1.7l-1.4,2.5c-1.5-0.9-3-1.4-4.3-1.4
				c-1.4,0-2.1,0.6-2.1,1.5v0.1c0,1.1,1.7,1.6,3.4,2.1c2.2,0.7,4.8,1.7,4.8,4.4v0.1c0,3.2-2.5,4.8-5.7,4.8
				C685.3,67,682.9,66.2,681,64.7z"/>
			<path class="st0" d="M381.3,87.8h-1.9v-2.9h1.9v-1.1c0-1.7,0.4-3,1.2-3.8s1.9-1.2,3.4-1.2c1.2,0,2,0.2,2.8,0.4v2.9
				c-0.7-0.2-1.3-0.4-2-0.4c-1.3,0-2,0.7-2,2.3v0.8h4v2.9h-4v12.3h-3.5V87.8z"/>
			<path class="st0" d="M389.6,92.5L389.6,92.5c0-4.4,3.5-8,8.2-8s8.1,3.6,8.1,7.9v0.1c0,4.3-3.5,7.9-8.2,7.9
				C393.1,100.4,389.6,96.9,389.6,92.5z M402.4,92.5L402.4,92.5c0-2.8-1.9-5-4.7-5c-2.8,0-4.6,2.2-4.6,4.9v0.1
				c0,2.7,1.9,4.9,4.7,4.9C400.6,97.4,402.4,95.2,402.4,92.5z"/>
			<path class="st0" d="M408.8,84.8h3.5v3.4c1-2.3,2.7-3.9,5.4-3.7v3.7h-0.2c-3.1,0-5.2,2-5.2,6v5.8h-3.5V84.8z"/>
			<path class="st0" d="M426.8,79.9h3.8l6.2,9.6l6.2-9.6h3.8v20.2h-3.6V85.6l-6.4,9.6h-0.1l-6.3-9.5v14.5h-3.5L426.8,79.9
				L426.8,79.9z"/>
			<path class="st0" d="M449.5,92.5L449.5,92.5c0-4.4,3.1-8,7.5-8c4.9,0,7.3,3.8,7.3,8.2c0,0.3,0,0.6-0.1,1H453
				c0.4,2.5,2.1,3.9,4.4,3.9c1.7,0,2.9-0.6,4.1-1.8l2,1.8c-1.5,1.7-3.4,2.9-6.2,2.9C452.9,100.4,449.5,97.2,449.5,92.5z M460.8,91.4
				c-0.2-2.3-1.6-4-3.9-4c-2.1,0-3.6,1.6-4,4H460.8z"/>
			<path class="st0" d="M466.3,92.5L466.3,92.5c0-5.1,3.4-8,7.1-8c2.5,0,4.1,1.3,5.2,2.7V79h3.5v21.1h-3.5v-2.5
				c-1.1,1.6-2.7,2.9-5.2,2.9C469.8,100.4,466.3,97.6,466.3,92.5z M478.7,92.5L478.7,92.5c0-3-2.1-4.9-4.4-4.9
				c-2.4,0-4.4,1.9-4.4,4.9v0.1c0,2.9,2,4.9,4.4,4.9C476.6,97.4,478.7,95.4,478.7,92.5z"/>
			<path class="st0" d="M485.8,79.2h3.8v3.3h-3.8V79.2z M485.9,84.8h3.5v15.3h-3.5V84.8z"/>
			<path class="st0" d="M492.3,92.5L492.3,92.5c0-4.4,3.3-8,7.9-8c2.9,0,4.7,1.1,6.1,2.6l-2.2,2.3c-1.1-1.1-2.2-1.9-4-1.9
				c-2.5,0-4.4,2.2-4.4,4.9v0.1c0,2.7,1.9,4.9,4.6,4.9c1.7,0,2.9-0.8,4-1.9l2.1,2.1c-1.5,1.7-3.3,2.9-6.2,2.9
				C495.7,100.4,492.3,96.9,492.3,92.5z"/>
			<path class="st0" d="M518.5,100.1v-1.9c-1,1.2-2.6,2.2-4.9,2.2c-2.9,0-5.4-1.6-5.4-4.7v-0.1c0-3.4,2.6-5,6.2-5
				c1.8,0,3,0.3,4.2,0.6V91c0-2.1-1.3-3.3-3.8-3.3c-1.7,0-3,0.4-4.4,1l-1-2.8c1.7-0.8,3.3-1.3,5.8-1.3c4.5,0,6.7,2.4,6.7,6.4v9.1
				L518.5,100.1L518.5,100.1z M518.5,93.7c-0.9-0.4-2.1-0.6-3.5-0.6c-2.2,0-3.5,0.9-3.5,2.4v0.1c0,1.4,1.3,2.3,2.9,2.3
				c2.3,0,4.1-1.3,4.1-3.2V93.7z"/>
			<path class="st0" d="M525.6,79h3.5v21.1h-3.5V79z"/>
			<path class="st0" d="M538.3,97.1l2.1-2.5c1.9,1.7,3.9,2.6,6.4,2.6c2.2,0,3.6-1,3.6-2.5v-0.1c0-1.4-0.8-2.2-4.6-3.1
				c-4.3-1-6.7-2.3-6.7-6v-0.1c0-3.5,2.9-5.9,6.9-5.9c2.9,0,5.3,0.9,7.3,2.6l-1.9,2.7c-1.8-1.4-3.7-2.1-5.5-2.1
				c-2.1,0-3.3,1.1-3.3,2.4v0.1c0,1.6,0.9,2.3,4.8,3.2c4.3,1,6.5,2.6,6.5,5.9v0.1c0,3.8-3,6-7.2,6
				C543.7,100.4,540.8,99.3,538.3,97.1z"/>
			<path class="st0" d="M556.3,92.5L556.3,92.5c0-4.4,3.3-8,7.9-8c2.9,0,4.7,1.1,6.1,2.6l-2.2,2.3c-1.1-1.1-2.2-1.9-4-1.9
				c-2.5,0-4.4,2.2-4.4,4.9v0.1c0,2.7,1.9,4.9,4.6,4.9c1.7,0,2.9-0.8,4-1.9l2.1,2.1c-1.5,1.7-3.3,2.9-6.2,2.9
				C559.6,100.4,556.3,96.9,556.3,92.5z"/>
			<path class="st0" d="M572.7,79.2h3.8v3.3h-3.8V79.2z M572.8,84.8h3.5v15.3h-3.5V84.8z"/>
			<path class="st0" d="M579.2,92.5L579.2,92.5c0-4.4,3.1-8,7.5-8c4.9,0,7.3,3.8,7.3,8.2c0,0.3,0,0.6-0.1,1h-11.2
				c0.4,2.5,2.1,3.9,4.4,3.9c1.7,0,2.9-0.6,4.1-1.8l2.1,1.8c-1.5,1.7-3.4,2.9-6.2,2.9C582.6,100.4,579.2,97.2,579.2,92.5z
				 M590.5,91.4c-0.2-2.3-1.6-4-3.9-4c-2.1,0-3.6,1.6-4,4H590.5z"/>
			<path class="st0" d="M596.8,84.8h3.5v2.4c1-1.4,2.4-2.7,4.8-2.7c3.4,0,5.4,2.3,5.4,5.9v9.7H607v-8.7c0-2.4-1.2-3.7-3.3-3.7
				c-2,0-3.4,1.4-3.4,3.8v8.6h-3.5V84.8z"/>
			<path class="st0" d="M613.2,92.5L613.2,92.5c0-4.4,3.3-8,7.9-8c2.9,0,4.7,1.1,6.1,2.6l-2.2,2.3c-1.1-1.1-2.2-1.9-4-1.9
				c-2.5,0-4.4,2.2-4.4,4.9v0.1c0,2.7,1.9,4.9,4.6,4.9c1.7,0,2.9-0.8,4-1.9l2.1,2.1c-1.5,1.7-3.3,2.9-6.2,2.9
				C616.6,100.4,613.2,96.9,613.2,92.5z"/>
			<path class="st0" d="M628.6,92.5L628.6,92.5c0-4.4,3.1-8,7.5-8c4.9,0,7.3,3.8,7.3,8.2c0,0.3,0,0.6-0.1,1h-11.2
				c0.4,2.5,2.1,3.9,4.4,3.9c1.7,0,2.9-0.6,4.1-1.8l2.1,1.8c-1.5,1.7-3.4,2.9-6.2,2.9C632,100.4,628.6,97.2,628.6,92.5z M639.9,91.4
				c-0.2-2.3-1.6-4-3.9-4c-2.1,0-3.6,1.6-4,4H639.9z"/>
			<path class="st0" d="M644.9,98.1l1.6-2.4c1.7,1.2,3.4,1.9,5,1.9c1.5,0,2.4-0.6,2.4-1.6v-0.1c0-1.2-1.6-1.6-3.4-2.1
				c-2.3-0.6-4.8-1.6-4.8-4.5v-0.1c0-2.9,2.4-4.7,5.4-4.7c1.9,0,4,0.7,5.6,1.7l-1.4,2.5c-1.5-0.9-3-1.4-4.3-1.4
				c-1.4,0-2.1,0.6-2.1,1.5v0.1c0,1.1,1.7,1.6,3.4,2.1c2.2,0.7,4.8,1.7,4.8,4.4v0.1c0,3.2-2.5,4.8-5.7,4.8
				C649.2,100.4,646.8,99.6,644.9,98.1z"/>
		</g>
	</g>
	<g>
		<path class="st0" d="M339,106.6c0-1.3-1-1.9-2.3-1.9H334v5.7h1.4v-1.8h0.9l1.2,1.8h1.7l-1.5-2.1C338.5,108.1,339,107.5,339,106.6z
			 M336.6,107.5h-1.2v-1.6h1.2c0.6,0,1,0.3,1,0.8C337.5,107.1,337.2,107.5,336.6,107.5z"/>
		<path class="st0" d="M336.2,101.8c-3.2,0-5.9,2.6-5.9,5.9c0,3.2,2.6,5.9,5.9,5.9s5.9-2.6,5.9-5.9S339.5,101.8,336.2,101.8z
			 M341.1,107.6L341.1,107.6c0,2.7-2.1,5-4.9,5c-2.8,0-4.9-2.2-4.9-4.9v0c0-2.7,2.1-4.9,4.9-4.9C339,102.7,341.1,104.9,341.1,107.6z
			"/>
	</g>
</g>
</svg>
